;TYPE=PLATED
;Layer: PTH_Through
;EasyEDA Pro v3.2.148, 2026-07-22 20:08:30
;Gerber Generator version 0.3
M48
METRIC,LZ,0000.00000
;Hole size 1 = 0.29972 METRIC
T01C0.29972
;Hole size 2 = 0.30000 METRIC
T02C0.30000
;Hole size 3 = 0.80000 METRIC
T03C0.80000
;Hole size 4 = 0.91440 METRIC
T04C0.91440
;Hole size 5 = 1.00000 METRIC
T05C1.00000
;Hole size 6 = 1.10002 METRIC
T06C1.10002
;Hole size 7 = 1.20000 METRIC
T07C1.20000
;Hole size 8 = 1.60000 METRIC
T08C1.60000
;Hole size 9 = 3.20000 METRIC
T09C3.20000
%
G05
G90
T01
X-87.58599Y-46.97845
X-71.6508Y-24.6638
X-71.6508Y-22.9112
X-69.9591Y-27.8541
X-71.0687Y-28.9797
X-55.44303Y-33.1728
X-54.4042Y-33.1728
X-63.8022Y-33.9602
X-62.65638Y-33.9602
X-71.12003Y-19.28162
X-73.9368Y-26.85373
X-55.44303Y-31.82917
X-74.9528Y-26.85373
X-74.9528Y-25.83773
X-75.9688Y-26.85373
X-75.9688Y-27.86973
X-75.9688Y-30.7598
X-76.9848Y-30.7598
X-74.9528Y-30.7598
X-40.3326Y-27.1276
X-38.07849Y-38.33549
X-99.03818Y-37.36998
X-75.1814Y-39.0402
X-82.37819Y-37.43141
X-71.99796Y-44.7298
X-38.23634Y-10.32063
X-35.03426Y-10.32063
X-31.83218Y-10.32063
X-28.63011Y-10.32063
X-25.42803Y-10.32063
X-22.22596Y-10.32063
X-41.43841Y-10.32063
X-41.43841Y-13.95283
X-22.22596Y-13.95283
X-35.03426Y-13.95283
X-31.83218Y-13.95283
X-28.63011Y-13.95283
X-25.42803Y-13.95283
X-38.23634Y-13.95283
X-22.22596Y-17.58503
X-22.22596Y-21.21723
X-105.6614Y-0.9471
X-100.5814Y-0.9471
X-95.5014Y-0.9471
X-90.4214Y-0.9471
X-85.3414Y-0.9471
X-80.2614Y-0.9471
X-105.6614Y-6.26032
X-105.6614Y-11.57354
X-105.6614Y-16.88676
X-105.6614Y-22.19998
X-105.6614Y-27.51319
X-105.6614Y-32.82641
X-105.6614Y-38.13963
X-105.6614Y-43.45285
X-105.6614Y-48.76607
X-105.6614Y-54.07928
X-105.6614Y-59.3925
X-100.5814Y-59.3925
X-80.2614Y-59.3925
X-75.1814Y-59.3925
X-70.1014Y-59.3925
X-65.0214Y-59.3925
X-59.9414Y-59.3925
X-54.8614Y-59.3925
X-49.7814Y-59.3925
X-44.7014Y-59.3925
X-39.6214Y-59.3925
X-34.5414Y-59.3925
X-19.3014Y-59.3925
X-14.2214Y-59.3925
X-10.1066Y-59.3925
X-0.9118Y-59.3925
X-0.9118Y-27.51319
X-0.9118Y-32.82641
X-0.9118Y-38.13963
X-0.9118Y-43.45285
X-0.9118Y-48.76607
X-0.9118Y-54.07928
X-0.9118Y-0.9471
X-0.9118Y-6.26032
X-0.9118Y-11.57354
X-0.9118Y-16.88676
X-0.9118Y-22.19998
X-5.9918Y-0.9471
X-11.0718Y-0.9471
X-16.1518Y-0.9471
X-6.98596Y-17.58503
X-12.06596Y-17.58503
X-17.14596Y-17.58503
X-6.98596Y-21.21723
X-12.06596Y-21.21723
X-17.14596Y-21.21723
X-5.9918Y-6.26032
X-5.9918Y-11.57354
X-12.06596Y-26.62743
X-17.14596Y-26.62743
X-22.22596Y-26.62743
X-27.30596Y-26.62743
X-12.06596Y-29.82783
X-17.14596Y-29.82783
X-22.22596Y-29.82783
X-27.30596Y-29.82783
X-32.38596Y-29.82783
X-37.46596Y-29.82783
X-12.06596Y-35.14105
X-6.75274Y-35.14105
X-6.75274Y-40.45427
X-6.75274Y-45.76749
X-6.75274Y-51.0807
X-80.2614Y-4.5793
X-85.3414Y-4.5793
X-90.4214Y-4.5793
X-95.5014Y-4.5793
X-100.5814Y-6.26032
X-100.5814Y-11.57354
X-100.5814Y-16.88676
X-100.5814Y-22.19998
X-100.5306Y-54.0262
X-100.6576Y-48.7176
X-84.1476Y-46.8888
X-79.474Y-46.8888
X-75.2322Y-46.8888
X-79.5502Y-51.3846
X-75.156Y-51.7402
X-75.1052Y-42.139
X-75.8926Y-34.6968
X-82.4966Y-33.6808
X-68.8822Y-32.8426
X-65.0468Y-32.6648
X-60.932Y-32.995
X-65.0722Y-54.3056
X-60.0684Y-53.95
X-65.2754Y-50.0638
X-60.2462Y-50.14
X-68.3742Y-50.2162
X-68.5774Y-45.6696
X-65.4278Y-45.695
X-60.2462Y-45.9998
X-68.6028Y-40.5642
X-65.6056Y-40.742
X-60.2716Y-41.0214
X-68.3996Y-35.9414
X-65.631Y-35.916
X-60.2208Y-36.1954
X-100.3528Y-27.4324
X-96.5174Y-28.5246
X-92.3264Y-28.6008
X-92.4026Y-24.613
X-88.491Y-24.613
X-84.5794Y-24.613
X-92.4026Y-20.7014
X-92.4026Y-16.7898
X-92.4026Y-12.8782
X-92.4026Y-8.9666
X-88.491Y-20.7014
X-84.5794Y-20.7014
X-88.491Y-16.7898
X-84.5794Y-16.7898
X-88.491Y-12.8782
X-84.5794Y-12.8782
X-88.491Y-8.9666
X-84.5794Y-8.9666
X-67.155Y-23.3938
X-63.2434Y-23.3938
X-59.3318Y-23.3938
X-67.155Y-19.4822
X-67.155Y-15.5706
X-67.155Y-11.659
X-63.2434Y-11.659
X-59.3318Y-11.659
X-55.4202Y-11.659
X-55.4202Y-15.5706
X-55.4202Y-19.4822
X-55.4202Y-23.3938
X-63.2434Y-19.4822
X-59.3318Y-19.4822
X-59.3318Y-15.5706
X-63.3704Y-14.8848
X-61.9312Y-14.8848
X-63.345Y-16.3072
X-61.9472Y-16.3072
X-64.8436Y-14.8848
X-60.48467Y-14.8848
X-64.8436Y-16.2818
X-60.4494Y-16.3072
X-60.4494Y-13.4624
X-61.9472Y-13.4624
X-63.345Y-13.4624
X-64.8436Y-13.4878
X-60.41413Y-17.7296
X-61.91193Y-17.7296
X-63.30973Y-17.7296
X-64.80833Y-17.7042
X-21.943Y-24.359
X-19.8348Y-24.3082
X-3.655Y-24.232
X-7.7952Y-26.3656
X-58.138Y-28.169
T02
X-72.44328Y-6.66761
X-72.44328Y-5.52351
X-72.44328Y-4.37941
X-72.44328Y-3.23531
X-72.44328Y-2.0912
X-72.44328Y-0.9471
X-66.61353Y-7.85162
X-65.0693Y-7.85162
X-63.52507Y-7.85162
X-61.98084Y-7.85162
X-60.43662Y-7.85162
X-58.89238Y-7.85162
X-55.80392Y-7.85162
X-54.2597Y-7.85162
X-57.34816Y-7.85162
X-68.15776Y-7.85162
X-23.47959Y-5.54433
X-23.47959Y-0.96792
X-23.47959Y-3.25613
X-23.47959Y-4.40022
X-23.47959Y-6.68843
X-23.47959Y-2.11202
X-22.22596Y-3.25613
X-22.22596Y-4.40022
X-22.22596Y-0.96792
X-22.22596Y-2.11202
X-38.93115Y-5.54433
X-38.93115Y-0.96792
X-38.93115Y-3.25613
X-38.93115Y-4.40022
X-38.93115Y-6.68843
X-38.93115Y-2.11202
X-37.67752Y-6.68843
X-37.67752Y-5.54433
X-37.67752Y-3.25613
X-37.67752Y-4.40022
X-37.67752Y-0.96792
X-37.67752Y-2.11202
X-36.28481Y-6.69738
X-35.12069Y-6.69738
X-33.95658Y-6.69738
X-32.79247Y-6.69738
X-31.62836Y-6.69738
X-29.30014Y-6.69738
X-30.46425Y-6.69738
X-28.13603Y-6.74739
X-26.97192Y-6.74739
X-25.80781Y-6.74739
X-24.6437Y-6.74739
X-22.22596Y-5.54433
X-22.22596Y-6.68843
X-99.794Y-35.67037
X-99.794Y-33.13037
X-99.03818Y-45.07922
X-97.76818Y-45.07922
X-71.17328Y-0.9471
X-71.17328Y-2.0912
X-71.17328Y-3.23531
X-71.17328Y-4.37941
X-71.17328Y-5.52351
X-71.17328Y-6.66761
X-51.1723Y-0.9471
X-100.30818Y-45.07922
X-51.1723Y-2.0912
X-51.1723Y-3.23531
X-51.1723Y-4.37941
X-51.1723Y-5.52351
X-51.1723Y-6.66761
X-95.63598Y-43.5614
X-90.015Y-37.6432
X-87.4959Y-33.0245
X-84.98588Y-33.02447
X-72.49783Y-48.01231
X-70.91363Y-49.55256
X-85.6059Y-34.8492
X-86.8759Y-37.92031
X-74.07757Y-34.8492
X-57.98303Y-34.8492
X-56.71303Y-43.41336
X-55.44303Y-43.41336
X-56.71303Y-34.8492
X-55.44303Y-34.8492
X-40.30876Y-48.01231
X-38.72456Y-49.55256
X-41.88849Y-34.8492
X-23.60393Y-37.5416
X-23.60393Y-36.5256
X-24.61993Y-36.5256
X-24.61993Y-37.5416
X-40.30876Y-45.34531
X-40.30876Y-44.32931
X-34.8462Y-40.6404
X-34.8462Y-41.6564
X-34.8462Y-42.6724
X-33.8302Y-42.6724
X-23.60393Y-40.6404
X-23.60393Y-41.6564
X-23.60393Y-42.6724
X-24.61993Y-42.6724
X-25.63593Y-42.6724
X-24.61993Y-41.6564
X-26.65193Y-42.6724
X-27.66793Y-42.6724
X-13.545Y-52.8578
X-12.7576Y-52.8578
X-12.545Y-56.59192
X-11.7576Y-56.59192
X-13.9768Y-52.2228
X-12.3258Y-52.2228
X-12.9768Y-57.22692
X-11.3258Y-57.22692
X-15.52722Y-49.83418
X-10.85459Y-49.83418
X-9.0746Y-53.6706
X-10.16894Y-52.98693
X-10.16894Y-51.94553
X-17.73008Y-51.58351
X-17.73008Y-52.62491
X-99.03818Y-25.33588
X-100.12835Y-25.33588
X-97.03574Y-25.79174
X-97.03574Y-19.44174
X-97.03574Y-11.33177
X-97.03574Y-10.06177
X-97.03574Y-8.79177
X-79.60745Y-8.79177
X-79.60745Y-11.33177
X-82.76551Y-19.44174
X-79.60745Y-25.79174
X-77.75325Y-19.44174
X-71.12003Y-10.39162
X-46.5556Y-17.35704
X-46.5556Y-15.03373
X-46.5556Y-12.71041
X-46.55558Y-11.03701
X-51.19553Y-11.66162
X-51.19553Y-12.93162
X-50.1563Y-6.66761
X-49.1403Y-6.66761
X-50.1563Y-5.52351
X-49.1403Y-5.52351
X-50.1563Y-4.37941
X-49.1403Y-4.37941
X-50.1563Y-3.23531
X-49.1403Y-3.23531
X-50.1563Y-2.0912
X-49.1403Y-2.0912
X-50.1563Y-0.9471
X-49.1403Y-0.9471
X-51.19553Y-10.39162
X-51.19553Y-9.12162
X-40.11379Y-21.58061
X-41.12979Y-21.58061
X-38.11662Y-16.66938
X-39.13262Y-16.66938
X-38.11662Y-15.65338
X-39.13262Y-15.65338
X-26.25601Y-21.057
X-26.25601Y-22.073
X-51.19553Y-24.36162
X-21.4858Y-7.31339
X-14.75544Y-7.31339
X-18.4378Y-7.31339
X-11.9608Y-8.29129
X-18.144Y-11.74619
X-18.144Y-12.76219
X-18.144Y-10.73019
X-11.3622Y-11.74619
X-11.3622Y-12.76219
X-11.3622Y-10.73019
X-14.75544Y-10.73019
X-14.75544Y-11.74619
X-2.3127Y-30.8321
X-57.98278Y-26.85373
X-54.17278Y-26.82376
X-14.0182Y-46.46324
X-12.1132Y-46.5078
X-12.1132Y-41.4278
X-15.2628Y-35.0524
X-16.41227Y-36.20187
X-23.8226Y-32.0044
X-23.8226Y-33.63
X-28.9026Y-32.0044
X-28.9026Y-33.63
X-33.9826Y-32.0044
X-33.9826Y-33.63
X-45.2094Y-31.0392
X-45.2094Y-29.4136
X-50.2894Y-29.4136
X-50.2894Y-31.0392
X-57.0458Y-31.0392
X-57.0458Y-29.4136
X-63.8022Y-29.4136
X-63.8022Y-31.0392
X-59.25278Y-26.85373
X-60.52278Y-26.85373
X-61.79278Y-26.85373
X-63.06278Y-26.85373
X-60.52278Y-27.86973
X-65.60278Y-26.85373
X-73.9368Y-27.86973
X-73.9368Y-28.88573
X-66.87278Y-26.85373
X-73.9368Y-29.90173
X-74.9528Y-31.7758
X-37.06249Y-38.33549
X-74.1654Y-39.0402
X-86.8759Y-38.93631
X-79.35345Y-19.44174
X-70.98196Y-44.7298
X-40.18478Y-3.25613
X-40.18478Y-0.96792
X-40.18478Y-5.54433
X-40.18478Y-2.11202
X-40.18478Y-6.68843
X-40.18478Y-4.40022
X-41.43841Y-3.25613
X-41.43841Y-0.96792
X-41.43841Y-5.54433
X-41.43841Y-2.11202
X-41.43841Y-6.68843
X-41.43841Y-4.40022
X-29.4868Y-24.4098
X-48.1243Y-6.66761
X-48.1243Y-5.52351
X-48.1243Y-4.37941
X-48.1243Y-3.23531
X-48.1243Y-2.0912
X-48.1243Y-0.9471
X-47.1083Y-5.52351
X-47.1083Y-4.37941
X-47.1083Y-3.23531
X-47.1083Y-2.0912
X-47.1083Y-0.9471
X-73.71328Y-0.9471
X-73.71328Y-4.37941
X-73.71328Y-3.23531
X-73.71328Y-6.66761
X-73.71328Y-5.52351
X-73.71328Y-2.0912
X-74.98328Y-0.9471
X-74.98328Y-4.37941
X-74.98328Y-3.23531
X-74.98328Y-6.66761
X-74.98328Y-5.52351
X-74.98328Y-2.0912
X-20.97233Y-0.96792
X-20.97233Y-2.11202
X-20.97233Y-5.54433
X-20.97233Y-4.40022
X-20.97233Y-3.25613
X-45.2094Y-27.788
X-43.5838Y-27.788
X-18.4378Y-37.0082
X-18.514Y-41.9612
X-16.2374Y-48.4382
X-15.2628Y-42.1136
X-20.0474Y-50.775
X-20.0982Y-49.378
X-19.3268Y-55.347
X-21.181Y-50.8004
X-21.3334Y-48.1334
X-34.4652Y-54.6104
X-34.389Y-50.521
X-29.8678Y-50.5972
X-29.8678Y-54.7628
X-26.4896Y-50.648
X-26.47999Y-54.78992
X-26.4388Y-46.0506
X-34.897Y-44.9838
X-32.103Y-44.9584
X-49.8576Y-54.5596
X-44.803Y-54.585
X-49.9338Y-50.4956
X-44.7776Y-50.5464
X-50.0354Y-45.6442
X-44.6506Y-45.5934
X-49.9592Y-40.9452
X-45.8698Y-40.996
X-44.9046Y-34.9
X-50.1624Y-34.8492
X-88.4656Y-31.4202
X-85.062Y-32.0044
X-79.4994Y-32.6648
X-48.0796Y-9.6778
X-47.3938Y-18.9488
X-47.343Y-21.057
X-77.0864Y-10.8208
X-97.4064Y-34.4936
X-96.5936Y-35.916
T03
X-8.31969Y-59.37304G85X-8.31969Y-59.97303
X-8.31969Y-55.09322G85X-8.31969Y-55.8932
X-16.96992Y-55.0932G85X-16.96992Y-55.89322
X-16.96992Y-59.37304G85X-16.96992Y-59.97303
T04
X-42.82896Y-55.666
X-40.82744Y-55.666
X-38.82846Y-55.666
X-36.82694Y-55.666
X-73.91798Y-55.666
X-71.91646Y-55.666
X-69.91748Y-55.666
X-67.91596Y-55.666
X-58.37347Y-55.67772
X-56.37195Y-55.67772
X-54.37297Y-55.67772
X-52.37145Y-55.67772
T05
X-80.63599Y-56.37493
X-97.63595Y-56.37493
T06
X-44.29107Y-10.38703
X-44.29107Y-12.92703
X-44.29107Y-15.46703
X-44.29107Y-18.00703
X-103.88958Y-33.78037
X-103.88958Y-36.32037
X-103.88958Y-38.86037
X-103.88958Y-41.40037
X-44.29107Y-6.76308
X-44.29107Y-4.22308
X-44.29107Y-1.68308
T07
X-23.60393Y-44.92903
X-21.06393Y-44.92903
X-18.52393Y-44.92903
T08
X-28.68392Y-58.211
X-23.60392Y-58.211
T09
X-102.7Y-3.8
X-3.8Y-3.8
X-102.725Y-56.5
X-3.8Y-56.5
M30