G04 Layer: TopSilkscreenLayer*
G04 EasyEDA Pro v3.2.148, 2026-07-22 20:08:30*
G04 Gerber Generator version 0.3*
G04 Scale: 100 percent, Rotated: No, Reflected: No*
G04 Dimensions in millimeters*
G04 Leading zeros omitted, absolute positions, 4 integers and 5 decimals*
G04 Generated by one-click*
G04 Object Configs: Pad,Via,Track,Text,Image,Dimension,BoardOutline,BoardCutout,CopperFilled,SolidRegion,FPCStiffener,Line,PlaneZone,ComponentProperty,ComponentSilkscreen,TearDrop*
G04 Layer Configs: 1,2,3,4,5,6,7,8,9,10,11,13,14,56*
G04 Copper Areas: 0*
%FSLAX45Y45*%
%MOMM*%
%ADD10C,0.1524*%
%ADD11C,0.127*%
%ADD12C,0.254*%
%ADD13C,0.13*%
%ADD14C,0.1*%
%ADD15C,0.15199*%
%ADD16C,0.1572*%
%ADD17C,0.15001*%
%ADD18C,0.0762*%
%ADD19C,0.2032*%
%ADD20C,0.203*%
%ADD21C,0.14986*%
%ADD22C,0.2*%
%ADD23C,0.3*%
G75*


G04 Text Start*
G54D10*
G01X-7355580Y-1101638D02*
G01X-7361930Y-1104686D01*
G01X-7368026Y-1111036D01*
G01X-7371074Y-1117132D01*
G01X-7371074Y-1129578D01*
G01X-7368026Y-1135674D01*
G01X-7361930Y-1142024D01*
G01X-7355580Y-1145072D01*
G01X-7346436Y-1148120D01*
G01X-7330942Y-1148120D01*
G01X-7321544Y-1145072D01*
G01X-7315448Y-1142024D01*
G01X-7309098Y-1135674D01*
G01X-7306050Y-1129578D01*
G01X-7306050Y-1117132D01*
G01X-7309098Y-1111036D01*
G01X-7315448Y-1104686D01*
G01X-7321544Y-1101638D01*
G01X-7358628Y-1071412D02*
G01X-7361930Y-1065316D01*
G01X-7371074Y-1056172D01*
G01X-7306050Y-1056172D01*
G01X-7241280Y-1109258D02*
G01X-7247630Y-1112306D01*
G01X-7253726Y-1118656D01*
G01X-7256774Y-1124752D01*
G01X-7256774Y-1137198D01*
G01X-7253726Y-1143294D01*
G01X-7247630Y-1149644D01*
G01X-7241280Y-1152692D01*
G01X-7232136Y-1155740D01*
G01X-7216642Y-1155740D01*
G01X-7207244Y-1152692D01*
G01X-7201148Y-1149644D01*
G01X-7194798Y-1143294D01*
G01X-7191750Y-1137198D01*
G01X-7191750Y-1124752D01*
G01X-7194798Y-1118656D01*
G01X-7201148Y-1112306D01*
G01X-7207244Y-1109258D01*
G01X-7241280Y-1075984D02*
G01X-7244328Y-1075984D01*
G01X-7250678Y-1072936D01*
G01X-7253726Y-1069888D01*
G01X-7256774Y-1063792D01*
G01X-7256774Y-1051346D01*
G01X-7253726Y-1044996D01*
G01X-7250678Y-1041948D01*
G01X-7244328Y-1038900D01*
G01X-7238232Y-1038900D01*
G01X-7232136Y-1041948D01*
G01X-7222738Y-1048298D01*
G01X-7191750Y-1079032D01*
G01X-7191750Y-1035852D01*
G01X-1963160Y-994958D02*
G01X-1969510Y-998006D01*
G01X-1975606Y-1004356D01*
G01X-1978654Y-1010452D01*
G01X-1978654Y-1022898D01*
G01X-1975606Y-1028994D01*
G01X-1969510Y-1035344D01*
G01X-1963160Y-1038392D01*
G01X-1954016Y-1041440D01*
G01X-1938522Y-1041440D01*
G01X-1929124Y-1038392D01*
G01X-1923028Y-1035344D01*
G01X-1916678Y-1028994D01*
G01X-1913630Y-1022898D01*
G01X-1913630Y-1010452D01*
G01X-1916678Y-1004356D01*
G01X-1923028Y-998006D01*
G01X-1929124Y-994958D01*
G01X-1978654Y-958636D02*
G01X-1978654Y-924600D01*
G01X-1954016Y-943142D01*
G01X-1954016Y-933998D01*
G01X-1950968Y-927648D01*
G01X-1947666Y-924600D01*
G01X-1938522Y-921552D01*
G01X-1932172Y-921552D01*
G01X-1923028Y-924600D01*
G01X-1916678Y-930696D01*
G01X-1913630Y-940094D01*
G01X-1913630Y-949492D01*
G01X-1916678Y-958636D01*
G01X-1919980Y-961684D01*
G01X-1926076Y-964732D01*
G01X-2123358Y-4909860D02*
G01X-2126406Y-4903510D01*
G01X-2132756Y-4897414D01*
G01X-2138852Y-4894366D01*
G01X-2151298Y-4894366D01*
G01X-2157394Y-4897414D01*
G01X-2163744Y-4903510D01*
G01X-2166792Y-4909860D01*
G01X-2169840Y-4919004D01*
G01X-2169840Y-4934498D01*
G01X-2166792Y-4943896D01*
G01X-2163744Y-4949992D01*
G01X-2157394Y-4956342D01*
G01X-2151298Y-4959390D01*
G01X-2138852Y-4959390D01*
G01X-2132756Y-4956342D01*
G01X-2126406Y-4949992D01*
G01X-2123358Y-4943896D01*
G01X-2062398Y-4894366D02*
G01X-2093132Y-4937546D01*
G01X-2046904Y-4937546D01*
G01X-2062398Y-4894366D02*
G01X-2062398Y-4959390D01*
G01X-1290060Y-1010198D02*
G01X-1296410Y-1013246D01*
G01X-1302506Y-1019596D01*
G01X-1305554Y-1025692D01*
G01X-1305554Y-1038138D01*
G01X-1302506Y-1044234D01*
G01X-1296410Y-1050584D01*
G01X-1290060Y-1053632D01*
G01X-1280916Y-1056680D01*
G01X-1265422Y-1056680D01*
G01X-1256024Y-1053632D01*
G01X-1249928Y-1050584D01*
G01X-1243578Y-1044234D01*
G01X-1240530Y-1038138D01*
G01X-1240530Y-1025692D01*
G01X-1243578Y-1019596D01*
G01X-1249928Y-1013246D01*
G01X-1256024Y-1010198D01*
G01X-1305554Y-942888D02*
G01X-1305554Y-973876D01*
G01X-1277868Y-976924D01*
G01X-1280916Y-973876D01*
G01X-1283964Y-964732D01*
G01X-1283964Y-955334D01*
G01X-1280916Y-945936D01*
G01X-1274566Y-939840D01*
G01X-1265422Y-936792D01*
G01X-1259072Y-936792D01*
G01X-1249928Y-939840D01*
G01X-1243578Y-945936D01*
G01X-1240530Y-955334D01*
G01X-1240530Y-964732D01*
G01X-1243578Y-973876D01*
G01X-1246880Y-976924D01*
G01X-1252976Y-979972D01*
G01X-9971018Y-2278420D02*
G01X-9974066Y-2272070D01*
G01X-9980416Y-2265974D01*
G01X-9986512Y-2262926D01*
G01X-9998958Y-2262926D01*
G01X-10005054Y-2265974D01*
G01X-10011404Y-2272070D01*
G01X-10014452Y-2278420D01*
G01X-10017500Y-2287564D01*
G01X-10017500Y-2303058D01*
G01X-10014452Y-2312456D01*
G01X-10011404Y-2318552D01*
G01X-10005054Y-2324902D01*
G01X-9998958Y-2327950D01*
G01X-9986512Y-2327950D01*
G01X-9980416Y-2324902D01*
G01X-9974066Y-2318552D01*
G01X-9971018Y-2312456D01*
G01X-9903708Y-2272070D02*
G01X-9906756Y-2265974D01*
G01X-9916154Y-2262926D01*
G01X-9922250Y-2262926D01*
G01X-9931648Y-2265974D01*
G01X-9937744Y-2275372D01*
G01X-9940792Y-2290612D01*
G01X-9940792Y-2306106D01*
G01X-9937744Y-2318552D01*
G01X-9931648Y-2324902D01*
G01X-9922250Y-2327950D01*
G01X-9919202Y-2327950D01*
G01X-9910058Y-2324902D01*
G01X-9903708Y-2318552D01*
G01X-9900660Y-2309408D01*
G01X-9900660Y-2306106D01*
G01X-9903708Y-2296962D01*
G01X-9910058Y-2290612D01*
G01X-9919202Y-2287564D01*
G01X-9922250Y-2287564D01*
G01X-9931648Y-2290612D01*
G01X-9937744Y-2296962D01*
G01X-9940792Y-2306106D01*
G01X-9019280Y-4177578D02*
G01X-9025630Y-4180626D01*
G01X-9031726Y-4186976D01*
G01X-9034774Y-4193072D01*
G01X-9034774Y-4205518D01*
G01X-9031726Y-4211614D01*
G01X-9025630Y-4217964D01*
G01X-9019280Y-4221012D01*
G01X-9010136Y-4224060D01*
G01X-8994642Y-4224060D01*
G01X-8985244Y-4221012D01*
G01X-8979148Y-4217964D01*
G01X-8972798Y-4211614D01*
G01X-8969750Y-4205518D01*
G01X-8969750Y-4193072D01*
G01X-8972798Y-4186976D01*
G01X-8979148Y-4180626D01*
G01X-8985244Y-4177578D01*
G01X-9034774Y-4104172D02*
G01X-8969750Y-4135160D01*
G01X-9034774Y-4147352D02*
G01X-9034774Y-4104172D01*
G01X-4080758Y-2235240D02*
G01X-4083806Y-2228890D01*
G01X-4090156Y-2222794D01*
G01X-4096252Y-2219746D01*
G01X-4108698Y-2219746D01*
G01X-4114794Y-2222794D01*
G01X-4121144Y-2228890D01*
G01X-4124192Y-2235240D01*
G01X-4127240Y-2244384D01*
G01X-4127240Y-2259878D01*
G01X-4124192Y-2269276D01*
G01X-4121144Y-2275372D01*
G01X-4114794Y-2281722D01*
G01X-4108698Y-2284770D01*
G01X-4096252Y-2284770D01*
G01X-4090156Y-2281722D01*
G01X-4083806Y-2275372D01*
G01X-4080758Y-2269276D01*
G01X-4035292Y-2219746D02*
G01X-4044436Y-2222794D01*
G01X-4047484Y-2228890D01*
G01X-4047484Y-2235240D01*
G01X-4044436Y-2241336D01*
G01X-4038340Y-2244384D01*
G01X-4025894Y-2247432D01*
G01X-4016496Y-2250734D01*
G01X-4010400Y-2256830D01*
G01X-4007352Y-2262926D01*
G01X-4007352Y-2272324D01*
G01X-4010400Y-2278420D01*
G01X-4013448Y-2281722D01*
G01X-4022846Y-2284770D01*
G01X-4035292Y-2284770D01*
G01X-4044436Y-2281722D01*
G01X-4047484Y-2278420D01*
G01X-4050532Y-2272324D01*
G01X-4050532Y-2262926D01*
G01X-4047484Y-2256830D01*
G01X-4041388Y-2250734D01*
G01X-4031990Y-2247432D01*
G01X-4019798Y-2244384D01*
G01X-4013448Y-2241336D01*
G01X-4010400Y-2235240D01*
G01X-4010400Y-2228890D01*
G01X-4013448Y-2222794D01*
G01X-4022846Y-2219746D01*
G01X-4035292Y-2219746D01*
G01X-2400040Y-3552738D02*
G01X-2406390Y-3555786D01*
G01X-2412486Y-3562136D01*
G01X-2415534Y-3568232D01*
G01X-2415534Y-3580678D01*
G01X-2412486Y-3586774D01*
G01X-2406390Y-3593124D01*
G01X-2400040Y-3596172D01*
G01X-2390896Y-3599220D01*
G01X-2375402Y-3599220D01*
G01X-2366004Y-3596172D01*
G01X-2359908Y-3593124D01*
G01X-2353558Y-3586774D01*
G01X-2350510Y-3580678D01*
G01X-2350510Y-3568232D01*
G01X-2353558Y-3562136D01*
G01X-2359908Y-3555786D01*
G01X-2366004Y-3552738D01*
G01X-2393944Y-3482380D02*
G01X-2384546Y-3485428D01*
G01X-2378450Y-3491778D01*
G01X-2375402Y-3500922D01*
G01X-2375402Y-3503970D01*
G01X-2378450Y-3513368D01*
G01X-2384546Y-3519464D01*
G01X-2393944Y-3522512D01*
G01X-2396992Y-3522512D01*
G01X-2406390Y-3519464D01*
G01X-2412486Y-3513368D01*
G01X-2415534Y-3503970D01*
G01X-2415534Y-3500922D01*
G01X-2412486Y-3491778D01*
G01X-2406390Y-3485428D01*
G01X-2393944Y-3482380D01*
G01X-2378450Y-3482380D01*
G01X-2362956Y-3485428D01*
G01X-2353558Y-3491778D01*
G01X-2350510Y-3500922D01*
G01X-2350510Y-3507272D01*
G01X-2353558Y-3516416D01*
G01X-2359908Y-3519464D01*
G01X-3629400Y-3946438D02*
G01X-3635750Y-3949486D01*
G01X-3641846Y-3955836D01*
G01X-3644894Y-3961932D01*
G01X-3644894Y-3974378D01*
G01X-3641846Y-3980474D01*
G01X-3635750Y-3986824D01*
G01X-3629400Y-3989872D01*
G01X-3620256Y-3992920D01*
G01X-3604762Y-3992920D01*
G01X-3595364Y-3989872D01*
G01X-3589268Y-3986824D01*
G01X-3582918Y-3980474D01*
G01X-3579870Y-3974378D01*
G01X-3579870Y-3961932D01*
G01X-3582918Y-3955836D01*
G01X-3589268Y-3949486D01*
G01X-3595364Y-3946438D01*
G01X-3632448Y-3916212D02*
G01X-3635750Y-3910116D01*
G01X-3644894Y-3900972D01*
G01X-3579870Y-3900972D01*
G01X-3644894Y-3852204D02*
G01X-3641846Y-3861602D01*
G01X-3632448Y-3867698D01*
G01X-3617208Y-3870746D01*
G01X-3607810Y-3870746D01*
G01X-3592316Y-3867698D01*
G01X-3582918Y-3861602D01*
G01X-3579870Y-3852204D01*
G01X-3579870Y-3846108D01*
G01X-3582918Y-3836710D01*
G01X-3592316Y-3830614D01*
G01X-3607810Y-3827566D01*
G01X-3617208Y-3827566D01*
G01X-3632448Y-3830614D01*
G01X-3641846Y-3836710D01*
G01X-3644894Y-3846108D01*
G01X-3644894Y-3852204D01*
G01X-3837680Y-2158278D02*
G01X-3844030Y-2161326D01*
G01X-3850126Y-2167676D01*
G01X-3853174Y-2173772D01*
G01X-3853174Y-2186218D01*
G01X-3850126Y-2192314D01*
G01X-3844030Y-2198664D01*
G01X-3837680Y-2201712D01*
G01X-3828536Y-2204760D01*
G01X-3813042Y-2204760D01*
G01X-3803644Y-2201712D01*
G01X-3797548Y-2198664D01*
G01X-3791198Y-2192314D01*
G01X-3788150Y-2186218D01*
G01X-3788150Y-2173772D01*
G01X-3791198Y-2167676D01*
G01X-3797548Y-2161326D01*
G01X-3803644Y-2158278D01*
G01X-3840728Y-2128052D02*
G01X-3844030Y-2121956D01*
G01X-3853174Y-2112812D01*
G01X-3788150Y-2112812D01*
G01X-3840728Y-2082586D02*
G01X-3844030Y-2076490D01*
G01X-3853174Y-2067346D01*
G01X-3788150Y-2067346D01*
G01X-4410958Y-5339120D02*
G01X-4414006Y-5332770D01*
G01X-4420356Y-5326674D01*
G01X-4426452Y-5323626D01*
G01X-4438898Y-5323626D01*
G01X-4444994Y-5326674D01*
G01X-4451344Y-5332770D01*
G01X-4454392Y-5339120D01*
G01X-4457440Y-5348264D01*
G01X-4457440Y-5363758D01*
G01X-4454392Y-5373156D01*
G01X-4451344Y-5379252D01*
G01X-4444994Y-5385602D01*
G01X-4438898Y-5388650D01*
G01X-4426452Y-5388650D01*
G01X-4420356Y-5385602D01*
G01X-4414006Y-5379252D01*
G01X-4410958Y-5373156D01*
G01X-4362190Y-5323626D02*
G01X-4368540Y-5326674D01*
G01X-4374636Y-5332770D01*
G01X-4377684Y-5339120D01*
G01X-4380732Y-5348264D01*
G01X-4380732Y-5363758D01*
G01X-4377684Y-5373156D01*
G01X-4374636Y-5379252D01*
G01X-4368540Y-5385602D01*
G01X-4362190Y-5388650D01*
G01X-4349998Y-5388650D01*
G01X-4343648Y-5385602D01*
G01X-4337552Y-5379252D01*
G01X-4334504Y-5373156D01*
G01X-4331202Y-5363758D01*
G01X-4331202Y-5348264D01*
G01X-4334504Y-5339120D01*
G01X-4337552Y-5332770D01*
G01X-4343648Y-5326674D01*
G01X-4349998Y-5323626D01*
G01X-4362190Y-5323626D01*
G01X-4300976Y-5323626D02*
G01X-4300976Y-5388650D01*
G01X-4300976Y-5323626D02*
G01X-4257796Y-5388650D01*
G01X-4257796Y-5323626D02*
G01X-4257796Y-5388650D01*
G01X-4227570Y-5336072D02*
G01X-4221474Y-5332770D01*
G01X-4212330Y-5323626D01*
G01X-4212330Y-5388650D01*
G01X-7557233Y-5351820D02*
G01X-7560281Y-5345470D01*
G01X-7566631Y-5339374D01*
G01X-7572727Y-5336326D01*
G01X-7585173Y-5336326D01*
G01X-7591269Y-5339374D01*
G01X-7597619Y-5345470D01*
G01X-7600667Y-5351820D01*
G01X-7603715Y-5360964D01*
G01X-7603715Y-5376458D01*
G01X-7600667Y-5385856D01*
G01X-7597619Y-5391952D01*
G01X-7591269Y-5398302D01*
G01X-7585173Y-5401350D01*
G01X-7572727Y-5401350D01*
G01X-7566631Y-5398302D01*
G01X-7560281Y-5391952D01*
G01X-7557233Y-5385856D01*
G01X-7508465Y-5336326D02*
G01X-7514815Y-5339374D01*
G01X-7520911Y-5345470D01*
G01X-7523959Y-5351820D01*
G01X-7527007Y-5360964D01*
G01X-7527007Y-5376458D01*
G01X-7523959Y-5385856D01*
G01X-7520911Y-5391952D01*
G01X-7514815Y-5398302D01*
G01X-7508465Y-5401350D01*
G01X-7496273Y-5401350D01*
G01X-7489923Y-5398302D01*
G01X-7483827Y-5391952D01*
G01X-7480779Y-5385856D01*
G01X-7477477Y-5376458D01*
G01X-7477477Y-5360964D01*
G01X-7480779Y-5351820D01*
G01X-7483827Y-5345470D01*
G01X-7489923Y-5339374D01*
G01X-7496273Y-5336326D01*
G01X-7508465Y-5336326D01*
G01X-7447251Y-5336326D02*
G01X-7447251Y-5401350D01*
G01X-7447251Y-5336326D02*
G01X-7404071Y-5401350D01*
G01X-7404071Y-5336326D02*
G01X-7404071Y-5401350D01*
G01X-7370797Y-5351820D02*
G01X-7370797Y-5348772D01*
G01X-7367749Y-5342422D01*
G01X-7364701Y-5339374D01*
G01X-7358605Y-5336326D01*
G01X-7346159Y-5336326D01*
G01X-7339809Y-5339374D01*
G01X-7336761Y-5342422D01*
G01X-7333713Y-5348772D01*
G01X-7333713Y-5354868D01*
G01X-7336761Y-5360964D01*
G01X-7343111Y-5370362D01*
G01X-7373845Y-5401350D01*
G01X-7330665Y-5401350D01*
G01X-5938375Y-5355532D02*
G01X-5941423Y-5349182D01*
G01X-5947773Y-5343086D01*
G01X-5953869Y-5340038D01*
G01X-5966315Y-5340038D01*
G01X-5972411Y-5343086D01*
G01X-5978761Y-5349182D01*
G01X-5981809Y-5355532D01*
G01X-5984857Y-5364676D01*
G01X-5984857Y-5380170D01*
G01X-5981809Y-5389568D01*
G01X-5978761Y-5395664D01*
G01X-5972411Y-5402014D01*
G01X-5966315Y-5405062D01*
G01X-5953869Y-5405062D01*
G01X-5947773Y-5402014D01*
G01X-5941423Y-5395664D01*
G01X-5938375Y-5389568D01*
G01X-5889607Y-5340038D02*
G01X-5895957Y-5343086D01*
G01X-5902053Y-5349182D01*
G01X-5905101Y-5355532D01*
G01X-5908149Y-5364676D01*
G01X-5908149Y-5380170D01*
G01X-5905101Y-5389568D01*
G01X-5902053Y-5395664D01*
G01X-5895957Y-5402014D01*
G01X-5889607Y-5405062D01*
G01X-5877415Y-5405062D01*
G01X-5871065Y-5402014D01*
G01X-5864969Y-5395664D01*
G01X-5861921Y-5389568D01*
G01X-5858619Y-5380170D01*
G01X-5858619Y-5364676D01*
G01X-5861921Y-5355532D01*
G01X-5864969Y-5349182D01*
G01X-5871065Y-5343086D01*
G01X-5877415Y-5340038D01*
G01X-5889607Y-5340038D01*
G01X-5828393Y-5340038D02*
G01X-5828393Y-5405062D01*
G01X-5828393Y-5340038D02*
G01X-5785213Y-5405062D01*
G01X-5785213Y-5340038D02*
G01X-5785213Y-5405062D01*
G01X-5748891Y-5340038D02*
G01X-5714855Y-5340038D01*
G01X-5733397Y-5364676D01*
G01X-5724253Y-5364676D01*
G01X-5717903Y-5367724D01*
G01X-5714855Y-5371026D01*
G01X-5711807Y-5380170D01*
G01X-5711807Y-5386520D01*
G01X-5714855Y-5395664D01*
G01X-5720951Y-5402014D01*
G01X-5730349Y-5405062D01*
G01X-5739747Y-5405062D01*
G01X-5748891Y-5402014D01*
G01X-5751939Y-5398712D01*
G01X-5754987Y-5392616D01*
G01X-2146980Y-5044226D02*
G01X-2146980Y-5109250D01*
G01X-2146980Y-5044226D02*
G01X-2125390Y-5044226D01*
G01X-2115992Y-5047274D01*
G01X-2109896Y-5053370D01*
G01X-2106848Y-5059720D01*
G01X-2103546Y-5068864D01*
G01X-2103546Y-5084358D01*
G01X-2106848Y-5093756D01*
G01X-2109896Y-5099852D01*
G01X-2115992Y-5106202D01*
G01X-2125390Y-5109250D01*
G01X-2146980Y-5109250D01*
G01X-2073320Y-5056672D02*
G01X-2067224Y-5053370D01*
G01X-2058080Y-5044226D01*
G01X-2058080Y-5109250D01*
G01X-1537634Y-4960660D02*
G01X-1472610Y-4960660D01*
G01X-1537634Y-4960660D02*
G01X-1537634Y-4939070D01*
G01X-1534586Y-4929672D01*
G01X-1528490Y-4923576D01*
G01X-1522140Y-4920528D01*
G01X-1512996Y-4917226D01*
G01X-1497502Y-4917226D01*
G01X-1488104Y-4920528D01*
G01X-1482008Y-4923576D01*
G01X-1475658Y-4929672D01*
G01X-1472610Y-4939070D01*
G01X-1472610Y-4960660D01*
G01X-1522140Y-4883952D02*
G01X-1525188Y-4883952D01*
G01X-1531538Y-4880904D01*
G01X-1534586Y-4877856D01*
G01X-1537634Y-4871760D01*
G01X-1537634Y-4859314D01*
G01X-1534586Y-4852964D01*
G01X-1531538Y-4849916D01*
G01X-1525188Y-4846868D01*
G01X-1519092Y-4846868D01*
G01X-1512996Y-4849916D01*
G01X-1503598Y-4856266D01*
G01X-1472610Y-4887000D01*
G01X-1472610Y-4843820D01*
G01X-1171874Y-4963200D02*
G01X-1106850Y-4963200D01*
G01X-1171874Y-4963200D02*
G01X-1171874Y-4941610D01*
G01X-1168826Y-4932212D01*
G01X-1162730Y-4926116D01*
G01X-1156380Y-4923068D01*
G01X-1147236Y-4919766D01*
G01X-1131742Y-4919766D01*
G01X-1122344Y-4923068D01*
G01X-1116248Y-4926116D01*
G01X-1109898Y-4932212D01*
G01X-1106850Y-4941610D01*
G01X-1106850Y-4963200D01*
G01X-1171874Y-4883444D02*
G01X-1171874Y-4849408D01*
G01X-1147236Y-4867950D01*
G01X-1147236Y-4858806D01*
G01X-1144188Y-4852456D01*
G01X-1140886Y-4849408D01*
G01X-1131742Y-4846360D01*
G01X-1125392Y-4846360D01*
G01X-1116248Y-4849408D01*
G01X-1109898Y-4855504D01*
G01X-1106850Y-4864902D01*
G01X-1106850Y-4874300D01*
G01X-1109898Y-4883444D01*
G01X-1113200Y-4886492D01*
G01X-1119296Y-4889540D01*
G01X-4023100Y-4719106D02*
G01X-4023100Y-4784130D01*
G01X-4023100Y-4719106D02*
G01X-4001510Y-4719106D01*
G01X-3992112Y-4722154D01*
G01X-3986016Y-4728250D01*
G01X-3982968Y-4734600D01*
G01X-3979666Y-4743744D01*
G01X-3979666Y-4759238D01*
G01X-3982968Y-4768636D01*
G01X-3986016Y-4774732D01*
G01X-3992112Y-4781082D01*
G01X-4001510Y-4784130D01*
G01X-4023100Y-4784130D01*
G01X-3912356Y-4719106D02*
G01X-3943344Y-4719106D01*
G01X-3946392Y-4746792D01*
G01X-3943344Y-4743744D01*
G01X-3934200Y-4740696D01*
G01X-3924802Y-4740696D01*
G01X-3915404Y-4743744D01*
G01X-3909308Y-4750094D01*
G01X-3906260Y-4759238D01*
G01X-3906260Y-4765588D01*
G01X-3909308Y-4774732D01*
G01X-3915404Y-4781082D01*
G01X-3924802Y-4784130D01*
G01X-3934200Y-4784130D01*
G01X-3943344Y-4781082D01*
G01X-3946392Y-4777780D01*
G01X-3949440Y-4771684D01*
G01X-7241280Y-4696246D02*
G01X-7241280Y-4761270D01*
G01X-7241280Y-4696246D02*
G01X-7219690Y-4696246D01*
G01X-7210292Y-4699294D01*
G01X-7204196Y-4705390D01*
G01X-7201148Y-4711740D01*
G01X-7197846Y-4720884D01*
G01X-7197846Y-4736378D01*
G01X-7201148Y-4745776D01*
G01X-7204196Y-4751872D01*
G01X-7210292Y-4758222D01*
G01X-7219690Y-4761270D01*
G01X-7241280Y-4761270D01*
G01X-7130536Y-4705390D02*
G01X-7133584Y-4699294D01*
G01X-7142982Y-4696246D01*
G01X-7149078Y-4696246D01*
G01X-7158476Y-4699294D01*
G01X-7164572Y-4708692D01*
G01X-7167620Y-4723932D01*
G01X-7167620Y-4739426D01*
G01X-7164572Y-4751872D01*
G01X-7158476Y-4758222D01*
G01X-7149078Y-4761270D01*
G01X-7146030Y-4761270D01*
G01X-7136886Y-4758222D01*
G01X-7130536Y-4751872D01*
G01X-7127488Y-4742728D01*
G01X-7127488Y-4739426D01*
G01X-7130536Y-4730282D01*
G01X-7136886Y-4723932D01*
G01X-7146030Y-4720884D01*
G01X-7149078Y-4720884D01*
G01X-7158476Y-4723932D01*
G01X-7164572Y-4730282D01*
G01X-7167620Y-4739426D01*
G01X-10281660Y-4330486D02*
G01X-10281660Y-4395510D01*
G01X-10281660Y-4330486D02*
G01X-10260070Y-4330486D01*
G01X-10250672Y-4333534D01*
G01X-10244576Y-4339630D01*
G01X-10241528Y-4345980D01*
G01X-10238226Y-4355124D01*
G01X-10238226Y-4370618D01*
G01X-10241528Y-4380016D01*
G01X-10244576Y-4386112D01*
G01X-10250672Y-4392462D01*
G01X-10260070Y-4395510D01*
G01X-10281660Y-4395510D01*
G01X-10192760Y-4330486D02*
G01X-10201904Y-4333534D01*
G01X-10204952Y-4339630D01*
G01X-10204952Y-4345980D01*
G01X-10201904Y-4352076D01*
G01X-10195808Y-4355124D01*
G01X-10183362Y-4358172D01*
G01X-10173964Y-4361474D01*
G01X-10167868Y-4367570D01*
G01X-10164820Y-4373666D01*
G01X-10164820Y-4383064D01*
G01X-10167868Y-4389160D01*
G01X-10170916Y-4392462D01*
G01X-10180314Y-4395510D01*
G01X-10192760Y-4395510D01*
G01X-10201904Y-4392462D01*
G01X-10204952Y-4389160D01*
G01X-10208000Y-4383064D01*
G01X-10208000Y-4373666D01*
G01X-10204952Y-4367570D01*
G01X-10198856Y-4361474D01*
G01X-10189458Y-4358172D01*
G01X-10177266Y-4355124D01*
G01X-10170916Y-4352076D01*
G01X-10167868Y-4345980D01*
G01X-10167868Y-4339630D01*
G01X-10170916Y-4333534D01*
G01X-10180314Y-4330486D01*
G01X-10192760Y-4330486D01*
G01X-10106654Y-3388400D02*
G01X-10041630Y-3388400D01*
G01X-10106654Y-3388400D02*
G01X-10106654Y-3366810D01*
G01X-10103606Y-3357412D01*
G01X-10097510Y-3351316D01*
G01X-10091160Y-3348268D01*
G01X-10082016Y-3344966D01*
G01X-10066522Y-3344966D01*
G01X-10057124Y-3348268D01*
G01X-10051028Y-3351316D01*
G01X-10044678Y-3357412D01*
G01X-10041630Y-3366810D01*
G01X-10041630Y-3388400D01*
G01X-10085064Y-3274608D02*
G01X-10075666Y-3277656D01*
G01X-10069570Y-3284006D01*
G01X-10066522Y-3293150D01*
G01X-10066522Y-3296198D01*
G01X-10069570Y-3305596D01*
G01X-10075666Y-3311692D01*
G01X-10085064Y-3314740D01*
G01X-10088112Y-3314740D01*
G01X-10097510Y-3311692D01*
G01X-10103606Y-3305596D01*
G01X-10106654Y-3296198D01*
G01X-10106654Y-3293150D01*
G01X-10103606Y-3284006D01*
G01X-10097510Y-3277656D01*
G01X-10085064Y-3274608D01*
G01X-10069570Y-3274608D01*
G01X-10054076Y-3277656D01*
G01X-10044678Y-3284006D01*
G01X-10041630Y-3293150D01*
G01X-10041630Y-3299500D01*
G01X-10044678Y-3308644D01*
G01X-10051028Y-3311692D01*
G01X-2580634Y-5047020D02*
G01X-2515610Y-5047020D01*
G01X-2580634Y-5047020D02*
G01X-2580634Y-5025430D01*
G01X-2577586Y-5016032D01*
G01X-2571490Y-5009936D01*
G01X-2565140Y-5006888D01*
G01X-2555996Y-5003586D01*
G01X-2540502Y-5003586D01*
G01X-2531104Y-5006888D01*
G01X-2525008Y-5009936D01*
G01X-2518658Y-5016032D01*
G01X-2515610Y-5025430D01*
G01X-2515610Y-5047020D01*
G01X-2568188Y-4973360D02*
G01X-2571490Y-4967264D01*
G01X-2580634Y-4958120D01*
G01X-2515610Y-4958120D01*
G01X-2580634Y-4909352D02*
G01X-2577586Y-4918750D01*
G01X-2568188Y-4924846D01*
G01X-2552948Y-4927894D01*
G01X-2543550Y-4927894D01*
G01X-2528056Y-4924846D01*
G01X-2518658Y-4918750D01*
G01X-2515610Y-4909352D01*
G01X-2515610Y-4903256D01*
G01X-2518658Y-4893858D01*
G01X-2528056Y-4887762D01*
G01X-2543550Y-4884714D01*
G01X-2552948Y-4884714D01*
G01X-2568188Y-4887762D01*
G01X-2577586Y-4893858D01*
G01X-2580634Y-4903256D01*
G01X-2580634Y-4909352D01*
G01X-8872966Y-3211597D02*
G01X-8872966Y-3276621D01*
G01X-8872966Y-3211597D02*
G01X-8851376Y-3211597D01*
G01X-8841978Y-3214645D01*
G01X-8835882Y-3220741D01*
G01X-8832834Y-3227091D01*
G01X-8829532Y-3236235D01*
G01X-8829532Y-3251729D01*
G01X-8832834Y-3261127D01*
G01X-8835882Y-3267223D01*
G01X-8841978Y-3273573D01*
G01X-8851376Y-3276621D01*
G01X-8872966Y-3276621D01*
G01X-8799306Y-3224043D02*
G01X-8793210Y-3220741D01*
G01X-8784066Y-3211597D01*
G01X-8784066Y-3276621D01*
G01X-8753840Y-3224043D02*
G01X-8747744Y-3220741D01*
G01X-8738600Y-3211597D01*
G01X-8738600Y-3276621D01*
G01X-8526520Y-3205266D02*
G01X-8526520Y-3270290D01*
G01X-8526520Y-3205266D02*
G01X-8504930Y-3205266D01*
G01X-8495532Y-3208314D01*
G01X-8489436Y-3214410D01*
G01X-8486388Y-3220760D01*
G01X-8483086Y-3229904D01*
G01X-8483086Y-3245398D01*
G01X-8486388Y-3254796D01*
G01X-8489436Y-3260892D01*
G01X-8495532Y-3267242D01*
G01X-8504930Y-3270290D01*
G01X-8526520Y-3270290D01*
G01X-8452860Y-3217712D02*
G01X-8446764Y-3214410D01*
G01X-8437620Y-3205266D01*
G01X-8437620Y-3270290D01*
G01X-8404346Y-3220760D02*
G01X-8404346Y-3217712D01*
G01X-8401298Y-3211362D01*
G01X-8398250Y-3208314D01*
G01X-8392154Y-3205266D01*
G01X-8379708Y-3205266D01*
G01X-8373358Y-3208314D01*
G01X-8370310Y-3211362D01*
G01X-8367262Y-3217712D01*
G01X-8367262Y-3223808D01*
G01X-8370310Y-3229904D01*
G01X-8376660Y-3239302D01*
G01X-8407394Y-3270290D01*
G01X-8364214Y-3270290D01*
G01X-10109194Y-3677960D02*
G01X-10044170Y-3677960D01*
G01X-10109194Y-3677960D02*
G01X-10109194Y-3656370D01*
G01X-10106146Y-3646972D01*
G01X-10100050Y-3640876D01*
G01X-10093700Y-3637828D01*
G01X-10084556Y-3634526D01*
G01X-10069062Y-3634526D01*
G01X-10059664Y-3637828D01*
G01X-10053568Y-3640876D01*
G01X-10047218Y-3646972D01*
G01X-10044170Y-3656370D01*
G01X-10044170Y-3677960D01*
G01X-10096748Y-3604300D02*
G01X-10100050Y-3598204D01*
G01X-10109194Y-3589060D01*
G01X-10044170Y-3589060D01*
G01X-10109194Y-3552738D02*
G01X-10109194Y-3518702D01*
G01X-10084556Y-3537244D01*
G01X-10084556Y-3528100D01*
G01X-10081508Y-3521750D01*
G01X-10078206Y-3518702D01*
G01X-10069062Y-3515654D01*
G01X-10062712Y-3515654D01*
G01X-10053568Y-3518702D01*
G01X-10047218Y-3524798D01*
G01X-10044170Y-3534196D01*
G01X-10044170Y-3543594D01*
G01X-10047218Y-3552738D01*
G01X-10050520Y-3555786D01*
G01X-10056616Y-3558834D01*
G01X-4935214Y-1851700D02*
G01X-4870190Y-1851700D01*
G01X-4935214Y-1851700D02*
G01X-4935214Y-1830110D01*
G01X-4932166Y-1820712D01*
G01X-4926070Y-1814616D01*
G01X-4919720Y-1811568D01*
G01X-4910576Y-1808266D01*
G01X-4895082Y-1808266D01*
G01X-4885684Y-1811568D01*
G01X-4879588Y-1814616D01*
G01X-4873238Y-1820712D01*
G01X-4870190Y-1830110D01*
G01X-4870190Y-1851700D01*
G01X-4922768Y-1778040D02*
G01X-4926070Y-1771944D01*
G01X-4935214Y-1762800D01*
G01X-4870190Y-1762800D01*
G01X-4935214Y-1701840D02*
G01X-4892034Y-1732574D01*
G01X-4892034Y-1686346D01*
G01X-4935214Y-1701840D02*
G01X-4870190Y-1701840D01*
G01X-4937754Y-1590080D02*
G01X-4872730Y-1590080D01*
G01X-4937754Y-1590080D02*
G01X-4937754Y-1568490D01*
G01X-4934706Y-1559092D01*
G01X-4928610Y-1552996D01*
G01X-4922260Y-1549948D01*
G01X-4913116Y-1546646D01*
G01X-4897622Y-1546646D01*
G01X-4888224Y-1549948D01*
G01X-4882128Y-1552996D01*
G01X-4875778Y-1559092D01*
G01X-4872730Y-1568490D01*
G01X-4872730Y-1590080D01*
G01X-4925308Y-1516420D02*
G01X-4928610Y-1510324D01*
G01X-4937754Y-1501180D01*
G01X-4872730Y-1501180D01*
G01X-4937754Y-1433870D02*
G01X-4937754Y-1464858D01*
G01X-4910068Y-1467906D01*
G01X-4913116Y-1464858D01*
G01X-4916164Y-1455714D01*
G01X-4916164Y-1446316D01*
G01X-4913116Y-1436918D01*
G01X-4906766Y-1430822D01*
G01X-4897622Y-1427774D01*
G01X-4891272Y-1427774D01*
G01X-4882128Y-1430822D01*
G01X-4875778Y-1436918D01*
G01X-4872730Y-1446316D01*
G01X-4872730Y-1455714D01*
G01X-4875778Y-1464858D01*
G01X-4879080Y-1467906D01*
G01X-4885176Y-1470954D01*
G01X-4937754Y-1361480D02*
G01X-4872730Y-1361480D01*
G01X-4937754Y-1361480D02*
G01X-4937754Y-1339890D01*
G01X-4934706Y-1330492D01*
G01X-4928610Y-1324396D01*
G01X-4922260Y-1321348D01*
G01X-4913116Y-1318046D01*
G01X-4897622Y-1318046D01*
G01X-4888224Y-1321348D01*
G01X-4882128Y-1324396D01*
G01X-4875778Y-1330492D01*
G01X-4872730Y-1339890D01*
G01X-4872730Y-1361480D01*
G01X-4925308Y-1287820D02*
G01X-4928610Y-1281724D01*
G01X-4937754Y-1272580D01*
G01X-4872730Y-1272580D01*
G01X-4928610Y-1205270D02*
G01X-4934706Y-1208318D01*
G01X-4937754Y-1217716D01*
G01X-4937754Y-1223812D01*
G01X-4934706Y-1233210D01*
G01X-4925308Y-1239306D01*
G01X-4910068Y-1242354D01*
G01X-4894574Y-1242354D01*
G01X-4882128Y-1239306D01*
G01X-4875778Y-1233210D01*
G01X-4872730Y-1223812D01*
G01X-4872730Y-1220764D01*
G01X-4875778Y-1211620D01*
G01X-4882128Y-1205270D01*
G01X-4891272Y-1202222D01*
G01X-4894574Y-1202222D01*
G01X-4903718Y-1205270D01*
G01X-4910068Y-1211620D01*
G01X-4913116Y-1220764D01*
G01X-4913116Y-1223812D01*
G01X-4910068Y-1233210D01*
G01X-4903718Y-1239306D01*
G01X-4894574Y-1242354D01*
G01X-4937754Y-1145580D02*
G01X-4872730Y-1145580D01*
G01X-4937754Y-1145580D02*
G01X-4937754Y-1123990D01*
G01X-4934706Y-1114592D01*
G01X-4928610Y-1108496D01*
G01X-4922260Y-1105448D01*
G01X-4913116Y-1102146D01*
G01X-4897622Y-1102146D01*
G01X-4888224Y-1105448D01*
G01X-4882128Y-1108496D01*
G01X-4875778Y-1114592D01*
G01X-4872730Y-1123990D01*
G01X-4872730Y-1145580D01*
G01X-4925308Y-1071920D02*
G01X-4928610Y-1065824D01*
G01X-4937754Y-1056680D01*
G01X-4872730Y-1056680D01*
G01X-4937754Y-983274D02*
G01X-4872730Y-1014262D01*
G01X-4937754Y-1026454D02*
G01X-4937754Y-983274D01*
G01X-2158496Y-3526896D02*
G01X-2158496Y-3591920D01*
G01X-2158496Y-3526896D02*
G01X-2118364Y-3526896D01*
G01X-2158496Y-3557884D02*
G01X-2133604Y-3557884D01*
G01X-2088138Y-3539342D02*
G01X-2082042Y-3536040D01*
G01X-2072898Y-3526896D01*
G01X-2072898Y-3591920D01*
G01X-4500620Y-1970826D02*
G01X-4500620Y-2035850D01*
G01X-4457186Y-1970826D02*
G01X-4457186Y-2035850D01*
G01X-4500620Y-2001814D02*
G01X-4457186Y-2001814D01*
G01X-4389876Y-1970826D02*
G01X-4420864Y-1970826D01*
G01X-4423912Y-1998512D01*
G01X-4420864Y-1995464D01*
G01X-4411720Y-1992416D01*
G01X-4402322Y-1992416D01*
G01X-4392924Y-1995464D01*
G01X-4386828Y-2001814D01*
G01X-4383780Y-2010958D01*
G01X-4383780Y-2017308D01*
G01X-4386828Y-2026452D01*
G01X-4392924Y-2032802D01*
G01X-4402322Y-2035850D01*
G01X-4411720Y-2035850D01*
G01X-4420864Y-2032802D01*
G01X-4423912Y-2029500D01*
G01X-4426960Y-2023404D01*
G01X-10451840Y-3080806D02*
G01X-10451840Y-3145830D01*
G01X-10408406Y-3080806D02*
G01X-10408406Y-3145830D01*
G01X-10451840Y-3111794D02*
G01X-10408406Y-3111794D01*
G01X-10335000Y-3080806D02*
G01X-10365988Y-3145830D01*
G01X-10378180Y-3080806D02*
G01X-10335000Y-3080806D01*
G01X-2173980Y-4236506D02*
G01X-2173980Y-4301530D01*
G01X-2130546Y-4236506D02*
G01X-2130546Y-4301530D01*
G01X-2173980Y-4267494D02*
G01X-2130546Y-4267494D01*
G01X-2085080Y-4236506D02*
G01X-2094224Y-4239554D01*
G01X-2097272Y-4245650D01*
G01X-2097272Y-4252000D01*
G01X-2094224Y-4258096D01*
G01X-2088128Y-4261144D01*
G01X-2075682Y-4264192D01*
G01X-2066284Y-4267494D01*
G01X-2060188Y-4273590D01*
G01X-2057140Y-4279686D01*
G01X-2057140Y-4289084D01*
G01X-2060188Y-4295180D01*
G01X-2063236Y-4298482D01*
G01X-2072634Y-4301530D01*
G01X-2085080Y-4301530D01*
G01X-2094224Y-4298482D01*
G01X-2097272Y-4295180D01*
G01X-2100320Y-4289084D01*
G01X-2100320Y-4279686D01*
G01X-2097272Y-4273590D01*
G01X-2091176Y-4267494D01*
G01X-2081778Y-4264192D01*
G01X-2069586Y-4261144D01*
G01X-2063236Y-4258096D01*
G01X-2060188Y-4252000D01*
G01X-2060188Y-4245650D01*
G01X-2063236Y-4239554D01*
G01X-2072634Y-4236506D01*
G01X-2085080Y-4236506D01*
G01X-456940Y-2646466D02*
G01X-456940Y-2711490D01*
G01X-456940Y-2711490D02*
G01X-419856Y-2711490D01*
G01X-389630Y-2646466D02*
G01X-389630Y-2711490D01*
G01X-389630Y-2646466D02*
G01X-349498Y-2646466D01*
G01X-389630Y-2677454D02*
G01X-364992Y-2677454D01*
G01X-389630Y-2711490D02*
G01X-349498Y-2711490D01*
G01X-319272Y-2646466D02*
G01X-319272Y-2711490D01*
G01X-319272Y-2646466D02*
G01X-297682Y-2646466D01*
G01X-288538Y-2649514D01*
G01X-282188Y-2655610D01*
G01X-279140Y-2661960D01*
G01X-276092Y-2671104D01*
G01X-276092Y-2686598D01*
G01X-279140Y-2695996D01*
G01X-282188Y-2702092D01*
G01X-288538Y-2708442D01*
G01X-297682Y-2711490D01*
G01X-319272Y-2711490D01*
G01X-245866Y-2658912D02*
G01X-239770Y-2655610D01*
G01X-230626Y-2646466D01*
G01X-230626Y-2711490D01*
G01X-480232Y-2919456D02*
G01X-480232Y-2984480D01*
G01X-480232Y-2984480D02*
G01X-443148Y-2984480D01*
G01X-412922Y-2919456D02*
G01X-412922Y-2984480D01*
G01X-412922Y-2919456D02*
G01X-372790Y-2919456D01*
G01X-412922Y-2950444D02*
G01X-388284Y-2950444D01*
G01X-412922Y-2984480D02*
G01X-372790Y-2984480D01*
G01X-342564Y-2919456D02*
G01X-342564Y-2984480D01*
G01X-342564Y-2919456D02*
G01X-320974Y-2919456D01*
G01X-311830Y-2922504D01*
G01X-305480Y-2928600D01*
G01X-302432Y-2934950D01*
G01X-299384Y-2944094D01*
G01X-299384Y-2959588D01*
G01X-302432Y-2968986D01*
G01X-305480Y-2975082D01*
G01X-311830Y-2981432D01*
G01X-320974Y-2984480D01*
G01X-342564Y-2984480D01*
G01X-266110Y-2934950D02*
G01X-266110Y-2931902D01*
G01X-263062Y-2925552D01*
G01X-260014Y-2922504D01*
G01X-253918Y-2919456D01*
G01X-241472Y-2919456D01*
G01X-235122Y-2922504D01*
G01X-232074Y-2925552D01*
G01X-229026Y-2931902D01*
G01X-229026Y-2937998D01*
G01X-232074Y-2944094D01*
G01X-238424Y-2953492D01*
G01X-269158Y-2984480D01*
G01X-225978Y-2984480D01*
G01X-472180Y-3190026D02*
G01X-472180Y-3255050D01*
G01X-472180Y-3255050D02*
G01X-435096Y-3255050D01*
G01X-404870Y-3190026D02*
G01X-404870Y-3255050D01*
G01X-404870Y-3190026D02*
G01X-364738Y-3190026D01*
G01X-404870Y-3221014D02*
G01X-380232Y-3221014D01*
G01X-404870Y-3255050D02*
G01X-364738Y-3255050D01*
G01X-334512Y-3190026D02*
G01X-334512Y-3255050D01*
G01X-334512Y-3190026D02*
G01X-312922Y-3190026D01*
G01X-303778Y-3193074D01*
G01X-297428Y-3199170D01*
G01X-294380Y-3205520D01*
G01X-291332Y-3214664D01*
G01X-291332Y-3230158D01*
G01X-294380Y-3239556D01*
G01X-297428Y-3245652D01*
G01X-303778Y-3252002D01*
G01X-312922Y-3255050D01*
G01X-334512Y-3255050D01*
G01X-255010Y-3190026D02*
G01X-220974Y-3190026D01*
G01X-239516Y-3214664D01*
G01X-230372Y-3214664D01*
G01X-224022Y-3217712D01*
G01X-220974Y-3221014D01*
G01X-217926Y-3230158D01*
G01X-217926Y-3236508D01*
G01X-220974Y-3245652D01*
G01X-227070Y-3252002D01*
G01X-236468Y-3255050D01*
G01X-245866Y-3255050D01*
G01X-255010Y-3252002D01*
G01X-258058Y-3248700D01*
G01X-261106Y-3242604D01*
G01X-700780Y-2631226D02*
G01X-700780Y-2696250D01*
G01X-700780Y-2631226D02*
G01X-672840Y-2631226D01*
G01X-663696Y-2634274D01*
G01X-660648Y-2637322D01*
G01X-657346Y-2643672D01*
G01X-657346Y-2649768D01*
G01X-660648Y-2655864D01*
G01X-663696Y-2658912D01*
G01X-672840Y-2662214D01*
G01X-700780Y-2662214D01*
G01X-679190Y-2662214D02*
G01X-657346Y-2696250D01*
G01X-627120Y-2643672D02*
G01X-621024Y-2640370D01*
G01X-611880Y-2631226D01*
G01X-611880Y-2696250D01*
G01X-718560Y-2913166D02*
G01X-718560Y-2978190D01*
G01X-718560Y-2913166D02*
G01X-690620Y-2913166D01*
G01X-681476Y-2916214D01*
G01X-678428Y-2919262D01*
G01X-675126Y-2925612D01*
G01X-675126Y-2931708D01*
G01X-678428Y-2937804D01*
G01X-681476Y-2940852D01*
G01X-690620Y-2944154D01*
G01X-718560Y-2944154D01*
G01X-696970Y-2944154D02*
G01X-675126Y-2978190D01*
G01X-641852Y-2928660D02*
G01X-641852Y-2925612D01*
G01X-638804Y-2919262D01*
G01X-635756Y-2916214D01*
G01X-629660Y-2913166D01*
G01X-617214Y-2913166D01*
G01X-610864Y-2916214D01*
G01X-607816Y-2919262D01*
G01X-604768Y-2925612D01*
G01X-604768Y-2931708D01*
G01X-607816Y-2937804D01*
G01X-614166Y-2947202D01*
G01X-644900Y-2978190D01*
G01X-601720Y-2978190D01*
G01X-2125974Y-1031280D02*
G01X-2060950Y-1031280D01*
G01X-2125974Y-1031280D02*
G01X-2125974Y-1003340D01*
G01X-2122926Y-994196D01*
G01X-2119878Y-991148D01*
G01X-2113528Y-987846D01*
G01X-2107432Y-987846D01*
G01X-2101336Y-991148D01*
G01X-2098288Y-994196D01*
G01X-2094986Y-1003340D01*
G01X-2094986Y-1031280D01*
G01X-2094986Y-1009690D02*
G01X-2060950Y-987846D01*
G01X-2125974Y-951524D02*
G01X-2125974Y-917488D01*
G01X-2101336Y-936030D01*
G01X-2101336Y-926886D01*
G01X-2098288Y-920536D01*
G01X-2094986Y-917488D01*
G01X-2085842Y-914440D01*
G01X-2079492Y-914440D01*
G01X-2070348Y-917488D01*
G01X-2063998Y-923584D01*
G01X-2060950Y-932982D01*
G01X-2060950Y-942380D01*
G01X-2063998Y-951524D01*
G01X-2067300Y-954572D01*
G01X-2073396Y-957620D01*
G01X-1039794Y-4881920D02*
G01X-974770Y-4881920D01*
G01X-1039794Y-4881920D02*
G01X-1039794Y-4853980D01*
G01X-1036746Y-4844836D01*
G01X-1033698Y-4841788D01*
G01X-1027348Y-4838486D01*
G01X-1021252Y-4838486D01*
G01X-1015156Y-4841788D01*
G01X-1012108Y-4844836D01*
G01X-1008806Y-4853980D01*
G01X-1008806Y-4881920D01*
G01X-1008806Y-4860330D02*
G01X-974770Y-4838486D01*
G01X-1039794Y-4777526D02*
G01X-996614Y-4808260D01*
G01X-996614Y-4762032D01*
G01X-1039794Y-4777526D02*
G01X-974770Y-4777526D01*
G01X-1669714Y-4874300D02*
G01X-1604690Y-4874300D01*
G01X-1669714Y-4874300D02*
G01X-1669714Y-4846360D01*
G01X-1666666Y-4837216D01*
G01X-1663618Y-4834168D01*
G01X-1657268Y-4830866D01*
G01X-1651172Y-4830866D01*
G01X-1645076Y-4834168D01*
G01X-1642028Y-4837216D01*
G01X-1638726Y-4846360D01*
G01X-1638726Y-4874300D01*
G01X-1638726Y-4852710D02*
G01X-1604690Y-4830866D01*
G01X-1669714Y-4763556D02*
G01X-1669714Y-4794544D01*
G01X-1642028Y-4797592D01*
G01X-1645076Y-4794544D01*
G01X-1648124Y-4785400D01*
G01X-1648124Y-4776002D01*
G01X-1645076Y-4766604D01*
G01X-1638726Y-4760508D01*
G01X-1629582Y-4757460D01*
G01X-1623232Y-4757460D01*
G01X-1614088Y-4760508D01*
G01X-1607738Y-4766604D01*
G01X-1604690Y-4776002D01*
G01X-1604690Y-4785400D01*
G01X-1607738Y-4794544D01*
G01X-1611040Y-4797592D01*
G01X-1617136Y-4800640D01*
G01X-1440174Y-1049060D02*
G01X-1375150Y-1049060D01*
G01X-1440174Y-1049060D02*
G01X-1440174Y-1021120D01*
G01X-1437126Y-1011976D01*
G01X-1434078Y-1008928D01*
G01X-1427728Y-1005626D01*
G01X-1421632Y-1005626D01*
G01X-1415536Y-1008928D01*
G01X-1412488Y-1011976D01*
G01X-1409186Y-1021120D01*
G01X-1409186Y-1049060D01*
G01X-1409186Y-1027470D02*
G01X-1375150Y-1005626D01*
G01X-1431030Y-938316D02*
G01X-1437126Y-941364D01*
G01X-1440174Y-950762D01*
G01X-1440174Y-956858D01*
G01X-1437126Y-966256D01*
G01X-1427728Y-972352D01*
G01X-1412488Y-975400D01*
G01X-1396994Y-975400D01*
G01X-1384548Y-972352D01*
G01X-1378198Y-966256D01*
G01X-1375150Y-956858D01*
G01X-1375150Y-953810D01*
G01X-1378198Y-944666D01*
G01X-1384548Y-938316D01*
G01X-1393692Y-935268D01*
G01X-1396994Y-935268D01*
G01X-1406138Y-938316D01*
G01X-1412488Y-944666D01*
G01X-1415536Y-953810D01*
G01X-1415536Y-956858D01*
G01X-1412488Y-966256D01*
G01X-1406138Y-972352D01*
G01X-1396994Y-975400D01*
G01X-8501120Y-4508286D02*
G01X-8501120Y-4573310D01*
G01X-8501120Y-4508286D02*
G01X-8473180Y-4508286D01*
G01X-8464036Y-4511334D01*
G01X-8460988Y-4514382D01*
G01X-8457686Y-4520732D01*
G01X-8457686Y-4526828D01*
G01X-8460988Y-4532924D01*
G01X-8464036Y-4535972D01*
G01X-8473180Y-4539274D01*
G01X-8501120Y-4539274D01*
G01X-8479530Y-4539274D02*
G01X-8457686Y-4573310D01*
G01X-8384280Y-4508286D02*
G01X-8415268Y-4573310D01*
G01X-8427460Y-4508286D02*
G01X-8384280Y-4508286D01*
G01X-8277854Y-4206280D02*
G01X-8212830Y-4206280D01*
G01X-8277854Y-4206280D02*
G01X-8277854Y-4178340D01*
G01X-8274806Y-4169196D01*
G01X-8271758Y-4166148D01*
G01X-8265408Y-4162846D01*
G01X-8259312Y-4162846D01*
G01X-8253216Y-4166148D01*
G01X-8250168Y-4169196D01*
G01X-8246866Y-4178340D01*
G01X-8246866Y-4206280D01*
G01X-8246866Y-4184690D02*
G01X-8212830Y-4162846D01*
G01X-8277854Y-4117380D02*
G01X-8274806Y-4126524D01*
G01X-8268710Y-4129572D01*
G01X-8262360Y-4129572D01*
G01X-8256264Y-4126524D01*
G01X-8253216Y-4120428D01*
G01X-8250168Y-4107982D01*
G01X-8246866Y-4098584D01*
G01X-8240770Y-4092488D01*
G01X-8234674Y-4089440D01*
G01X-8225276Y-4089440D01*
G01X-8219180Y-4092488D01*
G01X-8215878Y-4095536D01*
G01X-8212830Y-4104934D01*
G01X-8212830Y-4117380D01*
G01X-8215878Y-4126524D01*
G01X-8219180Y-4129572D01*
G01X-8225276Y-4132620D01*
G01X-8234674Y-4132620D01*
G01X-8240770Y-4129572D01*
G01X-8246866Y-4123476D01*
G01X-8250168Y-4114078D01*
G01X-8253216Y-4101886D01*
G01X-8256264Y-4095536D01*
G01X-8262360Y-4092488D01*
G01X-8268710Y-4092488D01*
G01X-8274806Y-4095536D01*
G01X-8277854Y-4104934D01*
G01X-8277854Y-4117380D01*
G01X-721100Y-3184946D02*
G01X-721100Y-3249970D01*
G01X-721100Y-3184946D02*
G01X-693160Y-3184946D01*
G01X-684016Y-3187994D01*
G01X-680968Y-3191042D01*
G01X-677666Y-3197392D01*
G01X-677666Y-3203488D01*
G01X-680968Y-3209584D01*
G01X-684016Y-3212632D01*
G01X-693160Y-3215934D01*
G01X-721100Y-3215934D01*
G01X-699510Y-3215934D02*
G01X-677666Y-3249970D01*
G01X-607308Y-3206536D02*
G01X-610356Y-3215934D01*
G01X-616706Y-3222030D01*
G01X-625850Y-3225078D01*
G01X-628898Y-3225078D01*
G01X-638296Y-3222030D01*
G01X-644392Y-3215934D01*
G01X-647440Y-3206536D01*
G01X-647440Y-3203488D01*
G01X-644392Y-3194090D01*
G01X-638296Y-3187994D01*
G01X-628898Y-3184946D01*
G01X-625850Y-3184946D01*
G01X-616706Y-3187994D01*
G01X-610356Y-3194090D01*
G01X-607308Y-3206536D01*
G01X-607308Y-3222030D01*
G01X-610356Y-3237524D01*
G01X-616706Y-3246922D01*
G01X-625850Y-3249970D01*
G01X-632200Y-3249970D01*
G01X-641344Y-3246922D01*
G01X-644392Y-3240572D01*
G01X-1415714Y-4716820D02*
G01X-1350690Y-4716820D01*
G01X-1415714Y-4716820D02*
G01X-1415714Y-4688880D01*
G01X-1412666Y-4679736D01*
G01X-1409618Y-4676688D01*
G01X-1403268Y-4673386D01*
G01X-1397172Y-4673386D01*
G01X-1391076Y-4676688D01*
G01X-1388028Y-4679736D01*
G01X-1384726Y-4688880D01*
G01X-1384726Y-4716820D01*
G01X-1384726Y-4695230D02*
G01X-1350690Y-4673386D01*
G01X-1403268Y-4643160D02*
G01X-1406570Y-4637064D01*
G01X-1415714Y-4627920D01*
G01X-1350690Y-4627920D01*
G01X-1415714Y-4579152D02*
G01X-1412666Y-4588550D01*
G01X-1403268Y-4594646D01*
G01X-1388028Y-4597694D01*
G01X-1378630Y-4597694D01*
G01X-1363136Y-4594646D01*
G01X-1353738Y-4588550D01*
G01X-1350690Y-4579152D01*
G01X-1350690Y-4573056D01*
G01X-1353738Y-4563658D01*
G01X-1363136Y-4557562D01*
G01X-1378630Y-4554514D01*
G01X-1388028Y-4554514D01*
G01X-1403268Y-4557562D01*
G01X-1412666Y-4563658D01*
G01X-1415714Y-4573056D01*
G01X-1415714Y-4579152D01*
G01X-1283634Y-4711740D02*
G01X-1218610Y-4711740D01*
G01X-1283634Y-4711740D02*
G01X-1283634Y-4683800D01*
G01X-1280586Y-4674656D01*
G01X-1277538Y-4671608D01*
G01X-1271188Y-4668306D01*
G01X-1265092Y-4668306D01*
G01X-1258996Y-4671608D01*
G01X-1255948Y-4674656D01*
G01X-1252646Y-4683800D01*
G01X-1252646Y-4711740D01*
G01X-1252646Y-4690150D02*
G01X-1218610Y-4668306D01*
G01X-1271188Y-4638080D02*
G01X-1274490Y-4631984D01*
G01X-1283634Y-4622840D01*
G01X-1218610Y-4622840D01*
G01X-1271188Y-4592614D02*
G01X-1274490Y-4586518D01*
G01X-1283634Y-4577374D01*
G01X-1218610Y-4577374D01*
G01X-1747006Y-1400850D02*
G01X-1753356Y-1394754D01*
G01X-1762500Y-1391706D01*
G01X-1774946Y-1391706D01*
G01X-1784344Y-1394754D01*
G01X-1790440Y-1400850D01*
G01X-1790440Y-1407200D01*
G01X-1787392Y-1413296D01*
G01X-1784344Y-1416344D01*
G01X-1777994Y-1419392D01*
G01X-1759452Y-1425742D01*
G01X-1753356Y-1428790D01*
G01X-1750308Y-1431838D01*
G01X-1747006Y-1438188D01*
G01X-1747006Y-1447332D01*
G01X-1753356Y-1453682D01*
G01X-1762500Y-1456730D01*
G01X-1774946Y-1456730D01*
G01X-1784344Y-1453682D01*
G01X-1790440Y-1447332D01*
G01X-1716780Y-1391706D02*
G01X-1701540Y-1456730D01*
G01X-1686046Y-1391706D02*
G01X-1701540Y-1456730D01*
G01X-1686046Y-1391706D02*
G01X-1670552Y-1456730D01*
G01X-1655058Y-1391706D02*
G01X-1670552Y-1456730D01*
G01X-1624832Y-1404152D02*
G01X-1618736Y-1400850D01*
G01X-1609592Y-1391706D01*
G01X-1609592Y-1456730D01*
G01X-1084066Y-1405930D02*
G01X-1090416Y-1399834D01*
G01X-1099560Y-1396786D01*
G01X-1112006Y-1396786D01*
G01X-1121404Y-1399834D01*
G01X-1127500Y-1405930D01*
G01X-1127500Y-1412280D01*
G01X-1124452Y-1418376D01*
G01X-1121404Y-1421424D01*
G01X-1115054Y-1424472D01*
G01X-1096512Y-1430822D01*
G01X-1090416Y-1433870D01*
G01X-1087368Y-1436918D01*
G01X-1084066Y-1443268D01*
G01X-1084066Y-1452412D01*
G01X-1090416Y-1458762D01*
G01X-1099560Y-1461810D01*
G01X-1112006Y-1461810D01*
G01X-1121404Y-1458762D01*
G01X-1127500Y-1452412D01*
G01X-1053840Y-1396786D02*
G01X-1038600Y-1461810D01*
G01X-1023106Y-1396786D02*
G01X-1038600Y-1461810D01*
G01X-1023106Y-1396786D02*
G01X-1007612Y-1461810D01*
G01X-992118Y-1396786D02*
G01X-1007612Y-1461810D01*
G01X-958844Y-1412280D02*
G01X-958844Y-1409232D01*
G01X-955796Y-1402882D01*
G01X-952748Y-1399834D01*
G01X-946652Y-1396786D01*
G01X-934206Y-1396786D01*
G01X-927856Y-1399834D01*
G01X-924808Y-1402882D01*
G01X-921760Y-1409232D01*
G01X-921760Y-1415328D01*
G01X-924808Y-1421424D01*
G01X-931158Y-1430822D01*
G01X-961892Y-1461810D01*
G01X-918712Y-1461810D01*
G54D11*
G01X-7918444Y-3730805D02*
G01X-7920476Y-3726741D01*
G01X-7924540Y-3722931D01*
G01X-7928350Y-3720899D01*
G01X-7934446Y-3718867D01*
G01X-7944352Y-3718867D01*
G01X-7950194Y-3720899D01*
G01X-7954258Y-3722931D01*
G01X-7958322Y-3726741D01*
G01X-7960100Y-3730805D01*
G01X-7960100Y-3738679D01*
G01X-7958322Y-3742743D01*
G01X-7954258Y-3746553D01*
G01X-7950194Y-3748585D01*
G01X-7944352Y-3750617D01*
G01X-7934446Y-3750617D01*
G01X-7928350Y-3748585D01*
G01X-7924540Y-3746553D01*
G01X-7920476Y-3742743D01*
G01X-7918444Y-3738679D01*
G01X-7918444Y-3730805D01*
G01X-7918444Y-3772969D02*
G01X-7960100Y-3772969D01*
G01X-7918444Y-3772969D02*
G01X-7960100Y-3800655D01*
G01X-7918444Y-3800655D02*
G01X-7960100Y-3800655D01*
G54D10*
G01X-8008106Y-3234730D02*
G01X-8014456Y-3228634D01*
G01X-8023600Y-3225586D01*
G01X-8036046Y-3225586D01*
G01X-8045444Y-3228634D01*
G01X-8051540Y-3234730D01*
G01X-8051540Y-3241080D01*
G01X-8048492Y-3247176D01*
G01X-8045444Y-3250224D01*
G01X-8039094Y-3253272D01*
G01X-8020552Y-3259622D01*
G01X-8014456Y-3262670D01*
G01X-8011408Y-3265718D01*
G01X-8008106Y-3272068D01*
G01X-8008106Y-3281212D01*
G01X-8014456Y-3287562D01*
G01X-8023600Y-3290610D01*
G01X-8036046Y-3290610D01*
G01X-8045444Y-3287562D01*
G01X-8051540Y-3281212D01*
G01X-7977880Y-3225586D02*
G01X-7962640Y-3290610D01*
G01X-7947146Y-3225586D02*
G01X-7962640Y-3290610D01*
G01X-7947146Y-3225586D02*
G01X-7931652Y-3290610D01*
G01X-7916158Y-3225586D02*
G01X-7931652Y-3290610D01*
G01X-7855198Y-3225586D02*
G01X-7885932Y-3268766D01*
G01X-7839704Y-3268766D01*
G01X-7855198Y-3225586D02*
G01X-7855198Y-3290610D01*
G01X-6857740Y-2829346D02*
G01X-6857740Y-2875828D01*
G01X-6854692Y-2884972D01*
G01X-6848342Y-2891322D01*
G01X-6839198Y-2894370D01*
G01X-6832848Y-2894370D01*
G01X-6823704Y-2891322D01*
G01X-6817608Y-2884972D01*
G01X-6814306Y-2875828D01*
G01X-6814306Y-2829346D01*
G01X-6784080Y-2841792D02*
G01X-6777984Y-2838490D01*
G01X-6768840Y-2829346D01*
G01X-6768840Y-2894370D01*
G01X-9009120Y-611926D02*
G01X-9009120Y-658408D01*
G01X-9006072Y-667552D01*
G01X-8999722Y-673902D01*
G01X-8990578Y-676950D01*
G01X-8984228Y-676950D01*
G01X-8975084Y-673902D01*
G01X-8968988Y-667552D01*
G01X-8965686Y-658408D01*
G01X-8965686Y-611926D01*
G01X-8932412Y-627420D02*
G01X-8932412Y-624372D01*
G01X-8929364Y-618022D01*
G01X-8926316Y-614974D01*
G01X-8920220Y-611926D01*
G01X-8907774Y-611926D01*
G01X-8901424Y-614974D01*
G01X-8898376Y-618022D01*
G01X-8895328Y-624372D01*
G01X-8895328Y-630468D01*
G01X-8898376Y-636564D01*
G01X-8904726Y-645962D01*
G01X-8935460Y-676950D01*
G01X-8892280Y-676950D01*
G01X-4005320Y-3306866D02*
G01X-4005320Y-3353348D01*
G01X-4002272Y-3362492D01*
G01X-3995922Y-3368842D01*
G01X-3986778Y-3371890D01*
G01X-3980428Y-3371890D01*
G01X-3971284Y-3368842D01*
G01X-3965188Y-3362492D01*
G01X-3961886Y-3353348D01*
G01X-3961886Y-3306866D01*
G01X-3925564Y-3306866D02*
G01X-3891528Y-3306866D01*
G01X-3910070Y-3331504D01*
G01X-3900926Y-3331504D01*
G01X-3894576Y-3334552D01*
G01X-3891528Y-3337854D01*
G01X-3888480Y-3346998D01*
G01X-3888480Y-3353348D01*
G01X-3891528Y-3362492D01*
G01X-3897624Y-3368842D01*
G01X-3907022Y-3371890D01*
G01X-3916420Y-3371890D01*
G01X-3925564Y-3368842D01*
G01X-3928612Y-3365540D01*
G01X-3931660Y-3359444D01*
G01X-9420600Y-3405926D02*
G01X-9420600Y-3452408D01*
G01X-9417552Y-3461552D01*
G01X-9411202Y-3467902D01*
G01X-9402058Y-3470950D01*
G01X-9395708Y-3470950D01*
G01X-9386564Y-3467902D01*
G01X-9380468Y-3461552D01*
G01X-9377166Y-3452408D01*
G01X-9377166Y-3405926D01*
G01X-9316206Y-3405926D02*
G01X-9346940Y-3449106D01*
G01X-9300712Y-3449106D01*
G01X-9316206Y-3405926D02*
G01X-9316206Y-3470950D01*
G01X-7233660Y-3385606D02*
G01X-7233660Y-3432088D01*
G01X-7230612Y-3441232D01*
G01X-7224262Y-3447582D01*
G01X-7215118Y-3450630D01*
G01X-7208768Y-3450630D01*
G01X-7199624Y-3447582D01*
G01X-7193528Y-3441232D01*
G01X-7190226Y-3432088D01*
G01X-7190226Y-3385606D01*
G01X-7122916Y-3385606D02*
G01X-7153904Y-3385606D01*
G01X-7156952Y-3413292D01*
G01X-7153904Y-3410244D01*
G01X-7144760Y-3407196D01*
G01X-7135362Y-3407196D01*
G01X-7125964Y-3410244D01*
G01X-7119868Y-3416594D01*
G01X-7116820Y-3425738D01*
G01X-7116820Y-3432088D01*
G01X-7119868Y-3441232D01*
G01X-7125964Y-3447582D01*
G01X-7135362Y-3450630D01*
G01X-7144760Y-3450630D01*
G01X-7153904Y-3447582D01*
G01X-7156952Y-3444280D01*
G01X-7160000Y-3438184D01*
G01X-9048820Y-4592106D02*
G01X-9048820Y-4638588D01*
G01X-9045772Y-4647732D01*
G01X-9039422Y-4654082D01*
G01X-9030278Y-4657130D01*
G01X-9023928Y-4657130D01*
G01X-9014784Y-4654082D01*
G01X-9008688Y-4647732D01*
G01X-9005386Y-4638588D01*
G01X-9005386Y-4592106D01*
G01X-8938076Y-4601250D02*
G01X-8941124Y-4595154D01*
G01X-8950522Y-4592106D01*
G01X-8956618Y-4592106D01*
G01X-8966016Y-4595154D01*
G01X-8972112Y-4604552D01*
G01X-8975160Y-4619792D01*
G01X-8975160Y-4635286D01*
G01X-8972112Y-4647732D01*
G01X-8966016Y-4654082D01*
G01X-8956618Y-4657130D01*
G01X-8953570Y-4657130D01*
G01X-8944426Y-4654082D01*
G01X-8938076Y-4647732D01*
G01X-8935028Y-4638588D01*
G01X-8935028Y-4635286D01*
G01X-8938076Y-4626142D01*
G01X-8944426Y-4619792D01*
G01X-8953570Y-4616744D01*
G01X-8956618Y-4616744D01*
G01X-8966016Y-4619792D01*
G01X-8972112Y-4626142D01*
G01X-8975160Y-4635286D01*
G01X-8673840Y-4343186D02*
G01X-8673840Y-4389668D01*
G01X-8670792Y-4398812D01*
G01X-8664442Y-4405162D01*
G01X-8655298Y-4408210D01*
G01X-8648948Y-4408210D01*
G01X-8639804Y-4405162D01*
G01X-8633708Y-4398812D01*
G01X-8630406Y-4389668D01*
G01X-8630406Y-4343186D01*
G01X-8557000Y-4343186D02*
G01X-8587988Y-4408210D01*
G01X-8600180Y-4343186D02*
G01X-8557000Y-4343186D01*
G01X-3593840Y-2156246D02*
G01X-3593840Y-2202728D01*
G01X-3590792Y-2211872D01*
G01X-3584442Y-2218222D01*
G01X-3575298Y-2221270D01*
G01X-3568948Y-2221270D01*
G01X-3559804Y-2218222D01*
G01X-3553708Y-2211872D01*
G01X-3550406Y-2202728D01*
G01X-3550406Y-2156246D01*
G01X-3504940Y-2156246D02*
G01X-3514084Y-2159294D01*
G01X-3517132Y-2165390D01*
G01X-3517132Y-2171740D01*
G01X-3514084Y-2177836D01*
G01X-3507988Y-2180884D01*
G01X-3495542Y-2183932D01*
G01X-3486144Y-2187234D01*
G01X-3480048Y-2193330D01*
G01X-3477000Y-2199426D01*
G01X-3477000Y-2208824D01*
G01X-3480048Y-2214920D01*
G01X-3483096Y-2218222D01*
G01X-3492494Y-2221270D01*
G01X-3504940Y-2221270D01*
G01X-3514084Y-2218222D01*
G01X-3517132Y-2214920D01*
G01X-3520180Y-2208824D01*
G01X-3520180Y-2199426D01*
G01X-3517132Y-2193330D01*
G01X-3511036Y-2187234D01*
G01X-3501638Y-2183932D01*
G01X-3489446Y-2180884D01*
G01X-3483096Y-2177836D01*
G01X-3480048Y-2171740D01*
G01X-3480048Y-2165390D01*
G01X-3483096Y-2159294D01*
G01X-3492494Y-2156246D01*
G01X-3504940Y-2156246D01*
G01X-5686800Y-3322106D02*
G01X-5686800Y-3368588D01*
G01X-5683752Y-3377732D01*
G01X-5677402Y-3384082D01*
G01X-5668258Y-3387130D01*
G01X-5661908Y-3387130D01*
G01X-5652764Y-3384082D01*
G01X-5646668Y-3377732D01*
G01X-5643366Y-3368588D01*
G01X-5643366Y-3322106D01*
G01X-5573008Y-3343696D02*
G01X-5576056Y-3353094D01*
G01X-5582406Y-3359190D01*
G01X-5591550Y-3362238D01*
G01X-5594598Y-3362238D01*
G01X-5603996Y-3359190D01*
G01X-5610092Y-3353094D01*
G01X-5613140Y-3343696D01*
G01X-5613140Y-3340648D01*
G01X-5610092Y-3331250D01*
G01X-5603996Y-3325154D01*
G01X-5594598Y-3322106D01*
G01X-5591550Y-3322106D01*
G01X-5582406Y-3325154D01*
G01X-5576056Y-3331250D01*
G01X-5573008Y-3343696D01*
G01X-5573008Y-3359190D01*
G01X-5576056Y-3374684D01*
G01X-5582406Y-3384082D01*
G01X-5591550Y-3387130D01*
G01X-5597900Y-3387130D01*
G01X-5607044Y-3384082D01*
G01X-5610092Y-3377732D01*
G01X-3022340Y-3456726D02*
G01X-3022340Y-3503208D01*
G01X-3019292Y-3512352D01*
G01X-3012942Y-3518702D01*
G01X-3003798Y-3521750D01*
G01X-2997448Y-3521750D01*
G01X-2988304Y-3518702D01*
G01X-2982208Y-3512352D01*
G01X-2978906Y-3503208D01*
G01X-2978906Y-3456726D01*
G01X-2948680Y-3469172D02*
G01X-2942584Y-3465870D01*
G01X-2933440Y-3456726D01*
G01X-2933440Y-3521750D01*
G01X-2884672Y-3456726D02*
G01X-2894070Y-3459774D01*
G01X-2900166Y-3469172D01*
G01X-2903214Y-3484412D01*
G01X-2903214Y-3493810D01*
G01X-2900166Y-3509304D01*
G01X-2894070Y-3518702D01*
G01X-2884672Y-3521750D01*
G01X-2878576Y-3521750D01*
G01X-2869178Y-3518702D01*
G01X-2863082Y-3509304D01*
G01X-2860034Y-3493810D01*
G01X-2860034Y-3484412D01*
G01X-2863082Y-3469172D01*
G01X-2869178Y-3459774D01*
G01X-2878576Y-3456726D01*
G01X-2884672Y-3456726D01*
G01X-3230620Y-5209326D02*
G01X-3230620Y-5255808D01*
G01X-3227572Y-5264952D01*
G01X-3221222Y-5271302D01*
G01X-3212078Y-5274350D01*
G01X-3205728Y-5274350D01*
G01X-3196584Y-5271302D01*
G01X-3190488Y-5264952D01*
G01X-3187186Y-5255808D01*
G01X-3187186Y-5209326D01*
G01X-3156960Y-5221772D02*
G01X-3150864Y-5218470D01*
G01X-3141720Y-5209326D01*
G01X-3141720Y-5274350D01*
G01X-3111494Y-5221772D02*
G01X-3105398Y-5218470D01*
G01X-3096254Y-5209326D01*
G01X-3096254Y-5274350D01*
G01X-4671054Y-800140D02*
G01X-4624572Y-800140D01*
G01X-4615428Y-797092D01*
G01X-4609078Y-790742D01*
G01X-4606030Y-781598D01*
G01X-4606030Y-775248D01*
G01X-4609078Y-766104D01*
G01X-4615428Y-760008D01*
G01X-4624572Y-756706D01*
G01X-4671054Y-756706D01*
G01X-4658608Y-726480D02*
G01X-4661910Y-720384D01*
G01X-4671054Y-711240D01*
G01X-4606030Y-711240D01*
G01X-4655560Y-677966D02*
G01X-4658608Y-677966D01*
G01X-4664958Y-674918D01*
G01X-4668006Y-671870D01*
G01X-4671054Y-665774D01*
G01X-4671054Y-653328D01*
G01X-4668006Y-646978D01*
G01X-4664958Y-643930D01*
G01X-4658608Y-640882D01*
G01X-4652512Y-640882D01*
G01X-4646416Y-643930D01*
G01X-4637018Y-650280D01*
G01X-4606030Y-681014D01*
G01X-4606030Y-637834D01*
G01X-1830420Y-5249966D02*
G01X-1830420Y-5296448D01*
G01X-1827372Y-5305592D01*
G01X-1821022Y-5311942D01*
G01X-1811878Y-5314990D01*
G01X-1805528Y-5314990D01*
G01X-1796384Y-5311942D01*
G01X-1790288Y-5305592D01*
G01X-1786986Y-5296448D01*
G01X-1786986Y-5249966D01*
G01X-1713580Y-5259110D02*
G01X-1719676Y-5253014D01*
G01X-1729074Y-5249966D01*
G01X-1741520Y-5249966D01*
G01X-1750664Y-5253014D01*
G01X-1756760Y-5259110D01*
G01X-1756760Y-5265460D01*
G01X-1753712Y-5271556D01*
G01X-1750664Y-5274604D01*
G01X-1744568Y-5277652D01*
G01X-1726026Y-5284002D01*
G01X-1719676Y-5287050D01*
G01X-1716628Y-5290098D01*
G01X-1713580Y-5296448D01*
G01X-1713580Y-5305592D01*
G01X-1719676Y-5311942D01*
G01X-1729074Y-5314990D01*
G01X-1741520Y-5314990D01*
G01X-1750664Y-5311942D01*
G01X-1756760Y-5305592D01*
G01X-1683354Y-5249966D02*
G01X-1683354Y-5314990D01*
G01X-1683354Y-5249966D02*
G01X-1655668Y-5249966D01*
G01X-1646270Y-5253014D01*
G01X-1643222Y-5256062D01*
G01X-1640174Y-5262412D01*
G01X-1640174Y-5268508D01*
G01X-1643222Y-5274604D01*
G01X-1646270Y-5277652D01*
G01X-1655668Y-5280954D01*
G01X-1683354Y-5280954D02*
G01X-1655668Y-5280954D01*
G01X-1646270Y-5284002D01*
G01X-1643222Y-5287050D01*
G01X-1640174Y-5293146D01*
G01X-1640174Y-5302544D01*
G01X-1643222Y-5308640D01*
G01X-1646270Y-5311942D01*
G01X-1655668Y-5314990D01*
G01X-1683354Y-5314990D01*
G01X-1563720Y-5265460D02*
G01X-1566768Y-5259110D01*
G01X-1572864Y-5253014D01*
G01X-1579214Y-5249966D01*
G01X-1591406Y-5249966D01*
G01X-1597756Y-5253014D01*
G01X-1603852Y-5259110D01*
G01X-1606900Y-5265460D01*
G01X-1609948Y-5274604D01*
G01X-1609948Y-5290098D01*
G01X-1606900Y-5299496D01*
G01X-1603852Y-5305592D01*
G01X-1597756Y-5311942D01*
G01X-1591406Y-5314990D01*
G01X-1579214Y-5314990D01*
G01X-1572864Y-5311942D01*
G01X-1566768Y-5305592D01*
G01X-1563720Y-5299496D01*
G01X-1533494Y-5262412D02*
G01X-1527398Y-5259110D01*
G01X-1518254Y-5249966D01*
G01X-1518254Y-5314990D01*
G04 Text End*

G04 PolygonModel Start*
G01X-7292738Y-959284D02*
G01X-7292738Y-880275D01*
G01X-7392458Y-880275D02*
G01X-7392458Y-959284D01*
G01X-7377218Y-974524D02*
G01X-7307978Y-974524D01*
G01X-7292738Y-756023D02*
G01X-7292738Y-835033D01*
G01X-7392458Y-835033D02*
G01X-7392458Y-756023D01*
G01X-7377218Y-740783D02*
G01X-7307978Y-740783D01*
G01X-7392458Y-959284D02*
G03X-7377218Y-974524I15240J0D01*
G01X-7307978Y-974524D02*
G03X-7292738Y-959284I0J15240D01*
G01X-7392458Y-756023D02*
G02X-7377218Y-740783I15240J0D01*
G01X-7307978Y-740783D02*
G02X-7292738Y-756023I0J-15240D01*
G01X-7165738Y-959284D02*
G01X-7165738Y-880275D01*
G01X-7265458Y-880275D02*
G01X-7265458Y-959284D01*
G01X-7250218Y-974524D02*
G01X-7180978Y-974524D01*
G01X-7165738Y-756023D02*
G01X-7165738Y-835033D01*
G01X-7265458Y-835033D02*
G01X-7265458Y-756023D01*
G01X-7250218Y-740783D02*
G01X-7180978Y-740783D01*
G01X-7265458Y-959284D02*
G03X-7250218Y-974524I15240J0D01*
G01X-7180978Y-974524D02*
G03X-7165738Y-959284I0J15240D01*
G01X-7265458Y-756023D02*
G02X-7250218Y-740783I15240J0D01*
G01X-7180978Y-740783D02*
G02X-7165738Y-756023I0J-15240D01*
G01X-2005465Y-672990D02*
G01X-2005465Y-751999D01*
G01X-1905744Y-751999D02*
G01X-1905744Y-672990D01*
G01X-1920984Y-657750D02*
G01X-1990225Y-657750D01*
G01X-2005465Y-876251D02*
G01X-2005465Y-797241D01*
G01X-1905744Y-797241D02*
G01X-1905744Y-876251D01*
G01X-1920984Y-891491D02*
G01X-1990225Y-891491D01*
G01X-1905744Y-672990D02*
G03X-1920984Y-657750I-15240J0D01*
G01X-1990225Y-657750D02*
G03X-2005465Y-672990I0J-15240D01*
G01X-1905744Y-876251D02*
G02X-1920984Y-891491I-15240J0D01*
G01X-1990225Y-891491D02*
G02X-2005465Y-876251I0J15240D01*
G01X-1725886Y-4890598D02*
G01X-1804895Y-4890598D01*
G01X-1804895Y-4990319D02*
G01X-1725886Y-4990319D01*
G01X-1710646Y-4975079D02*
G01X-1710646Y-4905838D01*
G01X-1929147Y-4890598D02*
G01X-1850138Y-4890598D01*
G01X-1850138Y-4990319D02*
G01X-1929147Y-4990319D01*
G01X-1944387Y-4975079D02*
G01X-1944387Y-4905838D01*
G01X-1725886Y-4990319D02*
G03X-1710646Y-4975079I0J15240D01*
G01X-1710646Y-4905838D02*
G03X-1725886Y-4890598I-15240J0D01*
G01X-1929147Y-4990319D02*
G02X-1944387Y-4975079I0J15240D01*
G01X-1944387Y-4905838D02*
G02X-1929147Y-4890598I15240J0D01*
G01X-1327285Y-672990D02*
G01X-1327285Y-751999D01*
G01X-1227564Y-751999D02*
G01X-1227564Y-672990D01*
G01X-1242804Y-657750D02*
G01X-1312045Y-657750D01*
G01X-1327285Y-876251D02*
G01X-1327285Y-797241D01*
G01X-1227564Y-797241D02*
G01X-1227564Y-876251D01*
G01X-1242804Y-891491D02*
G01X-1312045Y-891491D01*
G01X-1227564Y-672990D02*
G03X-1242804Y-657750I-15240J0D01*
G01X-1312045Y-657750D02*
G03X-1327285Y-672990I0J-15240D01*
G01X-1227564Y-876251D02*
G02X-1242804Y-891491I-15240J0D01*
G01X-1312045Y-891491D02*
G02X-1327285Y-876251I0J15240D01*
G01X-9856696Y-2402314D02*
G01X-9935705Y-2402314D01*
G01X-9935705Y-2502034D02*
G01X-9856696Y-2502034D01*
G01X-9841456Y-2486794D02*
G01X-9841456Y-2417554D01*
G01X-10059957Y-2402314D02*
G01X-9980948Y-2402314D01*
G01X-9980948Y-2502034D02*
G01X-10059957Y-2502034D01*
G01X-10075197Y-2486794D02*
G01X-10075197Y-2417554D01*
G01X-9856696Y-2502034D02*
G03X-9841456Y-2486794I0J15240D01*
G01X-9841456Y-2417554D02*
G03X-9856696Y-2402314I-15240J0D01*
G01X-10059957Y-2502034D02*
G02X-10075197Y-2486794I0J15240D01*
G01X-10075197Y-2417554D02*
G02X-10059957Y-2402314I15240J0D01*
G01X-8951640Y-4017347D02*
G01X-8951640Y-3938338D01*
G01X-9051360Y-3938338D02*
G01X-9051360Y-4017347D01*
G01X-9036120Y-4032587D02*
G01X-8966880Y-4032587D01*
G01X-8951640Y-3814086D02*
G01X-8951640Y-3893095D01*
G01X-9051360Y-3893095D02*
G01X-9051360Y-3814086D01*
G01X-9036120Y-3798846D02*
G01X-8966880Y-3798846D01*
G01X-9051360Y-4017347D02*
G03X-9036120Y-4032587I15240J0D01*
G01X-8966880Y-4032587D02*
G03X-8951640Y-4017347I0J15240D01*
G01X-9051360Y-3814086D02*
G02X-9036120Y-3798846I15240J0D01*
G01X-8966880Y-3798846D02*
G02X-8951640Y-3814086I0J-15240D01*
G01X-3914559Y-1670374D02*
G01X-3914559Y-2035611D01*
G01X-4209798Y-1670374D02*
G01X-4209798Y-2035611D01*
G01X-3914559Y-1943424D02*
G01X-4209798Y-1943424D01*
G01X-3914559Y-1670374D02*
G01X-3923055Y-1670374D01*
G01X-4209798Y-1670374D02*
G01X-4201302Y-1670374D01*
G36*
G01X-3906939Y-2027994D02*
G01X-3906939Y-2073714D01*
G01X-3928138Y-2073714D01*
G01X-3928138Y-2027994D01*
G01X-3906939Y-2027994D01*
G37*
G36*
G01X-4217418Y-2027994D02*
G01X-4196219Y-2027994D01*
G01X-4196219Y-2073714D01*
G01X-4217418Y-2073714D01*
G01X-4217418Y-2027994D01*
G37*
G01X-2310533Y-4017347D02*
G01X-2310533Y-3938338D01*
G01X-2410253Y-3938338D02*
G01X-2410253Y-4017347D01*
G01X-2395013Y-4032587D02*
G01X-2325773Y-4032587D01*
G01X-2310533Y-3814086D02*
G01X-2310533Y-3893095D01*
G01X-2410253Y-3893095D02*
G01X-2410253Y-3814086D01*
G01X-2395013Y-3798846D02*
G01X-2325773Y-3798846D01*
G01X-2410253Y-4017347D02*
G03X-2395013Y-4032587I15240J0D01*
G01X-2325773Y-4032587D02*
G03X-2310533Y-4017347I0J15240D01*
G01X-2410253Y-3814086D02*
G02X-2395013Y-3798846I15240J0D01*
G01X-2325773Y-3798846D02*
G02X-2310533Y-3814086I0J-15240D01*
G01X-3534480Y-3814086D02*
G01X-3534480Y-3893095D01*
G01X-3434760Y-3893095D02*
G01X-3434760Y-3814086D01*
G01X-3450000Y-3798846D02*
G01X-3519240Y-3798846D01*
G01X-3534480Y-4017347D02*
G01X-3534480Y-3938338D01*
G01X-3434760Y-3938338D02*
G01X-3434760Y-4017347D01*
G01X-3450000Y-4032587D02*
G01X-3519240Y-4032587D01*
G01X-3434760Y-3814086D02*
G03X-3450000Y-3798846I-15240J0D01*
G01X-3519240Y-3798846D02*
G03X-3534480Y-3814086I0J-15240D01*
G01X-3434760Y-4017347D02*
G02X-3450000Y-4032587I-15240J0D01*
G01X-3519240Y-4032587D02*
G02X-3534480Y-4017347I0J15240D01*
G01X-3861522Y-1751362D02*
G01X-3861522Y-1830371D01*
G01X-3761801Y-1830371D02*
G01X-3761801Y-1751362D01*
G01X-3777041Y-1736122D02*
G01X-3846282Y-1736122D01*
G01X-3861522Y-1954623D02*
G01X-3861522Y-1875614D01*
G01X-3761801Y-1875614D02*
G01X-3761801Y-1954623D01*
G01X-3777041Y-1969863D02*
G01X-3846282Y-1969863D01*
G01X-3761801Y-1751362D02*
G03X-3777041Y-1736122I-15240J0D01*
G01X-3846282Y-1736122D02*
G03X-3861522Y-1751362I0J-15240D01*
G01X-3761801Y-1954623D02*
G02X-3777041Y-1969863I-15240J0D01*
G01X-3846282Y-1969863D02*
G02X-3861522Y-1954623I0J15240D01*
G54D12*
G01X-4382794Y-5766600D02*
G01X-4382794Y-6226594D01*
G01X-3582694Y-5766600D02*
G01X-3582694Y-6226594D01*
G01X-4403713Y-5626595D02*
G01X-4482794Y-5626595D01*
G01X-4482794Y-6226594D02*
G01X-4482794Y-5630100D01*
G01X-3582694Y-5766600D02*
G01X-4382794Y-5766600D01*
G01X-3482694Y-6226594D02*
G01X-4482794Y-6226594D01*
G01X-3603613Y-5626595D02*
G01X-3482694Y-5626595D01*
G01X-3803765Y-5626595D02*
G01X-3761774Y-5626595D01*
G01X-4003663Y-5626595D02*
G01X-3961926Y-5626595D01*
G01X-4203815Y-5626595D02*
G01X-4161824Y-5626595D01*
G01X-4403713Y-5626595D02*
G01X-4361976Y-5626595D01*
G01X-4282616Y-5866599D02*
G01X-4282616Y-6166599D01*
G01X-4282616Y-6166599D02*
G01X-4282616Y-5866599D01*
G01X-4082617Y-5866599D02*
G01X-4082617Y-6166599D01*
G01X-4082693Y-6166599D02*
G01X-4082693Y-5866599D01*
G01X-3882693Y-5866599D02*
G01X-3882693Y-6166599D01*
G01X-3882693Y-6166599D02*
G01X-3882693Y-5866599D01*
G01X-3682694Y-5866599D02*
G01X-3682694Y-6166599D01*
G01X-3482694Y-5626595D02*
G01X-3482694Y-6226594D01*
G01X-7491696Y-5766600D02*
G01X-7491696Y-6226594D01*
G01X-6691596Y-5766600D02*
G01X-6691596Y-6226594D01*
G01X-7512615Y-5626595D02*
G01X-7591696Y-5626595D01*
G01X-7591696Y-6226594D02*
G01X-7591696Y-5630100D01*
G01X-6691596Y-5766600D02*
G01X-7491696Y-5766600D01*
G01X-6591596Y-6226594D02*
G01X-7591696Y-6226594D01*
G01X-6712515Y-5626595D02*
G01X-6591596Y-5626595D01*
G01X-6912667Y-5626595D02*
G01X-6870676Y-5626595D01*
G01X-7112565Y-5626595D02*
G01X-7070828Y-5626595D01*
G01X-7312717Y-5626595D02*
G01X-7270726Y-5626595D01*
G01X-7512615Y-5626595D02*
G01X-7470878Y-5626595D01*
G01X-7391518Y-5866599D02*
G01X-7391518Y-6166599D01*
G01X-7391518Y-6166599D02*
G01X-7391518Y-5866599D01*
G01X-7191519Y-5866599D02*
G01X-7191519Y-6166599D01*
G01X-7191595Y-6166599D02*
G01X-7191595Y-5866599D01*
G01X-6991595Y-5866599D02*
G01X-6991595Y-6166599D01*
G01X-6991595Y-6166599D02*
G01X-6991595Y-5866599D01*
G01X-6791596Y-5866599D02*
G01X-6791596Y-6166599D01*
G01X-6591596Y-5626595D02*
G01X-6591596Y-6226594D01*
G01X-5937245Y-5767771D02*
G01X-5937245Y-6227765D01*
G01X-5137145Y-5767771D02*
G01X-5137145Y-6227765D01*
G01X-5958164Y-5627766D02*
G01X-6037245Y-5627766D01*
G01X-6037245Y-6227765D02*
G01X-6037245Y-5631272D01*
G01X-5137145Y-5767771D02*
G01X-5937245Y-5767771D01*
G01X-5037145Y-6227765D02*
G01X-6037245Y-6227765D01*
G01X-5158064Y-5627766D02*
G01X-5037145Y-5627766D01*
G01X-5358216Y-5627766D02*
G01X-5316225Y-5627766D01*
G01X-5558114Y-5627766D02*
G01X-5516377Y-5627766D01*
G01X-5758266Y-5627766D02*
G01X-5716275Y-5627766D01*
G01X-5958164Y-5627766D02*
G01X-5916427Y-5627766D01*
G01X-5837067Y-5867771D02*
G01X-5837067Y-6167770D01*
G01X-5837067Y-6167770D02*
G01X-5837067Y-5867771D01*
G01X-5637068Y-5867771D02*
G01X-5637068Y-6167770D01*
G01X-5637144Y-6167770D02*
G01X-5637144Y-5867771D01*
G01X-5437144Y-5867771D02*
G01X-5437144Y-6167770D01*
G01X-5437144Y-6167770D02*
G01X-5437144Y-5867771D01*
G01X-5237145Y-5867771D02*
G01X-5237145Y-6167770D01*
G01X-5037145Y-5627766D02*
G01X-5037145Y-6227765D01*
G54D13*
G01X-1913003Y-5027500D02*
G01X-1783000Y-5027500D01*
G01X-1913003Y-5127500D02*
G01X-1783000Y-5127500D01*
G54D14*
G01X-1848001Y-5054640D02*
G01X-1848001Y-5102900D01*
G36*
G01X-1848001Y-5077500D02*
G01X-1825141Y-5049560D01*
G01X-1825141Y-5105440D01*
G01X-1848001Y-5077500D01*
G37*
G36*
G01X-1848001Y-5077500D02*
G01X-1870861Y-5105440D01*
G01X-1870861Y-5049560D01*
G01X-1848001Y-5077500D01*
G37*
G54D13*
G01X-1499661Y-5027500D02*
G01X-1369659Y-5027500D01*
G01X-1499661Y-5127500D02*
G01X-1369659Y-5127500D01*
G54D14*
G01X-1434660Y-5054640D02*
G01X-1434660Y-5102900D01*
G36*
G01X-1434660Y-5077500D02*
G01X-1411800Y-5049560D01*
G01X-1411800Y-5105440D01*
G01X-1434660Y-5077500D01*
G37*
G36*
G01X-1434660Y-5077500D02*
G01X-1457520Y-5105440D01*
G01X-1457520Y-5049560D01*
G01X-1434660Y-5077500D01*
G37*
G54D13*
G01X-1130899Y-5127500D02*
G01X-1260901Y-5127500D01*
G01X-1130899Y-5027500D02*
G01X-1260901Y-5027500D01*
G54D14*
G01X-1195900Y-5100360D02*
G01X-1195900Y-5052100D01*
G36*
G01X-1195900Y-5077500D02*
G01X-1218760Y-5105440D01*
G01X-1218760Y-5049560D01*
G01X-1195900Y-5077500D01*
G37*
G36*
G01X-1195900Y-5077500D02*
G01X-1173040Y-5049560D01*
G01X-1173040Y-5105440D01*
G01X-1195900Y-5077500D01*
G37*
G54D10*
G01X-4061008Y-4974370D02*
G01X-4061008Y-4859130D01*
G01X-3900769Y-4859130D02*
G01X-3900769Y-4974370D01*
G01X-7279915Y-4974370D02*
G01X-7279915Y-4859130D01*
G01X-7119676Y-4859130D02*
G01X-7119676Y-4974370D01*
G54D15*
G01X-9715197Y-4020505D02*
G01X-10092438Y-4020505D01*
G54D10*
G01X-9715197Y-3847734D02*
G01X-9715197Y-4396475D01*
G01X-10092438Y-3847734D02*
G01X-10092438Y-4396475D01*
G01X-9715197Y-4396475D02*
G01X-9773879Y-4396475D01*
G01X-10092438Y-4396475D02*
G01X-10033757Y-4396475D01*
G36*
G01X-9707577Y-3855354D02*
G01X-9778959Y-3855354D01*
G01X-9778959Y-3809634D01*
G01X-9707577Y-3809634D01*
G01X-9707577Y-3855354D01*
G37*
G36*
G01X-10100058Y-3855354D02*
G01X-10100058Y-3809634D01*
G01X-10028677Y-3809634D01*
G01X-10028677Y-3855354D01*
G01X-10100058Y-3855354D01*
G37*
G54D17*
G01X-9955815Y-3333542D02*
G01X-9955815Y-3285542D01*
G01X-9955815Y-3285542D02*
G01X-9955815Y-3282544D01*
G01X-9955815Y-3282544D02*
G01X-9945813Y-3272542D01*
G01X-9945813Y-3272542D02*
G01X-9871815Y-3272542D01*
G01X-9871815Y-3272542D02*
G01X-9860814Y-3272542D01*
G01X-9860814Y-3272542D02*
G01X-9853814Y-3279542D01*
G01X-9853814Y-3279542D02*
G01X-9853814Y-3332542D01*
G01X-9944817Y-3254541D02*
G01X-9868815Y-3254541D01*
G01X-9862818Y-3436524D02*
G01X-9938820Y-3436524D01*
G01X-9851820Y-3357523D02*
G01X-9851820Y-3405524D01*
G01X-9851820Y-3405524D02*
G01X-9851820Y-3408521D01*
G01X-9851820Y-3408521D02*
G01X-9861823Y-3418523D01*
G01X-9861823Y-3418523D02*
G01X-9935821Y-3418523D01*
G01X-9935821Y-3418523D02*
G01X-9946821Y-3418523D01*
G01X-9946821Y-3418523D02*
G01X-9953822Y-3411523D01*
G01X-9953822Y-3411523D02*
G01X-9953822Y-3358523D01*
G54D10*
G01X-2267772Y-4838566D02*
G01X-2267772Y-5123806D01*
G01X-2453012Y-4838566D02*
G01X-2453012Y-5123806D01*
G36*
G01X-2267391Y-4899186D02*
G01X-2267391Y-4924586D01*
G01X-2452631Y-4924586D01*
G01X-2452631Y-4899186D01*
G01X-2267391Y-4899186D01*
G37*
G36*
G01X-2265392Y-4831185D02*
G01X-2265392Y-4867185D01*
G01X-2283390Y-4867185D01*
G01X-2283390Y-4831185D01*
G01X-2265392Y-4831185D01*
G37*
G36*
G01X-2455389Y-4867187D02*
G01X-2455389Y-4831188D01*
G01X-2437393Y-4831188D01*
G01X-2437393Y-4867187D01*
G01X-2455389Y-4867187D01*
G37*
G54D17*
G01X-8794084Y-3430027D02*
G01X-8842084Y-3430027D01*
G01X-8842084Y-3430027D02*
G01X-8845082Y-3430027D01*
G01X-8845082Y-3430027D02*
G01X-8855084Y-3420024D01*
G01X-8855084Y-3420024D02*
G01X-8855084Y-3346027D01*
G01X-8855084Y-3346027D02*
G01X-8855084Y-3335026D01*
G01X-8855084Y-3335026D02*
G01X-8848084Y-3328026D01*
G01X-8848084Y-3328026D02*
G01X-8795084Y-3328026D01*
G01X-8873085Y-3419029D02*
G01X-8873085Y-3343027D01*
G01X-8691102Y-3337030D02*
G01X-8691102Y-3413032D01*
G01X-8770103Y-3326032D02*
G01X-8722102Y-3326032D01*
G01X-8722102Y-3326032D02*
G01X-8719105Y-3326032D01*
G01X-8719105Y-3326032D02*
G01X-8709103Y-3336034D01*
G01X-8709103Y-3336034D02*
G01X-8709103Y-3410032D01*
G01X-8709103Y-3410032D02*
G01X-8709103Y-3421033D01*
G01X-8709103Y-3421033D02*
G01X-8716103Y-3428033D01*
G01X-8716103Y-3428033D02*
G01X-8769103Y-3428033D01*
G01X-8454094Y-3326032D02*
G01X-8406093Y-3326032D01*
G01X-8406093Y-3326032D02*
G01X-8403096Y-3326032D01*
G01X-8403096Y-3326032D02*
G01X-8393094Y-3336034D01*
G01X-8393094Y-3336034D02*
G01X-8393094Y-3410032D01*
G01X-8393094Y-3410032D02*
G01X-8393094Y-3421033D01*
G01X-8393094Y-3421033D02*
G01X-8400094Y-3428033D01*
G01X-8400094Y-3428033D02*
G01X-8453094Y-3428033D01*
G01X-8375093Y-3337030D02*
G01X-8375093Y-3413032D01*
G01X-8557076Y-3419029D02*
G01X-8557076Y-3343027D01*
G01X-8478074Y-3430027D02*
G01X-8526075Y-3430027D01*
G01X-8526075Y-3430027D02*
G01X-8529073Y-3430027D01*
G01X-8529073Y-3430027D02*
G01X-8539075Y-3420024D01*
G01X-8539075Y-3420024D02*
G01X-8539075Y-3346027D01*
G01X-8539075Y-3346027D02*
G01X-8539075Y-3335026D01*
G01X-8539075Y-3335026D02*
G01X-8532075Y-3328026D01*
G01X-8532075Y-3328026D02*
G01X-8479075Y-3328026D01*
G01X-9955815Y-3587542D02*
G01X-9955815Y-3539542D01*
G01X-9955815Y-3539542D02*
G01X-9955815Y-3536544D01*
G01X-9955815Y-3536544D02*
G01X-9945813Y-3526542D01*
G01X-9945813Y-3526542D02*
G01X-9871815Y-3526542D01*
G01X-9871815Y-3526542D02*
G01X-9860814Y-3526542D01*
G01X-9860814Y-3526542D02*
G01X-9853814Y-3533542D01*
G01X-9853814Y-3533542D02*
G01X-9853814Y-3586542D01*
G01X-9944817Y-3508541D02*
G01X-9868815Y-3508541D01*
G01X-9862818Y-3690524D02*
G01X-9938820Y-3690524D01*
G01X-9851820Y-3611523D02*
G01X-9851820Y-3659524D01*
G01X-9851820Y-3659524D02*
G01X-9851820Y-3662521D01*
G01X-9851820Y-3662521D02*
G01X-9861823Y-3672523D01*
G01X-9861823Y-3672523D02*
G01X-9935821Y-3672523D01*
G01X-9935821Y-3672523D02*
G01X-9946821Y-3672523D01*
G01X-9946821Y-3672523D02*
G01X-9953822Y-3665523D01*
G01X-9953822Y-3665523D02*
G01X-9953822Y-3612523D01*
G01X-4788964Y-1756209D02*
G01X-4788964Y-1708208D01*
G01X-4788964Y-1708208D02*
G01X-4788964Y-1705211D01*
G01X-4788964Y-1705211D02*
G01X-4778961Y-1695209D01*
G01X-4778961Y-1695209D02*
G01X-4704963Y-1695209D01*
G01X-4704963Y-1695209D02*
G01X-4693963Y-1695209D01*
G01X-4693963Y-1695209D02*
G01X-4686962Y-1702209D01*
G01X-4686962Y-1702209D02*
G01X-4686962Y-1755209D01*
G01X-4777966Y-1677208D02*
G01X-4701964Y-1677208D01*
G01X-4695967Y-1859191D02*
G01X-4771969Y-1859191D01*
G01X-4684969Y-1780189D02*
G01X-4684969Y-1828190D01*
G01X-4684969Y-1828190D02*
G01X-4684969Y-1831188D01*
G01X-4684969Y-1831188D02*
G01X-4694971Y-1841190D01*
G01X-4694971Y-1841190D02*
G01X-4768969Y-1841190D01*
G01X-4768969Y-1841190D02*
G01X-4779970Y-1841190D01*
G01X-4779970Y-1841190D02*
G01X-4786970Y-1834190D01*
G01X-4786970Y-1834190D02*
G01X-4786970Y-1781190D01*
G01X-4788964Y-1523878D02*
G01X-4788964Y-1475877D01*
G01X-4788964Y-1475877D02*
G01X-4788964Y-1472880D01*
G01X-4788964Y-1472880D02*
G01X-4778961Y-1462877D01*
G01X-4778961Y-1462877D02*
G01X-4704963Y-1462877D01*
G01X-4704963Y-1462877D02*
G01X-4693963Y-1462877D01*
G01X-4693963Y-1462877D02*
G01X-4686962Y-1469878D01*
G01X-4686962Y-1469878D02*
G01X-4686962Y-1522877D01*
G01X-4777966Y-1444876D02*
G01X-4701964Y-1444876D01*
G01X-4695967Y-1626860D02*
G01X-4771969Y-1626860D01*
G01X-4684969Y-1547858D02*
G01X-4684969Y-1595859D01*
G01X-4684969Y-1595859D02*
G01X-4684969Y-1598856D01*
G01X-4684969Y-1598856D02*
G01X-4694971Y-1608859D01*
G01X-4694971Y-1608859D02*
G01X-4768969Y-1608859D01*
G01X-4768969Y-1608859D02*
G01X-4779970Y-1608859D01*
G01X-4779970Y-1608859D02*
G01X-4786970Y-1601859D01*
G01X-4786970Y-1601859D02*
G01X-4786970Y-1548859D01*
G01X-4788964Y-1291547D02*
G01X-4788964Y-1243546D01*
G01X-4788964Y-1243546D02*
G01X-4788964Y-1240549D01*
G01X-4788964Y-1240549D02*
G01X-4778961Y-1230546D01*
G01X-4778961Y-1230546D02*
G01X-4704963Y-1230546D01*
G01X-4704963Y-1230546D02*
G01X-4693963Y-1230546D01*
G01X-4693963Y-1230546D02*
G01X-4686962Y-1237546D01*
G01X-4686962Y-1237546D02*
G01X-4686962Y-1290546D01*
G01X-4777966Y-1212545D02*
G01X-4701964Y-1212545D01*
G01X-4695967Y-1394529D02*
G01X-4771969Y-1394529D01*
G01X-4684969Y-1315527D02*
G01X-4684969Y-1363528D01*
G01X-4684969Y-1363528D02*
G01X-4684969Y-1366525D01*
G01X-4684969Y-1366525D02*
G01X-4694971Y-1376528D01*
G01X-4694971Y-1376528D02*
G01X-4768969Y-1376528D01*
G01X-4768969Y-1376528D02*
G01X-4779970Y-1376528D01*
G01X-4779970Y-1376528D02*
G01X-4786970Y-1369527D01*
G01X-4786970Y-1369527D02*
G01X-4786970Y-1316528D01*
G01X-4684969Y-1083196D02*
G01X-4684969Y-1131197D01*
G01X-4684969Y-1131197D02*
G01X-4684969Y-1134194D01*
G01X-4684969Y-1134194D02*
G01X-4694971Y-1144196D01*
G01X-4694971Y-1144196D02*
G01X-4768969Y-1144196D01*
G01X-4768969Y-1144196D02*
G01X-4779970Y-1144196D01*
G01X-4779970Y-1144196D02*
G01X-4786970Y-1137196D01*
G01X-4786970Y-1137196D02*
G01X-4786970Y-1084196D01*
G01X-4695967Y-1162197D02*
G01X-4771969Y-1162197D01*
G01X-4777966Y-980214D02*
G01X-4701964Y-980214D01*
G01X-4788964Y-1059216D02*
G01X-4788964Y-1011215D01*
G01X-4788964Y-1011215D02*
G01X-4788964Y-1008217D01*
G01X-4788964Y-1008217D02*
G01X-4778961Y-998215D01*
G01X-4778961Y-998215D02*
G01X-4704963Y-998215D01*
G01X-4704963Y-998215D02*
G01X-4693963Y-998215D01*
G01X-4693963Y-998215D02*
G01X-4686962Y-1005215D01*
G01X-4686962Y-1005215D02*
G01X-4686962Y-1058215D01*
G54D10*
G01X-2215654Y-4008335D02*
G01X-2215654Y-4127347D01*
G01X-2215654Y-3823095D02*
G01X-2215654Y-3704086D01*
G01X-2200414Y-4142587D02*
G01X-2012372Y-4142587D01*
G01X-2200414Y-3688846D02*
G01X-2012372Y-3688846D01*
G01X-1997132Y-4127347D02*
G01X-1997132Y-4008335D01*
G01X-1997132Y-3704086D02*
G01X-1997132Y-3823095D01*
G54D18*
G01X-2106393Y-3915717D02*
G02X-2190888Y-3915717I-42247J73175D01*
G01X-2106393Y-3915717D02*
G02X-2021898Y-3915717I42247J-73175D01*
G54D12*
G01X-4302107Y-1168055D02*
G01X-4302107Y-1927703D01*
G01X-4302107Y-1927703D02*
G01X-4556107Y-1927703D01*
G01X-4556107Y-1927703D02*
G01X-4556107Y-911703D01*
G01X-4556107Y-911703D02*
G01X-4302107Y-911703D01*
G01X-4302107Y-911703D02*
G01X-4302107Y-1168055D01*
G01X-4302107Y-1168055D02*
G01X-4556107Y-1168055D01*
G01X-10261958Y-3507389D02*
G01X-10261958Y-4267037D01*
G01X-10261958Y-4267037D02*
G01X-10515958Y-4267037D01*
G01X-10515958Y-4267037D02*
G01X-10515958Y-3251037D01*
G01X-10515958Y-3251037D02*
G01X-10261958Y-3251037D01*
G01X-10261958Y-3251037D02*
G01X-10261958Y-3507389D01*
G01X-10261958Y-3507389D02*
G01X-10515958Y-3507389D01*
G54D19*
G01X-1915893Y-4619903D02*
G01X-1725393Y-4619903D01*
G01X-1725393Y-4619903D02*
G01X-1725393Y-4365903D01*
G01X-1725393Y-4365903D02*
G01X-2487393Y-4365903D01*
G01X-2487393Y-4365903D02*
G01X-2487393Y-4619903D01*
G54D20*
G01X-2487393Y-4619903D02*
G01X-1915893Y-4619903D01*
G54D21*
G01X-363951Y-2476023D02*
G01X-470631Y-2476023D01*
G01X-470631Y-2476023D02*
G01X-470631Y-2595403D01*
G01X-470631Y-2595403D02*
G01X-363951Y-2595403D01*
G54D10*
G01X-221711Y-2476023D02*
G01X-217901Y-2477293D01*
G01X-217901Y-2477293D02*
G01X-193771Y-2501423D01*
G01X-193771Y-2501423D02*
G01X-193771Y-2570003D01*
G01X-193771Y-2570003D02*
G01X-219171Y-2595403D01*
G01X-221711Y-2476023D02*
G01X-323311Y-2476023D01*
G01X-219171Y-2595403D02*
G01X-323311Y-2595403D01*
G01X-387220Y-2779350D02*
G01X-466110Y-2779350D01*
G01X-466110Y-2779350D02*
G01X-466110Y-2879070D01*
G01X-466110Y-2879070D02*
G01X-387220Y-2879070D01*
G01X-327982Y-2779350D02*
G01X-264332Y-2779350D01*
G01X-264332Y-2779350D02*
G01X-249092Y-2794590D01*
G01X-249092Y-2794590D02*
G01X-249092Y-2863830D01*
G01X-249092Y-2863830D02*
G01X-264332Y-2879070D01*
G01X-264332Y-2879070D02*
G01X-327982Y-2879070D01*
G36*
G01X-233852Y-2794590D02*
G01X-218612Y-2794590D01*
G01X-218612Y-2863830D01*
G01X-233852Y-2863830D01*
G01X-233852Y-2794590D01*
G37*
G01X-387217Y-3033352D02*
G01X-466110Y-3033352D01*
G01X-466110Y-3033352D02*
G01X-466110Y-3133068D01*
G01X-466110Y-3133068D02*
G01X-387217Y-3133068D01*
G01X-327985Y-3033352D02*
G01X-264330Y-3033352D01*
G01X-264330Y-3033352D02*
G01X-249092Y-3048590D01*
G01X-249092Y-3048590D02*
G01X-249092Y-3117830D01*
G01X-249092Y-3117830D02*
G01X-264330Y-3133068D01*
G01X-264330Y-3133068D02*
G01X-327985Y-3133068D01*
G36*
G01X-233852Y-3048590D02*
G01X-218612Y-3048590D01*
G01X-218612Y-3117830D01*
G01X-233852Y-3117830D01*
G01X-233852Y-3048590D01*
G37*
G01X-659622Y-2586970D02*
G01X-731426Y-2586970D01*
G01X-731426Y-2586970D02*
G01X-731426Y-2487250D01*
G01X-731426Y-2487250D02*
G01X-659622Y-2487250D01*
G01X-614380Y-2586970D02*
G01X-542577Y-2586970D01*
G01X-542577Y-2586970D02*
G01X-542577Y-2487250D01*
G01X-542577Y-2487250D02*
G01X-614380Y-2487250D01*
G01X-659622Y-2879070D02*
G01X-731426Y-2879070D01*
G01X-731426Y-2879070D02*
G01X-731426Y-2779350D01*
G01X-731426Y-2779350D02*
G01X-659622Y-2779350D01*
G01X-614380Y-2879070D02*
G01X-542577Y-2879070D01*
G01X-542577Y-2879070D02*
G01X-542577Y-2779350D01*
G01X-542577Y-2779350D02*
G01X-614380Y-2779350D01*
G01X-2137480Y-751999D02*
G01X-2137480Y-680196D01*
G01X-2137480Y-680196D02*
G01X-2037760Y-680196D01*
G01X-2037760Y-680196D02*
G01X-2037760Y-751999D01*
G01X-2137480Y-797241D02*
G01X-2137480Y-869045D01*
G01X-2137480Y-869045D02*
G01X-2037760Y-869045D01*
G01X-2037760Y-869045D02*
G01X-2037760Y-797241D01*
G01X-1060341Y-5004079D02*
G01X-1060341Y-4932275D01*
G01X-1060341Y-4932275D02*
G01X-960620Y-4932275D01*
G01X-960620Y-4932275D02*
G01X-960620Y-5004079D01*
G01X-1060341Y-5049321D02*
G01X-1060341Y-5121124D01*
G01X-1060341Y-5121124D02*
G01X-960620Y-5121124D01*
G01X-960620Y-5121124D02*
G01X-960620Y-5049321D01*
G01X-1677561Y-5004079D02*
G01X-1677561Y-4932275D01*
G01X-1677561Y-4932275D02*
G01X-1577840Y-4932275D01*
G01X-1577840Y-4932275D02*
G01X-1577840Y-5004079D01*
G01X-1677561Y-5049321D02*
G01X-1677561Y-5121124D01*
G01X-1677561Y-5121124D02*
G01X-1577840Y-5121124D01*
G01X-1577840Y-5121124D02*
G01X-1577840Y-5049321D01*
G01X-1464445Y-751999D02*
G01X-1464445Y-680196D01*
G01X-1464445Y-680196D02*
G01X-1364724Y-680196D01*
G01X-1364724Y-680196D02*
G01X-1364724Y-751999D01*
G01X-1464445Y-797241D02*
G01X-1464445Y-869045D01*
G01X-1464445Y-869045D02*
G01X-1364724Y-869045D01*
G01X-1364724Y-869045D02*
G01X-1364724Y-797241D01*
G01X-8621497Y-4485451D02*
G01X-8549693Y-4485451D01*
G01X-8549693Y-4485451D02*
G01X-8549693Y-4585171D01*
G01X-8549693Y-4585171D02*
G01X-8621497Y-4585171D01*
G01X-8666739Y-4485451D02*
G01X-8738542Y-4485451D01*
G01X-8738542Y-4485451D02*
G01X-8738542Y-4585171D01*
G01X-8738542Y-4585171D02*
G01X-8666739Y-4585171D01*
G01X-8287680Y-3893095D02*
G01X-8287680Y-3821292D01*
G01X-8287680Y-3821292D02*
G01X-8187959Y-3821292D01*
G01X-8187959Y-3821292D02*
G01X-8187959Y-3893095D01*
G01X-8287680Y-3938338D02*
G01X-8287680Y-4010141D01*
G01X-8287680Y-4010141D02*
G01X-8187959Y-4010141D01*
G01X-8187959Y-4010141D02*
G01X-8187959Y-3938338D01*
G01X-614380Y-3033350D02*
G01X-542577Y-3033350D01*
G01X-542577Y-3033350D02*
G01X-542577Y-3133070D01*
G01X-542577Y-3133070D02*
G01X-614380Y-3133070D01*
G01X-659622Y-3033350D02*
G01X-731426Y-3033350D01*
G01X-731426Y-3033350D02*
G01X-731426Y-3133070D01*
G01X-731426Y-3133070D02*
G01X-659622Y-3133070D01*
G01X-1327587Y-4922321D02*
G01X-1327587Y-4994124D01*
G01X-1327587Y-4994124D02*
G01X-1427307Y-4994124D01*
G01X-1427307Y-4994124D02*
G01X-1427307Y-4922321D01*
G01X-1327587Y-4877079D02*
G01X-1327587Y-4805275D01*
G01X-1327587Y-4805275D02*
G01X-1427307Y-4805275D01*
G01X-1427307Y-4805275D02*
G01X-1427307Y-4877079D01*
G01X-1203254Y-4922321D02*
G01X-1203254Y-4994124D01*
G01X-1203254Y-4994124D02*
G01X-1302974Y-4994124D01*
G01X-1302974Y-4994124D02*
G01X-1302974Y-4922321D01*
G01X-1203254Y-4877079D02*
G01X-1203254Y-4805275D01*
G01X-1203254Y-4805275D02*
G01X-1302974Y-4805275D01*
G01X-1302974Y-4805275D02*
G01X-1302974Y-4877079D01*
G54D12*
G01X-1514505Y-488337D02*
G01X-1514505Y-1088336D01*
G01X-1755706Y-889936D02*
G01X-1755706Y-686736D01*
G01X-1755706Y-686736D02*
G01X-1603306Y-686736D01*
G01X-1603306Y-686736D02*
G01X-1603306Y-889936D01*
G01X-1603306Y-889936D02*
G01X-1755706Y-889936D01*
G01X-1844507Y-1088336D02*
G01X-1844507Y-488337D01*
G01X-1844507Y-1088336D02*
G01X-1779397Y-1088336D01*
G01X-1583172Y-1088336D02*
G01X-1514505Y-1088336D01*
G01X-1514505Y-488337D02*
G01X-1587741Y-488337D01*
G01X-1774825Y-488337D02*
G01X-1844507Y-488337D01*
G01X-836325Y-488337D02*
G01X-836325Y-1088336D01*
G01X-1077526Y-889936D02*
G01X-1077526Y-686736D01*
G01X-1077526Y-686736D02*
G01X-925126Y-686736D01*
G01X-925126Y-686736D02*
G01X-925126Y-889936D01*
G01X-925126Y-889936D02*
G01X-1077526Y-889936D01*
G01X-1166327Y-1088336D02*
G01X-1166327Y-488337D01*
G01X-1166327Y-1088336D02*
G01X-1101217Y-1088336D01*
G01X-904992Y-1088336D02*
G01X-836325Y-1088336D01*
G01X-836325Y-488337D02*
G01X-909561Y-488337D01*
G01X-1096645Y-488337D02*
G01X-1166327Y-488337D01*
G01X-7854205Y-4240214D02*
G01X-7815320Y-4240214D01*
G01X-8069320Y-4240214D02*
G01X-8030435Y-4240214D01*
G01X-7857606Y-3605214D02*
G01X-7815320Y-3605214D01*
G01X-8069320Y-3605214D02*
G01X-8027034Y-3605214D01*
G01X-8069320Y-4240214D02*
G01X-8069320Y-3605214D01*
G01X-7815320Y-3605214D02*
G01X-7815320Y-4240214D01*
G01X-7866120Y-3681414D02*
G01X-7866120Y-4164014D01*
G01X-7866120Y-4164014D02*
G01X-8018520Y-4164014D01*
G01X-8018520Y-4164014D02*
G01X-8018520Y-3681414D01*
G01X-8018520Y-3681414D02*
G01X-7866120Y-3681414D01*
G01X-7866120Y-4087814D02*
G01X-8018520Y-3986214D01*
G01X-8018520Y-3986214D02*
G01X-7866120Y-3986214D01*
G01X-8018520Y-4113214D02*
G01X-7866120Y-4113214D01*
G01X-7942320Y-3986214D02*
G01X-7866120Y-4037014D01*
G01X-8018520Y-4037014D02*
G01X-7916920Y-4113214D01*
G01X-5386061Y-639122D02*
G01X-5386061Y-150663D01*
G01X-5386061Y-150663D02*
G01X-5609581Y-150663D01*
G01X-5589261Y-639122D02*
G01X-5589261Y-150663D01*
G01X-5589261Y-150663D02*
G01X-5874478Y-150663D01*
G01X-5874478Y-150663D02*
G01X-5874478Y-366563D01*
G01X-5874478Y-366563D02*
G01X-6128478Y-366563D01*
G01X-6128478Y-366563D02*
G01X-6128478Y-150663D01*
G01X-6128478Y-150663D02*
G01X-6382478Y-150663D01*
G01X-6382478Y-150663D02*
G01X-6382478Y-366563D01*
G01X-6382478Y-366563D02*
G01X-6611078Y-366563D01*
G01X-6611078Y-366563D02*
G01X-6611078Y-150663D01*
G01X-6611078Y-150663D02*
G01X-6839678Y-150663D01*
G01X-6839678Y-150663D02*
G01X-6839678Y-518963D01*
G01X-7015778Y-639122D02*
G01X-5214078Y-639122D01*
G01X-5214078Y-717047D02*
G01X-5214078Y-36363D01*
G01X-5349163Y-2589063D02*
G01X-5214078Y-2589063D01*
G01X-5214078Y-2589063D02*
G01X-5214078Y-2504277D01*
G01X-7015778Y-2504277D02*
G01X-7015778Y-2589063D01*
G01X-7015778Y-2589063D02*
G01X-6882393Y-2589063D01*
G01X-7015778Y-35161D02*
G01X-7015778Y-717047D01*
G01X-5215777Y-35161D02*
G01X-7015778Y-35161D01*
G36*
G01X-6868634Y-764659D02*
G02X-6762919Y-764659I52857J0D01*
G02X-6868634Y-764659I-52857J0D01*
G37*
G01X-8332163Y-1179182D02*
G01X-8332163Y-2679184D01*
G01X-8332163Y-2679184D02*
G01X-9332166Y-2679184D01*
G01X-9332166Y-2679184D02*
G01X-9332166Y-879182D01*
G01X-9332166Y-879182D02*
G01X-8632165Y-879182D01*
G01X-8632165Y-879182D02*
G01X-8632165Y-1179182D01*
G01X-8632165Y-1179182D02*
G01X-8332163Y-1179182D01*
G01X-8132164Y-2779184D02*
G01X-9532166Y-2779184D01*
G01X-8132164Y-779183D02*
G01X-9532166Y-779183D01*
G01X-9532166Y-779183D02*
G01X-9532166Y-811070D01*
G01X-9532166Y-1209184D02*
G01X-9532166Y-1879183D01*
G01X-8132164Y-779183D02*
G01X-8132164Y-811070D01*
G01X-8132164Y-1209184D02*
G01X-8132164Y-1879183D01*
G01X-9532166Y-2779184D02*
G01X-9532166Y-2647297D01*
G01X-8132164Y-2779184D02*
G01X-8132164Y-2647297D01*
G01X-8332161Y-1079177D02*
G01X-8542168Y-1079177D01*
G01X-8542168Y-879177D01*
G01X-8332161Y-879177D01*
G01X-8332161Y-1079177D01*
G54D10*
G01X-3745728Y-3763576D02*
G01X-3745728Y-4067857D01*
G01X-3745728Y-4067857D02*
G01X-4250970Y-4067857D01*
G01X-4250970Y-4067857D02*
G01X-4250970Y-3763576D01*
G01X-4250970Y-3763576D02*
G01X-3745728Y-3763576D01*
G01X-9120477Y-3765950D02*
G01X-9120477Y-4070232D01*
G01X-9120477Y-4070232D02*
G01X-9625719Y-4070232D01*
G01X-9625719Y-4070232D02*
G01X-9625719Y-3765950D01*
G01X-9625719Y-3765950D02*
G01X-9120477Y-3765950D01*
G01X-6964636Y-3763576D02*
G01X-6964636Y-4067857D01*
G01X-6964636Y-4067857D02*
G01X-7469877Y-4067857D01*
G01X-7469877Y-4067857D02*
G01X-7469877Y-3763576D01*
G01X-7469877Y-3763576D02*
G01X-6964636Y-3763576D01*
G54D12*
G01X-9328712Y-4892504D02*
G01X-9434213Y-4892504D01*
G01X-8392955Y-4892504D02*
G01X-8498487Y-4892504D01*
G01X-8033591Y-5399386D02*
G01X-8033591Y-5162501D01*
G01X-8033591Y-5162501D02*
G01X-8198592Y-5162501D01*
G01X-8198592Y-5162501D02*
G01X-8198592Y-4892504D01*
G01X-8198592Y-4892504D02*
G01X-8244228Y-4892504D01*
G01X-9793590Y-5875611D02*
G01X-9793590Y-5997503D01*
G01X-9793590Y-5997503D02*
G01X-9628589Y-5997503D01*
G01X-9628589Y-5997503D02*
G01X-9628589Y-6227497D01*
G01X-9628589Y-6227497D02*
G01X-8198592Y-6227497D01*
G01X-8198592Y-6227497D02*
G01X-8198592Y-5999504D01*
G01X-8198592Y-5999504D02*
G01X-8200596Y-5997503D01*
G01X-8200596Y-5997503D02*
G01X-8033591Y-5997503D01*
G01X-8033591Y-5997503D02*
G01X-8033591Y-5875611D01*
G01X-9582955Y-4892504D02*
G01X-9628589Y-4892504D01*
G01X-9628589Y-4892504D02*
G01X-9628589Y-5162501D01*
G01X-9628589Y-5162501D02*
G01X-9793590Y-5162501D01*
G01X-9793590Y-5162501D02*
G01X-9793590Y-5399386D01*
G54D10*
G01X-8371469Y-3763576D02*
G01X-8371469Y-4067857D01*
G01X-8371469Y-4067857D02*
G01X-8876711Y-4067857D01*
G01X-8876711Y-4067857D02*
G01X-8876711Y-3763576D01*
G01X-8876711Y-3763576D02*
G01X-8371469Y-3763576D01*
G54D12*
G01X-3665302Y-544298D02*
G01X-2471502Y-544298D01*
G01X-3667001Y-1907501D02*
G01X-3590801Y-1907501D01*
G01X-3667001Y-1907501D02*
G01X-3667001Y-2501D01*
G01X-3667001Y-2501D02*
G01X-2473201Y-2501D01*
G01X-2473201Y-2501D02*
G01X-2473201Y-1907501D01*
G01X-2473201Y-1907501D02*
G01X-2549401Y-1907501D01*
G54D10*
G01X-5355182Y-3763576D02*
G01X-5355182Y-4067857D01*
G01X-5355182Y-4067857D02*
G01X-5860423Y-4067857D01*
G01X-5860423Y-4067857D02*
G01X-5860423Y-3763576D01*
G01X-5860423Y-3763576D02*
G01X-5355182Y-3763576D01*
G01X-3079479Y-4248337D02*
G01X-3079479Y-3583096D01*
G01X-3079479Y-3583096D02*
G01X-2805199Y-3583096D01*
G01X-2805199Y-3583096D02*
G01X-2805199Y-4248337D01*
G01X-2805199Y-4248337D02*
G01X-3079479Y-4248337D01*
G54D12*
G01X-3122392Y-5411103D02*
G01X-2106392Y-5411103D01*
G01X-3122392Y-5411103D02*
G01X-3122392Y-6231099D01*
G01X-2106392Y-5411103D02*
G01X-2106392Y-6231097D01*
G01X-3122392Y-6231097D02*
G01X-2106392Y-6231097D01*
G01X-3122392Y-5624143D02*
G01X-2106392Y-5624143D01*
G01X-3122392Y-6020381D02*
G01X-2106392Y-6020381D01*
G01X-3122392Y-6172781D02*
G01X-2106392Y-6172781D01*
G01X-3122392Y-5532218D02*
G01X-3185892Y-5532218D01*
G01X-3185892Y-5532218D02*
G01X-3185892Y-5617900D01*
G01X-3185892Y-5617900D02*
G01X-3122392Y-5617900D01*
G01X-3122392Y-6087800D02*
G01X-3185892Y-6087800D01*
G01X-3185892Y-6087800D02*
G01X-3185892Y-6173482D01*
G01X-3185892Y-6173482D02*
G01X-3122392Y-6173482D01*
G01X-4554105Y-549308D02*
G01X-4304106Y-549308D01*
G01X-4554105Y-41409D02*
G01X-4304106Y-41409D01*
G01X-4554105Y-803308D02*
G01X-4554105Y-41409D01*
G01X-4304106Y-803308D02*
G01X-4554105Y-803308D01*
G01X-4304106Y-41308D02*
G01X-4304106Y-803308D01*
G01X-1711378Y-5857466D02*
G01X-1711378Y-5671175D01*
G01X-817379Y-6229305D02*
G01X-1711378Y-6229305D01*
G01X-1711378Y-6229305D02*
G01X-1711378Y-6081174D01*
G01X-817379Y-5857502D02*
G01X-817379Y-5671140D01*
G01X-817379Y-6229305D02*
G01X-817379Y-6081139D01*

G04 Circle Start*
G54D22*
G01X-4041683Y-5018350D02*
G03X-4021668Y-5018350I10008J0D01*
G03X-4041683Y-5018350I-10008J0D01*
G01X-7260591Y-5018350D02*
G03X-7240575Y-5018350I10008J0D01*
G03X-7260591Y-5018350I-10008J0D01*
G54D18*
G01X-361411Y-2779350D02*
G03X-353791Y-2779350I3810J0D01*
G03X-361411Y-2779350I-3810J0D01*
G01X-361411Y-2879070D02*
G03X-353791Y-2879070I3810J0D01*
G03X-361411Y-2879070I-3810J0D01*
G01X-361411Y-3133070D02*
G03X-353791Y-3133070I3810J0D01*
G03X-361411Y-3133070I-3810J0D01*
G01X-361411Y-3033350D02*
G03X-353791Y-3033350I3810J0D01*
G03X-361411Y-3033350I-3810J0D01*
G54D23*
G01X-9652148Y-779178D02*
G03X-9612168Y-779178I19990J0D01*
G03X-9652148Y-779178I-19990J0D01*
G01X-3822860Y-3838805D02*
G03X-3792837Y-3838805I15011J0D01*
G03X-3822860Y-3838805I-15011J0D01*
G01X-3748210Y-3638476D02*
G03X-3718187Y-3638476I15011J0D01*
G03X-3748210Y-3638476I-15011J0D01*
G01X-9197609Y-3841180D02*
G03X-9167586Y-3841180I15011J0D01*
G03X-9197609Y-3841180I-15011J0D01*
G01X-9122959Y-3640850D02*
G03X-9092936Y-3640850I15011J0D01*
G03X-9122959Y-3640850I-15011J0D01*
G01X-7041768Y-3838805D02*
G03X-7011745Y-3838805I15011J0D01*
G03X-7041768Y-3838805I-15011J0D01*
G01X-6967117Y-3638476D02*
G03X-6937095Y-3638476I15011J0D01*
G03X-6967117Y-3638476I-15011J0D01*
G01X-8448602Y-3838805D02*
G03X-8418579Y-3838805I15011J0D01*
G03X-8448602Y-3838805I-15011J0D01*
G01X-8373951Y-3638476D02*
G03X-8343928Y-3638476I15011J0D01*
G03X-8373951Y-3638476I-15011J0D01*
G01X-3635503Y-1971502D02*
G03X-3605500Y-1971502I15001J0D01*
G03X-3635503Y-1971502I-15001J0D01*
G01X-5432314Y-3838805D02*
G03X-5402291Y-3838805I15011J0D01*
G03X-5432314Y-3838805I-15011J0D01*
G01X-5357663Y-3638476D02*
G03X-5327641Y-3638476I15011J0D01*
G03X-5357663Y-3638476I-15011J0D01*
G04 Circle End*

M02*

