G04 Layer: TopLayer*
G04 EasyEDA Pro v3.2.148, 2026-07-22 20:08:30*
G04 Gerber Generator version 0.3*
G04 Scale: 100 percent, Rotated: No, Reflected: No*
G04 Dimensions in millimeters*
G04 Leading zeros omitted, absolute positions, 4 integers and 5 decimals*
G04 Generated by one-click*
G04 Object Configs: Pad,Via,Track,Text,Image,Dimension,BoardOutline,BoardCutout,CopperFilled,SolidRegion,FPCStiffener,Line,PlaneZone,ComponentProperty,ComponentSilkscreen,TearDrop*
G04 Layer Configs: 1,2,3,4,5,6,7,8,9,10,11,13,14,56*
G04 Copper Areas: 8*
%FSLAX45Y45*%
%MOMM*%
%ADD10C,0.2032*%
%ADD11R,0.54X0.79009*%
%ADD12R,0.79009X0.54*%
%ADD13R,2.37599X1.50625*%
%ADD14C,1.524*%
%ADD15R,1.5276X1.524*%
%ADD16R,1.524X1.524*%
%ADD17R,0.6X0.4*%
%ADD18R,0.3X0.51999*%
%ADD19R,2.1924X2.04749*%
%ADD20R,0.7X0.4*%
%ADD21R,1.0X1.2*%
%ADD22R,0.4X0.7*%
%ADD23R,1.72799X1.19009*%
%ADD24C,4.5*%
%ADD25R,1.7X1.7*%
%ADD26C,1.7*%
%ADD27C,1.8*%
%ADD28R,1.5748X1.8*%
%ADD29R,0.75001X0.6*%
%ADD30R,0.63647X0.54*%
%ADD31R,0.56566X0.54*%
%ADD32R,0.54X0.56566*%
%ADD33R,1.5X1.9*%
%ADD34R,1.3X2.3*%
%ADD35R,1.5X0.9*%
%ADD36R,0.9X1.5*%
%ADD37R,0.9X0.9*%
%ADD38O,2.27X0.9*%
%ADD39O,0.58801X2.045*%
%ADD40R,0.7X2.99999*%
%ADD41R,2.4X4.29999*%
%ADD42C,1.4*%
%ADD43R,1.0X2.99999*%
%ADD44R,2.47X0.98001*%
%ADD45R,2.47X3.59999*%
%ADD46C,2.4*%
%ADD47R,0.3X1.3*%
%ADD48O,1.2X1.8*%
%ADD49O,1.2X2.0*%
%ADD50C,0.5*%
%ADD51C,0.50038*%
%ADD52C,0.1524*%
%ADD53C,0.508*%
%ADD54C,0.381*%
%ADD55C,0.3*%
%ADD56C,0.762*%
%ADD57C,0.2286*%
%ADD58C,0.254*%
%ADD59C,0.152*%
%ADD60C,1.0*%
G75*


G04 Copper Start*
G36*
G01X-2444092Y-5953800D02*
G01X-2483860Y-5914031D01*
G01X-2483860Y-5122348D01*
G01X-2449172Y-5087660D01*
G01X-2264549Y-5087660D01*
G01X-2224980Y-5127228D01*
G01X-2224980Y-5909152D01*
G01X-2269629Y-5953800D01*
G01X-2444092Y-5953800D01*
G37*
G36*
G01X-2477233Y-4840308D02*
G01X-2477233Y-4443852D01*
G01X-2437384Y-4404003D01*
G01X-2292885Y-4404003D01*
G01X-2260340Y-4436548D01*
G01X-2260340Y-4844691D01*
G01X-2284387Y-4868738D01*
G01X-2448803Y-4868738D01*
G01X-2477233Y-4840308D01*
G37*
G36*
G01X-2002253Y-4023579D02*
G01X-2002253Y-4554654D01*
G01X-2037022Y-4589423D01*
G01X-2166281Y-4589423D01*
G01X-2206446Y-4549258D01*
G01X-2206446Y-4021735D01*
G01X-2190019Y-4005309D01*
G01X-2020523Y-4005309D01*
G01X-2002253Y-4023579D01*
G37*
G36*
G01X-2024785Y-3897937D02*
G01X-2318975Y-3897937D01*
G01X-2326027Y-3895672D01*
G01X-2333393Y-3894906D01*
G01X-2387393Y-3894906D01*
G01X-2394760Y-3895672D01*
G01X-2401811Y-3897937D01*
G01X-2402998Y-3897937D01*
G01X-2430520Y-3870415D01*
G01X-2430520Y-3832900D01*
G01X-2431294Y-3829012D01*
G01X-2433496Y-3825716D01*
G01X-2481756Y-3777456D01*
G01X-2485052Y-3775253D01*
G01X-2488940Y-3774480D01*
G01X-2766672Y-3774480D01*
G01X-2781040Y-3760111D01*
G01X-2781040Y-3588188D01*
G01X-2759052Y-3566200D01*
G01X-2035949Y-3566200D01*
G01X-2013960Y-3588188D01*
G01X-2013960Y-3887111D01*
G01X-2024785Y-3897937D01*
G37*
G36*
G01X-3837680Y-3863930D02*
G01X-3837680Y-3550088D01*
G01X-3820772Y-3533180D01*
G01X-3239909Y-3533180D01*
G01X-2933004Y-3840084D01*
G01X-2929708Y-3842286D01*
G01X-2925820Y-3843060D01*
G01X-2556649Y-3843060D01*
G01X-2537200Y-3862508D01*
G01X-2537200Y-4001411D01*
G01X-2556649Y-4020860D01*
G01X-3014720Y-4020860D01*
G01X-3018608Y-4021633D01*
G01X-3021904Y-4023836D01*
G01X-3112909Y-4114840D01*
G01X-3343252Y-4114840D01*
G01X-3365240Y-4092851D01*
G01X-3365240Y-3929420D01*
G01X-3366014Y-3925532D01*
G01X-3368216Y-3922236D01*
G01X-3394619Y-3895832D01*
G01X-3397915Y-3893630D01*
G01X-3401803Y-3892857D01*
G01X-3808753Y-3892857D01*
G01X-3837680Y-3863930D01*
G37*
G36*
G01X-1046060Y-5384686D02*
G01X-1046220Y-5381306D01*
G01X-1046220Y-5194614D01*
G01X-1029959Y-5178353D01*
G01X-977451Y-5178353D01*
G01X-973844Y-5181960D01*
G01X-973844Y-5336148D01*
G01X-1002604Y-5364908D01*
G01X-1004807Y-5368204D01*
G01X-1005580Y-5372092D01*
G01X-1005580Y-5389731D01*
G01X-1009093Y-5398302D01*
G01X-1010291Y-5407486D01*
G01X-1010291Y-5532160D01*
G01X-1038660Y-5532160D01*
G01X-1038660Y-5407486D01*
G01X-1040412Y-5396423D01*
G01X-1045495Y-5386442D01*
G01X-1046060Y-5384686D01*
G37*
G36*
G01X-1518670Y-5407486D02*
G01X-1520332Y-5396700D01*
G01X-1525167Y-5386915D01*
G01X-1532724Y-5379041D01*
G01X-1542302Y-5373808D01*
G01X-1580699Y-5335411D01*
G01X-1580699Y-5291276D01*
G01X-1577742Y-5288320D01*
G01X-1530824Y-5288320D01*
G01X-1485640Y-5333504D01*
G01X-1485640Y-5389821D01*
G01X-1489116Y-5398351D01*
G01X-1490300Y-5407486D01*
G01X-1490300Y-5529620D01*
G01X-1518670Y-5529620D01*
G01X-1518670Y-5407486D01*
G37*
G36*
G01X-4175500Y-2154831D02*
G01X-4175500Y-1962588D01*
G01X-4159937Y-1947025D01*
G01X-3949695Y-1947025D01*
G01X-3939280Y-1957440D01*
G01X-3939280Y-2139591D01*
G01X-3973969Y-2174280D01*
G01X-4156052Y-2174280D01*
G01X-4175500Y-2154831D01*
G37*
G54D10*
G01X-2444092Y-5953800D02*
G01X-2483860Y-5914031D01*
G01X-2483860Y-5122348D01*
G01X-2449172Y-5087660D01*
G01X-2264549Y-5087660D01*
G01X-2224980Y-5127228D01*
G01X-2224980Y-5909152D01*
G01X-2269629Y-5953800D01*
G01X-2444092Y-5953800D01*
G01X-2477233Y-4840308D02*
G01X-2477233Y-4443852D01*
G01X-2437384Y-4404003D01*
G01X-2292885Y-4404003D01*
G01X-2260340Y-4436548D01*
G01X-2260340Y-4844691D01*
G01X-2284387Y-4868738D01*
G01X-2448803Y-4868738D01*
G01X-2477233Y-4840308D01*
G01X-2002253Y-4023579D02*
G01X-2002253Y-4554654D01*
G01X-2037022Y-4589423D01*
G01X-2166281Y-4589423D01*
G01X-2206446Y-4549258D01*
G01X-2206446Y-4021735D01*
G01X-2190019Y-4005309D01*
G01X-2020523Y-4005309D01*
G01X-2002253Y-4023579D01*
G01X-2024785Y-3897937D02*
G01X-2318975Y-3897937D01*
G03X-2333393Y-3894906I-14418J-32784D01*
G01X-2387393Y-3894906D01*
G03X-2401811Y-3897937I0J-35814D01*
G01X-2402998Y-3897937D01*
G01X-2430520Y-3870415D01*
G01X-2430520Y-3832900D01*
G03X-2433496Y-3825716I-10160J0D01*
G01X-2481756Y-3777456D01*
G03X-2488940Y-3774480I-7184J-7184D01*
G01X-2766672Y-3774480D01*
G01X-2781040Y-3760111D01*
G01X-2781040Y-3588188D01*
G01X-2759052Y-3566200D01*
G01X-2035949Y-3566200D01*
G01X-2013960Y-3588188D01*
G01X-2013960Y-3887111D01*
G01X-2024785Y-3897937D01*
G01X-3837680Y-3863930D02*
G01X-3837680Y-3550088D01*
G01X-3820772Y-3533180D01*
G01X-3239909Y-3533180D01*
G01X-2933004Y-3840084D01*
G03X-2925820Y-3843060I7184J7184D01*
G01X-2556649Y-3843060D01*
G01X-2537200Y-3862508D01*
G01X-2537200Y-4001411D01*
G01X-2556649Y-4020860D01*
G01X-3014720Y-4020860D01*
G03X-3021904Y-4023836I0J-10160D01*
G01X-3112909Y-4114840D01*
G01X-3343252Y-4114840D01*
G01X-3365240Y-4092851D01*
G01X-3365240Y-3929420D01*
G03X-3368216Y-3922236I-10160J0D01*
G01X-3394619Y-3895832D01*
G03X-3401803Y-3892857I-7184J-7184D01*
G01X-3808753Y-3892857D01*
G01X-3837680Y-3863930D01*
G01X-1046060Y-5384686D02*
G03X-1046220Y-5381306I-35814J0D01*
G01X-1046220Y-5194614D01*
G01X-1029959Y-5178353D01*
G01X-977451Y-5178353D01*
G01X-973844Y-5181960D01*
G01X-973844Y-5336148D01*
G01X-1002604Y-5364908D01*
G03X-1005580Y-5372092I7184J-7184D01*
G01X-1005580Y-5389731D01*
G03X-1010291Y-5407486I31103J-17755D01*
G01X-1010291Y-5532160D01*
G01X-1038660Y-5532160D01*
G01X-1038660Y-5407486D01*
G03X-1045495Y-5386442I-35814J0D01*
G01X-1046060Y-5384686D01*
G01X-1518670Y-5407486D02*
G03X-1542302Y-5373808I-35814J0D01*
G01X-1580699Y-5335411D01*
G01X-1580699Y-5291276D01*
G01X-1577742Y-5288320D01*
G01X-1530824Y-5288320D01*
G01X-1485640Y-5333504D01*
G01X-1485640Y-5389821D01*
G03X-1490300Y-5407486I31154J-17666D01*
G01X-1490300Y-5529620D01*
G01X-1518670Y-5529620D01*
G01X-1518670Y-5407486D01*
G01X-4175500Y-2154831D02*
G01X-4175500Y-1962588D01*
G01X-4159937Y-1947025D01*
G01X-3949695Y-1947025D01*
G01X-3939280Y-1957440D01*
G01X-3939280Y-2139591D01*
G01X-3973969Y-2174280D01*
G01X-4156052Y-2174280D01*
G01X-4175500Y-2154831D01*
G04 Copper End*

G04 TearDrop Start*
G36*
G01X-7239398Y-886762D02*
G01X-7239398Y-937562D01*
G03X-7315598Y-951667I0J-212887D01*
G01X-7315598Y-872658D01*
G03X-7239398Y-886762I76200J198783D01*
G37*
G36*
G01X-7112398Y-886762D02*
G01X-7112398Y-937562D01*
G03X-7188598Y-951667I0J-212887D01*
G01X-7188598Y-872658D01*
G03X-7112398Y-886762I76200J198783D01*
G37*
G36*
G01X-7318798Y-937562D02*
G01X-7318798Y-886762D01*
G03X-7242598Y-872658I0J212887D01*
G01X-7242598Y-951667D01*
G03X-7318798Y-937562I-76200J-198783D01*
G37*
G36*
G01X-2005405Y-738939D02*
G01X-2005405Y-723738D01*
G03X-1982605Y-712338I0J28500D01*
G01X-1982605Y-750339D01*
G03X-2005405Y-738939I-22800J-17100D01*
G37*
G36*
G01X-1963204Y-657807D02*
G01X-1948004Y-657807D01*
G03X-1936604Y-680607I28500J0D01*
G01X-1974605Y-680607D01*
G03X-1963204Y-657807I-17100J22800D01*
G37*
G36*
G01X-1865149Y-803729D02*
G01X-1865149Y-854529D01*
G03X-1928604Y-868633I0J-149792D01*
G01X-1928604Y-789624D01*
G03X-1865149Y-803729I63455J135687D01*
G37*
G36*
G01X-1327225Y-738939D02*
G01X-1327225Y-723738D01*
G03X-1304425Y-712338I0J28500D01*
G01X-1304425Y-750339D01*
G03X-1327225Y-738939I-22800J-17100D01*
G37*
G36*
G01X-1285024Y-657807D02*
G01X-1269824Y-657807D01*
G03X-1258424Y-680607I28500J0D01*
G01X-1296425Y-680607D01*
G03X-1285024Y-657807I-17100J22800D01*
G37*
G36*
G01X-1196080Y-803729D02*
G01X-1196080Y-854529D01*
G03X-1250424Y-868633I0J-111744D01*
G01X-1250424Y-789624D01*
G03X-1196080Y-803729I54344J97639D01*
G37*
G36*
G01X-9878418Y-2533588D02*
G01X-9929218Y-2533588D01*
G03X-9943323Y-2479174I-112014J0D01*
G01X-9864313Y-2479174D01*
G03X-9878418Y-2533588I97910J-54414D01*
G37*
G36*
G01X-9788113Y-2426774D02*
G01X-9788113Y-2477574D01*
G03X-9864313Y-2479174I-0J-1815062D01*
G01X-9864313Y-2425174D01*
G03X-9788113Y-2426774I76200J1813462D01*
G37*
G36*
G01X-9987435Y-2533588D02*
G01X-10038235Y-2533588D01*
G03X-10052339Y-2479174I-112014J0D01*
G01X-9973330Y-2479174D01*
G03X-9987435Y-2533588I97910J-54414D01*
G37*
G36*
G01X-3837062Y-1682780D02*
G01X-3786262Y-1682780D01*
G03X-3784661Y-1758980I1815062J-0D01*
G01X-3838662Y-1758980D01*
G03X-3837062Y-1682780I-1813462J76200D01*
G37*
G36*
G01X-3670361Y-1869401D02*
G01X-3670361Y-1945601D01*
G03X-3784661Y-1947006I1J-4651351D01*
G01X-3784661Y-1867997D01*
G01X-3784661Y-1867997D01*
G03X-3670361Y-1869401I114301J4649946D01*
G37*
G36*
G01X-3893481Y-1945601D02*
G01X-3893481Y-1869401D01*
G03X-3838662Y-1867997I0J1070449D01*
G01X-3838662Y-1947006D01*
G03X-3893481Y-1945601I-54819J-1069044D01*
G37*
G36*
G01X-9878418Y-4507922D02*
G01X-9929218Y-4507922D01*
G03X-9967318Y-4460547I-48504J0D01*
G01X-9840318Y-4460547D01*
G03X-9878418Y-4507922I10404J-47375D01*
G37*
G36*
G01X-9929218Y-3736998D02*
G01X-9878418Y-3736998D01*
G03X-9840318Y-3783662I47627J0D01*
G01X-9967318Y-3783662D01*
G03X-9929218Y-3736998I-9527J46665D01*
G37*
G36*
G01X-9717998Y-3860637D02*
G01X-9717998Y-3911437D01*
G03X-9794198Y-3949537I0J-95250D01*
G01X-9794198Y-3822537D01*
G03X-9717998Y-3860637I76200J57150D01*
G37*
G36*
G01X-10089638Y-3911437D02*
G01X-10089638Y-3860637D01*
G03X-10013438Y-3822537I0J95250D01*
G01X-10013438Y-3949537D01*
G03X-10089638Y-3911437I-76200J-57150D01*
G37*
G36*
G01X-9961679Y-3385656D02*
G01X-9961679Y-3370416D01*
G03X-9938819Y-3358986I0J28575D01*
G01X-9938819Y-3397086D01*
G03X-9961679Y-3385656I-22860J-17145D01*
G37*
G36*
G01X-9845959Y-3370416D02*
G01X-9845959Y-3385656D01*
G03X-9868819Y-3397086I0J-28575D01*
G01X-9868819Y-3358986D01*
G03X-9845959Y-3370416I22860J17145D01*
G37*
G36*
G01X-9979400Y-3332087D02*
G01X-9979400Y-3293987D01*
G03X-9938819Y-3293037I0J867253D01*
G01X-9938819Y-3333037D01*
G03X-9979400Y-3332087I-40581J-866303D01*
G37*
G36*
G01X-9961679Y-3639657D02*
G01X-9961679Y-3624417D01*
G03X-9938819Y-3612987I0J28575D01*
G01X-9938819Y-3651087D01*
G03X-9961679Y-3639657I-22860J-17145D01*
G37*
G36*
G01X-9845959Y-3624417D02*
G01X-9845959Y-3639657D01*
G03X-9868819Y-3651087I0J-28575D01*
G01X-9868819Y-3612987D01*
G03X-9845959Y-3624417I22860J17145D01*
G37*
G36*
G01X-9979400Y-3586087D02*
G01X-9979400Y-3547987D01*
G03X-9938819Y-3547037I0J867253D01*
G01X-9938819Y-3587037D01*
G03X-9979400Y-3586087I-40581J-866303D01*
G37*
G36*
G01X-4794767Y-1808762D02*
G01X-4794767Y-1793562D01*
G03X-4771967Y-1782162I-0J28500D01*
G01X-4771967Y-1820162D01*
G03X-4794767Y-1808762I-22800J-17100D01*
G37*
G36*
G01X-4679167Y-1793562D02*
G01X-4679167Y-1808762D01*
G03X-4701967Y-1820162I0J-28500D01*
G01X-4701967Y-1782162D01*
G03X-4679167Y-1793562I22800J17100D01*
G37*
G36*
G01X-4655560Y-1716654D02*
G01X-4655560Y-1754754D01*
G03X-4701967Y-1755704I-0J-1134001D01*
G01X-4701967Y-1715704D01*
G03X-4655560Y-1716654I46407J1133051D01*
G37*
G36*
G01X-4770544Y-1596432D02*
G01X-4780029Y-1584420D01*
G03X-4771967Y-1560237I-32244J24183D01*
G01X-4746361Y-1588371D01*
G03X-4770544Y-1596432I0J-40305D01*
G37*
G36*
G01X-4679167Y-1560771D02*
G01X-4679167Y-1575971D01*
G03X-4701967Y-1587371I0J-28500D01*
G01X-4701967Y-1549371D01*
G03X-4679167Y-1560771I22800J17100D01*
G37*
G36*
G01X-4655560Y-1484323D02*
G01X-4655560Y-1522423D01*
G03X-4701967Y-1523373I-0J-1134001D01*
G01X-4701967Y-1483373D01*
G03X-4655560Y-1484323I46407J1133051D01*
G37*
G36*
G01X-4766813Y-1364101D02*
G01X-4780029Y-1355820D01*
G03X-4771967Y-1331637I-32244J24183D01*
G01X-4742630Y-1356040D01*
G03X-4766813Y-1364101I0J-40305D01*
G37*
G36*
G01X-4679167Y-1328440D02*
G01X-4679167Y-1343640D01*
G03X-4701967Y-1355040I0J-28500D01*
G01X-4701967Y-1317040D01*
G03X-4679167Y-1328440I22800J17100D01*
G37*
G36*
G01X-4655560Y-1251991D02*
G01X-4655560Y-1290091D01*
G03X-4701967Y-1291041I-0J-1134001D01*
G01X-4701967Y-1251041D01*
G03X-4655560Y-1251991I46407J1133051D01*
G37*
G36*
G01X-4679165Y-1031102D02*
G01X-4679165Y-1046303D01*
G03X-4701965Y-1057703I0J-28500D01*
G01X-4701965Y-1019702D01*
G03X-4679165Y-1031102I22800J17100D01*
G37*
G36*
G01X-4794765Y-1046303D02*
G01X-4794765Y-1031102D01*
G03X-4771965Y-1019702I0J28500D01*
G01X-4771965Y-1057703D01*
G03X-4794765Y-1046303I-22800J-17100D01*
G37*
G36*
G01X-4655558Y-1084651D02*
G01X-4655558Y-1122751D01*
G03X-4701965Y-1123701I-0J-1134001D01*
G01X-4701965Y-1083701D01*
G03X-4655558Y-1084651I46407J1133051D01*
G37*
G36*
G01X-4536907Y-1046303D02*
G01X-4536907Y-1031102D01*
G03X-4514107Y-1019702I0J28500D01*
G01X-4514107Y-1057703D01*
G03X-4536907Y-1046303I-22800J-17100D01*
G37*
G36*
G01X-4545273Y-1300303D02*
G01X-4545273Y-1285102D01*
G01X-4541331Y-1284629D01*
G01X-4537353Y-1283278D01*
G01X-4533354Y-1281152D01*
G01X-4529347Y-1278351D01*
G01X-4525347Y-1274978D01*
G01X-4521368Y-1271136D01*
G01X-4513527Y-1262452D01*
G01X-4498704Y-1243940D01*
G01X-4491947Y-1235745D01*
G01X-4485773Y-1229347D01*
G01X-4485773Y-1356058D01*
G01X-4491947Y-1349660D01*
G01X-4498704Y-1341465D01*
G01X-4513527Y-1322953D01*
G01X-4521368Y-1314269D01*
G01X-4525347Y-1310427D01*
G01X-4529347Y-1307054D01*
G01X-4533354Y-1304253D01*
G01X-4537353Y-1302127D01*
G01X-4541331Y-1300776D01*
G01X-4545273Y-1300303D01*
G37*
G36*
G01X-4545273Y-1554303D02*
G01X-4545273Y-1539102D01*
G01X-4541331Y-1538629D01*
G01X-4537353Y-1537278D01*
G01X-4533354Y-1535152D01*
G01X-4529347Y-1532351D01*
G01X-4525347Y-1528978D01*
G01X-4521368Y-1525136D01*
G01X-4513527Y-1516452D01*
G01X-4498704Y-1497940D01*
G01X-4491947Y-1489745D01*
G01X-4485773Y-1483347D01*
G01X-4485773Y-1610058D01*
G01X-4491947Y-1603660D01*
G01X-4498704Y-1595465D01*
G01X-4513527Y-1576953D01*
G01X-4521368Y-1568269D01*
G01X-4525347Y-1564427D01*
G01X-4529347Y-1561054D01*
G01X-4533354Y-1558253D01*
G01X-4537353Y-1556127D01*
G01X-4541331Y-1554776D01*
G01X-4545273Y-1554303D01*
G37*
G36*
G01X-4544930Y-1808762D02*
G01X-4545615Y-1793562D01*
G01X-4541682Y-1793088D01*
G01X-4537709Y-1791733D01*
G01X-4533710Y-1789600D01*
G01X-4529700Y-1786792D01*
G01X-4525694Y-1783410D01*
G01X-4521706Y-1779558D01*
G01X-4513847Y-1770850D01*
G01X-4499002Y-1752287D01*
G01X-4492255Y-1744070D01*
G01X-4486115Y-1737655D01*
G01X-4485430Y-1864363D01*
G01X-4491637Y-1857983D01*
G01X-4498405Y-1849811D01*
G01X-4513205Y-1831350D01*
G01X-4521028Y-1822690D01*
G01X-4524999Y-1818858D01*
G01X-4528992Y-1815495D01*
G01X-4532995Y-1812702D01*
G01X-4536994Y-1810581D01*
G01X-4540977Y-1809234D01*
G01X-4544930Y-1808762D01*
G37*
G36*
G01X-2062220Y-922385D02*
G01X-2113020Y-922385D01*
G03X-2114620Y-846185I-1815062J0D01*
G01X-2060620Y-846185D01*
G03X-2062220Y-922385I1813462J-76200D01*
G37*
G36*
G01X-2137421Y-738939D02*
G01X-2137421Y-723738D01*
G03X-2114620Y-712338I0J28500D01*
G01X-2114620Y-750339D01*
G03X-2137421Y-738939I-22800J-17100D01*
G37*
G36*
G01X-2037820Y-723738D02*
G01X-2037820Y-738939D01*
G03X-2060620Y-750339I0J-28500D01*
G01X-2060620Y-712338D01*
G03X-2037820Y-723738I22800J17100D01*
G37*
G36*
G01X-1389184Y-889104D02*
G01X-1439984Y-889104D01*
G03X-1441585Y-846185I-576381J-0D01*
G01X-1387584Y-846185D01*
G03X-1389184Y-889104I574781J-42920D01*
G37*
G36*
G01X-1464385Y-738939D02*
G01X-1464385Y-723738D01*
G03X-1441585Y-712338I0J28500D01*
G01X-1441585Y-750339D01*
G03X-1464385Y-738939I-22800J-17100D01*
G37*
G36*
G01X-1364784Y-723738D02*
G01X-1364784Y-738939D01*
G03X-1387584Y-750339I0J-28500D01*
G01X-1387584Y-712338D01*
G03X-1364784Y-723738I22800J17100D01*
G37*
G36*
G01X-1814400Y-1200019D02*
G01X-1814400Y-1149219D01*
G03X-1756284Y-1111119I0J63373D01*
G01X-1756284Y-1238119D01*
G03X-1814400Y-1200019I-58115J-25273D01*
G37*
G36*
G01X-1779085Y-382221D02*
G01X-1779085Y-367021D01*
G03X-1756284Y-355621I0J28500D01*
G01X-1756284Y-393621D01*
G03X-1779085Y-382221I-22800J-17100D01*
G37*
G36*
G01X-1136220Y-1200019D02*
G01X-1136220Y-1149219D01*
G03X-1078104Y-1111119I0J63373D01*
G01X-1078104Y-1238119D01*
G03X-1136220Y-1200019I-58115J-25273D01*
G37*
G36*
G01X-1100904Y-382221D02*
G01X-1100904Y-367021D01*
G03X-1078104Y-355621I0J28500D01*
G01X-1078104Y-393621D01*
G03X-1100904Y-382221I-22800J-17100D01*
G37*
G36*
G01X-6839582Y-759762D02*
G01X-6839582Y-810562D01*
G03X-6915782Y-830162I0J-157924D01*
G01X-6915782Y-740162D01*
G03X-6839582Y-759762I76200J138324D01*
G37*
G36*
G01X-7141982Y-937562D02*
G01X-7141982Y-886762D01*
G03X-7065782Y-867162I0J157924D01*
G01X-7065782Y-957162D01*
G03X-7141982Y-937562I-76200J-138324D01*
G37*
G36*
G01X-7088582Y-1046762D02*
G01X-7088582Y-1031562D01*
G03X-7065782Y-1020162I0J28500D01*
G01X-7065782Y-1058162D01*
G03X-7088582Y-1046762I-22800J-17100D01*
G37*
G36*
G01X-7088642Y-1173782D02*
G01X-7088642Y-1158542D01*
G03X-7065782Y-1147112I0J28575D01*
G01X-7065782Y-1185212D01*
G03X-7088642Y-1173782I-22860J-17145D01*
G37*
G36*
G01X-7088642Y-1300782D02*
G01X-7088642Y-1285542D01*
G03X-7065782Y-1274112I0J28575D01*
G01X-7065782Y-1312212D01*
G03X-7088642Y-1300782I-22860J-17145D01*
G37*
G36*
G01X-7088642Y-1427782D02*
G01X-7088642Y-1412542D01*
G03X-7065782Y-1401112I0J28575D01*
G01X-7065782Y-1439212D01*
G03X-7088642Y-1427782I-22860J-17145D01*
G37*
G36*
G01X-7088582Y-1554762D02*
G01X-7088582Y-1539562D01*
G03X-7065782Y-1528162I0J28500D01*
G01X-7065782Y-1566162D01*
G03X-7088582Y-1554762I-22800J-17100D01*
G37*
G36*
G01X-7088582Y-1681762D02*
G01X-7088582Y-1666562D01*
G03X-7065782Y-1655162I0J28500D01*
G01X-7065782Y-1693162D01*
G03X-7088582Y-1681762I-22800J-17100D01*
G37*
G36*
G01X-7088582Y-1808762D02*
G01X-7088582Y-1793562D01*
G03X-7065782Y-1782162I-0J28500D01*
G01X-7065782Y-1820162D01*
G03X-7088582Y-1808762I-22800J-17100D01*
G37*
G36*
G01X-7088582Y-1935762D02*
G01X-7088582Y-1920562D01*
G03X-7065782Y-1909162I-0J28500D01*
G01X-7065782Y-1947162D01*
G03X-7088582Y-1935762I-22800J-17100D01*
G37*
G36*
G01X-7088582Y-2062762D02*
G01X-7088582Y-2047562D01*
G03X-7065782Y-2036162I-0J28500D01*
G01X-7065782Y-2074162D01*
G03X-7088582Y-2062762I-22800J-17100D01*
G37*
G36*
G01X-7088582Y-2189762D02*
G01X-7088582Y-2174562D01*
G03X-7065782Y-2163162I-0J28500D01*
G01X-7065782Y-2201162D01*
G03X-7088582Y-2189762I-22800J-17100D01*
G37*
G36*
G01X-7070900Y-2362965D02*
G01X-7077906Y-2337641D01*
G03X-7065782Y-2301271I-48493J36370D01*
G01X-7037851Y-2354162D01*
G03X-7070900Y-2362965I0J-66444D01*
G37*
G36*
G01X-7077906Y-2401368D02*
G01X-7064584Y-2382360D01*
G03X-7031535Y-2391162I33049J57641D01*
G01X-7065782Y-2437738D01*
G03X-7077906Y-2401368I-60617J0D01*
G37*
G36*
G01X-6679678Y-2661953D02*
G01X-6694878Y-2661953D01*
G03X-6706278Y-2639153I-28500J0D01*
G01X-6668277Y-2639153D01*
G03X-6679678Y-2661953I17100J-22800D01*
G37*
G36*
G01X-6552678Y-2661953D02*
G01X-6567878Y-2661953D01*
G03X-6579278Y-2639153I-28500J0D01*
G01X-6541277Y-2639153D01*
G03X-6552678Y-2661953I17100J-22800D01*
G37*
G36*
G01X-6425658Y-2662013D02*
G01X-6440898Y-2662013D01*
G03X-6452328Y-2639153I-28575J0D01*
G01X-6414228Y-2639153D01*
G03X-6425658Y-2662013I17145J-22860D01*
G37*
G36*
G01X-6298678Y-2661953D02*
G01X-6313878Y-2661953D01*
G03X-6325278Y-2639153I-28500J0D01*
G01X-6287277Y-2639153D01*
G03X-6298678Y-2661953I17100J-22800D01*
G37*
G36*
G01X-6171678Y-2661953D02*
G01X-6186878Y-2661953D01*
G03X-6198278Y-2639153I-28500J0D01*
G01X-6160277Y-2639153D01*
G03X-6171678Y-2661953I17100J-22800D01*
G37*
G36*
G01X-6044678Y-2661953D02*
G01X-6059878Y-2661953D01*
G03X-6071278Y-2639153I-28500J0D01*
G01X-6033277Y-2639153D01*
G03X-6044678Y-2661953I17100J-22800D01*
G37*
G36*
G01X-5917678Y-2661953D02*
G01X-5932878Y-2661953D01*
G03X-5944278Y-2639153I-28500J0D01*
G01X-5906277Y-2639153D01*
G03X-5917678Y-2661953I17100J-22800D01*
G37*
G36*
G01X-5790678Y-2661953D02*
G01X-5805878Y-2661953D01*
G03X-5817278Y-2639153I-28500J0D01*
G01X-5779277Y-2639153D01*
G03X-5790678Y-2661953I17100J-22800D01*
G37*
G36*
G01X-5663658Y-2662013D02*
G01X-5678898Y-2662013D01*
G03X-5690328Y-2639153I-28575J0D01*
G01X-5652228Y-2639153D01*
G03X-5663658Y-2662013I17145J-22860D01*
G37*
G36*
G01X-5536658Y-2662013D02*
G01X-5551898Y-2662013D01*
G03X-5563328Y-2639153I-28575J0D01*
G01X-5525228Y-2639153D01*
G03X-5536658Y-2662013I17145J-22860D01*
G37*
G36*
G01X-5409678Y-2658956D02*
G01X-5424878Y-2658956D01*
G03X-5436278Y-2636156I-28500J0D01*
G01X-5398277Y-2636156D01*
G03X-5409678Y-2658956I17100J-22800D01*
G37*
G36*
G01X-5142973Y-2428562D02*
G01X-5142973Y-2443762D01*
G03X-5165773Y-2455162I0J-28500D01*
G01X-5165773Y-2417162D01*
G03X-5142973Y-2428562I22800J17100D01*
G37*
G36*
G01X-5142913Y-2301542D02*
G01X-5142913Y-2316782D01*
G03X-5165773Y-2328212I0J-28575D01*
G01X-5165773Y-2290112D01*
G03X-5142913Y-2301542I22860J17145D01*
G37*
G36*
G01X-5142913Y-2174542D02*
G01X-5142913Y-2189782D01*
G03X-5165773Y-2201212I0J-28575D01*
G01X-5165773Y-2163112D01*
G03X-5142913Y-2174542I22860J17145D01*
G37*
G36*
G01X-5142913Y-2047542D02*
G01X-5142913Y-2062782D01*
G03X-5165773Y-2074212I0J-28575D01*
G01X-5165773Y-2036112D01*
G03X-5142913Y-2047542I22860J17145D01*
G37*
G36*
G01X-5142913Y-1920542D02*
G01X-5142913Y-1935782D01*
G03X-5165773Y-1947212I0J-28575D01*
G01X-5165773Y-1909112D01*
G03X-5142913Y-1920542I22860J17145D01*
G37*
G36*
G01X-5142973Y-1793562D02*
G01X-5142973Y-1808762D01*
G03X-5165773Y-1820162I0J-28500D01*
G01X-5165773Y-1782162D01*
G03X-5142973Y-1793562I22800J17100D01*
G37*
G36*
G01X-5142973Y-1666562D02*
G01X-5142973Y-1681762D01*
G03X-5165773Y-1693162I0J-28500D01*
G01X-5165773Y-1655162D01*
G03X-5142973Y-1666562I22800J17100D01*
G37*
G36*
G01X-5142973Y-1539562D02*
G01X-5142973Y-1554762D01*
G03X-5165773Y-1566162I0J-28500D01*
G01X-5165773Y-1528162D01*
G03X-5142973Y-1539562I22800J17100D01*
G37*
G36*
G01X-5142973Y-1412562D02*
G01X-5142973Y-1427762D01*
G03X-5165773Y-1439162I0J-28500D01*
G01X-5165773Y-1401162D01*
G03X-5142973Y-1412562I22800J17100D01*
G37*
G36*
G01X-5142973Y-1285562D02*
G01X-5142973Y-1300762D01*
G03X-5165773Y-1312162I0J-28500D01*
G01X-5165773Y-1274162D01*
G03X-5142973Y-1285562I22800J17100D01*
G37*
G36*
G01X-5142973Y-1158562D02*
G01X-5142973Y-1173762D01*
G03X-5165773Y-1185162I0J-28500D01*
G01X-5165773Y-1147162D01*
G03X-5142973Y-1158562I22800J17100D01*
G37*
G36*
G01X-5142973Y-1031562D02*
G01X-5142973Y-1046762D01*
G03X-5165773Y-1058162I0J-28500D01*
G01X-5165773Y-1020162D01*
G03X-5142973Y-1031562I22800J17100D01*
G37*
G36*
G01X-5142973Y-904562D02*
G01X-5142973Y-919762D01*
G03X-5165773Y-931162I0J-28500D01*
G01X-5165773Y-893162D01*
G03X-5142973Y-904562I22800J17100D01*
G37*
G36*
G01X-5391973Y-810562D02*
G01X-5391973Y-759762D01*
G03X-5315773Y-740162I0J157924D01*
G01X-5315773Y-830162D01*
G03X-5391973Y-810562I-76200J-138324D01*
G37*
G36*
G01X-2600201Y-2105700D02*
G01X-2651001Y-2105700D01*
G03X-2675601Y-2057501I-59519J0D01*
G01X-2575601Y-2057501D01*
G03X-2600201Y-2105700I34919J-48199D01*
G37*
G36*
G01X-2744981Y-2080361D02*
G01X-2760221Y-2080361D01*
G03X-2771651Y-2057501I-28575J0D01*
G01X-2733551Y-2057501D01*
G03X-2744981Y-2080361I17145J-22860D01*
G37*
G36*
G01X-2871981Y-2080361D02*
G01X-2887221Y-2080361D01*
G03X-2898651Y-2057501I-28575J0D01*
G01X-2860551Y-2057501D01*
G03X-2871981Y-2080361I17145J-22860D01*
G37*
G36*
G01X-2998981Y-2080361D02*
G01X-3014221Y-2080361D01*
G03X-3025651Y-2057501I-28575J0D01*
G01X-2987551Y-2057501D01*
G03X-2998981Y-2080361I17145J-22860D01*
G37*
G36*
G01X-3125981Y-2080361D02*
G01X-3141221Y-2080361D01*
G03X-3152651Y-2057501I-28575J0D01*
G01X-3114551Y-2057501D01*
G03X-3125981Y-2080361I17145J-22860D01*
G37*
G36*
G01X-3252981Y-2080361D02*
G01X-3268221Y-2080361D01*
G03X-3279651Y-2057501I-28575J0D01*
G01X-3241551Y-2057501D01*
G03X-3252981Y-2080361I17145J-22860D01*
G37*
G36*
G01X-3379981Y-2080361D02*
G01X-3395221Y-2080361D01*
G03X-3406651Y-2057501I-28575J0D01*
G01X-3368551Y-2057501D01*
G03X-3379981Y-2080361I17145J-22860D01*
G37*
G36*
G01X-3678901Y-1945601D02*
G01X-3678901Y-1869401D01*
G03X-3564601Y-1812251I0J142875D01*
G01X-3564601Y-2002751D01*
G03X-3678901Y-1945601I-114300J-85725D01*
G37*
G36*
G01X-4536907Y-683908D02*
G01X-4536907Y-668708D01*
G03X-4514107Y-657308I0J28500D01*
G01X-4514107Y-695308D01*
G03X-4536907Y-683908I-22800J-17100D01*
G37*
G36*
G01X-4505875Y-509824D02*
G01X-4516623Y-499076D01*
G01X-4514170Y-495954D01*
G01X-4512312Y-492185D01*
G01X-4510988Y-487854D01*
G01X-4510136Y-483040D01*
G01X-4509692Y-477827D01*
G01X-4509595Y-472297D01*
G01X-4510191Y-460611D01*
G01X-4512800Y-437040D01*
G01X-4513816Y-426467D01*
G01X-4513975Y-417578D01*
G01X-4424377Y-507176D01*
G01X-4433266Y-507017D01*
G01X-4443839Y-506002D01*
G01X-4467410Y-503392D01*
G01X-4479096Y-502796D01*
G01X-4484626Y-502893D01*
G01X-4489839Y-503337D01*
G01X-4494653Y-504189D01*
G01X-4498984Y-505513D01*
G01X-4502752Y-507371D01*
G01X-4505875Y-509824D01*
G37*
G36*
G01X-520910Y-2562510D02*
G01X-520910Y-2511710D01*
G03X-444710Y-2507110I0J633445D01*
G01X-444710Y-2567110D01*
G03X-520910Y-2562510I-76200J-628845D01*
G37*
G36*
G01X-290192Y-2484310D02*
G01X-274992Y-2484310D01*
G03X-263592Y-2507110I28500J0D01*
G01X-301592Y-2507110D01*
G03X-290192Y-2484310I-17100J22800D01*
G37*
G36*
G01X-231270Y-3057810D02*
G01X-231270Y-3108610D01*
G03X-271955Y-3110210I-0J-517995D01*
G01X-271955Y-3056210D01*
G03X-231270Y-3057810I40685J516395D01*
G37*
G36*
G01X-519447Y-3108610D02*
G01X-519447Y-3057810D01*
G03X-443247Y-3056210I0J1815062D01*
G01X-443247Y-3110210D01*
G03X-519447Y-3108610I-76200J-1813462D01*
G37*
G36*
G01X-519447Y-2854610D02*
G01X-519447Y-2803810D01*
G03X-443247Y-2802210I0J1815062D01*
G01X-443247Y-2856210D01*
G03X-519447Y-2854610I-76200J-1813462D01*
G37*
G36*
G01X-279465Y-2794149D02*
G01X-263894Y-2800073D01*
G03X-271955Y-2824256I32244J-24183D01*
G01X-303648Y-2802210D01*
G03X-279465Y-2794149I-0J40305D01*
G37*
G36*
G01X-10281098Y-3370416D02*
G01X-10281098Y-3385656D01*
G03X-10303958Y-3397086I0J-28575D01*
G01X-10303958Y-3358986D01*
G03X-10281098Y-3370416I22860J17145D01*
G37*
G36*
G01X-10272791Y-3624417D02*
G01X-10272791Y-3639657D01*
G01X-10276733Y-3640130D01*
G01X-10280710Y-3641480D01*
G01X-10284709Y-3643606D01*
G01X-10288715Y-3646406D01*
G01X-10292715Y-3649777D01*
G01X-10296695Y-3653618D01*
G01X-10304537Y-3662299D01*
G01X-10319361Y-3680805D01*
G01X-10326119Y-3688997D01*
G01X-10332291Y-3695392D01*
G01X-10332291Y-3568682D01*
G01X-10326119Y-3575077D01*
G01X-10319361Y-3583269D01*
G01X-10304537Y-3601775D01*
G01X-10296695Y-3610456D01*
G01X-10292715Y-3614297D01*
G01X-10288715Y-3617668D01*
G01X-10284709Y-3620467D01*
G01X-10280710Y-3622593D01*
G01X-10276733Y-3623944D01*
G01X-10272791Y-3624417D01*
G37*
G36*
G01X-10272791Y-3860637D02*
G01X-10272791Y-3911437D01*
G01X-10277918Y-3911655D01*
G01X-10282651Y-3912289D01*
G01X-10287035Y-3913313D01*
G01X-10291114Y-3914699D01*
G01X-10294932Y-3916418D01*
G01X-10298533Y-3918442D01*
G01X-10305260Y-3923298D01*
G01X-10311647Y-3929043D01*
G01X-10318046Y-3935455D01*
G01X-10324810Y-3942313D01*
G01X-10332291Y-3949392D01*
G01X-10332291Y-3822682D01*
G01X-10324810Y-3829761D01*
G01X-10318046Y-3836618D01*
G01X-10311647Y-3843031D01*
G01X-10305260Y-3848776D01*
G01X-10298533Y-3853632D01*
G01X-10294932Y-3855656D01*
G01X-10291114Y-3857375D01*
G01X-10287035Y-3858760D01*
G01X-10282651Y-3859785D01*
G01X-10277918Y-3860419D01*
G01X-10272791Y-3860637D01*
G37*
G36*
G01X-489237Y-2511710D02*
G01X-489237Y-2562510D01*
G03X-565437Y-2564110I-0J-1815062D01*
G01X-565437Y-2510110D01*
G03X-489237Y-2511710I76200J1813462D01*
G37*
G36*
G01X-784766Y-2562510D02*
G01X-784766Y-2511710D01*
G03X-708566Y-2510110I0J1815062D01*
G01X-708566Y-2564110D01*
G03X-784766Y-2562510I-76200J-1813462D01*
G37*
G36*
G01X-654883Y-2640310D02*
G01X-705683Y-2640310D01*
G03X-708566Y-2564110I-1008493J0D01*
G01X-652000Y-2564110D01*
G03X-654883Y-2640310I1005610J-76200D01*
G37*
G36*
G01X-489237Y-2803810D02*
G01X-489237Y-2854610D01*
G03X-565437Y-2856210I-0J-1815062D01*
G01X-565437Y-2802210D01*
G03X-489237Y-2803810I76200J1813462D01*
G37*
G36*
G01X-705683Y-2726010D02*
G01X-654883Y-2726010D01*
G03X-652000Y-2802210I1008493J0D01*
G01X-708566Y-2802210D01*
G03X-705683Y-2726010I-1005610J76200D01*
G37*
G36*
G01X-654883Y-2932410D02*
G01X-705683Y-2932410D01*
G03X-708566Y-2856210I-1008493J0D01*
G01X-652000Y-2856210D01*
G03X-654883Y-2932410I1005610J-76200D01*
G37*
G36*
G01X-705683Y-2980010D02*
G01X-654883Y-2980010D01*
G03X-652000Y-3056210I1008493J0D01*
G01X-708566Y-3056210D01*
G03X-705683Y-2980010I-1005610J76200D01*
G37*
G36*
G01X-489237Y-3057810D02*
G01X-489237Y-3108610D01*
G03X-565437Y-3110210I-0J-1815062D01*
G01X-565437Y-3056210D01*
G03X-489237Y-3057810I76200J1813462D01*
G37*
G36*
G01X-8030180Y-3485834D02*
G01X-8030180Y-3470594D01*
G03X-8007320Y-3459164I0J28575D01*
G01X-8007320Y-3497264D01*
G03X-8030180Y-3485834I-22860J-17145D01*
G37*
G36*
G01X-8030180Y-4360839D02*
G01X-8030180Y-4345599D01*
G03X-8007320Y-4334169I0J28575D01*
G01X-8007320Y-4372269D01*
G03X-8030180Y-4360839I-22860J-17145D01*
G37*
G36*
G01X-2334993Y-4064040D02*
G01X-2385793Y-4064040D01*
G03X-2387393Y-4009730I-922424J0D01*
G01X-2333393Y-4009730D01*
G03X-2334993Y-4064040I920824J-54310D01*
G37*
G36*
G01X-2385793Y-3754160D02*
G01X-2334993Y-3754160D01*
G03X-2333393Y-3821704I1426304J0D01*
G01X-2387393Y-3821704D01*
G03X-2385793Y-3754160I-1424703J67544D01*
G37*
G36*
G01X-3661620Y-3883548D02*
G01X-3661620Y-3783549D01*
G03X-3511620Y-3821704I150000J275772D01*
G01X-3511620Y-3900713D01*
G03X-3661620Y-3883548I-150000J-646845D01*
G37*
G36*
G01X-3307996Y-3783549D02*
G01X-3307996Y-3883548D01*
G03X-3457620Y-3900713I0J-660729D01*
G01X-3457620Y-3821704D01*
G03X-3307996Y-3783549I0J312451D01*
G37*
G36*
G01X-3459220Y-4064040D02*
G01X-3510020Y-4064040D01*
G03X-3511620Y-4009730I-922424J0D01*
G01X-3457620Y-4009730D01*
G03X-3459220Y-4064040I920824J-54310D01*
G37*
G36*
G01X-2633450Y-4260896D02*
G01X-2684250Y-4260896D01*
G03X-2722350Y-4194714I-76532J0D01*
G01X-2595350Y-4194714D01*
G03X-2633450Y-4260896I38432J-66183D01*
G37*
G36*
G01X-3499328Y-3883548D02*
G01X-3499328Y-3783549D01*
G03X-3349328Y-3735717I0J259114D01*
G01X-3349328Y-3958548D01*
G03X-3499328Y-3883548I-150000J-112500D01*
G37*
G36*
G01X-1746067Y-4545348D02*
G01X-1799949Y-4599229D01*
G03X-1897097Y-4582903I-97148J-280878D01*
G01X-1773653Y-4436940D01*
G03X-1746067Y-4545348I226806J0D01*
G37*
G36*
G01X-7287643Y-4962876D02*
G01X-7287643Y-4947636D01*
G03X-7264783Y-4936206I0J28575D01*
G01X-7264783Y-4974306D01*
G03X-7287643Y-4962876I-22860J-17145D01*
G37*
G36*
G01X-7242163Y-5004116D02*
G01X-7257403Y-5004116D01*
G03X-7264783Y-4981256I-39096J0D01*
G01X-7234783Y-4981256D01*
G03X-7242163Y-5004116I31714J-22860D01*
G37*
G36*
G01X-7192176Y-5004116D02*
G01X-7207416Y-5004116D01*
G03X-7214796Y-4981256I-39096J0D01*
G01X-7184796Y-4981256D01*
G03X-7192176Y-5004116I31714J-22860D01*
G37*
G36*
G01X-7096683Y-4942556D02*
G01X-7096683Y-4967956D01*
G03X-7134783Y-4981256I0J-61224D01*
G01X-7134783Y-4929257D01*
G03X-7096683Y-4942556I38100J47924D01*
G37*
G36*
G01X-7262483Y-4814144D02*
G01X-7237083Y-4814144D01*
G03X-7234783Y-4852244I316686J0D01*
G01X-7264783Y-4852244D01*
G03X-7262483Y-4814144I-314455J38100D01*
G37*
G36*
G01X-7207416Y-4829384D02*
G01X-7192176Y-4829384D01*
G03X-7184796Y-4852244I39094J0D01*
G01X-7214796Y-4852244D01*
G03X-7207416Y-4829384I-31717J22860D01*
G37*
G36*
G01X-7157403Y-4829384D02*
G01X-7142163Y-4829384D01*
G03X-7134783Y-4852244I39095J0D01*
G01X-7164783Y-4852244D01*
G03X-7157403Y-4829384I-31715J22860D01*
G37*
G36*
G01X-7001357Y-3787525D02*
G01X-7052157Y-3787525D01*
G01X-7052782Y-3759903D01*
G01X-7054157Y-3736090D01*
G01X-7056157Y-3711325D01*
G01X-6997356Y-3711325D01*
G01X-6999356Y-3736090D01*
G01X-7000731Y-3759903D01*
G01X-7001357Y-3787525D01*
G37*
G36*
G01X-7161377Y-3520372D02*
G01X-7146137Y-3520372D01*
G01X-7145880Y-3523309D01*
G01X-7145154Y-3526426D01*
G01X-7142565Y-3532793D01*
G01X-7138903Y-3538664D01*
G01X-7134707Y-3543232D01*
G01X-7172807Y-3543232D01*
G01X-7168610Y-3538664D01*
G01X-7164948Y-3532793D01*
G01X-7162359Y-3526426D01*
G01X-7161633Y-3523309D01*
G01X-7161377Y-3520372D01*
G37*
G36*
G01X-7288377Y-3520372D02*
G01X-7273137Y-3520372D01*
G01X-7272880Y-3523309D01*
G01X-7272154Y-3526426D01*
G01X-7269565Y-3532793D01*
G01X-7265903Y-3538664D01*
G01X-7261707Y-3543232D01*
G01X-7299807Y-3543232D01*
G01X-7295610Y-3538664D01*
G01X-7291948Y-3532793D01*
G01X-7289359Y-3526426D01*
G01X-7288633Y-3523309D01*
G01X-7288377Y-3520372D01*
G37*
G36*
G01X-7433157Y-3489426D02*
G01X-7382357Y-3489426D01*
G01X-7381731Y-3517048D01*
G01X-7380356Y-3540861D01*
G01X-7378356Y-3565626D01*
G01X-7437157Y-3565626D01*
G01X-7435157Y-3540861D01*
G01X-7433782Y-3517048D01*
G01X-7433157Y-3489426D01*
G37*
G36*
G01X-7019137Y-4311061D02*
G01X-7034377Y-4311061D01*
G01X-7034633Y-4308124D01*
G01X-7035359Y-4305008D01*
G01X-7037948Y-4298641D01*
G01X-7041610Y-4292769D01*
G01X-7045807Y-4288201D01*
G01X-7007707Y-4288201D01*
G01X-7011903Y-4292769D01*
G01X-7015565Y-4298641D01*
G01X-7018154Y-4305008D01*
G01X-7018880Y-4308124D01*
G01X-7019137Y-4311061D01*
G37*
G36*
G01X-7146137Y-4301423D02*
G01X-7161377Y-4301423D01*
G01X-7161633Y-4298900D01*
G01X-7162359Y-4296876D01*
G01X-7163486Y-4295225D01*
G01X-7164948Y-4293822D01*
G01X-7168610Y-4291263D01*
G01X-7172807Y-4288201D01*
G01X-7134707Y-4288201D01*
G01X-7138903Y-4291263D01*
G01X-7142565Y-4293822D01*
G01X-7144027Y-4295225D01*
G01X-7145154Y-4296876D01*
G01X-7145880Y-4298900D01*
G01X-7146137Y-4301423D01*
G37*
G36*
G01X-7273137Y-4311061D02*
G01X-7288377Y-4311061D01*
G01X-7288633Y-4308124D01*
G01X-7289359Y-4305008D01*
G01X-7291948Y-4298641D01*
G01X-7295610Y-4292769D01*
G01X-7299807Y-4288201D01*
G01X-7261707Y-4288201D01*
G01X-7265903Y-4292769D01*
G01X-7269565Y-4298641D01*
G01X-7272154Y-4305008D01*
G01X-7272880Y-4308124D01*
G01X-7273137Y-4311061D01*
G37*
G36*
G01X-7400136Y-4311061D02*
G01X-7415376Y-4311061D01*
G01X-7415633Y-4308124D01*
G01X-7416359Y-4305008D01*
G01X-7418948Y-4298641D01*
G01X-7422609Y-4292769D01*
G01X-7426806Y-4288201D01*
G01X-7388706Y-4288201D01*
G01X-7392903Y-4292769D01*
G01X-7396565Y-4298641D01*
G01X-7399154Y-4305007D01*
G01X-7399880Y-4308124D01*
G01X-7400136Y-4311061D01*
G37*
G36*
G01X-5391903Y-3787525D02*
G01X-5442703Y-3787525D01*
G01X-5443328Y-3759903D01*
G01X-5444703Y-3736090D01*
G01X-5446703Y-3711325D01*
G01X-5387902Y-3711325D01*
G01X-5389902Y-3736090D01*
G01X-5391278Y-3759903D01*
G01X-5391903Y-3787525D01*
G37*
G36*
G01X-5551923Y-3520372D02*
G01X-5536683Y-3520372D01*
G01X-5536426Y-3523309D01*
G01X-5535700Y-3526426D01*
G01X-5533111Y-3532793D01*
G01X-5529449Y-3538664D01*
G01X-5525253Y-3543232D01*
G01X-5563353Y-3543232D01*
G01X-5559156Y-3538664D01*
G01X-5555494Y-3532793D01*
G01X-5552905Y-3526426D01*
G01X-5552179Y-3523309D01*
G01X-5551923Y-3520372D01*
G37*
G36*
G01X-5678923Y-3520372D02*
G01X-5663683Y-3520372D01*
G01X-5663426Y-3523309D01*
G01X-5662700Y-3526426D01*
G01X-5660111Y-3532793D01*
G01X-5656449Y-3538664D01*
G01X-5652253Y-3543232D01*
G01X-5690353Y-3543232D01*
G01X-5686156Y-3538664D01*
G01X-5682494Y-3532793D01*
G01X-5679905Y-3526426D01*
G01X-5679179Y-3523309D01*
G01X-5678923Y-3520372D01*
G37*
G36*
G01X-5823703Y-3489426D02*
G01X-5772903Y-3489426D01*
G01X-5772278Y-3517048D01*
G01X-5770902Y-3540861D01*
G01X-5768902Y-3565626D01*
G01X-5827703Y-3565626D01*
G01X-5825703Y-3540861D01*
G01X-5824328Y-3517048D01*
G01X-5823703Y-3489426D01*
G37*
G36*
G01X-5409683Y-4311061D02*
G01X-5424923Y-4311061D01*
G01X-5425179Y-4308124D01*
G01X-5425905Y-4305008D01*
G01X-5428494Y-4298641D01*
G01X-5432156Y-4292769D01*
G01X-5436353Y-4288201D01*
G01X-5398253Y-4288201D01*
G01X-5402449Y-4292769D01*
G01X-5406111Y-4298641D01*
G01X-5408700Y-4305008D01*
G01X-5409426Y-4308124D01*
G01X-5409683Y-4311061D01*
G37*
G36*
G01X-5536683Y-4311061D02*
G01X-5551923Y-4311061D01*
G01X-5552179Y-4308124D01*
G01X-5552905Y-4305008D01*
G01X-5555494Y-4298641D01*
G01X-5559156Y-4292769D01*
G01X-5563353Y-4288201D01*
G01X-5525253Y-4288201D01*
G01X-5529449Y-4292769D01*
G01X-5533111Y-4298641D01*
G01X-5535700Y-4305008D01*
G01X-5536426Y-4308124D01*
G01X-5536683Y-4311061D01*
G37*
G36*
G01X-5663683Y-4311061D02*
G01X-5678923Y-4311061D01*
G01X-5679179Y-4308124D01*
G01X-5679905Y-4305008D01*
G01X-5682494Y-4298641D01*
G01X-5686156Y-4292769D01*
G01X-5690353Y-4288201D01*
G01X-5652253Y-4288201D01*
G01X-5656449Y-4292769D01*
G01X-5660111Y-4298641D01*
G01X-5662700Y-4305008D01*
G01X-5663426Y-4308124D01*
G01X-5663683Y-4311061D01*
G37*
G36*
G01X-5790683Y-4311061D02*
G01X-5805923Y-4311061D01*
G01X-5806179Y-4308124D01*
G01X-5806905Y-4305008D01*
G01X-5809494Y-4298641D01*
G01X-5813156Y-4292769D01*
G01X-5817353Y-4288201D01*
G01X-5779253Y-4288201D01*
G01X-5783449Y-4292769D01*
G01X-5787111Y-4298641D01*
G01X-5789700Y-4305008D01*
G01X-5790426Y-4308124D01*
G01X-5790683Y-4311061D01*
G37*
G36*
G01X-3942469Y-3520372D02*
G01X-3927229Y-3520372D01*
G01X-3926972Y-3523309D01*
G01X-3926247Y-3526426D01*
G01X-3923657Y-3532793D01*
G01X-3919996Y-3538664D01*
G01X-3915799Y-3543232D01*
G01X-3953899Y-3543232D01*
G01X-3949702Y-3538664D01*
G01X-3946041Y-3532793D01*
G01X-3943451Y-3526426D01*
G01X-3942726Y-3523309D01*
G01X-3942469Y-3520372D01*
G37*
G36*
G01X-4069469Y-3520372D02*
G01X-4054229Y-3520372D01*
G01X-4053972Y-3523309D01*
G01X-4053247Y-3526426D01*
G01X-4050657Y-3532793D01*
G01X-4046996Y-3538664D01*
G01X-4042799Y-3543232D01*
G01X-4080899Y-3543232D01*
G01X-4076702Y-3538664D01*
G01X-4073041Y-3532793D01*
G01X-4070451Y-3526426D01*
G01X-4069726Y-3523309D01*
G01X-4069469Y-3520372D01*
G37*
G36*
G01X-4214249Y-3489426D02*
G01X-4163449Y-3489426D01*
G01X-4162824Y-3517048D01*
G01X-4161449Y-3540861D01*
G01X-4159448Y-3565626D01*
G01X-4218249Y-3565626D01*
G01X-4216249Y-3540861D01*
G01X-4214874Y-3517048D01*
G01X-4214249Y-3489426D01*
G37*
G36*
G01X-3800229Y-4311061D02*
G01X-3815469Y-4311061D01*
G01X-3815726Y-4308124D01*
G01X-3816451Y-4305008D01*
G01X-3819041Y-4298641D01*
G01X-3822702Y-4292769D01*
G01X-3826899Y-4288201D01*
G01X-3788799Y-4288201D01*
G01X-3792996Y-4292769D01*
G01X-3796657Y-4298641D01*
G01X-3799247Y-4305008D01*
G01X-3799972Y-4308124D01*
G01X-3800229Y-4311061D01*
G37*
G36*
G01X-3927229Y-4311061D02*
G01X-3942469Y-4311061D01*
G01X-3942726Y-4308124D01*
G01X-3943451Y-4305008D01*
G01X-3946041Y-4298641D01*
G01X-3949702Y-4292769D01*
G01X-3953899Y-4288201D01*
G01X-3915799Y-4288201D01*
G01X-3919996Y-4292769D01*
G01X-3923657Y-4298641D01*
G01X-3926247Y-4305008D01*
G01X-3926972Y-4308124D01*
G01X-3927229Y-4311061D01*
G37*
G36*
G01X-4054229Y-4311061D02*
G01X-4069469Y-4311061D01*
G01X-4069726Y-4308124D01*
G01X-4070451Y-4305008D01*
G01X-4073041Y-4298641D01*
G01X-4076702Y-4292769D01*
G01X-4080899Y-4288201D01*
G01X-4042799Y-4288201D01*
G01X-4046996Y-4292769D01*
G01X-4050657Y-4298641D01*
G01X-4053247Y-4305008D01*
G01X-4053972Y-4308124D01*
G01X-4054229Y-4311061D01*
G37*
G36*
G01X-4181229Y-4311061D02*
G01X-4196469Y-4311061D01*
G01X-4196726Y-4308124D01*
G01X-4197451Y-4305008D01*
G01X-4200041Y-4298641D01*
G01X-4203702Y-4292769D01*
G01X-4207899Y-4288201D01*
G01X-4169799Y-4288201D01*
G01X-4173996Y-4292769D01*
G01X-4177657Y-4298641D01*
G01X-4180247Y-4305008D01*
G01X-4180972Y-4308124D01*
G01X-4181229Y-4311061D01*
G37*
G36*
G01X-4068736Y-4962876D02*
G01X-4068736Y-4947636D01*
G03X-4045876Y-4936206I0J28575D01*
G01X-4045876Y-4974306D01*
G03X-4068736Y-4962876I-22860J-17145D01*
G37*
G36*
G01X-4023256Y-5004116D02*
G01X-4038496Y-5004116D01*
G03X-4045876Y-4981256I-39095J0D01*
G01X-4015876Y-4981256D01*
G03X-4023256Y-5004116I31715J-22860D01*
G37*
G36*
G01X-3973268Y-5004116D02*
G01X-3988508Y-5004116D01*
G03X-3995888Y-4981256I-39095J0D01*
G01X-3965888Y-4981256D01*
G03X-3973268Y-5004116I31715J-22860D01*
G37*
G36*
G01X-3877776Y-4942556D02*
G01X-3877776Y-4967956D01*
G03X-3915876Y-4981256I0J-61224D01*
G01X-3915876Y-4929257D01*
G03X-3877776Y-4942556I38100J47924D01*
G37*
G36*
G01X-4043576Y-4814144D02*
G01X-4018176Y-4814144D01*
G03X-4015876Y-4852244I316723J0D01*
G01X-4045876Y-4852244D01*
G03X-4043576Y-4814144I-314423J38100D01*
G37*
G36*
G01X-3988508Y-4829384D02*
G01X-3973268Y-4829384D01*
G03X-3965888Y-4852244I39095J0D01*
G01X-3995888Y-4852244D01*
G03X-3988508Y-4829384I-31715J22860D01*
G37*
G36*
G01X-3938496Y-4829384D02*
G01X-3923256Y-4829384D01*
G03X-3915876Y-4852244I39095J0D01*
G01X-3945876Y-4852244D01*
G03X-3938496Y-4829384I-31715J22860D01*
G37*
G36*
G01X-8287680Y-3966618D02*
G01X-8287680Y-3951378D01*
G03X-8264820Y-3939948I0J28575D01*
G01X-8264820Y-3978048D01*
G03X-8287680Y-3966618I-22860J-17145D01*
G37*
G36*
G01X-8263219Y-3767952D02*
G01X-8212419Y-3767952D01*
G03X-8210819Y-3844152I1815062J-0D01*
G01X-8264820Y-3844152D01*
G03X-8263219Y-3767952I-1813462J76200D01*
G37*
G36*
G01X-8517638Y-3302447D02*
G01X-8479538Y-3302447D01*
G03X-8478588Y-3343028I867253J-0D01*
G01X-8518587Y-3343028D01*
G03X-8517638Y-3302447I-866303J40581D01*
G37*
G36*
G01X-8425969Y-3435888D02*
G01X-8441209Y-3435888D01*
G03X-8452639Y-3413028I-28575J0D01*
G01X-8414539Y-3413028D01*
G03X-8425969Y-3435888I17145J-22860D01*
G37*
G36*
G01X-8441209Y-3320168D02*
G01X-8425969Y-3320168D01*
G03X-8414539Y-3343028I28575J0D01*
G01X-8452639Y-3343028D01*
G03X-8441209Y-3320168I-17145J22860D01*
G37*
G36*
G01X-8441210Y-3520372D02*
G01X-8425970Y-3520372D01*
G01X-8425713Y-3523309D01*
G01X-8424987Y-3526426D01*
G01X-8422398Y-3532793D01*
G01X-8418737Y-3538664D01*
G01X-8414540Y-3543232D01*
G01X-8452640Y-3543232D01*
G01X-8448443Y-3538664D01*
G01X-8444782Y-3532792D01*
G01X-8442192Y-3526425D01*
G01X-8441466Y-3523309D01*
G01X-8441210Y-3520372D01*
G37*
G36*
G01X-8585990Y-3489426D02*
G01X-8535190Y-3489426D01*
G01X-8534565Y-3517048D01*
G01X-8533190Y-3540861D01*
G01X-8531190Y-3565626D01*
G01X-8589991Y-3565626D01*
G01X-8587990Y-3540861D01*
G01X-8586615Y-3517048D01*
G01X-8585990Y-3489426D01*
G37*
G36*
G01X-8662190Y-3787525D02*
G01X-8712990Y-3787525D01*
G01X-8713615Y-3759903D01*
G01X-8714990Y-3736090D01*
G01X-8716991Y-3711325D01*
G01X-8658190Y-3711325D01*
G01X-8660190Y-3736090D01*
G01X-8661565Y-3759903D01*
G01X-8662190Y-3787525D01*
G37*
G36*
G01X-8822210Y-3520372D02*
G01X-8806970Y-3520372D01*
G01X-8806713Y-3523309D01*
G01X-8805988Y-3526426D01*
G01X-8803398Y-3532793D01*
G01X-8799737Y-3538664D01*
G01X-8795540Y-3543232D01*
G01X-8833640Y-3543232D01*
G01X-8829443Y-3538664D01*
G01X-8825782Y-3532793D01*
G01X-8823192Y-3526426D01*
G01X-8822467Y-3523309D01*
G01X-8822210Y-3520372D01*
G37*
G36*
G01X-8441210Y-4074854D02*
G01X-8425970Y-4074854D01*
G01X-8425713Y-4077791D01*
G01X-8424988Y-4080908D01*
G01X-8422398Y-4087275D01*
G01X-8418737Y-4093146D01*
G01X-8414540Y-4097714D01*
G01X-8452640Y-4097714D01*
G01X-8448443Y-4093146D01*
G01X-8444782Y-4087275D01*
G01X-8442192Y-4080908D01*
G01X-8441467Y-4077791D01*
G01X-8441210Y-4074854D01*
G37*
G36*
G01X-8568210Y-4074854D02*
G01X-8552970Y-4074854D01*
G01X-8552713Y-4077791D01*
G01X-8551988Y-4080908D01*
G01X-8549398Y-4087275D01*
G01X-8545737Y-4093146D01*
G01X-8541540Y-4097714D01*
G01X-8579640Y-4097714D01*
G01X-8575443Y-4093146D01*
G01X-8571782Y-4087275D01*
G01X-8569192Y-4080908D01*
G01X-8568467Y-4077791D01*
G01X-8568210Y-4074854D01*
G37*
G36*
G01X-8552970Y-4311061D02*
G01X-8568210Y-4311061D01*
G01X-8568467Y-4308124D01*
G01X-8569192Y-4305008D01*
G01X-8571782Y-4298641D01*
G01X-8575443Y-4292769D01*
G01X-8579640Y-4288201D01*
G01X-8541540Y-4288201D01*
G01X-8545737Y-4292769D01*
G01X-8549398Y-4298641D01*
G01X-8551988Y-4305008D01*
G01X-8552713Y-4308124D01*
G01X-8552970Y-4311061D01*
G37*
G36*
G01X-8679779Y-4310937D02*
G01X-8695019Y-4311184D01*
G01X-8695277Y-4308249D01*
G01X-8696005Y-4305129D01*
G01X-8698605Y-4298751D01*
G01X-8702281Y-4292875D01*
G01X-8706494Y-4288324D01*
G01X-8668395Y-4288077D01*
G01X-8672575Y-4292662D01*
G01X-8676222Y-4298529D01*
G01X-8678801Y-4304885D01*
G01X-8679524Y-4307998D01*
G01X-8679779Y-4310937D01*
G37*
G36*
G01X-8738542Y-4542931D02*
G01X-8738542Y-4527691D01*
G03X-8715682Y-4516261I0J28575D01*
G01X-8715682Y-4554361D01*
G03X-8738542Y-4542931I-22860J-17145D01*
G37*
G36*
G01X-8695019Y-4485451D02*
G01X-8679779Y-4485451D01*
G03X-8668349Y-4508311I28575J0D01*
G01X-8706449Y-4508311D01*
G03X-8695019Y-4485451I-17145J22860D01*
G37*
G36*
G01X-8608456Y-4485451D02*
G01X-8593216Y-4485451D01*
G03X-8581786Y-4508311I28575J0D01*
G01X-8619886Y-4508311D01*
G03X-8608456Y-4485451I-17145J22860D01*
G37*
G36*
G01X-8768640Y-3302450D02*
G01X-8730540Y-3302450D01*
G03X-8729590Y-3343031I867253J-0D01*
G01X-8769590Y-3343031D01*
G03X-8768640Y-3302450I-866303J40581D01*
G37*
G36*
G01X-8806970Y-3435891D02*
G01X-8822210Y-3435891D01*
G03X-8833640Y-3413031I-28575J0D01*
G01X-8795540Y-3413031D01*
G03X-8806970Y-3435891I17145J-22860D01*
G37*
G36*
G01X-8822209Y-3320171D02*
G01X-8806969Y-3320171D01*
G03X-8795539Y-3343031I28575J0D01*
G01X-8833639Y-3343031D01*
G03X-8822209Y-3320171I-17145J22860D01*
G37*
G36*
G01X-8898300Y-3944825D02*
G01X-8898300Y-3995625D01*
G03X-8974500Y-4009730I0J-212887D01*
G01X-8974500Y-3930720D01*
G03X-8898300Y-3944825I76200J198783D01*
G37*
G36*
G01X-9104700Y-3995625D02*
G01X-9104700Y-3944825D01*
G03X-9028500Y-3930720I0J212887D01*
G01X-9028500Y-4009730D01*
G03X-9104700Y-3995625I-76200J-198783D01*
G37*
G36*
G01X-9026900Y-3764320D02*
G01X-8976100Y-3764320D01*
G03X-8974500Y-3821704I1029689J-0D01*
G01X-9028500Y-3821704D01*
G03X-9026900Y-3764320I-1028089J57383D01*
G37*
G36*
G01X-9190218Y-3522747D02*
G01X-9174978Y-3522747D01*
G01X-9174721Y-3525684D01*
G01X-9173996Y-3528800D01*
G01X-9171406Y-3535167D01*
G01X-9167745Y-3541039D01*
G01X-9163548Y-3545607D01*
G01X-9201648Y-3545607D01*
G01X-9197451Y-3541039D01*
G01X-9193790Y-3535167D01*
G01X-9191200Y-3528800D01*
G01X-9190475Y-3525684D01*
G01X-9190218Y-3522747D01*
G37*
G36*
G01X-9317218Y-3522747D02*
G01X-9301978Y-3522747D01*
G01X-9301721Y-3525684D01*
G01X-9300996Y-3528800D01*
G01X-9298406Y-3535167D01*
G01X-9294745Y-3541039D01*
G01X-9290548Y-3545607D01*
G01X-9328648Y-3545607D01*
G01X-9324451Y-3541039D01*
G01X-9320790Y-3535167D01*
G01X-9318200Y-3528800D01*
G01X-9317475Y-3525684D01*
G01X-9317218Y-3522747D01*
G37*
G36*
G01X-9444218Y-3522747D02*
G01X-9428978Y-3522747D01*
G01X-9428721Y-3525684D01*
G01X-9427996Y-3528800D01*
G01X-9425406Y-3535167D01*
G01X-9421745Y-3541039D01*
G01X-9417548Y-3545607D01*
G01X-9455648Y-3545607D01*
G01X-9451451Y-3541039D01*
G01X-9447790Y-3535167D01*
G01X-9445200Y-3528800D01*
G01X-9444475Y-3525684D01*
G01X-9444218Y-3522747D01*
G37*
G36*
G01X-9571218Y-3522747D02*
G01X-9555978Y-3522747D01*
G01X-9555721Y-3525684D01*
G01X-9554996Y-3528800D01*
G01X-9552406Y-3535167D01*
G01X-9548745Y-3541039D01*
G01X-9544548Y-3545607D01*
G01X-9582648Y-3545607D01*
G01X-9578451Y-3541039D01*
G01X-9574790Y-3535167D01*
G01X-9572200Y-3528800D01*
G01X-9571475Y-3525684D01*
G01X-9571218Y-3522747D01*
G37*
G36*
G01X-9207998Y-4046282D02*
G01X-9157198Y-4046282D01*
G01X-9156573Y-4073905D01*
G01X-9155198Y-4097717D01*
G01X-9153197Y-4122482D01*
G01X-9211998Y-4122482D01*
G01X-9209998Y-4097717D01*
G01X-9208623Y-4073905D01*
G01X-9207998Y-4046282D01*
G37*
G36*
G01X-9301978Y-4313436D02*
G01X-9317218Y-4313436D01*
G01X-9317475Y-4310499D01*
G01X-9318200Y-4307382D01*
G01X-9320790Y-4301015D01*
G01X-9324451Y-4295144D01*
G01X-9328648Y-4290576D01*
G01X-9290548Y-4290576D01*
G01X-9294745Y-4295144D01*
G01X-9298406Y-4301015D01*
G01X-9300996Y-4307382D01*
G01X-9301721Y-4310499D01*
G01X-9301978Y-4313436D01*
G37*
G36*
G01X-9428978Y-4313436D02*
G01X-9444218Y-4313436D01*
G01X-9444475Y-4310499D01*
G01X-9445200Y-4307382D01*
G01X-9447790Y-4301015D01*
G01X-9451451Y-4295144D01*
G01X-9455648Y-4290576D01*
G01X-9417548Y-4290576D01*
G01X-9421745Y-4295144D01*
G01X-9425406Y-4301015D01*
G01X-9427996Y-4307382D01*
G01X-9428721Y-4310499D01*
G01X-9428978Y-4313436D01*
G37*
G36*
G01X-9538198Y-4344382D02*
G01X-9588998Y-4344382D01*
G01X-9589623Y-4316759D01*
G01X-9590998Y-4292947D01*
G01X-9592998Y-4268182D01*
G01X-9534197Y-4268182D01*
G01X-9536198Y-4292947D01*
G01X-9537573Y-4316759D01*
G01X-9538198Y-4344382D01*
G37*
G36*
G01X-7973948Y-853777D02*
G01X-7973948Y-904577D01*
G01X-7981055Y-904798D01*
G01X-7988057Y-905420D01*
G01X-8001571Y-907640D01*
G01X-8014132Y-910779D01*
G01X-8025383Y-914377D01*
G01X-8034968Y-917976D01*
G01X-8042528Y-921115D01*
G01X-8050148Y-924177D01*
G01X-8050148Y-834177D01*
G01X-8042528Y-837240D01*
G01X-8034968Y-840379D01*
G01X-8025383Y-843977D01*
G01X-8014132Y-847576D01*
G01X-8001571Y-850715D01*
G01X-7988057Y-852935D01*
G01X-7981055Y-853557D01*
G01X-7973948Y-853777D01*
G37*
G36*
G01X-7973948Y-1107777D02*
G01X-7973948Y-1158577D01*
G01X-7981055Y-1158798D01*
G01X-7988057Y-1159420D01*
G01X-8001571Y-1161640D01*
G01X-8014132Y-1164779D01*
G01X-8025383Y-1168377D01*
G01X-8034968Y-1171976D01*
G01X-8042528Y-1175115D01*
G01X-8050148Y-1178177D01*
G01X-8050148Y-1088177D01*
G01X-8042528Y-1091240D01*
G01X-8034968Y-1094379D01*
G01X-8025383Y-1097977D01*
G01X-8014132Y-1101576D01*
G01X-8001571Y-1104715D01*
G01X-7988057Y-1106935D01*
G01X-7981055Y-1107557D01*
G01X-7973948Y-1107777D01*
G37*
G36*
G01X-8263348Y-1969574D02*
G01X-8263348Y-1918774D01*
G01X-8256242Y-1918554D01*
G01X-8249239Y-1917932D01*
G01X-8235726Y-1915711D01*
G01X-8223165Y-1912573D01*
G01X-8211913Y-1908974D01*
G01X-8202329Y-1905375D01*
G01X-8194768Y-1902236D01*
G01X-8187148Y-1899174D01*
G01X-8187148Y-1989174D01*
G01X-8194768Y-1986111D01*
G01X-8202329Y-1982972D01*
G01X-8211913Y-1979374D01*
G01X-8223165Y-1975775D01*
G01X-8235726Y-1972636D01*
G01X-8249239Y-1970416D01*
G01X-8256242Y-1969794D01*
G01X-8263348Y-1969574D01*
G37*
G36*
G01X-7986556Y-2063574D02*
G01X-7986556Y-2078774D01*
G01X-7993289Y-2079440D01*
G01X-7996640Y-2080291D01*
G01X-7999851Y-2081501D01*
G01X-8002825Y-2083083D01*
G01X-8005466Y-2085048D01*
G01X-8007675Y-2087408D01*
G01X-8009356Y-2090174D01*
G01X-8009356Y-2052174D01*
G01X-8007675Y-2054940D01*
G01X-8005466Y-2057299D01*
G01X-8002825Y-2059265D01*
G01X-7999851Y-2060847D01*
G01X-7996640Y-2062057D01*
G01X-7993289Y-2062907D01*
G01X-7986556Y-2063574D01*
G37*
G36*
G01X-7986519Y-2190554D02*
G01X-7986519Y-2205794D01*
G01X-7993265Y-2206464D01*
G01X-7996624Y-2207318D01*
G01X-7999844Y-2208533D01*
G01X-8002827Y-2210120D01*
G01X-8005475Y-2212090D01*
G01X-8007692Y-2214454D01*
G01X-8009379Y-2217224D01*
G01X-8009379Y-2179124D01*
G01X-8007692Y-2181894D01*
G01X-8005475Y-2184258D01*
G01X-8002827Y-2186228D01*
G01X-7999844Y-2187815D01*
G01X-7996624Y-2189030D01*
G01X-7993265Y-2189884D01*
G01X-7986519Y-2190554D01*
G37*
G36*
G01X-7986519Y-2317554D02*
G01X-7986519Y-2332794D01*
G01X-7993265Y-2333464D01*
G01X-7996624Y-2334318D01*
G01X-7999844Y-2335533D01*
G01X-8002827Y-2337120D01*
G01X-8005475Y-2339090D01*
G01X-8007692Y-2341454D01*
G01X-8009379Y-2344224D01*
G01X-8009379Y-2306124D01*
G01X-8007692Y-2308894D01*
G01X-8005475Y-2311258D01*
G01X-8002827Y-2313228D01*
G01X-7999844Y-2314815D01*
G01X-7996624Y-2316030D01*
G01X-7993265Y-2316884D01*
G01X-7986519Y-2317554D01*
G37*
G36*
G01X-7986519Y-2444554D02*
G01X-7986519Y-2459794D01*
G01X-7993265Y-2460464D01*
G01X-7996624Y-2461318D01*
G01X-7999844Y-2462533D01*
G01X-8002827Y-2464120D01*
G01X-8005475Y-2466090D01*
G01X-8007692Y-2468454D01*
G01X-8009379Y-2471224D01*
G01X-8009379Y-2433124D01*
G01X-8007692Y-2435894D01*
G01X-8005475Y-2438258D01*
G01X-8002827Y-2440228D01*
G01X-7999844Y-2441815D01*
G01X-7996624Y-2443030D01*
G01X-7993265Y-2443884D01*
G01X-7986519Y-2444554D01*
G37*
G36*
G01X-7973948Y-2553774D02*
G01X-7973948Y-2604574D01*
G01X-7981055Y-2604794D01*
G01X-7988057Y-2605416D01*
G01X-8001571Y-2607636D01*
G01X-8014132Y-2610775D01*
G01X-8025383Y-2614374D01*
G01X-8034968Y-2617972D01*
G01X-8042528Y-2621111D01*
G01X-8050148Y-2624174D01*
G01X-8050148Y-2534174D01*
G01X-8042528Y-2537236D01*
G01X-8034968Y-2540375D01*
G01X-8025383Y-2543974D01*
G01X-8014132Y-2547573D01*
G01X-8001571Y-2550711D01*
G01X-7988057Y-2552932D01*
G01X-7981055Y-2553554D01*
G01X-7973948Y-2553774D01*
G37*
G36*
G01X-9690371Y-2604574D02*
G01X-9690371Y-2553774D01*
G01X-9683264Y-2553554D01*
G01X-9676262Y-2552932D01*
G01X-9662749Y-2550711D01*
G01X-9650187Y-2547573D01*
G01X-9638936Y-2543974D01*
G01X-9629352Y-2540375D01*
G01X-9621791Y-2537236D01*
G01X-9614171Y-2534174D01*
G01X-9614171Y-2624174D01*
G01X-9621791Y-2621111D01*
G01X-9629352Y-2617972D01*
G01X-9638936Y-2614374D01*
G01X-9650187Y-2610775D01*
G01X-9662749Y-2607636D01*
G01X-9676262Y-2605416D01*
G01X-9683264Y-2604794D01*
G01X-9690371Y-2604574D01*
G37*
G36*
G01X-9690371Y-2477574D02*
G01X-9690371Y-2426774D01*
G01X-9683264Y-2426554D01*
G01X-9676262Y-2425932D01*
G01X-9662749Y-2423711D01*
G01X-9650187Y-2420573D01*
G01X-9638936Y-2416974D01*
G01X-9629352Y-2413375D01*
G01X-9621791Y-2410236D01*
G01X-9614171Y-2407174D01*
G01X-9614171Y-2497174D01*
G01X-9621791Y-2494111D01*
G01X-9629352Y-2490972D01*
G01X-9638936Y-2487374D01*
G01X-9650187Y-2483775D01*
G01X-9662749Y-2480636D01*
G01X-9676262Y-2478416D01*
G01X-9683264Y-2477794D01*
G01X-9690371Y-2477574D01*
G37*
G36*
G01X-9690371Y-1969574D02*
G01X-9690371Y-1918774D01*
G01X-9683264Y-1918554D01*
G01X-9676262Y-1917932D01*
G01X-9662749Y-1915711D01*
G01X-9650187Y-1912573D01*
G01X-9638936Y-1908974D01*
G01X-9629352Y-1905375D01*
G01X-9621791Y-1902236D01*
G01X-9614171Y-1899174D01*
G01X-9614171Y-1989174D01*
G01X-9621791Y-1986111D01*
G01X-9629352Y-1982972D01*
G01X-9638936Y-1979374D01*
G01X-9650187Y-1975775D01*
G01X-9662749Y-1972636D01*
G01X-9676262Y-1970416D01*
G01X-9683264Y-1969794D01*
G01X-9690371Y-1969574D01*
G37*
G36*
G01X-9690371Y-1158577D02*
G01X-9690371Y-1107777D01*
G01X-9683264Y-1107557D01*
G01X-9676262Y-1106935D01*
G01X-9662749Y-1104715D01*
G01X-9650187Y-1101576D01*
G01X-9638936Y-1097977D01*
G01X-9629352Y-1094379D01*
G01X-9621791Y-1091240D01*
G01X-9614171Y-1088177D01*
G01X-9614171Y-1178177D01*
G01X-9621791Y-1175115D01*
G01X-9629352Y-1171976D01*
G01X-9638936Y-1168377D01*
G01X-9650187Y-1164779D01*
G01X-9662749Y-1161640D01*
G01X-9676262Y-1159420D01*
G01X-9683264Y-1158798D01*
G01X-9690371Y-1158577D01*
G37*
G36*
G01X-9690371Y-1031577D02*
G01X-9690371Y-980777D01*
G01X-9683264Y-980557D01*
G01X-9676262Y-979935D01*
G01X-9662749Y-977715D01*
G01X-9650187Y-974576D01*
G01X-9638936Y-970977D01*
G01X-9629352Y-967379D01*
G01X-9621791Y-964240D01*
G01X-9614171Y-961177D01*
G01X-9614171Y-1051177D01*
G01X-9621791Y-1048115D01*
G01X-9629352Y-1044976D01*
G01X-9638936Y-1041377D01*
G01X-9650187Y-1037779D01*
G01X-9662749Y-1034640D01*
G01X-9676262Y-1032420D01*
G01X-9683264Y-1031798D01*
G01X-9690371Y-1031577D01*
G37*
G36*
G01X-9690371Y-904577D02*
G01X-9690371Y-853777D01*
G01X-9683264Y-853557D01*
G01X-9676262Y-852935D01*
G01X-9662749Y-850715D01*
G01X-9650187Y-847576D01*
G01X-9638936Y-843977D01*
G01X-9629352Y-840379D01*
G01X-9621791Y-837240D01*
G01X-9614171Y-834177D01*
G01X-9614171Y-924177D01*
G01X-9621791Y-921115D01*
G01X-9629352Y-917976D01*
G01X-9638936Y-914377D01*
G01X-9650187Y-910779D01*
G01X-9662749Y-907640D01*
G01X-9676262Y-905420D01*
G01X-9683264Y-904798D01*
G01X-9690371Y-904577D01*
G37*
G36*
G01X-1397094Y-5384626D02*
G01X-1381854Y-5384626D01*
G03X-1374474Y-5407486I39095J0D01*
G01X-1404474Y-5407486D01*
G03X-1397094Y-5384626I-31715J22860D01*
G37*
G36*
G01X-1350917Y-5384626D02*
G01X-1328057Y-5384626D01*
G03X-1324487Y-5407486I74976J0D01*
G01X-1354486Y-5407486D01*
G03X-1350917Y-5384626I-71406J22860D01*
G37*
G36*
G01X-1300904Y-5384626D02*
G01X-1278044Y-5384626D01*
G03X-1274474Y-5407486I74976J0D01*
G01X-1304474Y-5407486D01*
G03X-1300904Y-5384626I-71406J22860D01*
G37*
G36*
G01X-1228057Y-5560346D02*
G01X-1250917Y-5560346D01*
G03X-1254487Y-5537486I-74976J0D01*
G01X-1224487Y-5537486D01*
G03X-1228057Y-5560346I71406J-22860D01*
G37*
G36*
G01X-1178044Y-5560346D02*
G01X-1200904Y-5560346D01*
G03X-1204474Y-5537486I-74976J0D01*
G01X-1174474Y-5537486D01*
G03X-1178044Y-5560346I71406J-22860D01*
G37*
G36*
G01X-1097074Y-5384686D02*
G01X-1081874Y-5384686D01*
G03X-1074474Y-5407486I38825J-0D01*
G01X-1104474Y-5407486D01*
G03X-1097074Y-5384686I-31425J22800D01*
G37*
G36*
G01X-1054715Y-5369386D02*
G01X-1029315Y-5369386D01*
G03X-1024487Y-5407486I152745J0D01*
G01X-1054487Y-5407486D01*
G03X-1054715Y-5369386I-3182247J-0D01*
G37*
G36*
G01X-1019320Y-5369386D02*
G01X-993920Y-5369386D01*
G03X-994464Y-5407486I1333155J-38100D01*
G01X-1024464Y-5407486D01*
G03X-1019320Y-5369386I-138519J38100D01*
G37*
G36*
G01X-942180Y-5389079D02*
G01X-916780Y-5389079D01*
G03X-914480Y-5407486I74806J0D01*
G01X-944480Y-5407486D01*
G03X-942180Y-5389079I-72506J18407D01*
G37*
G36*
G01X-9278206Y-4739644D02*
G01X-9262966Y-4739644D01*
G03X-9251536Y-4762504I28575J0D01*
G01X-9289636Y-4762504D01*
G03X-9278206Y-4739644I-17145J22860D01*
G37*
G36*
G01X-9176225Y-4739644D02*
G01X-9160985Y-4739644D01*
G03X-9149555Y-4762504I28575J0D01*
G01X-9187655Y-4762504D01*
G03X-9176225Y-4739644I-17145J22860D01*
G37*
G36*
G01X-8972212Y-4739644D02*
G01X-8956972Y-4739644D01*
G03X-8945542Y-4762504I28575J0D01*
G01X-8983642Y-4762504D01*
G03X-8972212Y-4739644I-17145J22860D01*
G37*
G36*
G01X-8870231Y-4739644D02*
G01X-8854991Y-4739644D01*
G03X-8843561Y-4762504I28575J0D01*
G01X-8881661Y-4762504D01*
G03X-8870231Y-4739644I-17145J22860D01*
G37*
G36*
G01X-8783999Y-4697845D02*
G01X-8733199Y-4697845D01*
G03X-8725605Y-4762504I279083J0D01*
G01X-8795605Y-4762504D01*
G03X-8783999Y-4697845I-174308J64659D01*
G37*
G36*
G01X-1292237Y-4833459D02*
G01X-1277356Y-4816012D01*
G03X-1240986Y-4828135I36370J48493D01*
G01X-1280114Y-4869829D01*
G03X-1292237Y-4833459I-60617J0D01*
G37*
G36*
G01X-1277356Y-4983388D02*
G01X-1292237Y-4965941D01*
G03X-1280114Y-4929571I-48493J36370D01*
G01X-1240986Y-4971264D01*
G03X-1277356Y-4983388I0J-60617D01*
G37*
G36*
G01X-1353205Y-4816012D02*
G01X-1338323Y-4833459D01*
G03X-1350447Y-4869829I48493J-36370D01*
G01X-1389575Y-4828135D01*
G03X-1353205Y-4816012I0J60617D01*
G37*
G36*
G01X-1338323Y-4965941D02*
G01X-1353205Y-4983388D01*
G03X-1389575Y-4971264I-36370J-48493D01*
G01X-1350447Y-4929571D01*
G03X-1338323Y-4965941I60617J0D01*
G37*
G36*
G01X-1324828Y-5096174D02*
G01X-1343708Y-5109623D01*
G03X-1380078Y-5097500I-36370J-48493D01*
G01X-1329667Y-5067089D01*
G03X-1324828Y-5096174I89833J0D01*
G37*
G36*
G01X-1343708Y-5045376D02*
G01X-1324978Y-5058976D01*
G03X-1329667Y-5087911I86939J-28936D01*
G01X-1380078Y-5057500D01*
G03X-1343708Y-5045376I0J60617D01*
G37*
G36*
G01X-1535054Y-5011246D02*
G01X-1484254Y-5011246D01*
G03X-1479654Y-5057500I234847J0D01*
G01X-1539654Y-5057500D01*
G03X-1535054Y-5011246I-230247J46254D01*
G37*
G36*
G01X-1620080Y-5121124D02*
G01X-1635320Y-5121124D01*
G03X-1646750Y-5098264I-28575J0D01*
G01X-1608650Y-5098264D01*
G03X-1620080Y-5121124I17145J-22860D01*
G37*
G36*
G01X-1537482Y-4958018D02*
G01X-1537482Y-5008818D01*
G03X-1600700Y-5011701I0J-694593D01*
G01X-1600700Y-4955135D01*
G03X-1537482Y-4958018I63218J691710D01*
G37*
G36*
G01X-2004740Y-5096550D02*
G01X-2004740Y-5058450D01*
G03X-1952995Y-5057500I0J1409773D01*
G01X-1952995Y-5097500D01*
G03X-2004740Y-5096550I-51745J-1408823D01*
G37*
G36*
G01X-1811108Y-4799158D02*
G01X-1734908Y-4799158D01*
G03X-1733503Y-4913458I4651351J1D01*
G01X-1812513Y-4913458D01*
G03X-1811108Y-4799158I-4649946J114301D01*
G37*
G36*
G01X-1734908Y-5077500D02*
G01X-1811108Y-5077500D01*
G03X-1812513Y-4967459I-4311213J-1D01*
G01X-1733503Y-4967459D01*
G03X-1734908Y-5077500I4309808J-110042D01*
G37*
G36*
G01X-1978679Y-4959508D02*
G01X-1978679Y-4921408D01*
G03X-1921529Y-4913458I0J209387D01*
G01X-1921529Y-4967459D01*
G03X-1978679Y-4959508I-57150J-201436D01*
G37*
G36*
G01X-1036076Y-5106326D02*
G01X-1045542Y-5094295D01*
G03X-1037481Y-5070112I-32244J24183D01*
G01X-1011893Y-5098264D01*
G03X-1036076Y-5106326I0J-40305D01*
G37*
G36*
G01X-1085459Y-5008818D02*
G01X-1085459Y-4958018D01*
G03X-1037481Y-4955135I0J400676D01*
G01X-1037481Y-5011701D01*
G03X-1085459Y-5008818I-47978J-397793D01*
G37*
G36*
G01X-1286853Y-5109623D02*
G01X-1305432Y-5095874D01*
G03X-1300894Y-5067089I-89012J28785D01*
G01X-1250483Y-5097500D01*
G03X-1286853Y-5109623I0J-60617D01*
G37*
G36*
G01X-1305583Y-5058976D02*
G01X-1286853Y-5045376D01*
G03X-1250483Y-5057500I36370J48493D01*
G01X-1300894Y-5087911D01*
G03X-1305583Y-5058976I-91628J-0D01*
G37*
G36*
G01X-1146307Y-5018866D02*
G01X-1095507Y-5018866D01*
G03X-1090907Y-5057500I164537J0D01*
G01X-1150907Y-5057500D01*
G03X-1146307Y-5018866I-159937J38634D01*
G37*
G36*
G01X-4036779Y-2158061D02*
G01X-4087579Y-2158061D01*
G03X-4125679Y-2114360I-44113J0D01*
G01X-3998679Y-2114360D01*
G03X-4036779Y-2158061I6013J-43701D01*
G37*
G36*
G01X-3963186Y-1923324D02*
G01X-3902968Y-1970869D01*
G03X-3943379Y-2092102I161645J-121233D01*
G01X-4084420Y-1963735D01*
G03X-3963186Y-1923324I0J202056D01*
G37*
G36*
G01X-3913262Y-1641538D02*
G01X-3913262Y-1692338D01*
G03X-3943379Y-1730438I9041J-38100D01*
G01X-3943379Y-1603438D01*
G03X-3913262Y-1641538I39158J0D01*
G37*
G36*
G01X-7415376Y-5475481D02*
G01X-7400136Y-5451692D01*
G01X-7399831Y-5457506D01*
G01X-7398940Y-5462646D01*
G01X-7397504Y-5467184D01*
G01X-7395561Y-5471195D01*
G01X-7393150Y-5474751D01*
G01X-7390311Y-5477928D01*
G01X-7387081Y-5480799D01*
G01X-7383500Y-5483437D01*
G01X-7375442Y-5488311D01*
G01X-7366448Y-5493141D01*
G01X-7356830Y-5498518D01*
G01X-7346900Y-5505032D01*
G01X-7457973Y-5528821D01*
G01X-7455740Y-5525384D01*
G01X-7453086Y-5522055D01*
G01X-7446825Y-5515638D01*
G01X-7432681Y-5503211D01*
G01X-7426046Y-5496879D01*
G01X-7420535Y-5490254D01*
G01X-7418395Y-5486782D01*
G01X-7416770Y-5483175D01*
G01X-7415738Y-5479415D01*
G01X-7415376Y-5475481D01*
G37*
G36*
G01X-7199266Y-5462460D02*
G01X-7184026Y-5462460D01*
G01X-7183608Y-5465947D01*
G01X-7182417Y-5469483D01*
G01X-7180541Y-5473053D01*
G01X-7178071Y-5476641D01*
G01X-7171708Y-5483817D01*
G01X-7164048Y-5490891D01*
G01X-7147720Y-5504260D01*
G01X-7140492Y-5510318D01*
G01X-7134850Y-5515800D01*
G01X-7248442Y-5515800D01*
G01X-7242799Y-5510318D01*
G01X-7235572Y-5504260D01*
G01X-7219244Y-5490891D01*
G01X-7211584Y-5483817D01*
G01X-7205221Y-5476641D01*
G01X-7202750Y-5473053D01*
G01X-7200875Y-5469483D01*
G01X-7199683Y-5465947D01*
G01X-7199266Y-5462460D01*
G37*
G36*
G01X-7024077Y-5654786D02*
G01X-7058232Y-5667389D01*
G01X-7054694Y-5663408D01*
G01X-7051932Y-5659354D01*
G01X-7049888Y-5655228D01*
G01X-7048506Y-5651027D01*
G01X-7047727Y-5646752D01*
G01X-7047495Y-5642402D01*
G01X-7047753Y-5637975D01*
G01X-7048442Y-5633472D01*
G01X-7050887Y-5624230D01*
G01X-7054372Y-5614671D01*
G01X-7062626Y-5594576D01*
G01X-6956069Y-5633931D01*
G01X-6960745Y-5636135D01*
G01X-6965368Y-5637819D01*
G01X-6974452Y-5639973D01*
G01X-6983316Y-5641078D01*
G01X-6991951Y-5641816D01*
G01X-7000352Y-5642872D01*
G01X-7008511Y-5644930D01*
G01X-7012498Y-5646548D01*
G01X-7016422Y-5648673D01*
G01X-7020282Y-5651391D01*
G01X-7024077Y-5654786D01*
G37*
G36*
G01X-6799216Y-5467540D02*
G01X-6783976Y-5467540D01*
G03X-6772546Y-5490400I28575J0D01*
G01X-6810646Y-5490400D01*
G03X-6799216Y-5467540I-17145J22860D01*
G37*
G36*
G01X-4290516Y-5462460D02*
G01X-4275276Y-5462460D01*
G01X-4274858Y-5465947D01*
G01X-4273667Y-5469483D01*
G01X-4271791Y-5473053D01*
G01X-4269321Y-5476641D01*
G01X-4262958Y-5483817D01*
G01X-4255298Y-5490891D01*
G01X-4238970Y-5504260D01*
G01X-4231742Y-5510318D01*
G01X-4226099Y-5515800D01*
G01X-4339692Y-5515800D01*
G01X-4334049Y-5510318D01*
G01X-4326821Y-5504260D01*
G01X-4310494Y-5490891D01*
G01X-4302834Y-5483817D01*
G01X-4296471Y-5476641D01*
G01X-4294000Y-5473053D01*
G01X-4292125Y-5469483D01*
G01X-4290933Y-5465947D01*
G01X-4290516Y-5462460D01*
G37*
G36*
G01X-4090364Y-5462460D02*
G01X-4075124Y-5462460D01*
G01X-4074706Y-5465947D01*
G01X-4073515Y-5469483D01*
G01X-4071639Y-5473053D01*
G01X-4069169Y-5476641D01*
G01X-4062806Y-5483817D01*
G01X-4055146Y-5490891D01*
G01X-4038818Y-5504260D01*
G01X-4031590Y-5510318D01*
G01X-4025947Y-5515800D01*
G01X-4139540Y-5515800D01*
G01X-4133897Y-5510318D01*
G01X-4126669Y-5504260D01*
G01X-4110342Y-5490891D01*
G01X-4102682Y-5483817D01*
G01X-4096319Y-5476641D01*
G01X-4093848Y-5473053D01*
G01X-4091973Y-5469483D01*
G01X-4090781Y-5465947D01*
G01X-4090364Y-5462460D01*
G37*
G36*
G01X-3875226Y-5670740D02*
G01X-3890466Y-5670740D01*
G01X-3890883Y-5667253D01*
G01X-3892075Y-5663717D01*
G01X-3893950Y-5660147D01*
G01X-3896421Y-5656559D01*
G01X-3902784Y-5649383D01*
G01X-3910444Y-5642309D01*
G01X-3926771Y-5628940D01*
G01X-3933999Y-5622882D01*
G01X-3939642Y-5617400D01*
G01X-3826049Y-5617400D01*
G01X-3831692Y-5622882D01*
G01X-3838920Y-5628940D01*
G01X-3855248Y-5642309D01*
G01X-3862908Y-5649383D01*
G01X-3869271Y-5656559D01*
G01X-3871741Y-5660147D01*
G01X-3873617Y-5663717D01*
G01X-3874808Y-5667253D01*
G01X-3875226Y-5670740D01*
G37*
G36*
G01X-3690314Y-5467540D02*
G01X-3675074Y-5467540D01*
G03X-3663644Y-5490400I28575J0D01*
G01X-3701744Y-5490400D01*
G03X-3690314Y-5467540I-17145J22860D01*
G37*
G36*
G01X-5805923Y-5441705D02*
G01X-5790683Y-5475388D01*
G01X-5790444Y-5481947D01*
G01X-5789762Y-5487844D01*
G01X-5788689Y-5493174D01*
G01X-5787275Y-5498030D01*
G01X-5783634Y-5506690D01*
G01X-5779251Y-5514572D01*
G01X-5774538Y-5522422D01*
G01X-5769908Y-5530987D01*
G01X-5765772Y-5541014D01*
G01X-5764019Y-5546809D01*
G01X-5762543Y-5553249D01*
G01X-5860091Y-5495045D01*
G01X-5849988Y-5491485D01*
G01X-5840201Y-5487128D01*
G01X-5831050Y-5481928D01*
G01X-5822850Y-5475841D01*
G01X-5819207Y-5472450D01*
G01X-5815921Y-5468820D01*
G01X-5813031Y-5464945D01*
G01X-5810578Y-5460820D01*
G01X-5808601Y-5456440D01*
G01X-5807139Y-5451797D01*
G01X-5806233Y-5446888D01*
G01X-5805923Y-5441705D01*
G37*
G36*
G01X-5568945Y-5488745D02*
G01X-5558168Y-5499522D01*
G01X-5560339Y-5502282D01*
G01X-5561997Y-5505625D01*
G01X-5563194Y-5509476D01*
G01X-5563985Y-5513760D01*
G01X-5564560Y-5523334D01*
G01X-5564146Y-5533752D01*
G01X-5562054Y-5554751D01*
G01X-5561226Y-5564145D01*
G01X-5561113Y-5572012D01*
G01X-5641435Y-5491690D01*
G01X-5633568Y-5491803D01*
G01X-5624174Y-5492631D01*
G01X-5603175Y-5494723D01*
G01X-5592757Y-5495137D01*
G01X-5583183Y-5494562D01*
G01X-5578899Y-5493771D01*
G01X-5575048Y-5492574D01*
G01X-5571705Y-5490916D01*
G01X-5568945Y-5488745D01*
G37*
G36*
G01X-5505547Y-5646798D02*
G01X-5516323Y-5636022D01*
G01X-5514152Y-5633261D01*
G01X-5512495Y-5629918D01*
G01X-5511297Y-5626068D01*
G01X-5510506Y-5621783D01*
G01X-5509932Y-5612210D01*
G01X-5510346Y-5601792D01*
G01X-5512438Y-5580792D01*
G01X-5513265Y-5571398D01*
G01X-5513379Y-5563532D01*
G01X-5433057Y-5643854D01*
G01X-5440923Y-5643740D01*
G01X-5450317Y-5642913D01*
G01X-5471316Y-5640821D01*
G01X-5481735Y-5640407D01*
G01X-5491308Y-5640981D01*
G01X-5495593Y-5641772D01*
G01X-5499443Y-5642970D01*
G01X-5502786Y-5644627D01*
G01X-5505547Y-5646798D01*
G37*
G36*
G01X-5321427Y-5494266D02*
G01X-5310651Y-5483489D01*
G03X-5286404Y-5491572I24247J32329D01*
G01X-5313345Y-5518512D01*
G03X-5321427Y-5494266I-40411J0D01*
G37*
G36*
G01X-9949400Y-3547987D02*
G01X-9949400Y-3586087D01*
G01X-9954892Y-3586343D01*
G01X-9960059Y-3587017D01*
G01X-9969073Y-3589062D01*
G01X-9975750Y-3591107D01*
G01X-9979400Y-3592037D01*
G01X-9979400Y-3542037D01*
G01X-9975750Y-3542967D01*
G01X-9969073Y-3545012D01*
G01X-9960059Y-3547057D01*
G01X-9954892Y-3547731D01*
G01X-9949400Y-3547987D01*
G37*
G36*
G01X-9949400Y-3293987D02*
G01X-9949400Y-3332087D01*
G01X-9954892Y-3332343D01*
G01X-9960059Y-3333017D01*
G01X-9969073Y-3335062D01*
G01X-9975750Y-3337107D01*
G01X-9979400Y-3338037D01*
G01X-9979400Y-3288037D01*
G01X-9975750Y-3288967D01*
G01X-9969073Y-3291012D01*
G01X-9960059Y-3293057D01*
G01X-9954892Y-3293731D01*
G01X-9949400Y-3293987D01*
G37*
G36*
G01X-8730540Y-3332450D02*
G01X-8768640Y-3332450D01*
G01X-8768896Y-3326958D01*
G01X-8769570Y-3321791D01*
G01X-8771615Y-3312777D01*
G01X-8773661Y-3306099D01*
G01X-8774590Y-3302450D01*
G01X-8724590Y-3302450D01*
G01X-8725520Y-3306099D01*
G01X-8727565Y-3312777D01*
G01X-8729611Y-3321791D01*
G01X-8730285Y-3326958D01*
G01X-8730540Y-3332450D01*
G37*
G36*
G01X-8479538Y-3332447D02*
G01X-8517638Y-3332447D01*
G01X-8517893Y-3326955D01*
G01X-8518567Y-3321789D01*
G01X-8520612Y-3312774D01*
G01X-8522658Y-3306097D01*
G01X-8523587Y-3302447D01*
G01X-8473588Y-3302447D01*
G01X-8474517Y-3306097D01*
G01X-8476562Y-3312774D01*
G01X-8478608Y-3321789D01*
G01X-8479282Y-3326955D01*
G01X-8479538Y-3332447D01*
G37*
G36*
G01X-7237083Y-4835397D02*
G01X-7262483Y-4835397D01*
G01X-7262901Y-4830940D01*
G01X-7264092Y-4826129D01*
G01X-7265962Y-4821576D01*
G01X-7268417Y-4817897D01*
G01X-7231149Y-4817897D01*
G01X-7233604Y-4821576D01*
G01X-7235474Y-4826129D01*
G01X-7236665Y-4830940D01*
G01X-7237083Y-4835397D01*
G37*
G36*
G01X-7125530Y-4967956D02*
G01X-7125530Y-4942556D01*
G01X-7121073Y-4942138D01*
G01X-7116261Y-4940947D01*
G01X-7111708Y-4939077D01*
G01X-7108030Y-4936622D01*
G01X-7108030Y-4973890D01*
G01X-7111708Y-4971435D01*
G01X-7116261Y-4969565D01*
G01X-7121073Y-4968374D01*
G01X-7125530Y-4967956D01*
G37*
G36*
G01X-5663683Y-4375502D02*
G01X-5678923Y-4375502D01*
G01X-5679170Y-4372631D01*
G01X-5679869Y-4370149D01*
G01X-5680955Y-4367958D01*
G01X-5682365Y-4365964D01*
G01X-5685892Y-4362173D01*
G01X-5689937Y-4358002D01*
G01X-5652669Y-4358002D01*
G01X-5656713Y-4362173D01*
G01X-5660241Y-4365964D01*
G01X-5661650Y-4367958D01*
G01X-5662736Y-4370149D01*
G01X-5663435Y-4372631D01*
G01X-5663683Y-4375502D01*
G37*
G36*
G01X-5678923Y-4307169D02*
G01X-5663683Y-4307169D01*
G01X-5663435Y-4310040D01*
G01X-5662736Y-4312522D01*
G01X-5661650Y-4314713D01*
G01X-5660241Y-4316708D01*
G01X-5656713Y-4320499D01*
G01X-5652669Y-4324669D01*
G01X-5689937Y-4324669D01*
G01X-5685892Y-4320499D01*
G01X-5682365Y-4316708D01*
G01X-5680955Y-4314713D01*
G01X-5679869Y-4312522D01*
G01X-5679170Y-4310040D01*
G01X-5678923Y-4307169D01*
G37*
G36*
G01X-5551923Y-4307169D02*
G01X-5536683Y-4307169D01*
G01X-5536435Y-4310040D01*
G01X-5535736Y-4312522D01*
G01X-5534650Y-4314713D01*
G01X-5533241Y-4316708D01*
G01X-5529713Y-4320499D01*
G01X-5525669Y-4324669D01*
G01X-5562937Y-4324669D01*
G01X-5558892Y-4320499D01*
G01X-5555365Y-4316708D01*
G01X-5553955Y-4314713D01*
G01X-5552869Y-4312522D01*
G01X-5552170Y-4310040D01*
G01X-5551923Y-4307169D01*
G37*
G36*
G01X-5536683Y-4375502D02*
G01X-5551923Y-4375502D01*
G01X-5552170Y-4372631D01*
G01X-5552869Y-4370149D01*
G01X-5553955Y-4367958D01*
G01X-5555365Y-4365964D01*
G01X-5558892Y-4362173D01*
G01X-5562937Y-4358002D01*
G01X-5525669Y-4358002D01*
G01X-5529713Y-4362173D01*
G01X-5533241Y-4365964D01*
G01X-5534650Y-4367958D01*
G01X-5535736Y-4370149D01*
G01X-5536435Y-4372631D01*
G01X-5536683Y-4375502D01*
G37*
G36*
G01X-5663683Y-3519086D02*
G01X-5678923Y-3519086D01*
G01X-5679170Y-3516215D01*
G01X-5679869Y-3513733D01*
G01X-5680955Y-3511543D01*
G01X-5682365Y-3509548D01*
G01X-5685892Y-3505757D01*
G01X-5689937Y-3501587D01*
G01X-5652669Y-3501587D01*
G01X-5656713Y-3505757D01*
G01X-5660241Y-3509548D01*
G01X-5661650Y-3511543D01*
G01X-5662736Y-3513733D01*
G01X-5663435Y-3516215D01*
G01X-5663683Y-3519086D01*
G37*
G36*
G01X-5536683Y-3519086D02*
G01X-5551923Y-3519086D01*
G01X-5552170Y-3516215D01*
G01X-5552869Y-3513733D01*
G01X-5553955Y-3511543D01*
G01X-5555365Y-3509548D01*
G01X-5558892Y-3505757D01*
G01X-5562937Y-3501587D01*
G01X-5525669Y-3501587D01*
G01X-5529713Y-3505757D01*
G01X-5533241Y-3509548D01*
G01X-5534650Y-3511543D01*
G01X-5535736Y-3513733D01*
G01X-5536435Y-3516215D01*
G01X-5536683Y-3519086D01*
G37*
G36*
G01X-4018176Y-4835397D02*
G01X-4043576Y-4835397D01*
G01X-4043993Y-4830940D01*
G01X-4045184Y-4826129D01*
G01X-4047054Y-4821576D01*
G01X-4049510Y-4817897D01*
G01X-4012242Y-4817897D01*
G01X-4014697Y-4821576D01*
G01X-4016567Y-4826129D01*
G01X-4017758Y-4830940D01*
G01X-4018176Y-4835397D01*
G37*
G36*
G01X-3906622Y-4967956D02*
G01X-3906622Y-4942556D01*
G01X-3902165Y-4942138D01*
G01X-3897353Y-4940947D01*
G01X-3892801Y-4939077D01*
G01X-3889122Y-4936622D01*
G01X-3889122Y-4973890D01*
G01X-3892801Y-4971435D01*
G01X-3897353Y-4969565D01*
G01X-3902165Y-4968374D01*
G01X-3906622Y-4967956D01*
G37*
G36*
G01X-4001328Y-4553302D02*
G01X-4012104Y-4564078D01*
G01X-4014309Y-4562223D01*
G01X-4016559Y-4560962D01*
G01X-4018876Y-4560181D01*
G01X-4021283Y-4559767D01*
G01X-4026458Y-4559581D01*
G01X-4032267Y-4559492D01*
G01X-4005914Y-4533140D01*
G01X-4005825Y-4538948D01*
G01X-4005639Y-4544123D01*
G01X-4005225Y-4546530D01*
G01X-4004444Y-4548847D01*
G01X-4003183Y-4551097D01*
G01X-4001328Y-4553302D01*
G37*
G36*
G01X-4001328Y-4451702D02*
G01X-4012104Y-4462478D01*
G01X-4014309Y-4460623D01*
G01X-4016559Y-4459362D01*
G01X-4018876Y-4458581D01*
G01X-4021283Y-4458167D01*
G01X-4026458Y-4457981D01*
G01X-4032267Y-4457892D01*
G01X-4005914Y-4431540D01*
G01X-4005825Y-4437348D01*
G01X-4005639Y-4442523D01*
G01X-4005225Y-4444930D01*
G01X-4004444Y-4447247D01*
G01X-4003183Y-4449497D01*
G01X-4001328Y-4451702D01*
G37*
G36*
G01X-2684250Y-4239210D02*
G01X-2633450Y-4230683D01*
G01X-2633689Y-4232091D01*
G01X-2634358Y-4233436D01*
G01X-2636704Y-4235958D01*
G01X-2639917Y-4238284D01*
G01X-2643425Y-4240449D01*
G01X-2646660Y-4242487D01*
G01X-2649049Y-4244432D01*
G01X-2649749Y-4245381D01*
G01X-2650023Y-4246319D01*
G01X-2649801Y-4247252D01*
G01X-2649011Y-4248183D01*
G01X-2687867Y-4256710D01*
G01X-2686440Y-4252801D01*
G01X-2685292Y-4248130D01*
G01X-2684527Y-4243374D01*
G01X-2684250Y-4239210D01*
G37*
G36*
G01X-1324178Y-5299938D02*
G01X-1340343Y-5316102D01*
G01X-1343625Y-5313695D01*
G01X-1347527Y-5312102D01*
G01X-1351723Y-5311168D01*
G01X-1355891Y-5310741D01*
G01X-1329539Y-5284389D01*
G01X-1329112Y-5288557D01*
G01X-1328178Y-5292753D01*
G01X-1326585Y-5296655D01*
G01X-1324178Y-5299938D01*
G37*
G36*
G01X-1340992Y-5256108D02*
G01X-1324828Y-5272272D01*
G01X-1327133Y-5275453D01*
G01X-1328503Y-5279131D01*
G01X-1329213Y-5283104D01*
G01X-1329539Y-5287171D01*
G01X-1355891Y-5260819D01*
G01X-1351825Y-5260493D01*
G01X-1347852Y-5259783D01*
G01X-1344174Y-5258413D01*
G01X-1340992Y-5256108D01*
G37*
G36*
G01X-1288618Y-5314802D02*
G01X-1304783Y-5298638D01*
G01X-1302579Y-5295558D01*
G01X-1301432Y-5292103D01*
G01X-1300946Y-5288354D01*
G01X-1300722Y-5284389D01*
G01X-1274369Y-5310741D01*
G01X-1278334Y-5310965D01*
G01X-1282084Y-5311452D01*
G01X-1285538Y-5312598D01*
G01X-1288618Y-5314802D01*
G37*
G36*
G01X-1305432Y-5272272D02*
G01X-1289268Y-5256108D01*
G01X-1286087Y-5258413D01*
G01X-1282409Y-5259783D01*
G01X-1278436Y-5260493D01*
G01X-1274369Y-5260819D01*
G01X-1300722Y-5287171D01*
G01X-1301047Y-5283104D01*
G01X-1301757Y-5279131D01*
G01X-1303127Y-5275453D01*
G01X-1305432Y-5272272D01*
G37*
G36*
G01X-1240343Y-5628870D02*
G01X-1224178Y-5645035D01*
G01X-1226585Y-5648317D01*
G01X-1228179Y-5652219D01*
G01X-1229112Y-5656415D01*
G01X-1229539Y-5660584D01*
G01X-1255892Y-5634231D01*
G01X-1251723Y-5633804D01*
G01X-1247527Y-5632871D01*
G01X-1243625Y-5631277D01*
G01X-1240343Y-5628870D01*
G37*
G36*
G01X-1204783Y-5646335D02*
G01X-1188618Y-5630170D01*
G01X-1185539Y-5632374D01*
G01X-1182084Y-5633521D01*
G01X-1178334Y-5634007D01*
G01X-1174369Y-5634231D01*
G01X-1200722Y-5660584D01*
G01X-1200946Y-5656619D01*
G01X-1201432Y-5652869D01*
G01X-1202579Y-5649414D01*
G01X-1204783Y-5646335D01*
G37*
G36*
G01X-920500Y-5398060D02*
G01X-938460Y-5380099D01*
G01X-936224Y-5377142D01*
G01X-934353Y-5373370D01*
G01X-933027Y-5369356D01*
G01X-932422Y-5365669D01*
G01X-906069Y-5392021D01*
G01X-909756Y-5392627D01*
G01X-913771Y-5393953D01*
G01X-917542Y-5395823D01*
G01X-920500Y-5398060D01*
G37*
G36*
G01X-1032073Y-5331833D02*
G01X-1050033Y-5313873D01*
G01X-1047177Y-5310426D01*
G01X-1044617Y-5306181D01*
G01X-1042720Y-5301640D01*
G01X-1041855Y-5297302D01*
G01X-1015503Y-5323655D01*
G01X-1019840Y-5324520D01*
G01X-1024381Y-5326417D01*
G01X-1028626Y-5328977D01*
G01X-1032073Y-5331833D01*
G37*
G36*
G01X-983754Y-5209733D02*
G01X-1001715Y-5227693D01*
G01X-1005162Y-5224837D01*
G01X-1009406Y-5222277D01*
G01X-1013948Y-5220380D01*
G01X-1018285Y-5219515D01*
G01X-991932Y-5193162D01*
G01X-991067Y-5197500D01*
G01X-989170Y-5202041D01*
G01X-986610Y-5206286D01*
G01X-983754Y-5209733D01*
G37*
G36*
G01X-7767725Y-1978340D02*
G01X-7782925Y-1978340D01*
G01X-7783173Y-1975466D01*
G01X-7783873Y-1972982D01*
G01X-7784962Y-1970793D01*
G01X-7786373Y-1968800D01*
G01X-7789907Y-1965013D01*
G01X-7793959Y-1960841D01*
G01X-7756691Y-1960841D01*
G01X-7760743Y-1965013D01*
G01X-7764277Y-1968800D01*
G01X-7765689Y-1970793D01*
G01X-7766777Y-1972982D01*
G01X-7767477Y-1975466D01*
G01X-7767725Y-1978340D01*
G37*
G36*
G01X-7077836Y-1031562D02*
G01X-7077836Y-1046762D01*
G01X-7080711Y-1047010D01*
G01X-7083194Y-1047711D01*
G01X-7085383Y-1048799D01*
G01X-7087376Y-1050210D01*
G01X-7091163Y-1053745D01*
G01X-7095336Y-1057796D01*
G01X-7095336Y-1020528D01*
G01X-7091163Y-1024580D01*
G01X-7087376Y-1028114D01*
G01X-7085383Y-1029526D01*
G01X-7083194Y-1030614D01*
G01X-7080711Y-1031314D01*
G01X-7077836Y-1031562D01*
G37*
G36*
G01X-4685560Y-1754754D02*
G01X-4685560Y-1716654D01*
G01X-4680069Y-1716398D01*
G01X-4674902Y-1715724D01*
G01X-4665888Y-1713679D01*
G01X-4659210Y-1711634D01*
G01X-4655560Y-1710704D01*
G01X-4655560Y-1760704D01*
G01X-4659210Y-1759774D01*
G01X-4665888Y-1757729D01*
G01X-4674902Y-1755684D01*
G01X-4680069Y-1755010D01*
G01X-4685560Y-1754754D01*
G37*
G36*
G01X-4685560Y-1522423D02*
G01X-4685560Y-1484323D01*
G01X-4680069Y-1484067D01*
G01X-4674902Y-1483393D01*
G01X-4665888Y-1481348D01*
G01X-4659210Y-1479302D01*
G01X-4655560Y-1478373D01*
G01X-4655560Y-1528373D01*
G01X-4659210Y-1527443D01*
G01X-4665888Y-1525398D01*
G01X-4674902Y-1523352D01*
G01X-4680069Y-1522678D01*
G01X-4685560Y-1522423D01*
G37*
G36*
G01X-4685560Y-1290091D02*
G01X-4685560Y-1251991D01*
G01X-4680069Y-1251736D01*
G01X-4674902Y-1251062D01*
G01X-4665888Y-1249016D01*
G01X-4659210Y-1246971D01*
G01X-4655560Y-1246041D01*
G01X-4655560Y-1296041D01*
G01X-4659210Y-1295112D01*
G01X-4665888Y-1293066D01*
G01X-4674902Y-1291021D01*
G01X-4680069Y-1290347D01*
G01X-4685560Y-1290091D01*
G37*
G36*
G01X-4685558Y-1122751D02*
G01X-4685558Y-1084651D01*
G01X-4680066Y-1084395D01*
G01X-4674899Y-1083721D01*
G01X-4665885Y-1081676D01*
G01X-4659207Y-1079631D01*
G01X-4655558Y-1078701D01*
G01X-4655558Y-1128701D01*
G01X-4659207Y-1127771D01*
G01X-4665885Y-1125726D01*
G01X-4674899Y-1123681D01*
G01X-4680066Y-1123007D01*
G01X-4685558Y-1122751D01*
G37*
G36*
G01X-5153719Y-1173762D02*
G01X-5153719Y-1158562D01*
G01X-5150845Y-1158314D01*
G01X-5148361Y-1157614D01*
G01X-5146172Y-1156526D01*
G01X-5144179Y-1155114D01*
G01X-5140392Y-1151580D01*
G01X-5136220Y-1147528D01*
G01X-5136220Y-1184796D01*
G01X-5140392Y-1180745D01*
G01X-5144179Y-1177210D01*
G01X-5146172Y-1175799D01*
G01X-5148361Y-1174711D01*
G01X-5150845Y-1174010D01*
G01X-5153719Y-1173762D01*
G37*
G36*
G01X-5085386Y-1158562D02*
G01X-5085386Y-1173762D01*
G01X-5088261Y-1174010D01*
G01X-5090744Y-1174711D01*
G01X-5092934Y-1175799D01*
G01X-5094927Y-1177210D01*
G01X-5098713Y-1180745D01*
G01X-5102886Y-1184796D01*
G01X-5102886Y-1147528D01*
G01X-5098713Y-1151580D01*
G01X-5094927Y-1155114D01*
G01X-5092934Y-1156526D01*
G01X-5090744Y-1157614D01*
G01X-5088261Y-1158314D01*
G01X-5085386Y-1158562D01*
G37*
G36*
G01X-5085386Y-1285562D02*
G01X-5085386Y-1300762D01*
G01X-5088261Y-1301010D01*
G01X-5090744Y-1301711D01*
G01X-5092934Y-1302799D01*
G01X-5094927Y-1304210D01*
G01X-5098713Y-1307745D01*
G01X-5102886Y-1311796D01*
G01X-5102886Y-1274528D01*
G01X-5098713Y-1278580D01*
G01X-5094927Y-1282114D01*
G01X-5092934Y-1283526D01*
G01X-5090744Y-1284614D01*
G01X-5088261Y-1285314D01*
G01X-5085386Y-1285562D01*
G37*
G36*
G01X-5153719Y-1300762D02*
G01X-5153719Y-1285562D01*
G01X-5150845Y-1285314D01*
G01X-5148361Y-1284614D01*
G01X-5146172Y-1283526D01*
G01X-5144179Y-1282114D01*
G01X-5140392Y-1278580D01*
G01X-5136220Y-1274528D01*
G01X-5136220Y-1311796D01*
G01X-5140392Y-1307745D01*
G01X-5144179Y-1304210D01*
G01X-5146172Y-1302799D01*
G01X-5148361Y-1301711D01*
G01X-5150845Y-1301010D01*
G01X-5153719Y-1300762D01*
G37*
G36*
G01X-5153719Y-1046762D02*
G01X-5153719Y-1031562D01*
G01X-5150845Y-1031314D01*
G01X-5148361Y-1030614D01*
G01X-5146172Y-1029526D01*
G01X-5144179Y-1028114D01*
G01X-5140392Y-1024580D01*
G01X-5136220Y-1020528D01*
G01X-5136220Y-1057796D01*
G01X-5140392Y-1053745D01*
G01X-5144179Y-1050210D01*
G01X-5146172Y-1048799D01*
G01X-5148361Y-1047711D01*
G01X-5150845Y-1047010D01*
G01X-5153719Y-1046762D01*
G37*
G36*
G01X-5153719Y-919762D02*
G01X-5153719Y-904562D01*
G01X-5150845Y-904314D01*
G01X-5148361Y-903614D01*
G01X-5146172Y-902526D01*
G01X-5144179Y-901114D01*
G01X-5140392Y-897580D01*
G01X-5136220Y-893528D01*
G01X-5136220Y-930796D01*
G01X-5140392Y-926745D01*
G01X-5144179Y-923210D01*
G01X-5146172Y-921799D01*
G01X-5148361Y-920711D01*
G01X-5150845Y-920010D01*
G01X-5153719Y-919762D01*
G37*
G36*
G01X-5153719Y-2443762D02*
G01X-5153719Y-2428562D01*
G01X-5150845Y-2428314D01*
G01X-5148361Y-2427614D01*
G01X-5146172Y-2426526D01*
G01X-5144179Y-2425114D01*
G01X-5140392Y-2421580D01*
G01X-5136220Y-2417528D01*
G01X-5136220Y-2454796D01*
G01X-5140392Y-2450745D01*
G01X-5144179Y-2447210D01*
G01X-5146172Y-2445799D01*
G01X-5148361Y-2444711D01*
G01X-5150845Y-2444010D01*
G01X-5153719Y-2443762D01*
G37*
G36*
G01X-2114414Y-723738D02*
G01X-2114414Y-738939D01*
G01X-2117288Y-739186D01*
G01X-2119772Y-739887D01*
G01X-2121961Y-740975D01*
G01X-2123954Y-742387D01*
G01X-2127741Y-745921D01*
G01X-2131913Y-749973D01*
G01X-2131913Y-712705D01*
G01X-2127741Y-716756D01*
G01X-2123954Y-720290D01*
G01X-2121961Y-721702D01*
G01X-2119772Y-722790D01*
G01X-2117288Y-723491D01*
G01X-2114414Y-723738D01*
G37*
G36*
G01X-1441378Y-723738D02*
G01X-1441378Y-738939D01*
G01X-1444253Y-739186D01*
G01X-1446736Y-739887D01*
G01X-1448925Y-740975D01*
G01X-1450918Y-742387D01*
G01X-1454705Y-745921D01*
G01X-1458878Y-749973D01*
G01X-1458878Y-712705D01*
G01X-1454705Y-716756D01*
G01X-1450918Y-720290D01*
G01X-1448925Y-721702D01*
G01X-1446736Y-722790D01*
G01X-1444253Y-723491D01*
G01X-1441378Y-723738D01*
G37*
G36*
G01X-1446011Y-1091805D02*
G01X-1456759Y-1102553D01*
G01X-1458967Y-1100695D01*
G01X-1461218Y-1099435D01*
G01X-1463536Y-1098656D01*
G01X-1465943Y-1098245D01*
G01X-1471120Y-1098066D01*
G01X-1476936Y-1097981D01*
G01X-1450583Y-1071628D01*
G01X-1450497Y-1077444D01*
G01X-1450319Y-1082621D01*
G01X-1449908Y-1085028D01*
G01X-1449129Y-1087346D01*
G01X-1447869Y-1089597D01*
G01X-1446011Y-1091805D01*
G37*
G36*
G01X-1446011Y-1193405D02*
G01X-1456759Y-1204153D01*
G01X-1458967Y-1202295D01*
G01X-1461218Y-1201035D01*
G01X-1463536Y-1200256D01*
G01X-1465943Y-1199845D01*
G01X-1471120Y-1199666D01*
G01X-1476936Y-1199581D01*
G01X-1450583Y-1173228D01*
G01X-1450497Y-1179044D01*
G01X-1450319Y-1184221D01*
G01X-1449908Y-1186628D01*
G01X-1449129Y-1188946D01*
G01X-1447869Y-1191197D01*
G01X-1446011Y-1193405D01*
G37*
G36*
G01X-5805878Y-2651207D02*
G01X-5790678Y-2651207D01*
G01X-5790430Y-2654081D01*
G01X-5789729Y-2656565D01*
G01X-5788641Y-2658754D01*
G01X-5787229Y-2660747D01*
G01X-5783695Y-2664534D01*
G01X-5779644Y-2668706D01*
G01X-5816912Y-2668706D01*
G01X-5812860Y-2664534D01*
G01X-5809326Y-2660747D01*
G01X-5807914Y-2658754D01*
G01X-5806826Y-2656565D01*
G01X-5806126Y-2654081D01*
G01X-5805878Y-2651207D01*
G37*
G36*
G01X-5424878Y-2648209D02*
G01X-5409678Y-2648209D01*
G01X-5409430Y-2651084D01*
G01X-5408729Y-2653567D01*
G01X-5407641Y-2655757D01*
G01X-5406229Y-2657750D01*
G01X-5402695Y-2661536D01*
G01X-5398644Y-2665709D01*
G01X-5435912Y-2665709D01*
G01X-5431860Y-2661536D01*
G01X-5428326Y-2657750D01*
G01X-5426914Y-2655757D01*
G01X-5425826Y-2653567D01*
G01X-5425126Y-2651084D01*
G01X-5424878Y-2648209D01*
G37*
G36*
G01X-1420870Y-4616324D02*
G01X-1382770Y-4616324D01*
G01X-1382514Y-4621815D01*
G01X-1381841Y-4626982D01*
G01X-1379795Y-4635997D01*
G01X-1377750Y-4642674D01*
G01X-1376820Y-4646324D01*
G01X-1426820Y-4646324D01*
G01X-1425890Y-4642674D01*
G01X-1423845Y-4635997D01*
G01X-1421800Y-4626982D01*
G01X-1421126Y-4621815D01*
G01X-1420870Y-4616324D01*
G37*
G36*
G01X-1203577Y-4616096D02*
G01X-1176637Y-4643037D01*
G01X-1180339Y-4647101D01*
G01X-1183516Y-4651231D01*
G01X-1188443Y-4659051D01*
G01X-1191719Y-4665220D01*
G01X-1193643Y-4668458D01*
G01X-1228998Y-4633102D01*
G01X-1225760Y-4631179D01*
G01X-1219591Y-4627903D01*
G01X-1211772Y-4622976D01*
G01X-1207641Y-4619799D01*
G01X-1203577Y-4616096D01*
G37*
G36*
G01X-1230370Y-4112780D02*
G01X-1192270Y-4112780D01*
G01X-1192014Y-4118271D01*
G01X-1191341Y-4123438D01*
G01X-1189295Y-4132452D01*
G01X-1187250Y-4139130D01*
G01X-1186320Y-4142780D01*
G01X-1236320Y-4142780D01*
G01X-1235390Y-4139130D01*
G01X-1233345Y-4132452D01*
G01X-1231300Y-4123438D01*
G01X-1230626Y-4118271D01*
G01X-1230370Y-4112780D01*
G37*
G36*
G01X-1176637Y-4150523D02*
G01X-1203577Y-4177463D01*
G01X-1207641Y-4173761D01*
G01X-1211772Y-4170584D01*
G01X-1219591Y-4165657D01*
G01X-1225760Y-4162381D01*
G01X-1228998Y-4160458D01*
G01X-1193643Y-4125102D01*
G01X-1191719Y-4128340D01*
G01X-1188443Y-4134509D01*
G01X-1183516Y-4142329D01*
G01X-1180339Y-4146459D01*
G01X-1176637Y-4150523D01*
G37*
G36*
G01X-1560964Y-3497497D02*
G01X-1534023Y-3470556D01*
G01X-1529959Y-3474259D01*
G01X-1525829Y-3477436D01*
G01X-1518009Y-3482363D01*
G01X-1511841Y-3485639D01*
G01X-1508603Y-3487562D01*
G01X-1543958Y-3522918D01*
G01X-1545881Y-3519680D01*
G01X-1549157Y-3513511D01*
G01X-1554085Y-3505691D01*
G01X-1557261Y-3501561D01*
G01X-1560964Y-3497497D01*
G37*
G36*
G01X-1491597Y-3512983D02*
G01X-1518537Y-3539923D01*
G01X-1522601Y-3536221D01*
G01X-1526732Y-3533044D01*
G01X-1534551Y-3528117D01*
G01X-1540720Y-3524841D01*
G01X-1543958Y-3522918D01*
G01X-1508603Y-3487562D01*
G01X-1506679Y-3490800D01*
G01X-1503403Y-3496969D01*
G01X-1498476Y-3504789D01*
G01X-1495299Y-3508919D01*
G01X-1491597Y-3512983D01*
G37*
G36*
G01X-1675911Y-3612444D02*
G01X-1648970Y-3585504D01*
G01X-1644906Y-3589206D01*
G01X-1640776Y-3592383D01*
G01X-1632956Y-3597310D01*
G01X-1626788Y-3600586D01*
G01X-1623550Y-3602509D01*
G01X-1658905Y-3637865D01*
G01X-1660828Y-3634627D01*
G01X-1664104Y-3628459D01*
G01X-1669032Y-3620638D01*
G01X-1672208Y-3616508D01*
G01X-1675911Y-3612444D01*
G37*
G36*
G01X-1606544Y-3627930D02*
G01X-1633485Y-3654871D01*
G01X-1637548Y-3651168D01*
G01X-1641679Y-3647991D01*
G01X-1649499Y-3643064D01*
G01X-1655667Y-3639788D01*
G01X-1658905Y-3637865D01*
G01X-1623550Y-3602509D01*
G01X-1621626Y-3605747D01*
G01X-1618351Y-3611916D01*
G01X-1613423Y-3619736D01*
G01X-1610246Y-3623866D01*
G01X-1606544Y-3627930D01*
G37*
G36*
G01X-2352260Y-3181390D02*
G01X-2352260Y-3219490D01*
G01X-2357752Y-3219746D01*
G01X-2362919Y-3220420D01*
G01X-2371933Y-3222465D01*
G01X-2378610Y-3224510D01*
G01X-2382260Y-3225440D01*
G01X-2382260Y-3175440D01*
G01X-2378610Y-3176370D01*
G01X-2371933Y-3178415D01*
G01X-2362919Y-3180460D01*
G01X-2357752Y-3181134D01*
G01X-2352260Y-3181390D01*
G37*
G36*
G01X-2412260Y-3219490D02*
G01X-2412260Y-3181390D01*
G01X-2406769Y-3181134D01*
G01X-2401602Y-3180460D01*
G01X-2392588Y-3178415D01*
G01X-2385910Y-3176370D01*
G01X-2382260Y-3175440D01*
G01X-2382260Y-3225440D01*
G01X-2385910Y-3224510D01*
G01X-2392588Y-3222465D01*
G01X-2401602Y-3220420D01*
G01X-2406769Y-3219746D01*
G01X-2412260Y-3219490D01*
G37*
G36*
G01X-2412260Y-3382050D02*
G01X-2412260Y-3343950D01*
G01X-2406769Y-3343694D01*
G01X-2401602Y-3343020D01*
G01X-2392588Y-3340975D01*
G01X-2385910Y-3338930D01*
G01X-2382260Y-3338000D01*
G01X-2382260Y-3388000D01*
G01X-2385910Y-3387070D01*
G01X-2392588Y-3385025D01*
G01X-2401602Y-3382980D01*
G01X-2406769Y-3382306D01*
G01X-2412260Y-3382050D01*
G37*
G36*
G01X-2352260Y-3343950D02*
G01X-2352260Y-3382050D01*
G01X-2357752Y-3382306D01*
G01X-2362919Y-3382980D01*
G01X-2371933Y-3385025D01*
G01X-2378610Y-3387070D01*
G01X-2382260Y-3388000D01*
G01X-2382260Y-3338000D01*
G01X-2378610Y-3338930D01*
G01X-2371933Y-3340975D01*
G01X-2362919Y-3343020D01*
G01X-2357752Y-3343694D01*
G01X-2352260Y-3343950D01*
G37*
G36*
G01X-2920260Y-3219490D02*
G01X-2920260Y-3181390D01*
G01X-2914769Y-3181134D01*
G01X-2909602Y-3180460D01*
G01X-2900588Y-3178415D01*
G01X-2893910Y-3176370D01*
G01X-2890260Y-3175440D01*
G01X-2890260Y-3225440D01*
G01X-2893910Y-3224510D01*
G01X-2900588Y-3222465D01*
G01X-2909602Y-3220420D01*
G01X-2914769Y-3219746D01*
G01X-2920260Y-3219490D01*
G37*
G36*
G01X-2860260Y-3181390D02*
G01X-2860260Y-3219490D01*
G01X-2865752Y-3219746D01*
G01X-2870919Y-3220420D01*
G01X-2879933Y-3222465D01*
G01X-2886610Y-3224510D01*
G01X-2890260Y-3225440D01*
G01X-2890260Y-3175440D01*
G01X-2886610Y-3176370D01*
G01X-2879933Y-3178415D01*
G01X-2870919Y-3180460D01*
G01X-2865752Y-3181134D01*
G01X-2860260Y-3181390D01*
G37*
G36*
G01X-2860260Y-3343950D02*
G01X-2860260Y-3382050D01*
G01X-2865752Y-3382306D01*
G01X-2870919Y-3382980D01*
G01X-2879933Y-3385025D01*
G01X-2886610Y-3387070D01*
G01X-2890260Y-3388000D01*
G01X-2890260Y-3338000D01*
G01X-2886610Y-3338930D01*
G01X-2879933Y-3340975D01*
G01X-2870919Y-3343020D01*
G01X-2865752Y-3343694D01*
G01X-2860260Y-3343950D01*
G37*
G36*
G01X-2920260Y-3382050D02*
G01X-2920260Y-3343950D01*
G01X-2914769Y-3343694D01*
G01X-2909602Y-3343020D01*
G01X-2900588Y-3340975D01*
G01X-2893910Y-3338930D01*
G01X-2890260Y-3338000D01*
G01X-2890260Y-3388000D01*
G01X-2893910Y-3387070D01*
G01X-2900588Y-3385025D01*
G01X-2909602Y-3382980D01*
G01X-2914769Y-3382306D01*
G01X-2920260Y-3382050D01*
G37*
G36*
G01X-3428260Y-3219490D02*
G01X-3428260Y-3181390D01*
G01X-3422769Y-3181134D01*
G01X-3417602Y-3180460D01*
G01X-3408588Y-3178415D01*
G01X-3401910Y-3176370D01*
G01X-3398260Y-3175440D01*
G01X-3398260Y-3225440D01*
G01X-3401910Y-3224510D01*
G01X-3408588Y-3222465D01*
G01X-3417602Y-3220420D01*
G01X-3422769Y-3219746D01*
G01X-3428260Y-3219490D01*
G37*
G36*
G01X-3368260Y-3181390D02*
G01X-3368260Y-3219490D01*
G01X-3373752Y-3219746D01*
G01X-3378919Y-3220420D01*
G01X-3387933Y-3222465D01*
G01X-3394610Y-3224510D01*
G01X-3398260Y-3225440D01*
G01X-3398260Y-3175440D01*
G01X-3394610Y-3176370D01*
G01X-3387933Y-3178415D01*
G01X-3378919Y-3180460D01*
G01X-3373752Y-3181134D01*
G01X-3368260Y-3181390D01*
G37*
G36*
G01X-3428260Y-3382050D02*
G01X-3428260Y-3343950D01*
G01X-3422769Y-3343694D01*
G01X-3417602Y-3343020D01*
G01X-3408588Y-3340975D01*
G01X-3401910Y-3338930D01*
G01X-3398260Y-3338000D01*
G01X-3398260Y-3388000D01*
G01X-3401910Y-3387070D01*
G01X-3408588Y-3385025D01*
G01X-3417602Y-3382980D01*
G01X-3422769Y-3382306D01*
G01X-3428260Y-3382050D01*
G37*
G36*
G01X-3368260Y-3343950D02*
G01X-3368260Y-3382050D01*
G01X-3373752Y-3382306D01*
G01X-3378919Y-3382980D01*
G01X-3387933Y-3385025D01*
G01X-3394610Y-3387070D01*
G01X-3398260Y-3388000D01*
G01X-3398260Y-3338000D01*
G01X-3394610Y-3338930D01*
G01X-3387933Y-3340975D01*
G01X-3378919Y-3343020D01*
G01X-3373752Y-3343694D01*
G01X-3368260Y-3343950D01*
G37*
G36*
G01X-4550940Y-3122970D02*
G01X-4550940Y-3084870D01*
G01X-4545449Y-3084614D01*
G01X-4540282Y-3083940D01*
G01X-4531268Y-3081895D01*
G01X-4524590Y-3079850D01*
G01X-4520940Y-3078920D01*
G01X-4520940Y-3128920D01*
G01X-4524590Y-3127990D01*
G01X-4531268Y-3125945D01*
G01X-4540282Y-3123900D01*
G01X-4545449Y-3123226D01*
G01X-4550940Y-3122970D01*
G37*
G36*
G01X-4490940Y-3084870D02*
G01X-4490940Y-3122970D01*
G01X-4496432Y-3123226D01*
G01X-4501599Y-3123900D01*
G01X-4510613Y-3125945D01*
G01X-4517290Y-3127990D01*
G01X-4520940Y-3128920D01*
G01X-4520940Y-3078920D01*
G01X-4517290Y-3079850D01*
G01X-4510613Y-3081895D01*
G01X-4501599Y-3083940D01*
G01X-4496432Y-3084614D01*
G01X-4490940Y-3084870D01*
G37*
G36*
G01X-4490940Y-2922310D02*
G01X-4490940Y-2960410D01*
G01X-4496432Y-2960666D01*
G01X-4501599Y-2961340D01*
G01X-4510613Y-2963385D01*
G01X-4517290Y-2965430D01*
G01X-4520940Y-2966360D01*
G01X-4520940Y-2916360D01*
G01X-4517290Y-2917290D01*
G01X-4510613Y-2919335D01*
G01X-4501599Y-2921380D01*
G01X-4496432Y-2922054D01*
G01X-4490940Y-2922310D01*
G37*
G36*
G01X-4550940Y-2960410D02*
G01X-4550940Y-2922310D01*
G01X-4545449Y-2922054D01*
G01X-4540282Y-2921380D01*
G01X-4531268Y-2919335D01*
G01X-4524590Y-2917290D01*
G01X-4520940Y-2916360D01*
G01X-4520940Y-2966360D01*
G01X-4524590Y-2965430D01*
G01X-4531268Y-2963385D01*
G01X-4540282Y-2961340D01*
G01X-4545449Y-2960666D01*
G01X-4550940Y-2960410D01*
G37*
G36*
G01X-5058940Y-2960410D02*
G01X-5058940Y-2922310D01*
G01X-5053449Y-2922054D01*
G01X-5048282Y-2921380D01*
G01X-5039268Y-2919335D01*
G01X-5032590Y-2917290D01*
G01X-5028940Y-2916360D01*
G01X-5028940Y-2966360D01*
G01X-5032590Y-2965430D01*
G01X-5039268Y-2963385D01*
G01X-5048282Y-2961340D01*
G01X-5053449Y-2960666D01*
G01X-5058940Y-2960410D01*
G37*
G36*
G01X-4998940Y-2922310D02*
G01X-4998940Y-2960410D01*
G01X-5004432Y-2960666D01*
G01X-5009599Y-2961340D01*
G01X-5018613Y-2963385D01*
G01X-5025290Y-2965430D01*
G01X-5028940Y-2966360D01*
G01X-5028940Y-2916360D01*
G01X-5025290Y-2917290D01*
G01X-5018613Y-2919335D01*
G01X-5009599Y-2921380D01*
G01X-5004432Y-2922054D01*
G01X-4998940Y-2922310D01*
G37*
G36*
G01X-4998940Y-3084870D02*
G01X-4998940Y-3122970D01*
G01X-5004432Y-3123226D01*
G01X-5009599Y-3123900D01*
G01X-5018613Y-3125945D01*
G01X-5025290Y-3127990D01*
G01X-5028940Y-3128920D01*
G01X-5028940Y-3078920D01*
G01X-5025290Y-3079850D01*
G01X-5018613Y-3081895D01*
G01X-5009599Y-3083940D01*
G01X-5004432Y-3084614D01*
G01X-4998940Y-3084870D01*
G37*
G36*
G01X-5058940Y-3122970D02*
G01X-5058940Y-3084870D01*
G01X-5053449Y-3084614D01*
G01X-5048282Y-3083940D01*
G01X-5039268Y-3081895D01*
G01X-5032590Y-3079850D01*
G01X-5028940Y-3078920D01*
G01X-5028940Y-3128920D01*
G01X-5032590Y-3127990D01*
G01X-5039268Y-3125945D01*
G01X-5048282Y-3123900D01*
G01X-5053449Y-3123226D01*
G01X-5058940Y-3122970D01*
G37*
G36*
G01X-5734580Y-3122970D02*
G01X-5734580Y-3084870D01*
G01X-5729089Y-3084614D01*
G01X-5723922Y-3083940D01*
G01X-5714908Y-3081895D01*
G01X-5708230Y-3079850D01*
G01X-5704580Y-3078920D01*
G01X-5704580Y-3128920D01*
G01X-5708230Y-3127990D01*
G01X-5714908Y-3125945D01*
G01X-5723922Y-3123900D01*
G01X-5729089Y-3123226D01*
G01X-5734580Y-3122970D01*
G37*
G36*
G01X-5674580Y-3084870D02*
G01X-5674580Y-3122970D01*
G01X-5680072Y-3123226D01*
G01X-5685239Y-3123900D01*
G01X-5694253Y-3125945D01*
G01X-5700930Y-3127990D01*
G01X-5704580Y-3128920D01*
G01X-5704580Y-3078920D01*
G01X-5700930Y-3079850D01*
G01X-5694253Y-3081895D01*
G01X-5685239Y-3083940D01*
G01X-5680072Y-3084614D01*
G01X-5674580Y-3084870D01*
G37*
G36*
G01X-5734580Y-2960410D02*
G01X-5734580Y-2922310D01*
G01X-5729089Y-2922054D01*
G01X-5723922Y-2921380D01*
G01X-5714908Y-2919335D01*
G01X-5708230Y-2917290D01*
G01X-5704580Y-2916360D01*
G01X-5704580Y-2966360D01*
G01X-5708230Y-2965430D01*
G01X-5714908Y-2963385D01*
G01X-5723922Y-2961340D01*
G01X-5729089Y-2960666D01*
G01X-5734580Y-2960410D01*
G37*
G36*
G01X-5674580Y-2922310D02*
G01X-5674580Y-2960410D01*
G01X-5680072Y-2960666D01*
G01X-5685239Y-2961340D01*
G01X-5694253Y-2963385D01*
G01X-5700930Y-2965430D01*
G01X-5704580Y-2966360D01*
G01X-5704580Y-2916360D01*
G01X-5700930Y-2917290D01*
G01X-5694253Y-2919335D01*
G01X-5685239Y-2921380D01*
G01X-5680072Y-2922054D01*
G01X-5674580Y-2922310D01*
G37*
G36*
G01X-7146030Y-2496403D02*
G01X-7184130Y-2496403D01*
G01X-7184387Y-2490907D01*
G01X-7185063Y-2485736D01*
G01X-7187115Y-2476714D01*
G01X-7189166Y-2470032D01*
G01X-7190099Y-2466380D01*
G01X-7140061Y-2466380D01*
G01X-7140994Y-2470032D01*
G01X-7143046Y-2476714D01*
G01X-7145097Y-2485736D01*
G01X-7145774Y-2490907D01*
G01X-7146030Y-2496403D01*
G37*
G36*
G01X-7195103Y-2310170D02*
G01X-7195103Y-2272070D01*
G01X-7189607Y-2271813D01*
G01X-7184436Y-2271137D01*
G01X-7175415Y-2269085D01*
G01X-7168732Y-2267034D01*
G01X-7165080Y-2266101D01*
G01X-7165080Y-2316139D01*
G01X-7168732Y-2315206D01*
G01X-7175415Y-2313154D01*
G01X-7184436Y-2311103D01*
G01X-7189607Y-2310426D01*
G01X-7195103Y-2310170D01*
G37*
G36*
G01X-6410220Y-2960410D02*
G01X-6410220Y-2922310D01*
G01X-6404729Y-2922054D01*
G01X-6399562Y-2921380D01*
G01X-6390548Y-2919335D01*
G01X-6383870Y-2917290D01*
G01X-6380220Y-2916360D01*
G01X-6380220Y-2966360D01*
G01X-6383870Y-2965430D01*
G01X-6390548Y-2963385D01*
G01X-6399562Y-2961340D01*
G01X-6404729Y-2960666D01*
G01X-6410220Y-2960410D01*
G37*
G36*
G01X-6350220Y-2922310D02*
G01X-6350220Y-2960410D01*
G01X-6355712Y-2960666D01*
G01X-6360879Y-2961340D01*
G01X-6369893Y-2963385D01*
G01X-6376570Y-2965430D01*
G01X-6380220Y-2966360D01*
G01X-6380220Y-2916360D01*
G01X-6376570Y-2917290D01*
G01X-6369893Y-2919335D01*
G01X-6360879Y-2921380D01*
G01X-6355712Y-2922054D01*
G01X-6350220Y-2922310D01*
G37*
G36*
G01X-6410220Y-3122970D02*
G01X-6410220Y-3084870D01*
G01X-6404729Y-3084614D01*
G01X-6399562Y-3083940D01*
G01X-6390548Y-3081895D01*
G01X-6383870Y-3079850D01*
G01X-6380220Y-3078920D01*
G01X-6380220Y-3128920D01*
G01X-6383870Y-3127990D01*
G01X-6390548Y-3125945D01*
G01X-6399562Y-3123900D01*
G01X-6404729Y-3123226D01*
G01X-6410220Y-3122970D01*
G37*
G36*
G01X-6350220Y-3084870D02*
G01X-6350220Y-3122970D01*
G01X-6355712Y-3123226D01*
G01X-6360879Y-3123900D01*
G01X-6369893Y-3125945D01*
G01X-6376570Y-3127990D01*
G01X-6380220Y-3128920D01*
G01X-6380220Y-3078920D01*
G01X-6376570Y-3079850D01*
G01X-6369893Y-3081895D01*
G01X-6360879Y-3083940D01*
G01X-6355712Y-3084614D01*
G01X-6350220Y-3084870D01*
G37*
G36*
G01X-7030610Y-2777651D02*
G01X-7003669Y-2750710D01*
G01X-6999602Y-2754415D01*
G01X-6995467Y-2757593D01*
G01X-6987637Y-2762521D01*
G01X-6981461Y-2765796D01*
G01X-6978219Y-2767719D01*
G01X-7013601Y-2803101D01*
G01X-7015524Y-2799859D01*
G01X-7018799Y-2793683D01*
G01X-7023727Y-2785853D01*
G01X-7026905Y-2781718D01*
G01X-7030610Y-2777651D01*
G37*
G36*
G01X-6961211Y-2793169D02*
G01X-6988151Y-2820109D01*
G01X-6992219Y-2816405D01*
G01X-6996354Y-2813226D01*
G01X-7004183Y-2808298D01*
G01X-7010360Y-2805023D01*
G01X-7013601Y-2803101D01*
G01X-6978219Y-2767719D01*
G01X-6976297Y-2770960D01*
G01X-6973022Y-2777137D01*
G01X-6968094Y-2784966D01*
G01X-6964915Y-2789101D01*
G01X-6961211Y-2793169D01*
G37*
G36*
G01X-7141570Y-2890211D02*
G01X-7114629Y-2863270D01*
G01X-7110562Y-2866975D01*
G01X-7106427Y-2870153D01*
G01X-7098597Y-2875081D01*
G01X-7092421Y-2878356D01*
G01X-7089179Y-2880278D01*
G01X-7124562Y-2915661D01*
G01X-7126484Y-2912419D01*
G01X-7129759Y-2906243D01*
G01X-7134687Y-2898413D01*
G01X-7137865Y-2894278D01*
G01X-7141570Y-2890211D01*
G37*
G36*
G01X-7072171Y-2905729D02*
G01X-7099112Y-2932669D01*
G01X-7103179Y-2928964D01*
G01X-7107314Y-2925786D01*
G01X-7115144Y-2920858D01*
G01X-7121320Y-2917583D01*
G01X-7124562Y-2915661D01*
G01X-7089179Y-2880278D01*
G01X-7087257Y-2883520D01*
G01X-7083982Y-2889697D01*
G01X-7079054Y-2897526D01*
G01X-7075876Y-2901661D01*
G01X-7072171Y-2905729D01*
G37*
G36*
G01X-5406227Y-3309660D02*
G01X-5406227Y-3324900D01*
G01X-5409102Y-3325148D01*
G01X-5411586Y-3325848D01*
G01X-5413778Y-3326935D01*
G01X-5415774Y-3328346D01*
G01X-5419567Y-3331879D01*
G01X-5423741Y-3335928D01*
G01X-5423741Y-3298632D01*
G01X-5419567Y-3302681D01*
G01X-5415774Y-3306214D01*
G01X-5413778Y-3307624D01*
G01X-5411586Y-3308712D01*
G01X-5409102Y-3309412D01*
G01X-5406227Y-3309660D01*
G37*
G36*
G01X-5932878Y-2651207D02*
G01X-5917678Y-2651207D01*
G01X-5917430Y-2654081D01*
G01X-5916729Y-2656565D01*
G01X-5915641Y-2658754D01*
G01X-5914229Y-2660747D01*
G01X-5910695Y-2664534D01*
G01X-5906644Y-2668706D01*
G01X-5943912Y-2668706D01*
G01X-5939860Y-2664534D01*
G01X-5936326Y-2660747D01*
G01X-5934914Y-2658754D01*
G01X-5933826Y-2656565D01*
G01X-5933126Y-2654081D01*
G01X-5932878Y-2651207D01*
G37*
G36*
G01X-6059878Y-2651207D02*
G01X-6044678Y-2651207D01*
G01X-6044430Y-2654081D01*
G01X-6043729Y-2656565D01*
G01X-6042641Y-2658754D01*
G01X-6041229Y-2660747D01*
G01X-6037695Y-2664534D01*
G01X-6033644Y-2668706D01*
G01X-6070912Y-2668706D01*
G01X-6066860Y-2664534D01*
G01X-6063326Y-2660747D01*
G01X-6061914Y-2658754D01*
G01X-6060826Y-2656565D01*
G01X-6060126Y-2654081D01*
G01X-6059878Y-2651207D01*
G37*
G36*
G01X-6186878Y-2651207D02*
G01X-6171678Y-2651207D01*
G01X-6171430Y-2654081D01*
G01X-6170729Y-2656565D01*
G01X-6169641Y-2658754D01*
G01X-6168229Y-2660747D01*
G01X-6164695Y-2664534D01*
G01X-6160644Y-2668706D01*
G01X-6197912Y-2668706D01*
G01X-6193860Y-2664534D01*
G01X-6190326Y-2660747D01*
G01X-6188914Y-2658754D01*
G01X-6187826Y-2656565D01*
G01X-6187126Y-2654081D01*
G01X-6186878Y-2651207D01*
G37*
G36*
G01X-6313878Y-2651207D02*
G01X-6298678Y-2651207D01*
G01X-6298430Y-2654081D01*
G01X-6297729Y-2656565D01*
G01X-6296641Y-2658754D01*
G01X-6295229Y-2660747D01*
G01X-6291695Y-2664534D01*
G01X-6287644Y-2668706D01*
G01X-6324912Y-2668706D01*
G01X-6320860Y-2664534D01*
G01X-6317326Y-2660747D01*
G01X-6315914Y-2658754D01*
G01X-6314826Y-2656565D01*
G01X-6314126Y-2654081D01*
G01X-6313878Y-2651207D01*
G37*
G36*
G01X-6414413Y-3403640D02*
G01X-6414413Y-3388400D01*
G01X-6411538Y-3388152D01*
G01X-6409054Y-3387452D01*
G01X-6406862Y-3386364D01*
G01X-6404866Y-3384954D01*
G01X-6401074Y-3381421D01*
G01X-6396900Y-3377372D01*
G01X-6396900Y-3414668D01*
G01X-6401074Y-3410619D01*
G01X-6404866Y-3407086D01*
G01X-6406862Y-3405675D01*
G01X-6409054Y-3404588D01*
G01X-6411538Y-3403888D01*
G01X-6414413Y-3403640D01*
G37*
G36*
G01X-6284427Y-3425586D02*
G01X-6295204Y-3414810D01*
G01X-6293346Y-3412602D01*
G01X-6292084Y-3410350D01*
G01X-6291304Y-3408031D01*
G01X-6290890Y-3405622D01*
G01X-6290706Y-3400443D01*
G01X-6290618Y-3394628D01*
G01X-6264246Y-3421000D01*
G01X-6270061Y-3421088D01*
G01X-6275240Y-3421272D01*
G01X-6277649Y-3421686D01*
G01X-6279968Y-3422467D01*
G01X-6282220Y-3423728D01*
G01X-6284427Y-3425586D01*
G37*
G36*
G01X-6086444Y-2794593D02*
G01X-6086444Y-2779353D01*
G01X-6083573Y-2779106D01*
G01X-6081091Y-2778407D01*
G01X-6078900Y-2777320D01*
G01X-6076906Y-2775911D01*
G01X-6073115Y-2772383D01*
G01X-6068944Y-2768339D01*
G01X-6068944Y-2805607D01*
G01X-6073115Y-2801563D01*
G01X-6076906Y-2798035D01*
G01X-6078900Y-2796626D01*
G01X-6081091Y-2795539D01*
G01X-6083573Y-2794840D01*
G01X-6086444Y-2794593D01*
G37*
G36*
G01X-7077810Y-1920562D02*
G01X-7077810Y-1935762D01*
G01X-7080688Y-1936010D01*
G01X-7083174Y-1936712D01*
G01X-7085364Y-1937802D01*
G01X-7087358Y-1939215D01*
G01X-7091146Y-1942754D01*
G01X-7095323Y-1946810D01*
G01X-7095323Y-1909514D01*
G01X-7091146Y-1913571D01*
G01X-7087358Y-1917110D01*
G01X-7085364Y-1918523D01*
G01X-7083174Y-1919613D01*
G01X-7080688Y-1920314D01*
G01X-7077810Y-1920562D01*
G37*
G36*
G01X-5514737Y-3336070D02*
G01X-5525513Y-3346846D01*
G01X-5527721Y-3344988D01*
G01X-5529972Y-3343727D01*
G01X-5532291Y-3342946D01*
G01X-5534700Y-3342532D01*
G01X-5539880Y-3342348D01*
G01X-5545695Y-3342260D01*
G01X-5519322Y-3315888D01*
G01X-5519234Y-3321703D01*
G01X-5519050Y-3326882D01*
G01X-5518636Y-3329291D01*
G01X-5517856Y-3331610D01*
G01X-5516594Y-3333862D01*
G01X-5514737Y-3336070D01*
G37*
G36*
G01X-6567878Y-2651207D02*
G01X-6552678Y-2651207D01*
G01X-6552430Y-2654081D01*
G01X-6551729Y-2656565D01*
G01X-6550641Y-2658754D01*
G01X-6549229Y-2660747D01*
G01X-6545695Y-2664534D01*
G01X-6541644Y-2668706D01*
G01X-6578912Y-2668706D01*
G01X-6574860Y-2664534D01*
G01X-6571326Y-2660747D01*
G01X-6569914Y-2658754D01*
G01X-6568826Y-2656565D01*
G01X-6568126Y-2654081D01*
G01X-6567878Y-2651207D01*
G37*
G36*
G01X-7401280Y-2651180D02*
G01X-7386080Y-2651180D01*
G01X-7385832Y-2654059D01*
G01X-7385131Y-2656544D01*
G01X-7384041Y-2658735D01*
G01X-7382628Y-2660728D01*
G01X-7379089Y-2664517D01*
G01X-7375032Y-2668694D01*
G01X-7412328Y-2668694D01*
G01X-7408271Y-2664517D01*
G01X-7404733Y-2660728D01*
G01X-7403319Y-2658735D01*
G01X-7402230Y-2656544D01*
G01X-7401528Y-2654059D01*
G01X-7401280Y-2651180D01*
G37*
G36*
G01X-7412452Y-2816521D02*
G01X-7423228Y-2805744D01*
G01X-7421373Y-2803539D01*
G01X-7420112Y-2801290D01*
G01X-7419331Y-2798973D01*
G01X-7418917Y-2796566D01*
G01X-7418730Y-2791390D01*
G01X-7418641Y-2785582D01*
G01X-7392289Y-2811934D01*
G01X-7398097Y-2812023D01*
G01X-7403273Y-2812210D01*
G01X-7405680Y-2812624D01*
G01X-7407997Y-2813405D01*
G01X-7410246Y-2814665D01*
G01X-7412452Y-2816521D01*
G37*
G36*
G01X-5578495Y-3190537D02*
G01X-5578495Y-3175297D01*
G01X-5575621Y-3175050D01*
G01X-5573136Y-3174350D01*
G01X-5570945Y-3173262D01*
G01X-5568949Y-3171851D01*
G01X-5565156Y-3168319D01*
G01X-5560982Y-3164269D01*
G01X-5560982Y-3201566D01*
G01X-5565156Y-3197516D01*
G01X-5568949Y-3193984D01*
G01X-5570945Y-3192573D01*
G01X-5573136Y-3191485D01*
G01X-5575621Y-3190785D01*
G01X-5578495Y-3190537D01*
G37*
G36*
G01X-7427847Y-2896193D02*
G01X-7427847Y-2880953D01*
G01X-7424976Y-2880706D01*
G01X-7422493Y-2880007D01*
G01X-7420303Y-2878920D01*
G01X-7418308Y-2877511D01*
G01X-7414517Y-2873983D01*
G01X-7410347Y-2869939D01*
G01X-7410347Y-2907207D01*
G01X-7414517Y-2903163D01*
G01X-7418308Y-2899635D01*
G01X-7420303Y-2898226D01*
G01X-7422493Y-2897139D01*
G01X-7424976Y-2896440D01*
G01X-7427847Y-2896193D01*
G37*
G36*
G01X-6694878Y-2651207D02*
G01X-6679678Y-2651207D01*
G01X-6679430Y-2654081D01*
G01X-6678729Y-2656565D01*
G01X-6677641Y-2658754D01*
G01X-6676229Y-2660747D01*
G01X-6672695Y-2664534D01*
G01X-6668644Y-2668706D01*
G01X-6705912Y-2668706D01*
G01X-6701860Y-2664534D01*
G01X-6698326Y-2660747D01*
G01X-6696914Y-2658754D01*
G01X-6695826Y-2656565D01*
G01X-6695126Y-2654081D01*
G01X-6694878Y-2651207D01*
G37*
G36*
G01X-7427847Y-2997793D02*
G01X-7427847Y-2982553D01*
G01X-7424976Y-2982306D01*
G01X-7422493Y-2981607D01*
G01X-7420303Y-2980520D01*
G01X-7418308Y-2979111D01*
G01X-7414517Y-2975583D01*
G01X-7410347Y-2971539D01*
G01X-7410347Y-3008807D01*
G01X-7414517Y-3004763D01*
G01X-7418308Y-3001235D01*
G01X-7420303Y-2999826D01*
G01X-7422493Y-2998739D01*
G01X-7424976Y-2998040D01*
G01X-7427847Y-2997793D01*
G37*
G36*
G01X-7476476Y-2655821D02*
G01X-7465728Y-2666569D01*
G01X-7467588Y-2668780D01*
G01X-7468849Y-2671033D01*
G01X-7469628Y-2673353D01*
G01X-7470038Y-2675762D01*
G01X-7470215Y-2680943D01*
G01X-7470300Y-2686765D01*
G01X-7496672Y-2660393D01*
G01X-7490850Y-2660308D01*
G01X-7485669Y-2660131D01*
G01X-7483260Y-2659721D01*
G01X-7480940Y-2658942D01*
G01X-7478687Y-2657681D01*
G01X-7476476Y-2655821D01*
G37*
G36*
G01X-7502900Y-2549580D02*
G01X-7487660Y-2549580D01*
G01X-7487413Y-2552455D01*
G01X-7486712Y-2554939D01*
G01X-7485625Y-2557131D01*
G01X-7484214Y-2559127D01*
G01X-7480682Y-2562920D01*
G01X-7476632Y-2567094D01*
G01X-7513928Y-2567094D01*
G01X-7509879Y-2562920D01*
G01X-7506346Y-2559127D01*
G01X-7504936Y-2557131D01*
G01X-7503848Y-2554939D01*
G01X-7503148Y-2552455D01*
G01X-7502900Y-2549580D01*
G37*
G36*
G01X-7604480Y-2651180D02*
G01X-7589280Y-2651180D01*
G01X-7589032Y-2654059D01*
G01X-7588331Y-2656544D01*
G01X-7587241Y-2658735D01*
G01X-7585828Y-2660728D01*
G01X-7582289Y-2664517D01*
G01X-7578232Y-2668694D01*
G01X-7615528Y-2668694D01*
G01X-7611471Y-2664517D01*
G01X-7607933Y-2660728D01*
G01X-7606519Y-2658735D01*
G01X-7605430Y-2656544D01*
G01X-7604728Y-2654059D01*
G01X-7604480Y-2651180D01*
G37*
G36*
G01X-7578076Y-2757421D02*
G01X-7567328Y-2768169D01*
G01X-7569188Y-2770380D01*
G01X-7570449Y-2772633D01*
G01X-7571228Y-2774953D01*
G01X-7571638Y-2777362D01*
G01X-7571815Y-2782543D01*
G01X-7571900Y-2788365D01*
G01X-7598272Y-2761993D01*
G01X-7592450Y-2761908D01*
G01X-7587269Y-2761731D01*
G01X-7584860Y-2761321D01*
G01X-7582540Y-2760542D01*
G01X-7580287Y-2759281D01*
G01X-7578076Y-2757421D01*
G37*
G36*
G01X-7626446Y-3057190D02*
G01X-7615670Y-3046414D01*
G01X-7613462Y-3048271D01*
G01X-7611210Y-3049533D01*
G01X-7608892Y-3050314D01*
G01X-7606483Y-3050727D01*
G01X-7601303Y-3050911D01*
G01X-7595488Y-3051000D01*
G01X-7621860Y-3077372D01*
G01X-7621949Y-3071557D01*
G01X-7622133Y-3066377D01*
G01X-7622546Y-3063968D01*
G01X-7623327Y-3061650D01*
G01X-7624589Y-3059398D01*
G01X-7626446Y-3057190D01*
G37*
G36*
G01X-7732673Y-3083600D02*
G01X-7732673Y-3068360D01*
G01X-7729798Y-3068112D01*
G01X-7727314Y-3067412D01*
G01X-7725122Y-3066324D01*
G01X-7723126Y-3064914D01*
G01X-7719334Y-3061381D01*
G01X-7715160Y-3057332D01*
G01X-7715160Y-3094628D01*
G01X-7719334Y-3090579D01*
G01X-7723126Y-3087046D01*
G01X-7725122Y-3085635D01*
G01X-7727314Y-3084548D01*
G01X-7729798Y-3083848D01*
G01X-7732673Y-3083600D01*
G37*
G36*
G01X-7514070Y-3105546D02*
G01X-7524846Y-3094770D01*
G01X-7522989Y-3092562D01*
G01X-7521727Y-3090310D01*
G01X-7520946Y-3087991D01*
G01X-7520533Y-3085582D01*
G01X-7520349Y-3080403D01*
G01X-7520260Y-3074588D01*
G01X-7493888Y-3100960D01*
G01X-7499703Y-3101048D01*
G01X-7504883Y-3101232D01*
G01X-7507292Y-3101646D01*
G01X-7509610Y-3102427D01*
G01X-7511862Y-3103688D01*
G01X-7514070Y-3105546D01*
G37*
G36*
G01X-7529447Y-3185200D02*
G01X-7529447Y-3169960D01*
G01X-7526576Y-3169712D01*
G01X-7524093Y-3169013D01*
G01X-7521903Y-3167927D01*
G01X-7519908Y-3166518D01*
G01X-7516117Y-3162990D01*
G01X-7511947Y-3158946D01*
G01X-7511947Y-3196214D01*
G01X-7516117Y-3192170D01*
G01X-7519908Y-3188642D01*
G01X-7521903Y-3187233D01*
G01X-7524093Y-3186146D01*
G01X-7526576Y-3185447D01*
G01X-7529447Y-3185200D01*
G37*
G36*
G01X-7192176Y-4507173D02*
G01X-7207416Y-4507173D01*
G01X-7207664Y-4504298D01*
G01X-7208364Y-4501814D01*
G01X-7209451Y-4499622D01*
G01X-7210862Y-4497626D01*
G01X-7214395Y-4493833D01*
G01X-7218444Y-4489659D01*
G01X-7181148Y-4489659D01*
G01X-7185197Y-4493833D01*
G01X-7188730Y-4497626D01*
G01X-7190140Y-4499622D01*
G01X-7191228Y-4501814D01*
G01X-7191928Y-4504298D01*
G01X-7192176Y-4507173D01*
G37*
G36*
G01X-7116967Y-4502527D02*
G01X-7127743Y-4491751D01*
G01X-7125888Y-4489546D01*
G01X-7124627Y-4487297D01*
G01X-7123847Y-4484980D01*
G01X-7123432Y-4482572D01*
G01X-7123246Y-4477397D01*
G01X-7123157Y-4471589D01*
G01X-7096805Y-4497941D01*
G01X-7102613Y-4498030D01*
G01X-7107788Y-4498216D01*
G01X-7110195Y-4498631D01*
G01X-7112512Y-4499411D01*
G01X-7114762Y-4500672D01*
G01X-7116967Y-4502527D01*
G37*
G36*
G01X-1974740Y-5058450D02*
G01X-1974740Y-5096550D01*
G01X-1980232Y-5096806D01*
G01X-1985399Y-5097480D01*
G01X-1994413Y-5099525D01*
G01X-2001090Y-5101570D01*
G01X-2004740Y-5102500D01*
G01X-2004740Y-5052500D01*
G01X-2001090Y-5053430D01*
G01X-1994413Y-5055475D01*
G01X-1985399Y-5057520D01*
G01X-1980232Y-5058194D01*
G01X-1974740Y-5058450D01*
G37*
G36*
G01X-1976509Y-4921408D02*
G01X-1977166Y-4959508D01*
G01X-1982671Y-4959714D01*
G01X-1987250Y-4960243D01*
G01X-1994857Y-4961729D01*
G01X-2002446Y-4962892D01*
G01X-2007004Y-4963017D01*
G01X-2012479Y-4962658D01*
G01X-2006505Y-4913021D01*
G01X-2001423Y-4913974D01*
G01X-1997496Y-4915203D01*
G01X-1991559Y-4917989D01*
G01X-1988774Y-4919299D01*
G01X-1985595Y-4920388D01*
G01X-1981636Y-4921133D01*
G01X-1976509Y-4921408D01*
G37*
G36*
G01X-7146456Y-5008920D02*
G02X-7192176Y-4993680I0J76200D01*
G01X-7199796Y-5016540D01*
G01X-7192176Y-5039400D01*
G02X-7146456Y-5024160I45720J-60960D01*
G01X-7146456Y-5008920D01*
G37*
G36*
G01X-3927548Y-5021659D02*
G03X-3973268Y-5036899I0J-76200D01*
G01X-3980888Y-5014039D01*
G01X-3973268Y-4991179D01*
G03X-3927548Y-5006419I45720J60960D01*
G01X-3927548Y-5021659D01*
G37*
G36*
G01X-1909820Y-952576D02*
G03X-2062220Y-1003376I0J-254000D01*
G01X-2087620Y-927176D01*
G01X-2062220Y-850976D01*
G03X-1909820Y-901776I152400J203200D01*
G01X-1909820Y-952576D01*
G37*
G36*
G01X-2113020Y-2359310D02*
G02X-2163820Y-2511710I-254000J0D01*
G01X-2087620Y-2537110D01*
G01X-2011420Y-2511710D01*
G02X-2062220Y-2359310I203200J152400D01*
G01X-2113020Y-2359310D01*
G37*
G36*
G01X-5442703Y-3638476D02*
G02X-5567302Y-3854020I-248735J0D01*
G01X-5417303Y-3904020D01*
G01X-5267303Y-3854020D01*
G02X-5391903Y-3638476I124135J215544D01*
G01X-5442703Y-3638476D01*
G37*
G36*
G01X-7052157Y-3638476D02*
G02X-7176756Y-3854020I-248735J0D01*
G01X-7026757Y-3904020D01*
G01X-6876757Y-3854020D01*
G02X-7001357Y-3638476I124135J215544D01*
G01X-7052157Y-3638476D01*
G37*
G36*
G01X-1504471Y-5418586D02*
G01X-1534471Y-5430560D01*
G03X-1546141Y-5354360I-254611J0D01*
G01X-1495136Y-5342386D01*
G03X-1504471Y-5418586I306327J-76200D01*
G37*
G04 TearDrop End*

G04 Pad Start*
G54D11*
G01X-7342598Y-912162D03*
G01X-7342598Y-803145D03*
G01X-7215598Y-912162D03*
G01X-7215598Y-803145D03*
G01X-1955604Y-720112D03*
G01X-1955604Y-829129D03*
G54D12*
G01X-1773008Y-4940458D03*
G01X-1882025Y-4940458D03*
G54D11*
G01X-1277424Y-720112D03*
G01X-1277424Y-829129D03*
G54D12*
G01X-9903818Y-2452174D03*
G01X-10012835Y-2452174D03*
G54D11*
G01X-9001500Y-3970225D03*
G01X-9001500Y-3861208D03*
G54D13*
G01X-4062179Y-2039048D03*
G01X-4062179Y-1666938D03*
G54D11*
G01X-2360393Y-3970225D03*
G01X-2360393Y-3861208D03*
G01X-3484620Y-3861208D03*
G01X-3484620Y-3970225D03*
G01X-3811662Y-1798484D03*
G01X-3811662Y-1907501D03*
G54D14*
G01X-4282896Y-5566600D03*
G01X-4082744Y-5566600D03*
G01X-3882846Y-5566600D03*
G54D16*
G01X-3682694Y-5566600D03*
G54D14*
G01X-7391798Y-5566600D03*
G01X-7191646Y-5566600D03*
G01X-6991748Y-5566600D03*
G54D16*
G01X-6791596Y-5566600D03*
G54D14*
G01X-5837347Y-5567772D03*
G01X-5637195Y-5567772D03*
G01X-5437297Y-5567772D03*
G54D16*
G01X-5237145Y-5567772D03*
G54D17*
G01X-1773008Y-5077500D03*
G01X-1922995Y-5077500D03*
G01X-1359667Y-5077500D03*
G01X-1509654Y-5077500D03*
G01X-1270894Y-5077500D03*
G01X-1120907Y-5077500D03*
G54D18*
G01X-4030876Y-4955256D03*
G01X-3980888Y-4955256D03*
G01X-3930876Y-4955256D03*
G01X-4030876Y-4878243D03*
G01X-3980888Y-4878243D03*
G01X-3930876Y-4878243D03*
G01X-7249783Y-4955256D03*
G01X-7199796Y-4955256D03*
G01X-7149783Y-4955256D03*
G01X-7249783Y-4878243D03*
G01X-7199796Y-4878243D03*
G01X-7149783Y-4878243D03*
G54D19*
G01X-9903818Y-4358172D03*
G01X-9903818Y-3886037D03*
G54D20*
G01X-9903819Y-3378036D03*
G01X-9903819Y-3313037D03*
G54D21*
G01X-2360393Y-5151174D03*
G01X-2360393Y-4811195D03*
G54D22*
G01X-8749590Y-3378031D03*
G01X-8814589Y-3378031D03*
G01X-8498588Y-3378028D03*
G01X-8433589Y-3378028D03*
G54D20*
G01X-9903819Y-3632036D03*
G01X-9903819Y-3567037D03*
G01X-4736967Y-1800703D03*
G01X-4736967Y-1735704D03*
G01X-4736967Y-1568371D03*
G01X-4736967Y-1503373D03*
G01X-4736967Y-1336040D03*
G01X-4736967Y-1271041D03*
G01X-4736965Y-1038703D03*
G01X-4736965Y-1103701D03*
G54D23*
G01X-2106393Y-4060217D03*
G01X-2106393Y-3771216D03*
G54D24*
G01X-10270000Y-380000D03*
G01X-380000Y-380000D03*
G01X-10272500Y-5650000D03*
G01X-380000Y-5650000D03*
G54D25*
G01X-4429107Y-1038703D03*
G54D26*
G01X-4429107Y-1292703D03*
G01X-4429107Y-1546703D03*
G01X-4429107Y-1800703D03*
G54D25*
G01X-10388958Y-3378037D03*
G54D26*
G01X-10388958Y-3632037D03*
G01X-10388958Y-3886037D03*
G01X-10388958Y-4140037D03*
G54D27*
G01X-2360393Y-4492903D03*
G01X-2106393Y-4492903D03*
G54D28*
G01X-1852393Y-4492903D03*
G54D29*
G01X-407210Y-2537110D03*
G01X-282592Y-2537110D03*
G54D30*
G01X-411424Y-2829210D03*
G01X-303778Y-2829210D03*
G01X-303778Y-3083210D03*
G01X-411424Y-3083210D03*
G54D31*
G01X-593719Y-2537110D03*
G01X-680283Y-2537110D03*
G01X-593719Y-2829210D03*
G01X-680283Y-2829210D03*
G54D32*
G01X-2087620Y-817902D03*
G01X-2087620Y-731339D03*
G01X-1010480Y-5069981D03*
G01X-1010480Y-4983418D03*
G01X-1627700Y-5069981D03*
G01X-1627700Y-4983418D03*
G01X-1414584Y-817902D03*
G01X-1414584Y-731339D03*
G54D31*
G01X-8687399Y-4535311D03*
G01X-8600836Y-4535311D03*
G54D32*
G01X-8237819Y-3958998D03*
G01X-8237819Y-3872435D03*
G54D31*
G01X-680283Y-3083210D03*
G01X-593719Y-3083210D03*
G54D32*
G01X-1377447Y-4856418D03*
G01X-1377447Y-4942981D03*
G01X-1253114Y-4856418D03*
G01X-1253114Y-4942981D03*
G54D33*
G01X-1681284Y-1174619D03*
G01X-1681284Y-374621D03*
G01X-1003104Y-1174619D03*
G01X-1003104Y-374621D03*
G54D34*
G01X-7942320Y-3478214D03*
G01X-7942320Y-4353219D03*
G54D35*
G01X-6990782Y-785162D03*
G01X-6990782Y-912162D03*
G01X-6990782Y-1039162D03*
G01X-6990782Y-1166162D03*
G01X-6990782Y-1293162D03*
G01X-6990782Y-1420162D03*
G01X-6990782Y-1547162D03*
G01X-6990782Y-1674162D03*
G01X-6990782Y-1801162D03*
G01X-6990782Y-1928162D03*
G01X-6990782Y-2055162D03*
G01X-6990782Y-2182162D03*
G01X-6990782Y-2309162D03*
G01X-6990782Y-2436162D03*
G54D36*
G01X-6814278Y-2564153D03*
G01X-6687278Y-2564153D03*
G01X-6560278Y-2564153D03*
G01X-6433278Y-2564153D03*
G01X-6306278Y-2564153D03*
G01X-6179278Y-2564153D03*
G01X-6052278Y-2564153D03*
G01X-5925278Y-2564153D03*
G01X-5798278Y-2564153D03*
G01X-5671278Y-2564153D03*
G01X-5544278Y-2564153D03*
G01X-5417278Y-2561156D03*
G54D35*
G01X-5240773Y-2436162D03*
G01X-5240773Y-2309162D03*
G01X-5240773Y-2182162D03*
G01X-5240773Y-2055162D03*
G01X-5240773Y-1928162D03*
G01X-5240773Y-1801162D03*
G01X-5240773Y-1674162D03*
G01X-5240773Y-1547162D03*
G01X-5240773Y-1420162D03*
G01X-5240773Y-1293162D03*
G01X-5240773Y-1166162D03*
G01X-5240773Y-1039162D03*
G01X-5240773Y-912162D03*
G01X-5240773Y-785162D03*
G54D37*
G01X-6125785Y-1697175D03*
G01X-6265790Y-1697175D03*
G01X-6405795Y-1697175D03*
G01X-6405795Y-1417165D03*
G01X-6265790Y-1417165D03*
G01X-6125785Y-1417165D03*
G01X-6125785Y-1557170D03*
G01X-6405795Y-1557170D03*
G01X-6265790Y-1557170D03*
G54D38*
G01X-8118648Y-879177D03*
G01X-8118648Y-1006177D03*
G01X-8118648Y-1133177D03*
G01X-8118648Y-1944174D03*
G01X-8118648Y-2071174D03*
G01X-8118648Y-2198174D03*
G01X-8118648Y-2325174D03*
G01X-8118648Y-2452174D03*
G01X-8118648Y-2579174D03*
G01X-9545671Y-2579174D03*
G01X-9545671Y-2452174D03*
G01X-9545671Y-2325174D03*
G01X-9545671Y-2198174D03*
G01X-9545671Y-2071174D03*
G01X-9545671Y-1944174D03*
G01X-9545671Y-1133177D03*
G01X-9545671Y-1006177D03*
G01X-9545671Y-879177D03*
G54D39*
G01X-3807849Y-3638476D03*
G01X-3934849Y-3638476D03*
G01X-4061849Y-3638476D03*
G01X-4188849Y-3638476D03*
G01X-3807849Y-4192958D03*
G01X-3934849Y-4192958D03*
G01X-4061849Y-4192958D03*
G01X-4188849Y-4192958D03*
G01X-9182598Y-3640850D03*
G01X-9309598Y-3640850D03*
G01X-9436598Y-3640850D03*
G01X-9563598Y-3640850D03*
G01X-9182598Y-4195332D03*
G01X-9309598Y-4195332D03*
G01X-9436598Y-4195332D03*
G01X-9563598Y-4195332D03*
G01X-7026757Y-3638476D03*
G01X-7153757Y-3638476D03*
G01X-7280757Y-3638476D03*
G01X-7407757Y-3638476D03*
G01X-7026757Y-4192958D03*
G01X-7153757Y-4192958D03*
G01X-7280757Y-4192958D03*
G01X-7407757Y-4192958D03*
G54D40*
G01X-9270586Y-4912504D03*
G01X-9168605Y-4912504D03*
G01X-9066599Y-4912504D03*
G01X-8964592Y-4912504D03*
G01X-8862611Y-4912504D03*
G01X-8760605Y-4912504D03*
G01X-8658599Y-4912504D03*
G01X-8556592Y-4912504D03*
G54D41*
G01X-8063604Y-5637496D03*
G01X-9763575Y-5637496D03*
G54D42*
G01X-8063604Y-5637496D03*
G01X-9763600Y-5637496D03*
G54D39*
G01X-8433590Y-3638476D03*
G01X-8560590Y-3638476D03*
G01X-8687590Y-3638476D03*
G01X-8814590Y-3638476D03*
G01X-8433590Y-4192958D03*
G01X-8560590Y-4192958D03*
G01X-8687590Y-4192958D03*
G01X-8814590Y-4192958D03*
G54D43*
G01X-2625601Y-1907501D03*
G01X-2752601Y-1907501D03*
G01X-2879601Y-1907501D03*
G01X-3006601Y-1907501D03*
G01X-3133601Y-1907501D03*
G01X-3260601Y-1907501D03*
G01X-3387601Y-1907501D03*
G01X-3514601Y-1907501D03*
G54D39*
G01X-5417303Y-3638476D03*
G01X-5544303Y-3638476D03*
G01X-5671303Y-3638476D03*
G01X-5798303Y-3638476D03*
G01X-5417303Y-4192958D03*
G01X-5544303Y-4192958D03*
G01X-5671303Y-4192958D03*
G01X-5798303Y-4192958D03*
G54D44*
G01X-2658850Y-4145714D03*
G01X-2658850Y-3915717D03*
G01X-2658850Y-3685720D03*
G54D45*
G01X-3225828Y-3915717D03*
G54D46*
G01X-2868392Y-5821100D03*
G01X-2360392Y-5821100D03*
G54D25*
G01X-4429107Y-676308D03*
G54D26*
G01X-4429107Y-422308D03*
G01X-4429107Y-168308D03*
G54D47*
G01X-1439486Y-5472486D03*
G01X-1389474Y-5472486D03*
G01X-1339487Y-5472486D03*
G01X-1289474Y-5472486D03*
G01X-1239487Y-5472486D03*
G01X-1189474Y-5472486D03*
G01X-1139512Y-5472486D03*
G01X-1089474Y-5472486D03*
G01X-1599481Y-5472486D03*
G01X-1569484Y-5472486D03*
G01X-1519471Y-5472486D03*
G01X-1489474Y-5472486D03*
G01X-1039487Y-5472486D03*
G01X-1009464Y-5472486D03*
G01X-959477Y-5472486D03*
G01X-929480Y-5472486D03*
G54D48*
G01X-831969Y-5967304D03*
G54D49*
G01X-831969Y-5549321D03*
G01X-1696992Y-5549321D03*
G54D48*
G01X-1696992Y-5967304D03*
G04 Pad End*

G04 Via Start*
G54D50*
G01X-7244328Y-666761D03*
G01X-7244328Y-552351D03*
G01X-7244328Y-437941D03*
G01X-7244328Y-323531D03*
G01X-7244328Y-209120D03*
G01X-7244328Y-94710D03*
G01X-6661353Y-785162D03*
G01X-6506930Y-785162D03*
G01X-6352507Y-785162D03*
G01X-6198084Y-785162D03*
G01X-6043662Y-785162D03*
G01X-5889238Y-785162D03*
G01X-5580392Y-785162D03*
G01X-5425970Y-785162D03*
G01X-5734816Y-785162D03*
G01X-6815776Y-785162D03*
G01X-2347959Y-554433D03*
G01X-2347959Y-96792D03*
G01X-2347959Y-325613D03*
G01X-2347959Y-440022D03*
G01X-2347959Y-668843D03*
G01X-2347959Y-211202D03*
G01X-2222596Y-325613D03*
G01X-2222596Y-440022D03*
G01X-2222596Y-96792D03*
G01X-2222596Y-211202D03*
G01X-3893115Y-554433D03*
G01X-3893115Y-96792D03*
G01X-3893115Y-325613D03*
G01X-3893115Y-440022D03*
G01X-3893115Y-668843D03*
G01X-3893115Y-211202D03*
G01X-3767752Y-668843D03*
G01X-3767752Y-554433D03*
G01X-3767752Y-325613D03*
G01X-3767752Y-440022D03*
G01X-3767752Y-96792D03*
G01X-3767752Y-211202D03*
G01X-3628481Y-669738D03*
G01X-3512069Y-669738D03*
G01X-3395658Y-669738D03*
G01X-3279247Y-669738D03*
G01X-3162836Y-669738D03*
G01X-2930014Y-669738D03*
G01X-3046425Y-669738D03*
G01X-2813603Y-674739D03*
G01X-2697192Y-674739D03*
G01X-2580781Y-674739D03*
G01X-2464370Y-674739D03*
G01X-2222596Y-554433D03*
G01X-2222596Y-668843D03*
G54D51*
G01X-8758599Y-4697845D03*
G54D50*
G01X-9979400Y-3567037D03*
G01X-9979400Y-3313037D03*
G01X-9903818Y-4507922D03*
G01X-9776818Y-4507922D03*
G01X-7117328Y-94710D03*
G01X-7117328Y-209120D03*
G01X-7117328Y-323531D03*
G01X-7117328Y-437941D03*
G01X-7117328Y-552351D03*
G01X-7117328Y-666761D03*
G01X-5117230Y-94710D03*
G01X-10030818Y-4507922D03*
G01X-5117230Y-209120D03*
G01X-5117230Y-323531D03*
G01X-5117230Y-437941D03*
G01X-5117230Y-552351D03*
G01X-5117230Y-666761D03*
G01X-9563598Y-4356140D03*
G01X-9001500Y-3764320D03*
G01X-8749590Y-3302450D03*
G01X-8498588Y-3302447D03*
G01X-7249783Y-4801231D03*
G01X-7091363Y-4955256D03*
G01X-8560590Y-3484920D03*
G01X-8687590Y-3792031D03*
G01X-7407757Y-3484920D03*
G01X-5798303Y-3484920D03*
G01X-5671303Y-4341336D03*
G01X-5544303Y-4341336D03*
G01X-5671303Y-3484920D03*
G01X-5544303Y-3484920D03*
G01X-4030876Y-4801231D03*
G01X-3872456Y-4955256D03*
G01X-4188849Y-3484920D03*
G01X-2360393Y-3754160D03*
G01X-2360393Y-3652560D03*
G01X-2461993Y-3652560D03*
G01X-2461993Y-3754160D03*
G01X-4030876Y-4534531D03*
G01X-4030876Y-4432931D03*
G01X-3484620Y-4064040D03*
G01X-3484620Y-4165640D03*
G01X-3484620Y-4267240D03*
G01X-3383020Y-4267240D03*
G01X-2360393Y-4064040D03*
G01X-2360393Y-4165640D03*
G01X-2360393Y-4267240D03*
G01X-2461993Y-4267240D03*
G01X-2563593Y-4267240D03*
G01X-2461993Y-4165640D03*
G01X-2665193Y-4267240D03*
G01X-2766793Y-4267240D03*
G01X-1354500Y-5285780D03*
G01X-1275760Y-5285780D03*
G01X-1254500Y-5659192D03*
G01X-1175760Y-5659192D03*
G01X-1397680Y-5222280D03*
G01X-1232580Y-5222280D03*
G01X-1297680Y-5722692D03*
G01X-1132580Y-5722692D03*
G01X-1552722Y-4983418D03*
G01X-1085459Y-4983418D03*
G01X-907460Y-5367060D03*
G01X-1016894Y-5298693D03*
G01X-1016894Y-5194553D03*
G01X-1773008Y-5158351D03*
G01X-1773008Y-5262491D03*
G01X-9903818Y-2533588D03*
G01X-10012835Y-2533588D03*
G01X-9703574Y-2579174D03*
G01X-9703574Y-1944174D03*
G01X-9703574Y-1133177D03*
G01X-9703574Y-1006177D03*
G01X-9703574Y-879177D03*
G01X-7960745Y-879177D03*
G01X-7960745Y-1133177D03*
G01X-8276551Y-1944174D03*
G01X-7960745Y-2579174D03*
G01X-7775325Y-1944174D03*
G01X-7112003Y-1039162D03*
G01X-4655560Y-1735704D03*
G01X-4655560Y-1503373D03*
G01X-4655560Y-1271041D03*
G01X-4655558Y-1103701D03*
G01X-5119553Y-1166162D03*
G01X-5119553Y-1293162D03*
G01X-5015630Y-666761D03*
G01X-4914030Y-666761D03*
G01X-5015630Y-552351D03*
G01X-4914030Y-552351D03*
G01X-5015630Y-437941D03*
G01X-4914030Y-437941D03*
G01X-5015630Y-323531D03*
G01X-4914030Y-323531D03*
G01X-5015630Y-209120D03*
G01X-4914030Y-209120D03*
G01X-5015630Y-94710D03*
G01X-4914030Y-94710D03*
G01X-5119553Y-1039162D03*
G01X-5119553Y-912162D03*
G01X-4011379Y-2158061D03*
G01X-4112979Y-2158061D03*
G01X-3811662Y-1666938D03*
G01X-3913262Y-1666938D03*
G01X-3811662Y-1565338D03*
G01X-3913262Y-1565338D03*
G01X-2625601Y-2105700D03*
G01X-2625601Y-2207300D03*
G01X-5119553Y-2436162D03*
G01X-2148580Y-731339D03*
G01X-1475544Y-731339D03*
G01X-1843780Y-731339D03*
G01X-1196080Y-829129D03*
G01X-1814400Y-1174619D03*
G01X-1814400Y-1276219D03*
G01X-1814400Y-1073019D03*
G01X-1136220Y-1174619D03*
G01X-1136220Y-1276219D03*
G01X-1136220Y-1073019D03*
G01X-1475544Y-1073019D03*
G01X-1475544Y-1174619D03*
G01X-231270Y-3083210D03*
G01X-5798278Y-2685373D03*
G01X-5417278Y-2682376D03*
G01X-1401820Y-4646324D03*
G01X-1211320Y-4650780D03*
G01X-1211320Y-4142780D03*
G01X-1526280Y-3505240D03*
G01X-1641227Y-3620187D03*
G01X-2382260Y-3200440D03*
G01X-2382260Y-3363000D03*
G01X-2890260Y-3200440D03*
G01X-2890260Y-3363000D03*
G01X-3398260Y-3200440D03*
G01X-3398260Y-3363000D03*
G01X-4520940Y-3103920D03*
G01X-4520940Y-2941360D03*
G01X-5028940Y-2941360D03*
G01X-5028940Y-3103920D03*
G01X-5704580Y-3103920D03*
G01X-5704580Y-2941360D03*
G54D51*
G01X-7165080Y-2466380D03*
G01X-7165080Y-2291120D03*
G54D50*
G01X-6380220Y-2941360D03*
G01X-6380220Y-3103920D03*
G54D51*
G01X-6995910Y-2785410D03*
G01X-7106870Y-2897970D03*
G01X-5544303Y-3317280D03*
G01X-5440420Y-3317280D03*
G54D50*
G01X-5925278Y-2685373D03*
G01X-6052278Y-2685373D03*
G01X-6179278Y-2685373D03*
G01X-6306278Y-2685373D03*
G54D51*
G01X-6380220Y-3396020D03*
G01X-6265638Y-3396020D03*
G54D50*
G01X-6052278Y-2786973D03*
G54D51*
G01X-7112003Y-1928162D03*
G54D50*
G01X-6560278Y-2685373D03*
G54D51*
G01X-7393680Y-2685373D03*
G54D50*
G01X-7393680Y-2786973D03*
G54D51*
G01X-5544303Y-3182917D03*
G54D50*
G01X-7393680Y-2888573D03*
G01X-6687278Y-2685373D03*
G01X-7393680Y-2990173D03*
G54D51*
G01X-7495280Y-2685373D03*
G01X-7495280Y-2583773D03*
G01X-7596880Y-2685373D03*
G01X-7596880Y-2786973D03*
G01X-7596880Y-3075980D03*
G01X-7698480Y-3075980D03*
G01X-7495280Y-3075980D03*
G54D50*
G01X-7495280Y-3177580D03*
G54D51*
G01X-4033260Y-2712760D03*
G01X-3807849Y-3833549D03*
G54D50*
G01X-3706249Y-3833549D03*
G54D51*
G01X-9903818Y-3736998D03*
G01X-7518140Y-3904020D03*
G54D50*
G01X-7416540Y-3904020D03*
G01X-8687590Y-3893631D03*
G54D51*
G01X-8237819Y-3743141D03*
G54D50*
G01X-7935345Y-1944174D03*
G54D51*
G01X-7199796Y-4472980D03*
G54D50*
G01X-7098196Y-4472980D03*
G54D51*
G01X-3823634Y-1032063D03*
G01X-3503426Y-1032063D03*
G01X-3183218Y-1032063D03*
G01X-2863011Y-1032063D03*
G01X-2542803Y-1032063D03*
G01X-2222596Y-1032063D03*
G54D50*
G01X-4018478Y-325613D03*
G01X-4018478Y-96792D03*
G01X-4018478Y-554433D03*
G01X-4018478Y-211202D03*
G01X-4018478Y-668843D03*
G01X-4018478Y-440022D03*
G01X-4143841Y-325613D03*
G01X-4143841Y-96792D03*
G01X-4143841Y-554433D03*
G01X-4143841Y-211202D03*
G01X-4143841Y-668843D03*
G01X-4143841Y-440022D03*
G54D51*
G01X-4143841Y-1032063D03*
G01X-4143841Y-1395283D03*
G01X-2222596Y-1395283D03*
G01X-3503426Y-1395283D03*
G01X-3183218Y-1395283D03*
G01X-2863011Y-1395283D03*
G01X-2542803Y-1395283D03*
G01X-3823634Y-1395283D03*
G01X-2222596Y-1758503D03*
G01X-2222596Y-2121723D03*
G54D50*
G01X-2948680Y-2440980D03*
G01X-4812430Y-666761D03*
G01X-4812430Y-552351D03*
G01X-4812430Y-437941D03*
G01X-4812430Y-323531D03*
G01X-4812430Y-209120D03*
G01X-4812430Y-94710D03*
G01X-4710830Y-552351D03*
G01X-4710830Y-437941D03*
G01X-4710830Y-323531D03*
G01X-4710830Y-209120D03*
G01X-4710830Y-94710D03*
G01X-7371328Y-94710D03*
G01X-7371328Y-437941D03*
G01X-7371328Y-323531D03*
G01X-7371328Y-666761D03*
G01X-7371328Y-552351D03*
G01X-7371328Y-209120D03*
G01X-7498328Y-94710D03*
G01X-7498328Y-437941D03*
G01X-7498328Y-323531D03*
G01X-7498328Y-666761D03*
G01X-7498328Y-552351D03*
G01X-7498328Y-209120D03*
G54D51*
G01X-10566140Y-94710D03*
G01X-10058140Y-94710D03*
G01X-9550140Y-94710D03*
G01X-9042140Y-94710D03*
G01X-8534140Y-94710D03*
G01X-8026140Y-94710D03*
G01X-10566140Y-626032D03*
G01X-10566140Y-1157354D03*
G01X-10566140Y-1688676D03*
G01X-10566140Y-2219998D03*
G01X-10566140Y-2751319D03*
G01X-10566140Y-3282641D03*
G01X-10566140Y-3813963D03*
G01X-10566140Y-4345285D03*
G01X-10566140Y-4876607D03*
G01X-10566140Y-5407928D03*
G01X-10566140Y-5939250D03*
G01X-10058140Y-5939250D03*
G01X-8026140Y-5939250D03*
G01X-7518140Y-5939250D03*
G01X-7010140Y-5939250D03*
G01X-6502140Y-5939250D03*
G01X-5994140Y-5939250D03*
G01X-5486140Y-5939250D03*
G01X-4978140Y-5939250D03*
G01X-4470140Y-5939250D03*
G01X-3962140Y-5939250D03*
G01X-3454140Y-5939250D03*
G01X-1930140Y-5939250D03*
G01X-1422140Y-5939250D03*
G01X-1010660Y-5939250D03*
G01X-91180Y-5939250D03*
G01X-91180Y-2751319D03*
G01X-91180Y-3282641D03*
G01X-91180Y-3813963D03*
G01X-91180Y-4345285D03*
G01X-91180Y-4876607D03*
G01X-91180Y-5407928D03*
G01X-91180Y-94710D03*
G01X-91180Y-626032D03*
G01X-91180Y-1157354D03*
G01X-91180Y-1688676D03*
G01X-91180Y-2219998D03*
G01X-599180Y-94710D03*
G01X-1107180Y-94710D03*
G01X-1615180Y-94710D03*
G54D50*
G01X-2097233Y-96792D03*
G01X-2097233Y-211202D03*
G01X-2097233Y-554433D03*
G01X-2097233Y-440022D03*
G01X-2097233Y-325613D03*
G54D51*
G01X-698596Y-1758503D03*
G01X-1206596Y-1758503D03*
G01X-1714596Y-1758503D03*
G01X-698596Y-2121723D03*
G01X-1206596Y-2121723D03*
G01X-1714596Y-2121723D03*
G01X-599180Y-626032D03*
G01X-599180Y-1157354D03*
G01X-1206596Y-2662743D03*
G01X-1714596Y-2662743D03*
G01X-2222596Y-2662743D03*
G01X-2730596Y-2662743D03*
G01X-1206596Y-2982783D03*
G01X-1714596Y-2982783D03*
G01X-2222596Y-2982783D03*
G01X-2730596Y-2982783D03*
G01X-3238596Y-2982783D03*
G01X-3746596Y-2982783D03*
G54D50*
G01X-4520940Y-2778800D03*
G01X-4358380Y-2778800D03*
G54D51*
G01X-1206596Y-3514105D03*
G01X-675274Y-3514105D03*
G01X-675274Y-4045427D03*
G01X-675274Y-4576749D03*
G01X-675274Y-5108070D03*
G54D50*
G01X-1843780Y-3700820D03*
G01X-1851400Y-4196120D03*
G01X-1623740Y-4843820D03*
G01X-1526280Y-4211360D03*
G01X-2004740Y-5077500D03*
G01X-2009820Y-4937800D03*
G01X-1932680Y-5534700D03*
G01X-2118100Y-5080040D03*
G01X-2133340Y-4813340D03*
G01X-3446520Y-5461040D03*
G01X-3438900Y-5052100D03*
G01X-2986780Y-5059720D03*
G01X-2986780Y-5476280D03*
G01X-2648960Y-5064800D03*
G01X-2647999Y-5478992D03*
G01X-2643880Y-4605060D03*
G01X-3489700Y-4498380D03*
G01X-3210300Y-4495840D03*
G01X-4985760Y-5455960D03*
G01X-4480300Y-5458500D03*
G01X-4993380Y-5049560D03*
G01X-4477760Y-5054640D03*
G01X-5003540Y-4564420D03*
G01X-4465060Y-4559340D03*
G01X-4995920Y-4094520D03*
G01X-4586980Y-4099600D03*
G01X-4490460Y-3490000D03*
G01X-5016240Y-3484920D03*
G54D51*
G01X-8026140Y-457930D03*
G01X-8534140Y-457930D03*
G01X-9042140Y-457930D03*
G01X-9550140Y-457930D03*
G01X-10058140Y-626032D03*
G01X-10058140Y-1157354D03*
G01X-10058140Y-1688676D03*
G01X-10058140Y-2219998D03*
G01X-10053060Y-5402620D03*
G01X-10065760Y-4871760D03*
G01X-8414760Y-4688880D03*
G01X-7947400Y-4688880D03*
G01X-7523220Y-4688880D03*
G01X-7955020Y-5138460D03*
G01X-7515600Y-5174020D03*
G01X-7510520Y-4213900D03*
G01X-7589260Y-3469680D03*
G01X-8249660Y-3368080D03*
G01X-6888220Y-3284260D03*
G01X-6504680Y-3266480D03*
G01X-6093200Y-3299500D03*
G01X-6507220Y-5430560D03*
G01X-6006840Y-5395000D03*
G01X-6527540Y-5006380D03*
G01X-6024620Y-5014000D03*
G01X-6837420Y-5021620D03*
G01X-6857740Y-4566960D03*
G01X-6542780Y-4569500D03*
G01X-6024620Y-4599980D03*
G01X-6860280Y-4056420D03*
G01X-6560560Y-4074200D03*
G01X-6027160Y-4102140D03*
G01X-6839960Y-3594140D03*
G01X-6563100Y-3591600D03*
G01X-6022080Y-3619540D03*
G01X-10035280Y-2743240D03*
G01X-9651740Y-2852460D03*
G01X-9232640Y-2860080D03*
G01X-9240260Y-2461300D03*
G01X-8849100Y-2461300D03*
G01X-8457940Y-2461300D03*
G01X-9240260Y-2070140D03*
G01X-9240260Y-1678980D03*
G01X-9240260Y-1287820D03*
G01X-9240260Y-896660D03*
G01X-8849100Y-2070140D03*
G01X-8457940Y-2070140D03*
G01X-8849100Y-1678980D03*
G01X-8457940Y-1678980D03*
G01X-8849100Y-1287820D03*
G01X-8457940Y-1287820D03*
G01X-8849100Y-896660D03*
G01X-8457940Y-896660D03*
G01X-6715500Y-2339380D03*
G01X-6324340Y-2339380D03*
G01X-5933180Y-2339380D03*
G01X-6715500Y-1948220D03*
G01X-6715500Y-1557060D03*
G01X-6715500Y-1165900D03*
G01X-6324340Y-1165900D03*
G01X-5933180Y-1165900D03*
G01X-5542020Y-1165900D03*
G01X-5542020Y-1557060D03*
G01X-5542020Y-1948220D03*
G01X-5542020Y-2339380D03*
G01X-6324340Y-1948220D03*
G01X-5933180Y-1948220D03*
G01X-5933180Y-1557060D03*
G01X-6337040Y-1488480D03*
G01X-6193120Y-1488480D03*
G01X-6334500Y-1630720D03*
G01X-6194720Y-1630720D03*
G01X-6484360Y-1488480D03*
G01X-6048467Y-1488480D03*
G01X-6484360Y-1628180D03*
G01X-6044940Y-1630720D03*
G01X-6044940Y-1346240D03*
G01X-6194720Y-1346240D03*
G01X-6334500Y-1346240D03*
G01X-6484360Y-1348780D03*
G01X-6041413Y-1772960D03*
G01X-6191193Y-1772960D03*
G01X-6330973Y-1772960D03*
G01X-6480833Y-1770420D03*
G54D50*
G01X-8846560Y-3142020D03*
G01X-8506200Y-3200440D03*
G01X-7949940Y-3266480D03*
G01X-4807960Y-967780D03*
G01X-4739380Y-1894880D03*
G01X-4734300Y-2105700D03*
G01X-7708640Y-1082080D03*
G01X-9740640Y-3449360D03*
G01X-9659360Y-3591600D03*
G54D51*
G01X-2194300Y-2435900D03*
G01X-1983480Y-2430820D03*
G01X-365500Y-2423200D03*
G01X-779520Y-2636560D03*
G01X-5813800Y-2816900D03*
G04 Via End*

G04 Track Start*
G54D52*
G01X-7191646Y-5229585D02*
G01X-7199796Y-5221435D01*
G01X-7191646Y-5566600D02*
G01X-7191646Y-5229585D01*
G01X-6991748Y-5611680D02*
G01X-7052844Y-5672777D01*
G01X-6991748Y-5566600D02*
G01X-6991748Y-5611680D01*
G01X-6982200Y-5212689D02*
G01X-6791596Y-5403293D01*
G01X-6791596Y-5566600D01*
G01X-6982200Y-5212689D02*
G01X-6982200Y-4406940D01*
G01X-7292767Y-5374762D02*
G01X-7249783Y-5331778D01*
G01X-7249783Y-4955256D01*
G01X-7407756Y-5550641D02*
G01X-7391798Y-5566600D01*
G01X-7407756Y-4192958D02*
G01X-7407756Y-5550641D01*
G54D53*
G01X-8758599Y-4912504D02*
G01X-8758599Y-4697845D01*
G54D52*
G01X-8862611Y-4912504D02*
G01X-8862611Y-4578446D01*
G01X-8819477Y-4535311D01*
G01X-8687399Y-4535311D02*
G01X-8819477Y-4535311D01*
G01X-8964592Y-4912504D02*
G01X-8964592Y-4573232D01*
G01X-8889332Y-4497972D01*
G01X-9168605Y-4912504D02*
G01X-9168605Y-4554564D01*
G01X-9309598Y-3640850D02*
G01X-9309598Y-3373918D01*
G01X-9168605Y-4554564D02*
G01X-9309598Y-4413572D01*
G01X-9309598Y-4195332D01*
G01X-9270586Y-4912504D02*
G01X-9270586Y-4602591D01*
G01X-9436598Y-3412018D02*
G01X-9436598Y-3640850D01*
G01X-8687399Y-4535311D02*
G01X-8687399Y-4193148D01*
G01X-8687590Y-4192958D01*
G01X-8433590Y-4192958D02*
G01X-8433590Y-4021910D01*
G01X-9563598Y-3640850D02*
G01X-9563598Y-3465358D01*
G01X-8370678Y-3958998D02*
G01X-8237819Y-3958998D01*
G01X-8433590Y-4021910D02*
G01X-8370678Y-3958998D01*
G01X-9270586Y-4602591D02*
G01X-9436598Y-4436579D01*
G01X-9436598Y-4195332D01*
G01X-9903819Y-3632037D02*
G01X-10388958Y-3632037D01*
G01X-7942320Y-3478214D02*
G01X-8065155Y-3478214D01*
G01X-9803937Y-3632037D02*
G01X-9903819Y-3632037D01*
G01X-5544303Y-5474880D02*
G01X-5637195Y-5567772D01*
G01X-9903819Y-3378036D02*
G01X-9626136Y-3378036D01*
G01X-10388957Y-3378036D02*
G01X-9903819Y-3378036D01*
G01X-5544303Y-4192958D02*
G01X-5544303Y-5474880D01*
G54D54*
G01X-9903819Y-3567037D02*
G01X-9979400Y-3567037D01*
G01X-9903819Y-3313037D02*
G01X-9979400Y-3313037D01*
G54D53*
G01X-9903818Y-4358172D02*
G01X-9903818Y-4507922D01*
G54D52*
G01X-5736255Y-5608804D02*
G01X-5735280Y-5609778D01*
G01X-5735280Y-5622774D01*
G54D53*
G01X-9563598Y-4195332D02*
G01X-9563598Y-4356140D01*
G54D52*
G01X-5736255Y-5483742D02*
G01X-5736255Y-5608804D01*
G01X-5735280Y-5622774D02*
G01X-5689027Y-5669027D01*
G01X-8065155Y-3478214D02*
G01X-8155680Y-3568740D01*
G54D53*
G01X-9001500Y-3861208D02*
G01X-9001500Y-3764320D01*
G54D52*
G01X-8433590Y-3638476D02*
G01X-8433589Y-3378028D01*
G01X-8814590Y-3638476D02*
G01X-8814590Y-3378031D01*
G01X-5671303Y-5418790D02*
G01X-5736255Y-5483742D01*
G01X-5689027Y-5669027D02*
G01X-5538552Y-5669027D01*
G01X-5671303Y-4341336D02*
G01X-5671303Y-5418790D01*
G01X-5538552Y-5669027D02*
G01X-5437297Y-5567772D01*
G01X-5798303Y-5528728D02*
G01X-5837347Y-5567772D01*
G01X-5798303Y-4192958D02*
G01X-5798303Y-5528728D01*
G01X-8560590Y-4066052D02*
G01X-8560590Y-4192958D01*
G01X-8582923Y-4043720D02*
G01X-8560590Y-4066052D01*
G01X-8846560Y-4043720D02*
G01X-8582923Y-4043720D01*
G01X-9182598Y-3640850D02*
G01X-9182598Y-3320578D01*
G01X-5417303Y-5387614D02*
G01X-5417303Y-4192958D01*
G01X-5237145Y-5567772D02*
G01X-5417303Y-5387614D01*
G01X-8600836Y-4535311D02*
G01X-8600836Y-4473636D01*
G01X-8567160Y-4439960D01*
G01X-8531600Y-4394240D02*
G01X-8560590Y-4365250D01*
G01X-8560590Y-4192958D01*
G01X-8889332Y-4086492D02*
G01X-8846560Y-4043720D01*
G01X-1389474Y-5342246D02*
G01X-1389474Y-5472486D01*
G01X-1511980Y-5219740D02*
G01X-1389474Y-5342246D01*
G54D55*
G01X-1489474Y-5472486D02*
G01X-1489474Y-5330859D01*
G01X-1510074Y-5310259D01*
G01X-1638669Y-5310259D02*
G01X-1644670Y-5316260D01*
G01X-1519471Y-5319656D02*
G01X-1519471Y-5472486D01*
G54D56*
G01X-1720260Y-5316260D02*
G01X-1644670Y-5316260D01*
G01X-1522867Y-5316260D01*
G54D53*
G01X-9903818Y-3886037D02*
G01X-10388958Y-3886037D01*
G01X-9182598Y-4195332D02*
G01X-9182598Y-3992162D01*
G01X-9288723Y-3886037D02*
G01X-9903818Y-3886037D01*
G01X-9182598Y-3992162D02*
G01X-9288723Y-3886037D01*
G54D52*
G01X-5018518Y-1928162D02*
G01X-5240773Y-1928162D01*
G01X-8814589Y-3378031D02*
G01X-8814589Y-3219269D01*
G01X-8433589Y-3378028D02*
G01X-8433589Y-3231969D01*
G01X-4642860Y-2303820D02*
G01X-5018518Y-1928162D01*
G54D54*
G01X-8749590Y-3378031D02*
G01X-8749590Y-3302450D01*
G01X-8498588Y-3378028D02*
G01X-8498588Y-3302447D01*
G54D52*
G01X-8118648Y-2198174D02*
G01X-7841754Y-2198174D01*
G01X-8118648Y-2325174D02*
G01X-7841754Y-2325174D01*
G54D54*
G01X-1401820Y-3859595D02*
G01X-1641227Y-3620187D01*
G01X-1401820Y-4650780D02*
G01X-1401820Y-3859595D01*
G54D52*
G01X-7836674Y-2452174D02*
G01X-8118648Y-2452174D01*
G54D57*
G01X-1333060Y-4812032D02*
G01X-1333060Y-3843240D01*
G01X-1884420Y-3291880D01*
G01X-1297500Y-3828510D02*
G01X-1297500Y-4357260D01*
G01X-1869691Y-3256320D02*
G01X-1297500Y-3828510D01*
G54D54*
G01X-1211320Y-4142780D02*
G01X-1211320Y-3820200D01*
G01X-1526280Y-3505240D01*
G54D56*
G01X-1773008Y-4572289D02*
G01X-1852393Y-4492903D01*
G54D52*
G01X-8889332Y-4497972D02*
G01X-8889332Y-4086492D01*
G54D53*
G01X-9182598Y-3992162D02*
G01X-9160661Y-3970225D01*
G01X-9001500Y-3970225D01*
G54D56*
G01X-1773008Y-4940458D02*
G01X-1773008Y-4572289D01*
G54D52*
G01X-7432043Y-1166162D02*
G01X-6990782Y-1166162D01*
G01X-7325100Y-4551720D02*
G01X-7280757Y-4507376D01*
G01X-7052844Y-5672777D02*
G01X-7243123Y-5672777D01*
G01X-7249783Y-4955256D02*
G01X-7297484Y-4955256D01*
G01X-7325100Y-4927640D01*
G01X-7325100Y-4551720D01*
G01X-7292767Y-5525538D02*
G01X-7292767Y-5374762D01*
G01X-7243123Y-5672777D02*
G01X-7292738Y-5623162D01*
G01X-7292738Y-5525568D01*
G01X-7199796Y-5221435D02*
G01X-7199796Y-5016540D01*
G01X-7199796Y-4955256D02*
G01X-7199796Y-5016540D01*
G01X-7053320Y-5016540D02*
G01X-7027920Y-4991140D01*
G01X-7199796Y-5016540D02*
G01X-7053320Y-5016540D01*
G54D58*
G01X-7149783Y-4955256D02*
G01X-7091363Y-4955256D01*
G54D52*
G01X-8155680Y-3568740D02*
G01X-8155680Y-4318040D01*
G01X-8231880Y-4394240D01*
G01X-8531600Y-4394240D01*
G01X-8567160Y-4439960D02*
G01X-8211560Y-4439960D01*
G01X-8124819Y-4353219D01*
G01X-7942320Y-4353219D01*
G01X-7280757Y-4507376D02*
G01X-7280757Y-4192958D01*
G01X-7280757Y-3486296D02*
G01X-7280757Y-3638476D01*
G01X-7153757Y-3481216D02*
G01X-7153757Y-3638476D01*
G54D53*
G01X-8560590Y-3638476D02*
G01X-8560590Y-3484920D01*
G01X-8687590Y-3792031D02*
G01X-8687590Y-3638476D01*
G01X-7407757Y-3638476D02*
G01X-7407757Y-3484920D01*
G01X-5798303Y-3638476D02*
G01X-5798303Y-3484920D01*
G54D52*
G01X-5671303Y-4341336D02*
G01X-5671303Y-4192958D01*
G01X-5671303Y-3638476D02*
G01X-5671303Y-3484920D01*
G01X-5544303Y-3638476D02*
G01X-5544303Y-3484920D01*
G01X-4030876Y-4955256D02*
G01X-4099624Y-4955256D01*
G01X-4127240Y-4927640D01*
G54D58*
G01X-7249783Y-4878243D02*
G01X-7249783Y-4801231D01*
G01X-4030876Y-4878243D02*
G01X-4030876Y-4801231D01*
G01X-3930876Y-4955256D02*
G01X-3872456Y-4955256D01*
G54D52*
G01X-4082744Y-5566600D02*
G01X-4082744Y-5325103D01*
G01X-3980888Y-5223248D01*
G01X-4183120Y-5346740D02*
G01X-4030876Y-5194495D01*
G01X-4030876Y-4955256D01*
G01X-4282896Y-5566600D02*
G01X-4282896Y-5344915D01*
G01X-4188849Y-5250869D01*
G01X-4188849Y-4192958D01*
G01X-3980888Y-5014039D02*
G01X-3845339Y-5014039D01*
G01X-3980888Y-5223248D02*
G01X-3980888Y-5014039D01*
G01X-3980888Y-4955256D01*
G01X-3845339Y-5014039D02*
G01X-3819900Y-4988600D01*
G01X-3882846Y-5566600D02*
G01X-3882846Y-5684005D01*
G01X-3906260Y-5707420D01*
G01X-4139940Y-5707420D01*
G01X-4183120Y-5664240D01*
G01X-4183120Y-5346740D01*
G01X-4061849Y-3638476D02*
G01X-4061849Y-3397911D01*
G01X-3934849Y-3638476D02*
G01X-3934849Y-3458871D01*
G54D53*
G01X-4188849Y-3638476D02*
G01X-4188849Y-3484920D01*
G01X-2360393Y-3861208D02*
G01X-2360393Y-3754160D01*
G01X-3484620Y-3970225D02*
G01X-3484620Y-4064040D01*
G01X-2360393Y-3970225D02*
G01X-2360393Y-4064040D01*
G01X-1627700Y-4983418D02*
G01X-1537482Y-4983418D01*
G01X-1509654Y-5011246D02*
G01X-1509654Y-5077500D01*
G01X-1537482Y-4983418D02*
G01X-1509654Y-5011246D01*
G01X-1085459Y-4983418D02*
G01X-1010480Y-4983418D01*
G01X-1085459Y-4983418D02*
G01X-1120907Y-5018866D01*
G01X-1120907Y-5077500D01*
G54D58*
G01X-929480Y-5472486D02*
G01X-929480Y-5389079D01*
G01X-907460Y-5367060D01*
G54D52*
G01X-1627700Y-5069981D02*
G01X-1627700Y-5175140D01*
G01X-1583100Y-5219740D01*
G01X-1511980Y-5219740D01*
G54D56*
G01X-1773008Y-5077500D02*
G01X-1773008Y-4940458D01*
G54D59*
G01X-1089474Y-5472486D02*
G01X-1089474Y-5148975D01*
G01X-1010480Y-5069981D01*
G54D58*
G01X-1006620Y-5469642D02*
G01X-1006620Y-5364825D01*
G01X-976040Y-5334245D01*
G01X-1042015Y-5469958D02*
G01X-1042015Y-5323815D01*
G01X-1016894Y-5298693D01*
G01X-976040Y-5334245D02*
G01X-976040Y-5235407D01*
G01X-1016894Y-5194553D01*
G54D56*
G01X-1773008Y-5077500D02*
G01X-1773008Y-5158351D01*
G01X-1773008Y-5263512D01*
G01X-1720260Y-5316260D01*
G54D53*
G01X-2658850Y-4145714D02*
G01X-2658850Y-4260896D01*
G01X-2665193Y-4267240D01*
G01X-9903818Y-2452174D02*
G01X-9903818Y-2533588D01*
G01X-10012835Y-2452174D02*
G01X-10012835Y-2533588D01*
G01X-9545671Y-2579174D02*
G01X-9703574Y-2579174D01*
G01X-9545671Y-1944174D02*
G01X-9703574Y-1944174D01*
G01X-9545671Y-1133177D02*
G01X-9703574Y-1133177D01*
G01X-9545671Y-1006177D02*
G01X-9703574Y-1006177D01*
G01X-9545671Y-879177D02*
G01X-9703574Y-879177D01*
G01X-8118648Y-879177D02*
G01X-7960745Y-879177D01*
G01X-8118648Y-1133177D02*
G01X-7960745Y-1133177D01*
G01X-8118648Y-1944174D02*
G01X-8276551Y-1944174D01*
G01X-8118648Y-2579174D02*
G01X-7960745Y-2579174D01*
G01X-7342598Y-912162D02*
G01X-7215598Y-912162D01*
G01X-6990782Y-912162D01*
G54D59*
G01X-6990782Y-1039162D02*
G01X-7112003Y-1039162D01*
G01X-6990782Y-1928162D02*
G01X-7112003Y-1928162D01*
G01X-4429566Y-1801162D02*
G01X-4429107Y-1800703D01*
G01X-5240773Y-1801162D02*
G01X-4429566Y-1801162D01*
G01X-5240773Y-1674162D02*
G01X-4859023Y-1674162D01*
G01X-4753232Y-1568371D01*
G01X-4736967Y-1568371D01*
G01X-4605912Y-1568371D01*
G01X-4584243Y-1546703D02*
G01X-4429107Y-1546703D01*
G01X-4605912Y-1568371D02*
G01X-4584243Y-1546703D01*
G01X-5240773Y-1547162D02*
G01X-4960623Y-1547162D01*
G01X-4749500Y-1336040D01*
G01X-4736967Y-1336040D01*
G01X-4629078Y-1336040D02*
G01X-4585740Y-1292703D01*
G01X-4429107Y-1292703D01*
G01X-4736967Y-1336040D02*
G01X-4629078Y-1336040D01*
G01X-5240773Y-1420162D02*
G01X-5001263Y-1420162D01*
G01X-4805223Y-1038703D02*
G01X-4736965Y-1038703D01*
G01X-4429107Y-1038703D01*
G54D54*
G01X-4736967Y-1735704D02*
G01X-4655560Y-1735704D01*
G01X-4736967Y-1503373D02*
G01X-4655560Y-1503373D01*
G01X-4736967Y-1271041D02*
G01X-4655560Y-1271041D01*
G01X-4736965Y-1103701D02*
G01X-4655558Y-1103701D01*
G54D59*
G01X-5001263Y-1420162D02*
G01X-4840980Y-1259880D01*
G01X-4840980Y-1074460D01*
G01X-4805223Y-1038703D01*
G01X-5240773Y-1166162D02*
G01X-5119553Y-1166162D01*
G01X-5240773Y-1293162D02*
G01X-5119553Y-1293162D01*
G01X-5006343Y-1293162D02*
G01X-5119553Y-1293162D01*
G01X-4884160Y-1170980D02*
G01X-5006343Y-1293162D01*
G01X-4927340Y-1092240D02*
G01X-5001263Y-1166162D01*
G01X-5119553Y-1166162D01*
G01X-5240773Y-1039162D02*
G01X-5119553Y-1039162D01*
G01X-5240773Y-912162D02*
G01X-5119553Y-912162D01*
G54D56*
G01X-3811662Y-1907501D02*
G01X-3514601Y-1907501D01*
G01X-3811662Y-1907501D02*
G01X-3893481Y-1907501D01*
G01X-4025028Y-2039048D01*
G01X-4062179Y-2039048D01*
G54D53*
G01X-4062179Y-2039048D02*
G01X-4062179Y-2158061D01*
G01X-3811662Y-1798484D02*
G01X-3811662Y-1666938D01*
G01X-4062179Y-1666938D02*
G01X-3913262Y-1666938D01*
G01X-2625601Y-1907501D02*
G01X-2625601Y-2105700D01*
G54D59*
G01X-5119553Y-2436162D02*
G01X-5240773Y-2436162D01*
G54D53*
G01X-5240773Y-785162D02*
G01X-5425970Y-785162D01*
G01X-6990782Y-785162D02*
G01X-6815776Y-785162D01*
G54D59*
G01X-4429107Y-676308D02*
G01X-4630788Y-676308D01*
G01X-4884160Y-929680D01*
G01X-4884160Y-1170980D01*
G01X-4429107Y-422308D02*
G01X-4927340Y-920541D01*
G01X-4927340Y-1092240D01*
G01X-1681284Y-374621D02*
G01X-1883081Y-374621D01*
G01X-1955604Y-447144D02*
G01X-1955604Y-720112D01*
G01X-1883081Y-374621D02*
G01X-1955604Y-447144D01*
G01X-1955604Y-720112D02*
G01X-1966831Y-731339D01*
G01X-2087620Y-731339D01*
G01X-2148580Y-731339D01*
G01X-1414584Y-731339D02*
G01X-1288651Y-731339D01*
G01X-1277424Y-720112D01*
G01X-1277424Y-482704D01*
G01X-1169341Y-374621D02*
G01X-1003104Y-374621D01*
G01X-1277424Y-482704D02*
G01X-1169341Y-374621D01*
G01X-1414584Y-731339D02*
G01X-1475544Y-731339D01*
G54D53*
G01X-2087620Y-817902D02*
G01X-2087620Y-927176D01*
G01X-1414584Y-817902D02*
G01X-1414584Y-889104D01*
G01X-1452656Y-927176D01*
G01X-2087620Y-927176D01*
G01X-1955604Y-829129D02*
G01X-1865149Y-829129D01*
G01X-1843780Y-807760D01*
G01X-1843780Y-731339D01*
G01X-1277424Y-829129D02*
G01X-1196080Y-829129D01*
G01X-1681284Y-1174619D02*
G01X-1814400Y-1174619D01*
G01X-1003104Y-1174619D02*
G01X-1136220Y-1174619D01*
G54D59*
G01X-282592Y-1871108D02*
G01X-282592Y-2537110D01*
G01X-213100Y-2738532D02*
G01X-303778Y-2829210D01*
G01X-213100Y-1877100D02*
G01X-213100Y-2738532D01*
G01X-1475544Y-1073019D02*
G01X-1154064Y-1394500D01*
G01X-695700Y-1394500D01*
G01X-213100Y-1877100D01*
G01X-1475544Y-1174619D02*
G01X-1215024Y-1435140D01*
G01X-718560Y-1435140D01*
G01X-282592Y-1871108D01*
G54D53*
G01X-593719Y-2537110D02*
G01X-407210Y-2537110D01*
G01X-593719Y-2829210D02*
G01X-411424Y-2829210D01*
G01X-593719Y-3083210D02*
G01X-411424Y-3083210D01*
G01X-303778Y-3083210D02*
G01X-231270Y-3083210D01*
G01X-680283Y-2537110D02*
G01X-680283Y-2829210D01*
G01X-680283Y-3083210D01*
G54D59*
G01X-5798278Y-2564153D02*
G01X-5798278Y-2685373D01*
G01X-5417278Y-2561156D02*
G01X-5417278Y-2682376D01*
G54D52*
G01X-3387601Y-1907501D02*
G01X-3387601Y-2176321D01*
G01X-3515100Y-2303820D01*
G01X-4642860Y-2303820D01*
G01X-3133601Y-2156001D02*
G01X-3133601Y-1907501D01*
G01X-5544278Y-2564153D02*
G01X-5544278Y-2697802D01*
G01X-5481060Y-2761020D01*
G01X-5671278Y-2718122D02*
G01X-5569960Y-2819440D01*
G01X-5671278Y-2564153D02*
G01X-5671278Y-2718122D01*
G01X-4127240Y-4927640D02*
G01X-4127240Y-4412020D01*
G01X-4061849Y-4346629D01*
G01X-4061849Y-4192958D01*
G01X-3819900Y-4988600D02*
G01X-3819900Y-4490760D01*
G01X-3934849Y-4375811D01*
G01X-3934849Y-4192958D01*
G01X-3682694Y-5566600D02*
G01X-3682694Y-4533986D01*
G01X-3807849Y-4408831D01*
G01X-3807849Y-4192958D01*
G01X-4030876Y-4432931D02*
G01X-3930876Y-4532930D01*
G01X-3930876Y-4878243D01*
G01X-3980888Y-4584518D02*
G01X-4030876Y-4534531D01*
G01X-3980888Y-4878243D02*
G01X-3980888Y-4584518D01*
G01X-5240773Y-2309162D02*
G01X-4909298Y-2309162D01*
G01X-5240773Y-2182162D02*
G01X-4942318Y-2182162D01*
G01X-4982958Y-2055162D02*
G01X-5240773Y-2055162D01*
G01X-4668260Y-2369860D02*
G01X-4982958Y-2055162D01*
G01X-4942318Y-2182162D02*
G01X-4691120Y-2433360D01*
G01X-3410960Y-2433360D01*
G01X-3133601Y-2156001D01*
G01X-4909298Y-2309162D02*
G01X-4719060Y-2499400D01*
G54D54*
G01X-5028940Y-3103920D02*
G01X-4520940Y-3103920D01*
G01X-4063740Y-3103920D01*
G01X-3804660Y-3363000D02*
G01X-3398260Y-3363000D01*
G01X-2890260Y-3363000D01*
G01X-2382260Y-3363000D01*
G01X-1898415Y-3363000D01*
G01X-1641227Y-3620187D01*
G54D57*
G01X-1289474Y-5384626D02*
G01X-1289474Y-5472486D01*
G01X-1296700Y-5377400D02*
G01X-1289474Y-5384626D01*
G01X-1339487Y-5472486D02*
G01X-1339487Y-5384626D01*
G01X-1332260Y-5377400D01*
G01X-1332260Y-5308020D02*
G01X-1354500Y-5285780D01*
G01X-1332260Y-5377400D02*
G01X-1332260Y-5308020D01*
G01X-1275760Y-5285780D02*
G01X-1296700Y-5306720D01*
G01X-1296700Y-5377400D01*
G01X-1354500Y-5285780D02*
G01X-1332910Y-5264190D01*
G01X-1275760Y-5285780D02*
G01X-1297350Y-5264190D01*
G01X-1332910Y-5104256D02*
G01X-1359667Y-5077500D01*
G01X-1332910Y-5264190D02*
G01X-1332910Y-5104256D01*
G01X-1297350Y-5103956D02*
G01X-1270894Y-5077500D01*
G01X-1297350Y-5264190D02*
G01X-1297350Y-5103956D01*
G01X-1359667Y-5077500D02*
G01X-1333060Y-5050893D01*
G01X-1270894Y-5077500D02*
G01X-1297500Y-5050893D01*
G01X-1333060Y-4987368D02*
G01X-1377447Y-4942981D01*
G01X-1333060Y-5050893D02*
G01X-1333060Y-4987368D01*
G01X-1297500Y-4987368D02*
G01X-1253114Y-4942981D01*
G01X-1297500Y-5050893D02*
G01X-1297500Y-4987368D01*
G01X-1377447Y-4856418D02*
G01X-1333060Y-4812032D01*
G01X-1297500Y-4812032D02*
G01X-1253114Y-4856418D01*
G01X-1884420Y-3291880D02*
G01X-3791960Y-3291880D01*
G01X-3777231Y-3256320D02*
G01X-1869691Y-3256320D01*
G01X-4031231Y-3002320D02*
G01X-3777231Y-3256320D01*
G01X-3791960Y-3291880D02*
G01X-4045960Y-3037880D01*
G54D54*
G01X-1526280Y-3505240D02*
G01X-1831080Y-3200440D01*
G01X-2382260Y-3200440D01*
G01X-2890260Y-3200440D01*
G01X-3398260Y-3200440D01*
G01X-3737326Y-3200440D01*
G01X-3996406Y-2941360D02*
G01X-4520940Y-2941360D01*
G01X-5028940Y-2941360D01*
G54D57*
G01X-7033263Y-2309162D02*
G01X-6990782Y-2309162D01*
G01X-7078983Y-2354882D02*
G01X-7033263Y-2309162D01*
G01X-7216143Y-2354882D02*
G01X-7078983Y-2354882D01*
G01X-6990782Y-2436162D02*
G01X-7026946Y-2436162D01*
G01X-7072666Y-2390442D01*
G01X-7201413Y-2390442D01*
G01X-7264140Y-2402880D02*
G01X-7216143Y-2354882D01*
G01X-7264140Y-2651289D02*
G01X-7264140Y-2402880D01*
G01X-7201413Y-2390442D02*
G01X-7228580Y-2417609D01*
G01X-7228580Y-2636560D01*
G01X-6877550Y-3037880D02*
G01X-7264140Y-2651289D01*
G01X-4045960Y-3037880D02*
G01X-6877550Y-3037880D01*
G01X-7228580Y-2636560D02*
G01X-6862820Y-3002320D01*
G01X-4031231Y-3002320D01*
G54D54*
G01X-5028940Y-2941360D02*
G01X-5704580Y-2941360D01*
G01X-7165080Y-2616240D02*
G01X-7165080Y-2466380D01*
G01X-5704580Y-3103920D02*
G01X-5028940Y-3103920D01*
G01X-7320020Y-2684820D02*
G01X-7320020Y-2377480D01*
G01X-7233660Y-2291120D01*
G01X-7165080Y-2291120D01*
G01X-5704580Y-2941360D02*
G01X-6380220Y-2941360D01*
G01X-6839960Y-2941360D01*
G01X-5704580Y-3103920D02*
G01X-6380220Y-3103920D01*
G01X-6900920Y-3103920D01*
G01X-6839960Y-2941360D02*
G01X-6995910Y-2785410D01*
G01X-7165080Y-2616240D01*
G01X-6900920Y-3103920D02*
G01X-7106870Y-2897970D01*
G01X-7320020Y-2684820D01*
G54D59*
G01X-5925278Y-2564153D02*
G01X-5925278Y-2685373D01*
G01X-6052278Y-2564153D02*
G01X-6052278Y-2685373D01*
G01X-6179278Y-2564153D02*
G01X-6179278Y-2685373D01*
G01X-6306278Y-2564153D02*
G01X-6306278Y-2685373D01*
G54D52*
G01X-7190480Y-3396020D02*
G01X-7280757Y-3486296D01*
G01X-6380220Y-3396020D02*
G01X-7190480Y-3396020D01*
G01X-7121900Y-3449360D02*
G01X-7153757Y-3481216D01*
G01X-5493503Y-3368080D02*
G01X-5544303Y-3317280D01*
G01X-6265638Y-3396020D02*
G01X-6318978Y-3449360D01*
G01X-7121900Y-3449360D01*
G54D59*
G01X-7335523Y-1801162D02*
G01X-6990782Y-1801162D01*
G01X-7327903Y-2182162D02*
G01X-6990782Y-2182162D01*
G54D52*
G01X-6433278Y-2564153D02*
G01X-6433278Y-2695262D01*
G01X-6341567Y-2786973D01*
G01X-6052278Y-2786973D01*
G54D59*
G01X-6560278Y-2564153D02*
G01X-6560278Y-2685373D01*
G01X-7393680Y-2247940D02*
G01X-7327903Y-2182162D01*
G01X-7393680Y-2685373D02*
G01X-7393680Y-2247940D01*
G54D52*
G01X-4091680Y-3368080D02*
G01X-5493503Y-3368080D01*
G01X-4061849Y-3397911D02*
G01X-4091680Y-3368080D01*
G01X-4076440Y-3317280D02*
G01X-5440420Y-3317280D01*
G01X-3934849Y-3458871D02*
G01X-4076440Y-3317280D01*
G54D59*
G01X-6687278Y-2564153D02*
G01X-6687278Y-2685373D01*
G54D52*
G01X-7393680Y-2888573D02*
G01X-9060473Y-2888573D01*
G01X-9803937Y-3632037D01*
G01X-9563598Y-3465358D02*
G01X-9034673Y-2936433D01*
G01X-9626136Y-3378036D02*
G01X-9090400Y-2842300D01*
G01X-7449007Y-2842300D01*
G01X-7393680Y-2786973D01*
G01X-7393680Y-2990173D02*
G01X-9014753Y-2990173D01*
G01X-9436598Y-3412018D01*
G01X-9034673Y-2936433D02*
G01X-7180167Y-2936433D01*
G01X-6933683Y-3182917D01*
G01X-5544303Y-3182917D01*
G01X-7495280Y-1960920D02*
G01X-7427997Y-1893637D01*
G54D59*
G01X-7427997Y-1893637D02*
G01X-7335523Y-1801162D01*
G01X-7348223Y-2055162D02*
G01X-7444480Y-2151420D01*
G01X-6990782Y-2055162D02*
G01X-7348223Y-2055162D01*
G01X-7546080Y-2736173D02*
G01X-7596880Y-2786973D01*
G54D52*
G01X-7495280Y-2583773D02*
G01X-7495280Y-1960920D01*
G54D59*
G01X-7444480Y-2634573D02*
G01X-7495280Y-2685373D01*
G01X-7444480Y-2151420D02*
G01X-7444480Y-2634573D01*
G54D52*
G01X-9309598Y-3373918D02*
G01X-8963400Y-3027720D01*
G01X-8938000Y-3075980D02*
G01X-7698480Y-3075980D01*
G01X-9182598Y-3320578D02*
G01X-8938000Y-3075980D01*
G01X-8963400Y-3027720D02*
G01X-7645140Y-3027720D01*
G01X-7596880Y-3075980D01*
G01X-8433589Y-3231969D02*
G01X-8379200Y-3177580D01*
G01X-7495280Y-3177580D01*
G01X-8814589Y-3219269D02*
G01X-8727180Y-3131860D01*
G01X-7551160Y-3131860D01*
G01X-7495280Y-3075980D01*
G54D60*
G01X-3878320Y-3904020D02*
G01X-3807849Y-3833549D01*
G01X-3307996Y-3833549D02*
G01X-3225828Y-3915717D01*
G54D52*
G01X-2879601Y-2166161D02*
G01X-2879601Y-1907501D01*
G01X-3260601Y-1907501D02*
G01X-3260601Y-2140761D01*
G01X-3489700Y-2369860D01*
G01X-4668260Y-2369860D01*
G01X-4719060Y-2499400D02*
G01X-3352540Y-2499400D01*
G01X-3006601Y-2153461D01*
G01X-3006601Y-1907501D01*
G01X-2752601Y-2130601D02*
G01X-2752601Y-1907501D01*
G01X-5481060Y-2761020D02*
G01X-4914640Y-2761020D01*
G01X-4716520Y-2562900D01*
G01X-3276340Y-2562900D01*
G01X-2879601Y-2166161D01*
G01X-3250940Y-2628940D02*
G01X-2752601Y-2130601D01*
G01X-5569960Y-2819440D02*
G01X-4879080Y-2819440D01*
G01X-4688580Y-2628940D01*
G01X-3250940Y-2628940D01*
G54D53*
G01X-680283Y-2537110D02*
G01X-2087620Y-2537110D01*
G01X-2087620Y-927176D01*
G54D60*
G01X-3807849Y-3833549D02*
G01X-3706249Y-3833549D01*
G54D54*
G01X-3737326Y-3200440D02*
G01X-3996406Y-2941360D01*
G01X-4063740Y-3103920D02*
G01X-3804660Y-3363000D01*
G54D53*
G01X-5417303Y-3638476D02*
G01X-5417303Y-3904020D01*
G54D60*
G01X-5417303Y-3904020D02*
G01X-3878320Y-3904020D01*
G54D53*
G01X-7026757Y-3904020D02*
G01X-7026757Y-3638476D01*
G54D60*
G01X-7026757Y-3904020D02*
G01X-5417303Y-3904020D01*
G54D53*
G01X-9903818Y-3886037D02*
G01X-9903818Y-3736998D01*
G01X-9545671Y-2452174D02*
G01X-9903818Y-2452174D01*
G01X-8687590Y-3893631D02*
G01X-8687590Y-3792031D01*
G01X-9001500Y-3970225D02*
G01X-8764184Y-3970225D01*
G01X-8687590Y-3893631D01*
G01X-8237819Y-3872435D02*
G01X-8237819Y-3743141D01*
G01X-7342598Y-912162D02*
G01X-7388863Y-912162D01*
G01X-7935345Y-1458645D02*
G01X-7935345Y-1944174D01*
G01X-7388863Y-912162D02*
G01X-7935345Y-1458645D01*
G54D60*
G01X-3706249Y-3833549D02*
G01X-3307996Y-3833549D01*
G54D52*
G01X-7199796Y-4472980D02*
G01X-7199796Y-4878243D01*
G01X-7149783Y-4524567D02*
G01X-7098196Y-4472980D01*
G01X-7149783Y-4878243D02*
G01X-7149783Y-4524567D01*
G01X-6982200Y-4406940D02*
G01X-7026757Y-4362383D01*
G01X-7026757Y-4192958D01*
G01X-7027920Y-4991140D02*
G01X-7027920Y-4427260D01*
G01X-7153757Y-4301423D01*
G01X-7153757Y-4192958D01*
G54D53*
G01X-2087620Y-2537110D02*
G01X-3019410Y-2537110D01*
G01X-3195060Y-2712760D01*
G01X-4033260Y-2712760D01*
G54D54*
G01X-1882025Y-4940458D02*
G01X-2007162Y-4940458D01*
G54D52*
G01X-2007162Y-4940458D02*
G01X-2009820Y-4937800D01*
G54D54*
G01X-1922995Y-5077500D02*
G01X-2004740Y-5077500D01*
G54D60*
G01X-7518140Y-3904020D02*
G01X-7416540Y-3904020D01*
G01X-7026757Y-3904020D01*
G54D52*
G01X-7637520Y-2253020D02*
G01X-7836674Y-2452174D01*
G01X-7841754Y-2325174D02*
G01X-7678160Y-2161580D01*
G01X-7841754Y-2198174D02*
G01X-7723880Y-2080300D01*
G01X-7723880Y-1458000D01*
G01X-7432043Y-1166162D01*
G54D59*
G01X-7775325Y-2027605D02*
G01X-7775325Y-1944174D01*
G01X-8118648Y-2071174D02*
G01X-7818894Y-2071174D01*
G01X-7775325Y-2027605D01*
G01X-6990782Y-1674162D02*
G01X-7325363Y-1674162D01*
G01X-7546080Y-1894880D01*
G01X-7546080Y-2736173D01*
G01X-6990782Y-1547162D02*
G01X-7343143Y-1547162D01*
G01X-7596880Y-1800900D01*
G01X-7596880Y-2685373D01*
G54D52*
G01X-6990782Y-1420162D02*
G01X-7409183Y-1420162D01*
G01X-7637520Y-1648500D01*
G01X-7637520Y-2253020D01*
G01X-7678160Y-2161580D02*
G01X-7678160Y-1549440D01*
G01X-7421883Y-1293162D01*
G01X-6990782Y-1293162D01*
G54D57*
G01X-1189474Y-5472486D02*
G01X-1189474Y-5560346D01*
G01X-1239487Y-5472486D02*
G01X-1239487Y-5560346D01*
G01X-1189474Y-5560346D02*
G01X-1196700Y-5567572D01*
G01X-1239487Y-5560346D02*
G01X-1232260Y-5567572D01*
G01X-1232260Y-5636952D02*
G01X-1254500Y-5659192D01*
G01X-1232260Y-5567572D02*
G01X-1232260Y-5636952D01*
G01X-1196700Y-5638252D02*
G01X-1175760Y-5659192D01*
G01X-1196700Y-5567572D02*
G01X-1196700Y-5638252D01*
G54D54*
G01X-1211320Y-4650780D02*
G01X-1173845Y-4613304D01*
G01X-1173845Y-4180255D01*
G01X-1211320Y-4142780D01*
G54D57*
G01X-1297500Y-4629340D02*
G01X-1297500Y-4812032D01*
G01X-1297500Y-4357260D02*
G01X-1260520Y-4394240D01*
G01X-1260520Y-4427260D02*
G01X-1297500Y-4464240D01*
G01X-1260520Y-4394240D02*
G01X-1260520Y-4427260D01*
G01X-1297500Y-4464240D02*
G01X-1297500Y-4507120D01*
G01X-1265320Y-4597159D02*
G01X-1297500Y-4629340D01*
G01X-1265320Y-4539300D02*
G01X-1265320Y-4597159D01*
G01X-1297500Y-4507120D02*
G01X-1265320Y-4539300D01*
G04 Track End*

M02*

