G04 Layer: TopSolderMaskLayer*
G04 EasyEDA Pro v3.2.148, 2026-07-22 20:08:30*
G04 Gerber Generator version 0.3*
G04 Scale: 100 percent, Rotated: No, Reflected: No*
G04 Dimensions in millimeters*
G04 Leading zeros omitted, absolute positions, 4 integers and 5 decimals*
G04 Generated by one-click*
G04 Object Configs: Pad,Via,Track,Text,Image,Dimension,BoardOutline,BoardCutout,CopperFilled,SolidRegion,FPCStiffener,Line,PlaneZone,ComponentProperty,ComponentSilkscreen,TearDrop*
G04 Layer Configs: 1,2,3,4,5,6,7,8,9,10,11,13,14,56*
G04 Copper Areas: 0*
%FSLAX45Y45*%
%MOMM*%
%AMRoundRect*1,1,$1,$2,$3*1,1,$1,$4,$5*1,1,$1,0-$2,0-$3*1,1,$1,0-$4,0-$5*20,1,$1,$2,$3,$4,$5,0*20,1,$1,$4,$5,0-$2,0-$3,0*20,1,$1,0-$2,0-$3,0-$4,0-$5,0*20,1,$1,0-$4,0-$5,$2,$3,0*4,1,4,$2,$3,$4,$5,0-$2,0-$3,0-$4,0-$5,$2,$3,0*%
%ADD10RoundRect,0.1016X-0.27X-0.39505X-0.27X0.39505*%
%ADD11RoundRect,0.1016X-0.39505X0.27X0.39505X0.27*%
%ADD12RoundRect,0.1016X-1.188X-0.75312X-1.188X0.75312*%
%ADD13C,1.6256*%
%ADD14RoundRect,0.1016X-0.762X0.762X0.762X0.762*%
%ADD15RoundRect,0.1016X-0.3X0.2X0.3X0.2*%
%ADD16RoundRect,0.1016X-0.15X0.25999X0.15X0.25999*%
%ADD17RoundRect,0.1016X-1.0962X-1.02375X-1.0962X1.02375*%
%ADD18RoundRect,0.1014X-0.35X-0.2X-0.35X0.2*%
%ADD19RoundRect,0.1016X-0.35X-0.2X-0.35X0.2*%
%ADD20RoundRect,0.1016X-0.5X-0.6X-0.5X0.6*%
%ADD21RoundRect,0.1016X-0.2X0.35X0.2X0.35*%
%ADD22RoundRect,0.1016X-0.86399X-0.59505X-0.86399X0.59505*%
%ADD23C,4.6016*%
%ADD24RoundRect,0.1016X-0.85X-0.85X-0.85X0.85*%
%ADD25C,1.8016*%
%ADD26C,1.9016*%
%ADD27RoundRect,0.1016X-0.7874X0.9X0.7874X0.9*%
%ADD28RoundRect,0.1016X-0.37501X0.3X0.37501X0.3*%
%ADD29RoundRect,0.1016X-0.31824X0.27X0.31824X0.27*%
%ADD30RoundRect,0.1016X-0.28283X0.27X0.28283X0.27*%
%ADD31RoundRect,0.1016X-0.27X-0.28283X-0.27X0.28283*%
%ADD32RoundRect,0.1016X-0.75X-0.95X-0.75X0.95*%
%ADD33RoundRect,0.1016X-0.65X1.15X0.65X1.15*%
%ADD34RoundRect,0.10003X-0.75X0.45X0.75X0.45*%
%ADD35RoundRect,0.10003X-0.45X-0.75X-0.45X0.75*%
%ADD36RoundRect,0.1016X-0.45X-0.45X-0.45X0.45*%
%ADD37O,2.37002X1.00002*%
%ADD38O,0.68961X2.1466*%
%ADD39RoundRect,0.1X-0.35X1.5X0.35X1.5*%
%ADD40RoundRect,0.1X-1.2X2.15X1.2X2.15*%
%ADD41C,1.5*%
%ADD42RoundRect,0.1016X-0.5X1.5X0.5X1.5*%
%ADD43RoundRect,0.1016X-1.235X0.49X1.235X0.49*%
%ADD44RoundRect,0.1016X-1.235X1.8X1.235X1.8*%
%ADD45C,2.5016*%
%ADD46RoundRect,0.1016X-0.15X0.65X0.15X0.65*%
%ADD47O,1.3016X1.9016*%
%ADD48O,1.3016X2.1016*%
G75*


G04 Pad Start*
G54D10*
G01X-7342598Y-912162D03*
G01X-7342598Y-803145D03*
G01X-7215598Y-912162D03*
G01X-7215598Y-803145D03*
G01X-1955604Y-720112D03*
G01X-1955604Y-829129D03*
G54D11*
G01X-1773008Y-4940458D03*
G01X-1882025Y-4940458D03*
G54D10*
G01X-1277424Y-720112D03*
G01X-1277424Y-829129D03*
G54D11*
G01X-9903818Y-2452174D03*
G01X-10012835Y-2452174D03*
G54D10*
G01X-9001500Y-3970225D03*
G01X-9001500Y-3861208D03*
G54D12*
G01X-4062179Y-2039048D03*
G01X-4062179Y-1666938D03*
G54D10*
G01X-2360393Y-3970225D03*
G01X-2360393Y-3861208D03*
G01X-3484620Y-3861208D03*
G01X-3484620Y-3970225D03*
G01X-3811662Y-1798484D03*
G01X-3811662Y-1907501D03*
G54D13*
G01X-4282896Y-5566600D03*
G01X-4082744Y-5566600D03*
G01X-3882846Y-5566600D03*
G54D14*
G01X-3682694Y-5566600D03*
G54D13*
G01X-7391798Y-5566600D03*
G01X-7191646Y-5566600D03*
G01X-6991748Y-5566600D03*
G54D14*
G01X-6791596Y-5566600D03*
G54D13*
G01X-5837347Y-5567772D03*
G01X-5637195Y-5567772D03*
G01X-5437297Y-5567772D03*
G54D14*
G01X-5237145Y-5567772D03*
G54D15*
G01X-1773008Y-5077500D03*
G01X-1922995Y-5077500D03*
G01X-1359667Y-5077500D03*
G01X-1509654Y-5077500D03*
G01X-1270894Y-5077500D03*
G01X-1120907Y-5077500D03*
G54D16*
G01X-4030876Y-4955256D03*
G01X-3980888Y-4955256D03*
G01X-3930876Y-4955256D03*
G01X-4030876Y-4878243D03*
G01X-3980888Y-4878243D03*
G01X-3930876Y-4878243D03*
G01X-7249783Y-4955256D03*
G01X-7199796Y-4955256D03*
G01X-7149783Y-4955256D03*
G01X-7249783Y-4878243D03*
G01X-7199796Y-4878243D03*
G01X-7149783Y-4878243D03*
G54D17*
G01X-9903818Y-4358172D03*
G01X-9903818Y-3886037D03*
G54D19*
G01X-9903819Y-3378036D03*
G01X-9903819Y-3313037D03*
G54D20*
G01X-2360393Y-5151174D03*
G01X-2360393Y-4811195D03*
G54D21*
G01X-8749590Y-3378031D03*
G01X-8814589Y-3378031D03*
G01X-8498588Y-3378028D03*
G01X-8433589Y-3378028D03*
G54D19*
G01X-9903819Y-3632036D03*
G01X-9903819Y-3567037D03*
G01X-4736967Y-1800703D03*
G01X-4736967Y-1735704D03*
G01X-4736967Y-1568371D03*
G01X-4736967Y-1503373D03*
G01X-4736967Y-1336040D03*
G01X-4736967Y-1271041D03*
G01X-4736965Y-1038703D03*
G01X-4736965Y-1103701D03*
G54D22*
G01X-2106393Y-4060217D03*
G01X-2106393Y-3771216D03*
G54D23*
G01X-10270000Y-380000D03*
G01X-380000Y-380000D03*
G01X-10272500Y-5650000D03*
G01X-380000Y-5650000D03*
G54D24*
G01X-4429107Y-1038703D03*
G54D25*
G01X-4429107Y-1292703D03*
G01X-4429107Y-1546703D03*
G01X-4429107Y-1800703D03*
G54D24*
G01X-10388958Y-3378037D03*
G54D25*
G01X-10388958Y-3632037D03*
G01X-10388958Y-3886037D03*
G01X-10388958Y-4140037D03*
G54D26*
G01X-2360393Y-4492903D03*
G01X-2106393Y-4492903D03*
G54D27*
G01X-1852393Y-4492903D03*
G54D28*
G01X-407210Y-2537110D03*
G01X-282592Y-2537110D03*
G54D29*
G01X-411424Y-2829210D03*
G01X-303778Y-2829210D03*
G01X-303778Y-3083210D03*
G01X-411424Y-3083210D03*
G54D30*
G01X-593719Y-2537110D03*
G01X-680283Y-2537110D03*
G01X-593719Y-2829210D03*
G01X-680283Y-2829210D03*
G54D31*
G01X-2087620Y-817902D03*
G01X-2087620Y-731339D03*
G01X-1010480Y-5069981D03*
G01X-1010480Y-4983418D03*
G01X-1627700Y-5069981D03*
G01X-1627700Y-4983418D03*
G01X-1414584Y-817902D03*
G01X-1414584Y-731339D03*
G54D30*
G01X-8687399Y-4535311D03*
G01X-8600836Y-4535311D03*
G54D31*
G01X-8237819Y-3958998D03*
G01X-8237819Y-3872435D03*
G54D30*
G01X-680283Y-3083210D03*
G01X-593719Y-3083210D03*
G54D31*
G01X-1377447Y-4856418D03*
G01X-1377447Y-4942981D03*
G01X-1253114Y-4856418D03*
G01X-1253114Y-4942981D03*
G54D32*
G01X-1681284Y-1174619D03*
G01X-1681284Y-374621D03*
G01X-1003104Y-1174619D03*
G01X-1003104Y-374621D03*
G54D33*
G01X-7942320Y-3478214D03*
G01X-7942320Y-4353219D03*
G54D34*
G01X-6990782Y-785162D03*
G01X-6990782Y-912162D03*
G01X-6990782Y-1039162D03*
G01X-6990782Y-1166162D03*
G01X-6990782Y-1293162D03*
G01X-6990782Y-1420162D03*
G01X-6990782Y-1547162D03*
G01X-6990782Y-1674162D03*
G01X-6990782Y-1801162D03*
G01X-6990782Y-1928162D03*
G01X-6990782Y-2055162D03*
G01X-6990782Y-2182162D03*
G01X-6990782Y-2309162D03*
G01X-6990782Y-2436162D03*
G54D35*
G01X-6814278Y-2564153D03*
G01X-6687278Y-2564153D03*
G01X-6560278Y-2564153D03*
G01X-6433278Y-2564153D03*
G01X-6306278Y-2564153D03*
G01X-6179278Y-2564153D03*
G01X-6052278Y-2564153D03*
G01X-5925278Y-2564153D03*
G01X-5798278Y-2564153D03*
G01X-5671278Y-2564153D03*
G01X-5544278Y-2564153D03*
G01X-5417278Y-2561156D03*
G54D34*
G01X-5240773Y-2436162D03*
G01X-5240773Y-2309162D03*
G01X-5240773Y-2182162D03*
G01X-5240773Y-2055162D03*
G01X-5240773Y-1928162D03*
G01X-5240773Y-1801162D03*
G01X-5240773Y-1674162D03*
G01X-5240773Y-1547162D03*
G01X-5240773Y-1420162D03*
G01X-5240773Y-1293162D03*
G01X-5240773Y-1166162D03*
G01X-5240773Y-1039162D03*
G01X-5240773Y-912162D03*
G01X-5240773Y-785162D03*
G54D36*
G01X-6125785Y-1697175D03*
G01X-6265790Y-1697175D03*
G01X-6405795Y-1697175D03*
G01X-6405795Y-1417165D03*
G01X-6265790Y-1417165D03*
G01X-6125785Y-1417165D03*
G01X-6125785Y-1557170D03*
G01X-6405795Y-1557170D03*
G01X-6265790Y-1557170D03*
G54D37*
G01X-8118648Y-879177D03*
G01X-8118648Y-1006177D03*
G01X-8118648Y-1133177D03*
G01X-8118648Y-1944174D03*
G01X-8118648Y-2071174D03*
G01X-8118648Y-2198174D03*
G01X-8118648Y-2325174D03*
G01X-8118648Y-2452174D03*
G01X-8118648Y-2579174D03*
G01X-9545671Y-2579174D03*
G01X-9545671Y-2452174D03*
G01X-9545671Y-2325174D03*
G01X-9545671Y-2198174D03*
G01X-9545671Y-2071174D03*
G01X-9545671Y-1944174D03*
G01X-9545671Y-1133177D03*
G01X-9545671Y-1006177D03*
G01X-9545671Y-879177D03*
G54D38*
G01X-3807849Y-3638476D03*
G01X-3934849Y-3638476D03*
G01X-4061849Y-3638476D03*
G01X-4188849Y-3638476D03*
G01X-3807849Y-4192958D03*
G01X-3934849Y-4192958D03*
G01X-4061849Y-4192958D03*
G01X-4188849Y-4192958D03*
G01X-9182598Y-3640850D03*
G01X-9309598Y-3640850D03*
G01X-9436598Y-3640850D03*
G01X-9563598Y-3640850D03*
G01X-9182598Y-4195332D03*
G01X-9309598Y-4195332D03*
G01X-9436598Y-4195332D03*
G01X-9563598Y-4195332D03*
G01X-7026757Y-3638476D03*
G01X-7153757Y-3638476D03*
G01X-7280757Y-3638476D03*
G01X-7407757Y-3638476D03*
G01X-7026757Y-4192958D03*
G01X-7153757Y-4192958D03*
G01X-7280757Y-4192958D03*
G01X-7407757Y-4192958D03*
G54D39*
G01X-9270586Y-4912504D03*
G01X-9168605Y-4912504D03*
G01X-9066599Y-4912504D03*
G01X-8964592Y-4912504D03*
G01X-8862611Y-4912504D03*
G01X-8760605Y-4912504D03*
G01X-8658599Y-4912504D03*
G01X-8556592Y-4912504D03*
G54D40*
G01X-8063604Y-5637496D03*
G01X-9763575Y-5637496D03*
G54D41*
G01X-8063604Y-5637496D03*
G01X-9763600Y-5637496D03*
G54D38*
G01X-8433590Y-3638476D03*
G01X-8560590Y-3638476D03*
G01X-8687590Y-3638476D03*
G01X-8814590Y-3638476D03*
G01X-8433590Y-4192958D03*
G01X-8560590Y-4192958D03*
G01X-8687590Y-4192958D03*
G01X-8814590Y-4192958D03*
G54D42*
G01X-2625601Y-1907501D03*
G01X-2752601Y-1907501D03*
G01X-2879601Y-1907501D03*
G01X-3006601Y-1907501D03*
G01X-3133601Y-1907501D03*
G01X-3260601Y-1907501D03*
G01X-3387601Y-1907501D03*
G01X-3514601Y-1907501D03*
G54D38*
G01X-5417303Y-3638476D03*
G01X-5544303Y-3638476D03*
G01X-5671303Y-3638476D03*
G01X-5798303Y-3638476D03*
G01X-5417303Y-4192958D03*
G01X-5544303Y-4192958D03*
G01X-5671303Y-4192958D03*
G01X-5798303Y-4192958D03*
G54D43*
G01X-2658850Y-4145714D03*
G01X-2658850Y-3915717D03*
G01X-2658850Y-3685720D03*
G54D44*
G01X-3225828Y-3915717D03*
G54D45*
G01X-2868392Y-5821100D03*
G01X-2360392Y-5821100D03*
G54D24*
G01X-4429107Y-676308D03*
G54D25*
G01X-4429107Y-422308D03*
G01X-4429107Y-168308D03*
G54D46*
G01X-1439486Y-5472486D03*
G01X-1389474Y-5472486D03*
G01X-1339487Y-5472486D03*
G01X-1289474Y-5472486D03*
G01X-1239487Y-5472486D03*
G01X-1189474Y-5472486D03*
G01X-1139512Y-5472486D03*
G01X-1089474Y-5472486D03*
G01X-1599481Y-5472486D03*
G01X-1569484Y-5472486D03*
G01X-1519471Y-5472486D03*
G01X-1489474Y-5472486D03*
G01X-1039487Y-5472486D03*
G01X-1009464Y-5472486D03*
G01X-959477Y-5472486D03*
G01X-929480Y-5472486D03*
G54D47*
G01X-831969Y-5967304D03*
G54D48*
G01X-831969Y-5549321D03*
G01X-1696992Y-5549321D03*
G54D47*
G01X-1696992Y-5967304D03*
G04 Pad End*

M02*

